{
    "asset" : {
        "generator" : "Khronos Blender glTF 2.0 I/O",
        "version" : "2.0"
    },
    "scene" : 0,
    "scenes" : [
        {
            "name" : "Scene",
            "nodes" : [
                0
            ]
        }
    ],
    "nodes" : [
        {
            "mesh" : 0,
            "name" : "Aerodactyl",
            "rotation" : [
                0.7071068286895752,
                0,
                0,
                0.7071067094802856
            ]
        }
    ],
    "materials" : [
        {
            "name" : "mat3",
            "pbrMetallicRoughness" : {
                "baseColorTexture" : {
                    "index" : 0,
                    "texCoord" : 0
                },
                "metallicFactor" : 0,
                "roughnessFactor" : 0.8945907354354858
            }
        },
        {
            "name" : "mat1",
            "pbrMetallicRoughness" : {
                "baseColorTexture" : {
                    "index" : 1,
                    "texCoord" : 0
                },
                "metallicFactor" : 0,
                "roughnessFactor" : 0.8945907354354858
            }
        },
        {
            "name" : "mat2",
            "pbrMetallicRoughness" : {
                "baseColorTexture" : {
                    "index" : 2,
                    "texCoord" : 0
                },
                "metallicFactor" : 0,
                "roughnessFactor" : 0.8945907354354858
            }
        }
    ],
    "meshes" : [
        {
            "name" : "Aerodactyl",
            "primitives" : [
                {
                    "attributes" : {
                        "POSITION" : 0,
                        "NORMAL" : 1,
                        "TEXCOORD_0" : 2
                    },
                    "indices" : 3,
                    "material" : 0
                },
                {
                    "attributes" : {
                        "POSITION" : 4,
                        "NORMAL" : 5,
                        "TEXCOORD_0" : 6
                    },
                    "indices" : 7,
                    "material" : 1
                },
                {
                    "attributes" : {
                        "POSITION" : 8,
                        "NORMAL" : 9,
                        "TEXCOORD_0" : 10
                    },
                    "indices" : 11,
                    "material" : 2
                }
            ]
        }
    ],
    "textures" : [
        {
            "source" : 0
        },
        {
            "source" : 1
        },
        {
            "source" : 2
        }
    ],
    "images" : [
        {
            "bufferView" : 4,
            "mimeType" : "image/png",
            "name" : "PteraEyeDh.tga"
        },
        {
            "bufferView" : 9,
            "mimeType" : "image/png",
            "name" : "PteraDh.tga"
        },
        {
            "bufferView" : 14,
            "mimeType" : "image/png",
            "name" : "PteraDh.tga"
        }
    ],
    "accessors" : [
        {
            "bufferView" : 0,
            "componentType" : 5126,
            "count" : 46,
            "max" : [
                2.291722059249878,
                12.990678787231445,
                -13.23022747039795
            ],
            "min" : [
                -2.291722059249878,
                9.327827453613281,
                -15.985664367675781
            ],
            "type" : "VEC3"
        },
        {
            "bufferView" : 1,
            "componentType" : 5126,
            "count" : 46,
            "type" : "VEC3"
        },
        {
            "bufferView" : 2,
            "componentType" : 5126,
            "count" : 46,
            "type" : "VEC2"
        },
        {
            "bufferView" : 3,
            "componentType" : 5123,
            "count" : 186,
            "type" : "SCALAR"
        },
        {
            "bufferView" : 5,
            "componentType" : 5126,
            "count" : 1101,
            "max" : [
                19.95290756225586,
                16.538442611694336,
                -0.075654998421669
            ],
            "min" : [
                -19.952909469604492,
                -19.442096710205078,
                -28.97347068786621
            ],
            "type" : "VEC3"
        },
        {
            "bufferView" : 6,
            "componentType" : 5126,
            "count" : 1101,
            "type" : "VEC3"
        },
        {
            "bufferView" : 7,
            "componentType" : 5126,
            "count" : 1101,
            "type" : "VEC2"
        },
        {
            "bufferView" : 8,
            "componentType" : 5123,
            "count" : 4293,
            "type" : "SCALAR"
        },
        {
            "bufferView" : 10,
            "componentType" : 5126,
            "count" : 54,
            "max" : [
                2.584252119064331,
                16.114702224731445,
                -7.0728559494018555
            ],
            "min" : [
                -2.584252119064331,
                8.673422813415527,
                -12.534453392028809
            ],
            "type" : "VEC3"
        },
        {
            "bufferView" : 11,
            "componentType" : 5126,
            "count" : 54,
            "type" : "VEC3"
        },
        {
            "bufferView" : 12,
            "componentType" : 5126,
            "count" : 54,
            "type" : "VEC2"
        },
        {
            "bufferView" : 13,
            "componentType" : 5123,
            "count" : 186,
            "type" : "SCALAR"
        }
    ],
    "bufferViews" : [
        {
            "buffer" : 0,
            "byteLength" : 552,
            "byteOffset" : 0
        },
        {
            "buffer" : 0,
            "byteLength" : 552,
            "byteOffset" : 552
        },
        {
            "buffer" : 0,
            "byteLength" : 368,
            "byteOffset" : 1104
        },
        {
            "buffer" : 0,
            "byteLength" : 372,
            "byteOffset" : 1472
        },
        {
            "buffer" : 0,
            "byteLength" : 12902,
            "byteOffset" : 1844
        },
        {
            "buffer" : 0,
            "byteLength" : 13212,
            "byteOffset" : 14748
        },
        {
            "buffer" : 0,
            "byteLength" : 13212,
            "byteOffset" : 27960
        },
        {
            "buffer" : 0,
            "byteLength" : 8808,
            "byteOffset" : 41172
        },
        {
            "buffer" : 0,
            "byteLength" : 8586,
            "byteOffset" : 49980
        },
        {
            "buffer" : 0,
            "byteLength" : 33157,
            "byteOffset" : 58568
        },
        {
            "buffer" : 0,
            "byteLength" : 648,
            "byteOffset" : 91728
        },
        {
            "buffer" : 0,
            "byteLength" : 648,
            "byteOffset" : 92376
        },
        {
            "buffer" : 0,
            "byteLength" : 432,
            "byteOffset" : 93024
        },
        {
            "buffer" : 0,
            "byteLength" : 372,
            "byteOffset" : 93456
        },
        {
            "buffer" : 0,
            "byteLength" : 33157,
            "byteOffset" : 93828
        }
    ],
    "buffers" : [
        {
            "byteLength" : 126988,
            "uri" : "data:application/octet-stream;base64,"
        }
    ]
}
