{
    "asset" : {
        "generator" : "Khronos Blender glTF 2.0 I/O",
        "version" : "2.0"
    },
    "scene" : 0,
    "scenes" : [
        {
            "name" : "Scene",
            "nodes" : [
                0
            ]
        }
    ],
    "nodes" : [
        {
            "mesh" : 0,
            "name" : "AlakazamF",
            "rotation" : [
                0.7071068286895752,
                0,
                0,
                0.7071067094802856
            ]
        }
    ],
    "materials" : [
        {
            "name" : "Material__91",
            "pbrMetallicRoughness" : {
                "baseColorTexture" : {
                    "index" : 0,
                    "texCoord" : 0
                },
                "metallicFactor" : 0,
                "roughnessFactor" : 0.5
            }
        },
        {
            "name" : "Material__93",
            "pbrMetallicRoughness" : {
                "baseColorTexture" : {
                    "index" : 1,
                    "texCoord" : 0
                },
                "metallicFactor" : 0,
                "roughnessFactor" : 0.5
            }
        },
        {
            "name" : "Material__92",
            "pbrMetallicRoughness" : {}
        }
    ],
    "meshes" : [
        {
            "name" : "AlakazamF",
            "primitives" : [
                {
                    "attributes" : {
                        "POSITION" : 0,
                        "NORMAL" : 1,
                        "TEXCOORD_0" : 2
                    },
                    "indices" : 3,
                    "material" : 0
                },
                {
                    "attributes" : {
                        "POSITION" : 4,
                        "NORMAL" : 5,
                        "TEXCOORD_0" : 6
                    },
                    "indices" : 7,
                    "material" : 1
                },
                {
                    "attributes" : {
                        "POSITION" : 8,
                        "NORMAL" : 9,
                        "TEXCOORD_0" : 10
                    },
                    "indices" : 7,
                    "material" : 2
                }
            ]
        }
    ],
    "textures" : [
        {
            "source" : 0
        },
        {
            "source" : 1
        }
    ],
    "images" : [
        {
            "bufferView" : 4,
            "mimeType" : "image/png",
            "name" : "pm0065_00_Body1.png.001"
        },
        {
            "bufferView" : 9,
            "mimeType" : "image/png",
            "name" : "pm0065_00_Eye1.png"
        }
    ],
    "accessors" : [
        {
            "bufferView" : 0,
            "componentType" : 5126,
            "count" : 14706,
            "max" : [
                75.4292984008789,
                52.48299789428711,
                4.999999873689376e-06
            ],
            "min" : [
                -75.4292984008789,
                -22.519800186157227,
                -150.04299926757812
            ],
            "type" : "VEC3"
        },
        {
            "bufferView" : 1,
            "componentType" : 5126,
            "count" : 14706,
            "type" : "VEC3"
        },
        {
            "bufferView" : 2,
            "componentType" : 5126,
            "count" : 14706,
            "type" : "VEC2"
        },
        {
            "bufferView" : 3,
            "componentType" : 5123,
            "count" : 14706,
            "type" : "SCALAR"
        },
        {
            "bufferView" : 5,
            "componentType" : 5126,
            "count" : 336,
            "max" : [
                13.646499633789062,
                48.555992126464844,
                -95.16728973388672
            ],
            "min" : [
                -13.646499633789062,
                35.24469757080078,
                -117.80599212646484
            ],
            "type" : "VEC3"
        },
        {
            "bufferView" : 6,
            "componentType" : 5126,
            "count" : 336,
            "type" : "VEC3"
        },
        {
            "bufferView" : 7,
            "componentType" : 5126,
            "count" : 336,
            "type" : "VEC2"
        },
        {
            "bufferView" : 8,
            "componentType" : 5123,
            "count" : 336,
            "type" : "SCALAR"
        },
        {
            "bufferView" : 10,
            "componentType" : 5126,
            "count" : 336,
            "max" : [
                13.469900131225586,
                48.367103576660156,
                -95.10749053955078
            ],
            "min" : [
                -13.469900131225586,
                35.16069030761719,
                -117.8010025024414
            ],
            "type" : "VEC3"
        },
        {
            "bufferView" : 11,
            "componentType" : 5126,
            "count" : 336,
            "type" : "VEC3"
        },
        {
            "bufferView" : 12,
            "componentType" : 5126,
            "count" : 336,
            "type" : "VEC2"
        }
    ],
    "bufferViews" : [
        {
            "buffer" : 0,
            "byteLength" : 176472,
            "byteOffset" : 0
        },
        {
            "buffer" : 0,
            "byteLength" : 176472,
            "byteOffset" : 176472
        },
        {
            "buffer" : 0,
            "byteLength" : 117648,
            "byteOffset" : 352944
        },
        {
            "buffer" : 0,
            "byteLength" : 29412,
            "byteOffset" : 470592
        },
        {
            "buffer" : 0,
            "byteLength" : 71896,
            "byteOffset" : 500004
        },
        {
            "buffer" : 0,
            "byteLength" : 4032,
            "byteOffset" : 571900
        },
        {
            "buffer" : 0,
            "byteLength" : 4032,
            "byteOffset" : 575932
        },
        {
            "buffer" : 0,
            "byteLength" : 2688,
            "byteOffset" : 579964
        },
        {
            "buffer" : 0,
            "byteLength" : 672,
            "byteOffset" : 582652
        },
        {
            "buffer" : 0,
            "byteLength" : 20414,
            "byteOffset" : 583324
        },
        {
            "buffer" : 0,
            "byteLength" : 4032,
            "byteOffset" : 603740
        },
        {
            "buffer" : 0,
            "byteLength" : 4032,
            "byteOffset" : 607772
        },
        {
            "buffer" : 0,
            "byteLength" : 2688,
            "byteOffset" : 611804
        }
    ],
    "buffers" : [
        {
            "byteLength" : 614492,
            "uri" : "data:application/octet-stream;base64,"
        }
    ]
}
