{
    "asset" : {
        "generator" : "Khronos Blender glTF 2.0 I/O",
        "version" : "2.0"
    },
    "scene" : 0,
    "scenes" : [
        {
            "name" : "Scene",
            "nodes" : [
                0
            ]
        }
    ],
    "nodes" : [
        {
            "mesh" : 0,
            "name" : "arbok",
            "rotation" : [
                1,
                0,
                0,
                -1.6292068494294654e-07
            ]
        }
    ],
    "materials" : [
        {
            "name" : "mat_0",
            "pbrMetallicRoughness" : {
                "baseColorTexture" : {
                    "index" : 0,
                    "texCoord" : 0
                },
                "metallicFactor" : 0,
                "roughnessFactor" : 0.6732679605484009
            }
        },
        {
            "name" : "mat_1",
            "pbrMetallicRoughness" : {
                "baseColorTexture" : {
                    "index" : 1,
                    "texCoord" : 0
                },
                "metallicFactor" : 0,
                "roughnessFactor" : 0.6732679605484009
            }
        },
        {
            "name" : "mat_2",
            "pbrMetallicRoughness" : {
                "baseColorTexture" : {
                    "index" : 2,
                    "texCoord" : 0
                },
                "metallicFactor" : 0,
                "roughnessFactor" : 0.6732679605484009
            }
        },
        {
            "name" : "mat_3",
            "pbrMetallicRoughness" : {
                "baseColorTexture" : {
                    "index" : 3,
                    "texCoord" : 0
                },
                "metallicFactor" : 0,
                "roughnessFactor" : 0.6732679605484009
            }
        },
        {
            "name" : "mat_4",
            "pbrMetallicRoughness" : {
                "baseColorTexture" : {
                    "index" : 4,
                    "texCoord" : 0
                },
                "metallicFactor" : 0,
                "roughnessFactor" : 0.6732679605484009
            }
        },
        {
            "name" : "mat_5",
            "pbrMetallicRoughness" : {
                "baseColorTexture" : {
                    "index" : 5,
                    "texCoord" : 0
                },
                "metallicFactor" : 0,
                "roughnessFactor" : 0.6732679605484009
            }
        },
        {
            "name" : "mat_6",
            "pbrMetallicRoughness" : {
                "baseColorTexture" : {
                    "index" : 6,
                    "texCoord" : 0
                },
                "metallicFactor" : 0,
                "roughnessFactor" : 0.6732679605484009
            }
        },
        {
            "name" : "mat_7",
            "pbrMetallicRoughness" : {
                "baseColorFactor" : [
                    0.800000011920929,
                    0.800000011920929,
                    0.800000011920929,
                    1
                ],
                "metallicFactor" : 0,
                "roughnessFactor" : 0.6732679605484009
            }
        },
        {
            "name" : "mat_8",
            "pbrMetallicRoughness" : {
                "baseColorTexture" : {
                    "index" : 7,
                    "texCoord" : 0
                },
                "metallicFactor" : 0,
                "roughnessFactor" : 0.6732679605484009
            }
        }
    ],
    "meshes" : [
        {
            "name" : "arbok",
            "primitives" : [
                {
                    "attributes" : {
                        "POSITION" : 0,
                        "NORMAL" : 1,
                        "TEXCOORD_0" : 2
                    },
                    "indices" : 3,
                    "material" : 0
                },
                {
                    "attributes" : {
                        "POSITION" : 4,
                        "NORMAL" : 5,
                        "TEXCOORD_0" : 6
                    },
                    "indices" : 7,
                    "material" : 1
                },
                {
                    "attributes" : {
                        "POSITION" : 8,
                        "NORMAL" : 9,
                        "TEXCOORD_0" : 10
                    },
                    "indices" : 11,
                    "material" : 2
                },
                {
                    "attributes" : {
                        "POSITION" : 12,
                        "NORMAL" : 13,
                        "TEXCOORD_0" : 14
                    },
                    "indices" : 15,
                    "material" : 3
                },
                {
                    "attributes" : {
                        "POSITION" : 16,
                        "NORMAL" : 17,
                        "TEXCOORD_0" : 18
                    },
                    "indices" : 19,
                    "material" : 4
                },
                {
                    "attributes" : {
                        "POSITION" : 20,
                        "NORMAL" : 21,
                        "TEXCOORD_0" : 22
                    },
                    "indices" : 23,
                    "material" : 5
                },
                {
                    "attributes" : {
                        "POSITION" : 24,
                        "NORMAL" : 25,
                        "TEXCOORD_0" : 26
                    },
                    "indices" : 27,
                    "material" : 6
                },
                {
                    "attributes" : {
                        "POSITION" : 28,
                        "NORMAL" : 29,
                        "TEXCOORD_0" : 30
                    },
                    "indices" : 31,
                    "material" : 7
                },
                {
                    "attributes" : {
                        "POSITION" : 32,
                        "NORMAL" : 33,
                        "TEXCOORD_0" : 34
                    },
                    "indices" : 35,
                    "material" : 8
                }
            ]
        }
    ],
    "textures" : [
        {
            "source" : 0
        },
        {
            "source" : 1
        },
        {
            "source" : 2
        },
        {
            "source" : 3
        },
        {
            "source" : 4
        },
        {
            "source" : 5
        },
        {
            "source" : 6
        },
        {
            "source" : 7
        }
    ],
    "images" : [
        {
            "bufferView" : 4,
            "mimeType" : "image/png",
            "name" : "arbok_0_0.tga"
        },
        {
            "bufferView" : 9,
            "mimeType" : "image/png",
            "name" : "arbok_0_1.tga"
        },
        {
            "bufferView" : 14,
            "mimeType" : "image/png",
            "name" : "arbok_0_2.tga"
        },
        {
            "bufferView" : 19,
            "mimeType" : "image/png",
            "name" : "arbok_0_3.tga"
        },
        {
            "bufferView" : 24,
            "mimeType" : "image/png",
            "name" : "arbok_0_4.tga"
        },
        {
            "bufferView" : 29,
            "mimeType" : "image/png",
            "name" : "arbok_0_5.tga"
        },
        {
            "bufferView" : 34,
            "mimeType" : "image/png",
            "name" : "arbok_0_6.tga"
        },
        {
            "bufferView" : 43,
            "mimeType" : "image/png",
            "name" : "arbok_0_7.tga"
        }
    ],
    "accessors" : [
        {
            "bufferView" : 0,
            "componentType" : 5126,
            "count" : 338,
            "max" : [
                2.08705997467041,
                -0.005140000022947788,
                16.555999755859375
            ],
            "min" : [
                -3.3325700759887695,
                -6.278079986572266,
                -6.63484001159668
            ],
            "type" : "VEC3"
        },
        {
            "bufferView" : 1,
            "componentType" : 5126,
            "count" : 338,
            "type" : "VEC3"
        },
        {
            "bufferView" : 2,
            "componentType" : 5126,
            "count" : 338,
            "type" : "VEC2"
        },
        {
            "bufferView" : 3,
            "componentType" : 5123,
            "count" : 702,
            "type" : "SCALAR"
        },
        {
            "bufferView" : 5,
            "componentType" : 5126,
            "count" : 51,
            "max" : [
                4.198379993438721,
                -5.384990215301514,
                -3.8972699642181396
            ],
            "min" : [
                -6.394700050354004,
                -12.155799865722656,
                -12.079099655151367
            ],
            "type" : "VEC3"
        },
        {
            "bufferView" : 6,
            "componentType" : 5126,
            "count" : 51,
            "type" : "VEC3"
        },
        {
            "bufferView" : 7,
            "componentType" : 5126,
            "count" : 51,
            "type" : "VEC2"
        },
        {
            "bufferView" : 8,
            "componentType" : 5123,
            "count" : 210,
            "type" : "SCALAR"
        },
        {
            "bufferView" : 10,
            "componentType" : 5126,
            "count" : 92,
            "max" : [
                4.198379993438721,
                -5.201000213623047,
                -4.988580226898193
            ],
            "min" : [
                -6.394700050354004,
                -11.132399559020996,
                -12.079099655151367
            ],
            "type" : "VEC3"
        },
        {
            "bufferView" : 11,
            "componentType" : 5126,
            "count" : 92,
            "type" : "VEC3"
        },
        {
            "bufferView" : 12,
            "componentType" : 5126,
            "count" : 92,
            "type" : "VEC2"
        },
        {
            "bufferView" : 13,
            "componentType" : 5123,
            "count" : 399,
            "type" : "SCALAR"
        },
        {
            "bufferView" : 15,
            "componentType" : 5126,
            "count" : 26,
            "max" : [
                0.589713990688324,
                -7.371150016784668,
                -12.164400100708008
            ],
            "min" : [
                -2.6826798915863037,
                -9.811659812927246,
                -14.546199798583984
            ],
            "type" : "VEC3"
        },
        {
            "bufferView" : 16,
            "componentType" : 5126,
            "count" : 26,
            "type" : "VEC3"
        },
        {
            "bufferView" : 17,
            "componentType" : 5126,
            "count" : 26,
            "type" : "VEC2"
        },
        {
            "bufferView" : 18,
            "componentType" : 5123,
            "count" : 81,
            "type" : "SCALAR"
        },
        {
            "bufferView" : 20,
            "componentType" : 5126,
            "count" : 101,
            "max" : [
                0.613286018371582,
                -7.2998199462890625,
                -10.669500350952148
            ],
            "min" : [
                -2.709059953689575,
                -11.038999557495117,
                -14.502300262451172
            ],
            "type" : "VEC3"
        },
        {
            "bufferView" : 21,
            "componentType" : 5126,
            "count" : 101,
            "type" : "VEC3"
        },
        {
            "bufferView" : 22,
            "componentType" : 5126,
            "count" : 101,
            "type" : "VEC2"
        },
        {
            "bufferView" : 23,
            "componentType" : 5123,
            "count" : 237,
            "type" : "SCALAR"
        },
        {
            "bufferView" : 25,
            "componentType" : 5126,
            "count" : 16,
            "max" : [
                0.589713990688324,
                -9.67236042022705,
                -11.992199897766113
            ],
            "min" : [
                -2.6826798915863037,
                -11.038999557495117,
                -13.688199996948242
            ],
            "type" : "VEC3"
        },
        {
            "bufferView" : 26,
            "componentType" : 5126,
            "count" : 16,
            "type" : "VEC3"
        },
        {
            "bufferView" : 27,
            "componentType" : 5126,
            "count" : 16,
            "type" : "VEC2"
        },
        {
            "bufferView" : 28,
            "componentType" : 5123,
            "count" : 42,
            "type" : "SCALAR"
        },
        {
            "bufferView" : 30,
            "componentType" : 5126,
            "count" : 5,
            "max" : [
                -0.5468149781227112,
                -9.572830200195312,
                -14.46500015258789
            ],
            "min" : [
                -1.5463299751281738,
                -9.940400123596191,
                -14.546199798583984
            ],
            "type" : "VEC3"
        },
        {
            "bufferView" : 31,
            "componentType" : 5126,
            "count" : 5,
            "type" : "VEC3"
        },
        {
            "bufferView" : 32,
            "componentType" : 5126,
            "count" : 5,
            "type" : "VEC2"
        },
        {
            "bufferView" : 33,
            "componentType" : 5123,
            "count" : 9,
            "type" : "SCALAR"
        },
        {
            "bufferView" : 35,
            "componentType" : 5126,
            "count" : 3,
            "max" : [
                -0.8479509949684143,
                -7.433650016784668,
                -13.034700393676758
            ],
            "min" : [
                -0.8611029982566833,
                -7.574090003967285,
                -13.192299842834473
            ],
            "type" : "VEC3"
        },
        {
            "bufferView" : 36,
            "componentType" : 5126,
            "count" : 3,
            "type" : "VEC3"
        },
        {
            "bufferView" : 37,
            "componentType" : 5126,
            "count" : 3,
            "type" : "VEC2"
        },
        {
            "bufferView" : 38,
            "componentType" : 5123,
            "count" : 3,
            "type" : "SCALAR"
        },
        {
            "bufferView" : 39,
            "componentType" : 5126,
            "count" : 44,
            "max" : [
                -0.9311360120773315,
                -8.430419921875,
                -12.344900131225586
            ],
            "min" : [
                -1.1586799621582031,
                -9.755350112915039,
                -13.264200210571289
            ],
            "type" : "VEC3"
        },
        {
            "bufferView" : 40,
            "componentType" : 5126,
            "count" : 44,
            "type" : "VEC3"
        },
        {
            "bufferView" : 41,
            "componentType" : 5126,
            "count" : 44,
            "type" : "VEC2"
        },
        {
            "bufferView" : 42,
            "componentType" : 5123,
            "count" : 129,
            "type" : "SCALAR"
        }
    ],
    "bufferViews" : [
        {
            "buffer" : 0,
            "byteLength" : 4056,
            "byteOffset" : 0
        },
        {
            "buffer" : 0,
            "byteLength" : 4056,
            "byteOffset" : 4056
        },
        {
            "buffer" : 0,
            "byteLength" : 2704,
            "byteOffset" : 8112
        },
        {
            "buffer" : 0,
            "byteLength" : 1404,
            "byteOffset" : 10816
        },
        {
            "buffer" : 0,
            "byteLength" : 165,
            "byteOffset" : 12220
        },
        {
            "buffer" : 0,
            "byteLength" : 612,
            "byteOffset" : 12388
        },
        {
            "buffer" : 0,
            "byteLength" : 612,
            "byteOffset" : 13000
        },
        {
            "buffer" : 0,
            "byteLength" : 408,
            "byteOffset" : 13612
        },
        {
            "buffer" : 0,
            "byteLength" : 420,
            "byteOffset" : 14020
        },
        {
            "buffer" : 0,
            "byteLength" : 272,
            "byteOffset" : 14440
        },
        {
            "buffer" : 0,
            "byteLength" : 1104,
            "byteOffset" : 14712
        },
        {
            "buffer" : 0,
            "byteLength" : 1104,
            "byteOffset" : 15816
        },
        {
            "buffer" : 0,
            "byteLength" : 736,
            "byteOffset" : 16920
        },
        {
            "buffer" : 0,
            "byteLength" : 798,
            "byteOffset" : 17656
        },
        {
            "buffer" : 0,
            "byteLength" : 10517,
            "byteOffset" : 18456
        },
        {
            "buffer" : 0,
            "byteLength" : 312,
            "byteOffset" : 28976
        },
        {
            "buffer" : 0,
            "byteLength" : 312,
            "byteOffset" : 29288
        },
        {
            "buffer" : 0,
            "byteLength" : 208,
            "byteOffset" : 29600
        },
        {
            "buffer" : 0,
            "byteLength" : 162,
            "byteOffset" : 29808
        },
        {
            "buffer" : 0,
            "byteLength" : 899,
            "byteOffset" : 29972
        },
        {
            "buffer" : 0,
            "byteLength" : 1212,
            "byteOffset" : 30872
        },
        {
            "buffer" : 0,
            "byteLength" : 1212,
            "byteOffset" : 32084
        },
        {
            "buffer" : 0,
            "byteLength" : 808,
            "byteOffset" : 33296
        },
        {
            "buffer" : 0,
            "byteLength" : 474,
            "byteOffset" : 34104
        },
        {
            "buffer" : 0,
            "byteLength" : 75,
            "byteOffset" : 34580
        },
        {
            "buffer" : 0,
            "byteLength" : 192,
            "byteOffset" : 34656
        },
        {
            "buffer" : 0,
            "byteLength" : 192,
            "byteOffset" : 34848
        },
        {
            "buffer" : 0,
            "byteLength" : 128,
            "byteOffset" : 35040
        },
        {
            "buffer" : 0,
            "byteLength" : 84,
            "byteOffset" : 35168
        },
        {
            "buffer" : 0,
            "byteLength" : 3951,
            "byteOffset" : 35252
        },
        {
            "buffer" : 0,
            "byteLength" : 60,
            "byteOffset" : 39204
        },
        {
            "buffer" : 0,
            "byteLength" : 60,
            "byteOffset" : 39264
        },
        {
            "buffer" : 0,
            "byteLength" : 40,
            "byteOffset" : 39324
        },
        {
            "buffer" : 0,
            "byteLength" : 18,
            "byteOffset" : 39364
        },
        {
            "buffer" : 0,
            "byteLength" : 416,
            "byteOffset" : 39384
        },
        {
            "buffer" : 0,
            "byteLength" : 36,
            "byteOffset" : 39800
        },
        {
            "buffer" : 0,
            "byteLength" : 36,
            "byteOffset" : 39836
        },
        {
            "buffer" : 0,
            "byteLength" : 24,
            "byteOffset" : 39872
        },
        {
            "buffer" : 0,
            "byteLength" : 6,
            "byteOffset" : 39896
        },
        {
            "buffer" : 0,
            "byteLength" : 528,
            "byteOffset" : 39904
        },
        {
            "buffer" : 0,
            "byteLength" : 528,
            "byteOffset" : 40432
        },
        {
            "buffer" : 0,
            "byteLength" : 352,
            "byteOffset" : 40960
        },
        {
            "buffer" : 0,
            "byteLength" : 258,
            "byteOffset" : 41312
        },
        {
            "buffer" : 0,
            "byteLength" : 75,
            "byteOffset" : 41572
        }
    ],
    "buffers" : [
        {
            "byteLength" : 41648,
            "uri" : "data:application/octet-stream;base64,"
        }
    ]
}
