{
    "asset" : {
        "generator" : "Khronos Blender glTF 2.0 I/O",
        "version" : "2.0"
    },
    "scene" : 0,
    "scenes" : [
        {
            "name" : "Scene",
            "nodes" : [
                0
            ]
        }
    ],
    "nodes" : [
        {
            "mesh" : 0,
            "name" : "Arcanine",
            "rotation" : [
                0.7071068286895752,
                0,
                0,
                0.7071067094802856
            ]
        }
    ],
    "materials" : [
        {
            "name" : "mat3.001",
            "pbrMetallicRoughness" : {
                "baseColorTexture" : {
                    "index" : 0,
                    "texCoord" : 0
                },
                "metallicFactor" : 0,
                "roughnessFactor" : 0.8945907354354858
            }
        },
        {
            "alphaMode" : "BLEND",
            "name" : "mat2.001",
            "pbrMetallicRoughness" : {
                "baseColorTexture" : {
                    "index" : 1,
                    "texCoord" : 0
                },
                "metallicFactor" : 0,
                "roughnessFactor" : 0.8945907354354858
            }
        },
        {
            "name" : "mat1.001",
            "pbrMetallicRoughness" : {
                "baseColorTexture" : {
                    "index" : 2,
                    "texCoord" : 0
                },
                "metallicFactor" : 0,
                "roughnessFactor" : 0.8945907354354858
            }
        }
    ],
    "meshes" : [
        {
            "name" : "Arcanine",
            "primitives" : [
                {
                    "attributes" : {
                        "POSITION" : 0,
                        "NORMAL" : 1,
                        "TEXCOORD_0" : 2
                    },
                    "indices" : 3,
                    "material" : 0
                },
                {
                    "attributes" : {
                        "POSITION" : 4,
                        "NORMAL" : 5,
                        "TEXCOORD_0" : 6
                    },
                    "indices" : 7,
                    "material" : 1
                },
                {
                    "attributes" : {
                        "POSITION" : 8,
                        "NORMAL" : 9,
                        "TEXCOORD_0" : 10
                    },
                    "indices" : 11,
                    "material" : 2
                }
            ]
        }
    ],
    "textures" : [
        {
            "source" : 0
        },
        {
            "source" : 1
        },
        {
            "source" : 2
        }
    ],
    "images" : [
        {
            "bufferView" : 4,
            "mimeType" : "image/png",
            "name" : "WindieEyeDh.tga.001"
        },
        {
            "bufferView" : 9,
            "mimeType" : "image/png",
            "name" : "WindieHairDh.tga.001"
        },
        {
            "bufferView" : 14,
            "mimeType" : "image/png",
            "name" : "WindieDh.tga.001"
        }
    ],
    "accessors" : [
        {
            "bufferView" : 0,
            "componentType" : 5126,
            "count" : 26,
            "max" : [
                2.359234094619751,
                9.275500297546387,
                -14.693275451660156
            ],
            "min" : [
                -2.359231948852539,
                7.4228692054748535,
                -16.256040573120117
            ],
            "type" : "VEC3"
        },
        {
            "bufferView" : 1,
            "componentType" : 5126,
            "count" : 26,
            "type" : "VEC3"
        },
        {
            "bufferView" : 2,
            "componentType" : 5126,
            "count" : 26,
            "type" : "VEC2"
        },
        {
            "bufferView" : 3,
            "componentType" : 5123,
            "count" : 78,
            "type" : "SCALAR"
        },
        {
            "bufferView" : 5,
            "componentType" : 5126,
            "count" : 122,
            "max" : [
                6.22300910949707,
                9.22934341430664,
                -4.626498222351074
            ],
            "min" : [
                -6.223010063171387,
                2.5944199562072754,
                -21.165790557861328
            ],
            "type" : "VEC3"
        },
        {
            "bufferView" : 6,
            "componentType" : 5126,
            "count" : 122,
            "type" : "VEC3"
        },
        {
            "bufferView" : 7,
            "componentType" : 5126,
            "count" : 122,
            "type" : "VEC2"
        },
        {
            "bufferView" : 8,
            "componentType" : 5123,
            "count" : 252,
            "type" : "SCALAR"
        },
        {
            "bufferView" : 10,
            "componentType" : 5126,
            "count" : 1392,
            "max" : [
                5.5252580642700195,
                10.930244445800781,
                9.999999974752427e-07
            ],
            "min" : [
                -5.5252580642700195,
                -24.77103042602539,
                -20.00620460510254
            ],
            "type" : "VEC3"
        },
        {
            "bufferView" : 11,
            "componentType" : 5126,
            "count" : 1392,
            "type" : "VEC3"
        },
        {
            "bufferView" : 12,
            "componentType" : 5126,
            "count" : 1392,
            "type" : "VEC2"
        },
        {
            "bufferView" : 13,
            "componentType" : 5123,
            "count" : 4902,
            "type" : "SCALAR"
        }
    ],
    "bufferViews" : [
        {
            "buffer" : 0,
            "byteLength" : 312,
            "byteOffset" : 0
        },
        {
            "buffer" : 0,
            "byteLength" : 312,
            "byteOffset" : 312
        },
        {
            "buffer" : 0,
            "byteLength" : 208,
            "byteOffset" : 624
        },
        {
            "buffer" : 0,
            "byteLength" : 156,
            "byteOffset" : 832
        },
        {
            "buffer" : 0,
            "byteLength" : 11004,
            "byteOffset" : 988
        },
        {
            "buffer" : 0,
            "byteLength" : 1464,
            "byteOffset" : 11992
        },
        {
            "buffer" : 0,
            "byteLength" : 1464,
            "byteOffset" : 13456
        },
        {
            "buffer" : 0,
            "byteLength" : 976,
            "byteOffset" : 14920
        },
        {
            "buffer" : 0,
            "byteLength" : 504,
            "byteOffset" : 15896
        },
        {
            "buffer" : 0,
            "byteLength" : 2426,
            "byteOffset" : 16400
        },
        {
            "buffer" : 0,
            "byteLength" : 16704,
            "byteOffset" : 18828
        },
        {
            "buffer" : 0,
            "byteLength" : 16704,
            "byteOffset" : 35532
        },
        {
            "buffer" : 0,
            "byteLength" : 11136,
            "byteOffset" : 52236
        },
        {
            "buffer" : 0,
            "byteLength" : 9804,
            "byteOffset" : 63372
        },
        {
            "buffer" : 0,
            "byteLength" : 23546,
            "byteOffset" : 73176
        }
    ],
    "buffers" : [
        {
            "byteLength" : 96724,
            "uri" : "data:application/octet-stream;base64,"
        }
    ]
}
