{
    "asset" : {
        "generator" : "Khronos Blender glTF 2.0 I/O",
        "version" : "2.0"
    },
    "scene" : 0,
    "scenes" : [
        {
            "name" : "Scene",
            "nodes" : [
                0
            ]
        }
    ],
    "nodes" : [
        {
            "mesh" : 0,
            "name" : "freezer",
            "rotation" : [
                1,
                0,
                0,
                -1.6292068494294654e-07
            ],
            "translation" : [
                0,
                6.725125789642334,
                0
            ]
        }
    ],
    "materials" : [
        {
            "name" : "mat_0.001",
            "pbrMetallicRoughness" : {
                "baseColorTexture" : {
                    "index" : 0,
                    "texCoord" : 0
                },
                "metallicFactor" : 0,
                "roughnessFactor" : 0.6732679605484009
            }
        },
        {
            "name" : "mat_1.001",
            "pbrMetallicRoughness" : {
                "baseColorTexture" : {
                    "index" : 1,
                    "texCoord" : 0
                },
                "metallicFactor" : 0,
                "roughnessFactor" : 0.6732679605484009
            }
        },
        {
            "name" : "mat_2.001",
            "pbrMetallicRoughness" : {
                "baseColorTexture" : {
                    "index" : 2,
                    "texCoord" : 0
                },
                "metallicFactor" : 0,
                "roughnessFactor" : 0.6732679605484009
            }
        }
    ],
    "meshes" : [
        {
            "name" : "freezer",
            "primitives" : [
                {
                    "attributes" : {
                        "POSITION" : 0,
                        "NORMAL" : 1,
                        "TEXCOORD_0" : 2
                    },
                    "indices" : 3,
                    "material" : 0
                },
                {
                    "attributes" : {
                        "POSITION" : 4,
                        "NORMAL" : 5,
                        "TEXCOORD_0" : 6
                    },
                    "indices" : 7,
                    "material" : 1
                },
                {
                    "attributes" : {
                        "POSITION" : 8,
                        "NORMAL" : 9,
                        "TEXCOORD_0" : 10
                    },
                    "indices" : 11,
                    "material" : 2
                }
            ]
        }
    ],
    "textures" : [
        {
            "source" : 0
        },
        {
            "source" : 1
        },
        {
            "source" : 2
        }
    ],
    "images" : [
        {
            "bufferView" : 4,
            "mimeType" : "image/png",
            "name" : "freezer_0_0.tga"
        },
        {
            "bufferView" : 9,
            "mimeType" : "image/png",
            "name" : "freezer_0_0.tga"
        },
        {
            "bufferView" : 14,
            "mimeType" : "image/png",
            "name" : "freezer_0_2.tga"
        }
    ],
    "accessors" : [
        {
            "bufferView" : 0,
            "componentType" : 5126,
            "count" : 2170,
            "max" : [
                19.44118309020996,
                24.34832191467285,
                27.514572143554688
            ],
            "min" : [
                -19.44118309020996,
                -20.885364532470703,
                -8.023526191711426
            ],
            "type" : "VEC3"
        },
        {
            "bufferView" : 1,
            "componentType" : 5126,
            "count" : 2170,
            "type" : "VEC3"
        },
        {
            "bufferView" : 2,
            "componentType" : 5126,
            "count" : 2170,
            "type" : "VEC2"
        },
        {
            "bufferView" : 3,
            "componentType" : 5123,
            "count" : 7380,
            "type" : "SCALAR"
        },
        {
            "bufferView" : 5,
            "componentType" : 5126,
            "count" : 162,
            "max" : [
                2.404578924179077,
                -5.746335983276367,
                -2.4951438903808594
            ],
            "min" : [
                -2.404578924179077,
                -10.249262809753418,
                -6.372838973999023
            ],
            "type" : "VEC3"
        },
        {
            "bufferView" : 6,
            "componentType" : 5126,
            "count" : 162,
            "type" : "VEC3"
        },
        {
            "bufferView" : 7,
            "componentType" : 5126,
            "count" : 162,
            "type" : "VEC2"
        },
        {
            "bufferView" : 8,
            "componentType" : 5123,
            "count" : 570,
            "type" : "SCALAR"
        },
        {
            "bufferView" : 10,
            "componentType" : 5126,
            "count" : 30,
            "max" : [
                1.3850140571594238,
                -5.530648231506348,
                -5.0621418952941895
            ],
            "min" : [
                -1.3850140571594238,
                -6.880677223205566,
                -6.2362470626831055
            ],
            "type" : "VEC3"
        },
        {
            "bufferView" : 11,
            "componentType" : 5126,
            "count" : 30,
            "type" : "VEC3"
        },
        {
            "bufferView" : 12,
            "componentType" : 5126,
            "count" : 30,
            "type" : "VEC2"
        },
        {
            "bufferView" : 13,
            "componentType" : 5123,
            "count" : 102,
            "type" : "SCALAR"
        }
    ],
    "bufferViews" : [
        {
            "buffer" : 0,
            "byteLength" : 26040,
            "byteOffset" : 0
        },
        {
            "buffer" : 0,
            "byteLength" : 26040,
            "byteOffset" : 26040
        },
        {
            "buffer" : 0,
            "byteLength" : 17360,
            "byteOffset" : 52080
        },
        {
            "buffer" : 0,
            "byteLength" : 14760,
            "byteOffset" : 69440
        },
        {
            "buffer" : 0,
            "byteLength" : 8026,
            "byteOffset" : 84200
        },
        {
            "buffer" : 0,
            "byteLength" : 1944,
            "byteOffset" : 92228
        },
        {
            "buffer" : 0,
            "byteLength" : 1944,
            "byteOffset" : 94172
        },
        {
            "buffer" : 0,
            "byteLength" : 1296,
            "byteOffset" : 96116
        },
        {
            "buffer" : 0,
            "byteLength" : 1140,
            "byteOffset" : 97412
        },
        {
            "buffer" : 0,
            "byteLength" : 8026,
            "byteOffset" : 98552
        },
        {
            "buffer" : 0,
            "byteLength" : 360,
            "byteOffset" : 106580
        },
        {
            "buffer" : 0,
            "byteLength" : 360,
            "byteOffset" : 106940
        },
        {
            "buffer" : 0,
            "byteLength" : 240,
            "byteOffset" : 107300
        },
        {
            "buffer" : 0,
            "byteLength" : 204,
            "byteOffset" : 107540
        },
        {
            "buffer" : 0,
            "byteLength" : 13776,
            "byteOffset" : 107744
        }
    ],
    "buffers" : [
        {
            "byteLength" : 121520,
            "uri" : "data:application/octet-stream;base64,"
        }
    ]
}
