{
    "asset" : {
        "generator" : "Khronos Blender glTF 2.0 I/O",
        "version" : "2.0"
    },
    "scene" : 0,
    "scenes" : [
        {
            "name" : "1",
            "nodes" : [
                0
            ]
        }
    ],
    "nodes" : [
        {
            "mesh" : 0,
            "name" : "spear_mat_3",
            "rotation" : [
                0.7071068286895752,
                0,
                0,
                0.7071068286895752
            ]
        }
    ],
    "materials" : [
        {
            "doubleSided" : true,
            "name" : "mat_3",
            "pbrMetallicRoughness" : {
                "baseColorTexture" : {
                    "index" : 0,
                    "texCoord" : 0
                },
                "metallicFactor" : 0,
                "roughnessFactor" : 0.5
            }
        },
        {
            "doubleSided" : true,
            "name" : "mat_2",
            "pbrMetallicRoughness" : {
                "baseColorTexture" : {
                    "index" : 1,
                    "texCoord" : 0
                },
                "metallicFactor" : 0,
                "roughnessFactor" : 0.5
            }
        },
        {
            "doubleSided" : true,
            "name" : "mat_8",
            "pbrMetallicRoughness" : {
                "baseColorTexture" : {
                    "index" : 2,
                    "texCoord" : 0
                },
                "metallicFactor" : 0.5047619342803955,
                "roughnessFactor" : 0.34285712242126465
            }
        },
        {
            "doubleSided" : true,
            "name" : "mat_9",
            "pbrMetallicRoughness" : {
                "baseColorTexture" : {
                    "index" : 3,
                    "texCoord" : 0
                },
                "metallicFactor" : 0,
                "roughnessFactor" : 0.5
            }
        },
        {
            "alphaMode" : "BLEND",
            "doubleSided" : true,
            "name" : "mat_5",
            "pbrMetallicRoughness" : {
                "baseColorTexture" : {
                    "index" : 4,
                    "texCoord" : 0
                },
                "metallicFactor" : 0,
                "roughnessFactor" : 0.5
            }
        },
        {
            "alphaMode" : "BLEND",
            "doubleSided" : true,
            "name" : "mat_6",
            "pbrMetallicRoughness" : {
                "baseColorTexture" : {
                    "index" : 5,
                    "texCoord" : 0
                },
                "metallicFactor" : 0,
                "roughnessFactor" : 0.5
            }
        },
        {
            "doubleSided" : true,
            "name" : "mat_7",
            "pbrMetallicRoughness" : {
                "baseColorTexture" : {
                    "index" : 6,
                    "texCoord" : 0
                },
                "metallicFactor" : 0,
                "roughnessFactor" : 0.8999999761581421
            }
        },
        {
            "doubleSided" : true,
            "name" : "mat_0",
            "pbrMetallicRoughness" : {
                "baseColorTexture" : {
                    "index" : 7,
                    "texCoord" : 0
                },
                "metallicFactor" : 0,
                "roughnessFactor" : 0.5
            }
        },
        {
            "doubleSided" : true,
            "name" : "mat_1",
            "pbrMetallicRoughness" : {
                "baseColorTexture" : {
                    "index" : 8,
                    "texCoord" : 0
                },
                "metallicFactor" : 0,
                "roughnessFactor" : 0.5
            }
        }
    ],
    "meshes" : [
        {
            "name" : "spear_mat_3",
            "primitives" : [
                {
                    "attributes" : {
                        "POSITION" : 0,
                        "NORMAL" : 1,
                        "TEXCOORD_0" : 2
                    },
                    "indices" : 3,
                    "material" : 0
                },
                {
                    "attributes" : {
                        "POSITION" : 4,
                        "NORMAL" : 5,
                        "TEXCOORD_0" : 6
                    },
                    "indices" : 7,
                    "material" : 1
                },
                {
                    "attributes" : {
                        "POSITION" : 8,
                        "NORMAL" : 9,
                        "TEXCOORD_0" : 10
                    },
                    "indices" : 11,
                    "material" : 2
                },
                {
                    "attributes" : {
                        "POSITION" : 12,
                        "NORMAL" : 13,
                        "TEXCOORD_0" : 14
                    },
                    "indices" : 15,
                    "material" : 3
                },
                {
                    "attributes" : {
                        "POSITION" : 16,
                        "NORMAL" : 17,
                        "TEXCOORD_0" : 18
                    },
                    "indices" : 19,
                    "material" : 4
                },
                {
                    "attributes" : {
                        "POSITION" : 20,
                        "NORMAL" : 21,
                        "TEXCOORD_0" : 22
                    },
                    "indices" : 19,
                    "material" : 5
                },
                {
                    "attributes" : {
                        "POSITION" : 23,
                        "NORMAL" : 24,
                        "TEXCOORD_0" : 25
                    },
                    "indices" : 26,
                    "material" : 6
                },
                {
                    "attributes" : {
                        "POSITION" : 27,
                        "NORMAL" : 28,
                        "TEXCOORD_0" : 29
                    },
                    "indices" : 30,
                    "material" : 7
                },
                {
                    "attributes" : {
                        "POSITION" : 31,
                        "NORMAL" : 32,
                        "TEXCOORD_0" : 33
                    },
                    "indices" : 34,
                    "material" : 8
                }
            ]
        }
    ],
    "textures" : [
        {
            "source" : 0
        },
        {
            "source" : 1
        },
        {
            "source" : 2
        },
        {
            "source" : 3
        },
        {
            "sampler" : 0,
            "source" : 4
        },
        {
            "source" : 5
        },
        {
            "source" : 6
        },
        {
            "source" : 7
        },
        {
            "source" : 8
        }
    ],
    "images" : [
        {
            "bufferView" : 4,
            "mimeType" : "image/png",
            "name" : "spear_0_3.tga"
        },
        {
            "bufferView" : 9,
            "mimeType" : "image/png",
            "name" : "spear_0_2.tga"
        },
        {
            "bufferView" : 14,
            "mimeType" : "image/png",
            "name" : "spear_0_8.tga"
        },
        {
            "bufferView" : 19,
            "mimeType" : "image/png",
            "name" : "spear_1_9.tga"
        },
        {
            "bufferView" : 24,
            "mimeType" : "image/png",
            "name" : "spear_0_5.tga"
        },
        {
            "bufferView" : 28,
            "mimeType" : "image/png",
            "name" : "spear_0_6.tga"
        },
        {
            "bufferView" : 33,
            "mimeType" : "image/png",
            "name" : "spear_0_7.tga"
        },
        {
            "bufferView" : 38,
            "mimeType" : "image/png",
            "name" : "spear_0_0.tga"
        },
        {
            "bufferView" : 43,
            "mimeType" : "image/png",
            "name" : "spear_0_1.tga"
        }
    ],
    "accessors" : [
        {
            "bufferView" : 0,
            "componentType" : 5126,
            "count" : 30,
            "max" : [
                1.3833600282669067,
                0.9790809750556946,
                5.00098991394043
            ],
            "min" : [
                -1.3833600282669067,
                -1.6007399559020996,
                4.017549991607666
            ],
            "type" : "VEC3"
        },
        {
            "bufferView" : 1,
            "componentType" : 5126,
            "count" : 30,
            "type" : "VEC3"
        },
        {
            "bufferView" : 2,
            "componentType" : 5126,
            "count" : 30,
            "type" : "VEC2"
        },
        {
            "bufferView" : 3,
            "componentType" : 5123,
            "count" : 96,
            "type" : "SCALAR"
        },
        {
            "bufferView" : 5,
            "componentType" : 5126,
            "count" : 40,
            "max" : [
                1.841040015220642,
                1.0704699754714966,
                4.303599834442139
            ],
            "min" : [
                -1.841040015220642,
                -2.35903000831604,
                0.9641749858856201
            ],
            "type" : "VEC3"
        },
        {
            "bufferView" : 6,
            "componentType" : 5126,
            "count" : 40,
            "type" : "VEC3"
        },
        {
            "bufferView" : 7,
            "componentType" : 5126,
            "count" : 40,
            "type" : "VEC2"
        },
        {
            "bufferView" : 8,
            "componentType" : 5123,
            "count" : 96,
            "type" : "SCALAR"
        },
        {
            "bufferView" : 10,
            "componentType" : 5126,
            "count" : 40,
            "max" : [
                3.4687600135803223,
                6.213170051574707,
                6.080309867858887
            ],
            "min" : [
                -3.2968499660491943,
                -0.2340250015258789,
                -2.196619987487793
            ],
            "type" : "VEC3"
        },
        {
            "bufferView" : 11,
            "componentType" : 5126,
            "count" : 40,
            "type" : "VEC3"
        },
        {
            "bufferView" : 12,
            "componentType" : 5126,
            "count" : 40,
            "type" : "VEC2"
        },
        {
            "bufferView" : 13,
            "componentType" : 5123,
            "count" : 102,
            "type" : "SCALAR"
        },
        {
            "bufferView" : 15,
            "componentType" : 5126,
            "count" : 68,
            "max" : [
                1.3852299451828003,
                2.4705100059509277,
                -2.418879985809326
            ],
            "min" : [
                -1.3852299451828003,
                1.3302500247955322,
                -3.802989959716797
            ],
            "type" : "VEC3"
        },
        {
            "bufferView" : 16,
            "componentType" : 5126,
            "count" : 68,
            "type" : "VEC3"
        },
        {
            "bufferView" : 17,
            "componentType" : 5126,
            "count" : 68,
            "type" : "VEC2"
        },
        {
            "bufferView" : 18,
            "componentType" : 5123,
            "count" : 342,
            "type" : "SCALAR"
        },
        {
            "bufferView" : 20,
            "componentType" : 5126,
            "count" : 12,
            "max" : [
                6.0345001220703125,
                1.5478999614715576,
                0.2806519865989685
            ],
            "min" : [
                -6.0345001220703125,
                -3.3208398818969727,
                -6.581520080566406
            ],
            "type" : "VEC3"
        },
        {
            "bufferView" : 21,
            "componentType" : 5126,
            "count" : 12,
            "type" : "VEC3"
        },
        {
            "bufferView" : 22,
            "componentType" : 5126,
            "count" : 12,
            "type" : "VEC2"
        },
        {
            "bufferView" : 23,
            "componentType" : 5123,
            "count" : 24,
            "type" : "SCALAR"
        },
        {
            "bufferView" : 25,
            "componentType" : 5126,
            "count" : 12,
            "max" : [
                5.459670066833496,
                0.23052899539470673,
                2.280280113220215
            ],
            "min" : [
                -5.459670066833496,
                -4.010980129241943,
                -4.352069854736328
            ],
            "type" : "VEC3"
        },
        {
            "bufferView" : 26,
            "componentType" : 5126,
            "count" : 12,
            "type" : "VEC3"
        },
        {
            "bufferView" : 27,
            "componentType" : 5126,
            "count" : 12,
            "type" : "VEC2"
        },
        {
            "bufferView" : 29,
            "componentType" : 5126,
            "count" : 281,
            "max" : [
                4.413569927215576,
                3.6042098999023438,
                5.349890232086182
            ],
            "min" : [
                -4.41165018081665,
                0.002360000042244792,
                -4.42080020904541
            ],
            "type" : "VEC3"
        },
        {
            "bufferView" : 30,
            "componentType" : 5126,
            "count" : 281,
            "type" : "VEC3"
        },
        {
            "bufferView" : 31,
            "componentType" : 5126,
            "count" : 281,
            "type" : "VEC2"
        },
        {
            "bufferView" : 32,
            "componentType" : 5123,
            "count" : 738,
            "type" : "SCALAR"
        },
        {
            "bufferView" : 34,
            "componentType" : 5126,
            "count" : 147,
            "max" : [
                1.3312100172042847,
                2.553410053253174,
                0.8148639798164368
            ],
            "min" : [
                -1.3312100172042847,
                -1.4025800228118896,
                -3.9755699634552
            ],
            "type" : "VEC3"
        },
        {
            "bufferView" : 35,
            "componentType" : 5126,
            "count" : 147,
            "type" : "VEC3"
        },
        {
            "bufferView" : 36,
            "componentType" : 5126,
            "count" : 147,
            "type" : "VEC2"
        },
        {
            "bufferView" : 37,
            "componentType" : 5123,
            "count" : 588,
            "type" : "SCALAR"
        },
        {
            "bufferView" : 39,
            "componentType" : 5126,
            "count" : 40,
            "max" : [
                1.841040015220642,
                1.0704699754714966,
                3.34335994720459
            ],
            "min" : [
                -1.841040015220642,
                -2.35903000831604,
                -0.022172000259160995
            ],
            "type" : "VEC3"
        },
        {
            "bufferView" : 40,
            "componentType" : 5126,
            "count" : 40,
            "type" : "VEC3"
        },
        {
            "bufferView" : 41,
            "componentType" : 5126,
            "count" : 40,
            "type" : "VEC2"
        },
        {
            "bufferView" : 42,
            "componentType" : 5123,
            "count" : 96,
            "type" : "SCALAR"
        }
    ],
    "bufferViews" : [
        {
            "buffer" : 0,
            "byteLength" : 360,
            "byteOffset" : 0
        },
        {
            "buffer" : 0,
            "byteLength" : 360,
            "byteOffset" : 360
        },
        {
            "buffer" : 0,
            "byteLength" : 240,
            "byteOffset" : 720
        },
        {
            "buffer" : 0,
            "byteLength" : 192,
            "byteOffset" : 960
        },
        {
            "buffer" : 0,
            "byteLength" : 282,
            "byteOffset" : 1152
        },
        {
            "buffer" : 0,
            "byteLength" : 480,
            "byteOffset" : 1436
        },
        {
            "buffer" : 0,
            "byteLength" : 480,
            "byteOffset" : 1916
        },
        {
            "buffer" : 0,
            "byteLength" : 320,
            "byteOffset" : 2396
        },
        {
            "buffer" : 0,
            "byteLength" : 192,
            "byteOffset" : 2716
        },
        {
            "buffer" : 0,
            "byteLength" : 347,
            "byteOffset" : 2908
        },
        {
            "buffer" : 0,
            "byteLength" : 480,
            "byteOffset" : 3256
        },
        {
            "buffer" : 0,
            "byteLength" : 480,
            "byteOffset" : 3736
        },
        {
            "buffer" : 0,
            "byteLength" : 320,
            "byteOffset" : 4216
        },
        {
            "buffer" : 0,
            "byteLength" : 204,
            "byteOffset" : 4536
        },
        {
            "buffer" : 0,
            "byteLength" : 76,
            "byteOffset" : 4740
        },
        {
            "buffer" : 0,
            "byteLength" : 816,
            "byteOffset" : 4816
        },
        {
            "buffer" : 0,
            "byteLength" : 816,
            "byteOffset" : 5632
        },
        {
            "buffer" : 0,
            "byteLength" : 544,
            "byteOffset" : 6448
        },
        {
            "buffer" : 0,
            "byteLength" : 684,
            "byteOffset" : 6992
        },
        {
            "buffer" : 0,
            "byteLength" : 3489,
            "byteOffset" : 7676
        },
        {
            "buffer" : 0,
            "byteLength" : 144,
            "byteOffset" : 11168
        },
        {
            "buffer" : 0,
            "byteLength" : 144,
            "byteOffset" : 11312
        },
        {
            "buffer" : 0,
            "byteLength" : 96,
            "byteOffset" : 11456
        },
        {
            "buffer" : 0,
            "byteLength" : 48,
            "byteOffset" : 11552
        },
        {
            "buffer" : 0,
            "byteLength" : 8052,
            "byteOffset" : 11600
        },
        {
            "buffer" : 0,
            "byteLength" : 144,
            "byteOffset" : 19652
        },
        {
            "buffer" : 0,
            "byteLength" : 144,
            "byteOffset" : 19796
        },
        {
            "buffer" : 0,
            "byteLength" : 96,
            "byteOffset" : 19940
        },
        {
            "buffer" : 0,
            "byteLength" : 5952,
            "byteOffset" : 20036
        },
        {
            "buffer" : 0,
            "byteLength" : 3372,
            "byteOffset" : 25988
        },
        {
            "buffer" : 0,
            "byteLength" : 3372,
            "byteOffset" : 29360
        },
        {
            "buffer" : 0,
            "byteLength" : 2248,
            "byteOffset" : 32732
        },
        {
            "buffer" : 0,
            "byteLength" : 1476,
            "byteOffset" : 34980
        },
        {
            "buffer" : 0,
            "byteLength" : 75,
            "byteOffset" : 36456
        },
        {
            "buffer" : 0,
            "byteLength" : 1764,
            "byteOffset" : 36532
        },
        {
            "buffer" : 0,
            "byteLength" : 1764,
            "byteOffset" : 38296
        },
        {
            "buffer" : 0,
            "byteLength" : 1176,
            "byteOffset" : 40060
        },
        {
            "buffer" : 0,
            "byteLength" : 1176,
            "byteOffset" : 41236
        },
        {
            "buffer" : 0,
            "byteLength" : 76,
            "byteOffset" : 42412
        },
        {
            "buffer" : 0,
            "byteLength" : 480,
            "byteOffset" : 42488
        },
        {
            "buffer" : 0,
            "byteLength" : 480,
            "byteOffset" : 42968
        },
        {
            "buffer" : 0,
            "byteLength" : 320,
            "byteOffset" : 43448
        },
        {
            "buffer" : 0,
            "byteLength" : 192,
            "byteOffset" : 43768
        },
        {
            "buffer" : 0,
            "byteLength" : 361,
            "byteOffset" : 43960
        }
    ],
    "samplers" : [
        {
            "magFilter" : 9729,
            "minFilter" : 9986,
            "wrapS" : 33071,
            "wrapT" : 33071
        }
    ],
    "buffers" : [
        {
            "byteLength" : 44324,
            "uri" : "data:application/octet-stream;base64,"
        }
    ]
}
