{
    "asset" : {
        "generator" : "Khronos Blender glTF 2.0 I/O",
        "version" : "2.0"
    },
    "scene" : 0,
    "scenes" : [
        {
            "name" : "Scene",
            "nodes" : [
                0
            ]
        }
    ],
    "nodes" : [
        {
            "mesh" : 0,
            "name" : "madatsubomi",
            "rotation" : [
                1,
                0,
                0,
                -1.6292068494294654e-07
            ]
        }
    ],
    "materials" : [
        {
            "name" : "mat_0",
            "pbrMetallicRoughness" : {
                "baseColorTexture" : {
                    "index" : 0,
                    "texCoord" : 0
                },
                "metallicFactor" : 0,
                "roughnessFactor" : 0.6732679605484009
            }
        },
        {
            "name" : "mat_1",
            "pbrMetallicRoughness" : {
                "baseColorTexture" : {
                    "index" : 1,
                    "texCoord" : 0
                },
                "metallicFactor" : 0,
                "roughnessFactor" : 0.6732679605484009
            }
        },
        {
            "name" : "mat_2",
            "pbrMetallicRoughness" : {
                "baseColorTexture" : {
                    "index" : 2,
                    "texCoord" : 0
                },
                "metallicFactor" : 0,
                "roughnessFactor" : 0.6732679605484009
            }
        },
        {
            "name" : "mat_3",
            "pbrMetallicRoughness" : {
                "baseColorTexture" : {
                    "index" : 3,
                    "texCoord" : 0
                },
                "metallicFactor" : 0,
                "roughnessFactor" : 0.6732679605484009
            }
        },
        {
            "name" : "mat_4",
            "pbrMetallicRoughness" : {
                "baseColorTexture" : {
                    "index" : 4,
                    "texCoord" : 0
                },
                "metallicFactor" : 0,
                "roughnessFactor" : 0.6732679605484009
            }
        },
        {
            "name" : "mat_5",
            "pbrMetallicRoughness" : {
                "baseColorTexture" : {
                    "index" : 5,
                    "texCoord" : 0
                },
                "metallicFactor" : 0,
                "roughnessFactor" : 0.6732679605484009
            }
        },
        {
            "name" : "mat_6",
            "pbrMetallicRoughness" : {
                "baseColorTexture" : {
                    "index" : 6,
                    "texCoord" : 0
                },
                "metallicFactor" : 0,
                "roughnessFactor" : 0.6732679605484009
            }
        },
        {
            "name" : "mat_7",
            "pbrMetallicRoughness" : {
                "baseColorTexture" : {
                    "index" : 7,
                    "texCoord" : 0
                },
                "metallicFactor" : 0,
                "roughnessFactor" : 0.6732679605484009
            }
        }
    ],
    "meshes" : [
        {
            "name" : "madatsubomi",
            "primitives" : [
                {
                    "attributes" : {
                        "POSITION" : 0,
                        "NORMAL" : 1,
                        "TEXCOORD_0" : 2
                    },
                    "indices" : 3,
                    "material" : 0
                },
                {
                    "attributes" : {
                        "POSITION" : 4,
                        "NORMAL" : 5,
                        "TEXCOORD_0" : 6
                    },
                    "indices" : 7,
                    "material" : 1
                },
                {
                    "attributes" : {
                        "POSITION" : 8,
                        "NORMAL" : 9,
                        "TEXCOORD_0" : 10
                    },
                    "indices" : 11,
                    "material" : 2
                },
                {
                    "attributes" : {
                        "POSITION" : 12,
                        "NORMAL" : 13,
                        "TEXCOORD_0" : 14
                    },
                    "indices" : 15,
                    "material" : 3
                },
                {
                    "attributes" : {
                        "POSITION" : 16,
                        "NORMAL" : 17,
                        "TEXCOORD_0" : 18
                    },
                    "indices" : 19,
                    "material" : 4
                },
                {
                    "attributes" : {
                        "POSITION" : 20,
                        "NORMAL" : 21,
                        "TEXCOORD_0" : 22
                    },
                    "indices" : 23,
                    "material" : 5
                },
                {
                    "attributes" : {
                        "POSITION" : 24,
                        "NORMAL" : 25,
                        "TEXCOORD_0" : 26
                    },
                    "indices" : 27,
                    "material" : 6
                },
                {
                    "attributes" : {
                        "POSITION" : 28,
                        "NORMAL" : 29,
                        "TEXCOORD_0" : 30
                    },
                    "indices" : 31,
                    "material" : 7
                }
            ]
        }
    ],
    "textures" : [
        {
            "source" : 0
        },
        {
            "source" : 1
        },
        {
            "source" : 2
        },
        {
            "source" : 3
        },
        {
            "source" : 4
        },
        {
            "source" : 5
        },
        {
            "source" : 6
        },
        {
            "source" : 7
        }
    ],
    "images" : [
        {
            "bufferView" : 4,
            "mimeType" : "image/png",
            "name" : "madatsubomi_0_0.tga"
        },
        {
            "bufferView" : 9,
            "mimeType" : "image/png",
            "name" : "madatsubomi_0_1.tga"
        },
        {
            "bufferView" : 14,
            "mimeType" : "image/png",
            "name" : "madatsubomi_0_2.tga"
        },
        {
            "bufferView" : 19,
            "mimeType" : "image/png",
            "name" : "madatsubomi_0_0.tga"
        },
        {
            "bufferView" : 24,
            "mimeType" : "image/png",
            "name" : "madatsubomi_0_4.tga"
        },
        {
            "bufferView" : 29,
            "mimeType" : "image/png",
            "name" : "madatsubomi_0_5.tga"
        },
        {
            "bufferView" : 34,
            "mimeType" : "image/png",
            "name" : "madatsubomi_0_4.tga"
        },
        {
            "bufferView" : 39,
            "mimeType" : "image/png",
            "name" : "madatsubomi_0_7.tga"
        }
    ],
    "accessors" : [
        {
            "bufferView" : 0,
            "componentType" : 5126,
            "count" : 398,
            "max" : [
                1.1906800270080566,
                -0.08356700092554092,
                1.2074400186538696
            ],
            "min" : [
                -1.1918400526046753,
                -5.327829837799072,
                0.38033899664878845
            ],
            "type" : "VEC3"
        },
        {
            "bufferView" : 1,
            "componentType" : 5126,
            "count" : 398,
            "type" : "VEC3"
        },
        {
            "bufferView" : 2,
            "componentType" : 5126,
            "count" : 398,
            "type" : "VEC2"
        },
        {
            "bufferView" : 3,
            "componentType" : 5123,
            "count" : 777,
            "type" : "SCALAR"
        },
        {
            "bufferView" : 5,
            "componentType" : 5126,
            "count" : 75,
            "max" : [
                0.6412490010261536,
                -4.752620220184326,
                1.1138099431991577
            ],
            "min" : [
                -0.7654719948768616,
                -6.612199783325195,
                -0.7473189830780029
            ],
            "type" : "VEC3"
        },
        {
            "bufferView" : 6,
            "componentType" : 5126,
            "count" : 75,
            "type" : "VEC3"
        },
        {
            "bufferView" : 7,
            "componentType" : 5126,
            "count" : 75,
            "type" : "VEC2"
        },
        {
            "bufferView" : 8,
            "componentType" : 5123,
            "count" : 252,
            "type" : "SCALAR"
        },
        {
            "bufferView" : 10,
            "componentType" : 5126,
            "count" : 20,
            "max" : [
                0.625128984451294,
                -5.4892401695251465,
                0.3406299948692322
            ],
            "min" : [
                -0.7509040236473083,
                -6.376283168792725,
                -0.5724084973335266
            ],
            "type" : "VEC3"
        },
        {
            "bufferView" : 11,
            "componentType" : 5126,
            "count" : 20,
            "type" : "VEC3"
        },
        {
            "bufferView" : 12,
            "componentType" : 5126,
            "count" : 20,
            "type" : "VEC2"
        },
        {
            "bufferView" : 13,
            "componentType" : 5123,
            "count" : 36,
            "type" : "SCALAR"
        },
        {
            "bufferView" : 15,
            "componentType" : 5126,
            "count" : 7,
            "max" : [
                -0.017020000144839287,
                -5.256649971008301,
                1.0141700506210327
            ],
            "min" : [
                -0.10416799783706665,
                -5.7677202224731445,
                0.32616400718688965
            ],
            "type" : "VEC3"
        },
        {
            "bufferView" : 16,
            "componentType" : 5126,
            "count" : 7,
            "type" : "VEC3"
        },
        {
            "bufferView" : 17,
            "componentType" : 5126,
            "count" : 7,
            "type" : "VEC2"
        },
        {
            "bufferView" : 18,
            "componentType" : 5123,
            "count" : 9,
            "type" : "SCALAR"
        },
        {
            "bufferView" : 20,
            "componentType" : 5126,
            "count" : 32,
            "max" : [
                0.3985289931297302,
                -4.532889366149902,
                -0.17042331397533417
            ],
            "min" : [
                -0.5306450128555298,
                -5.21998929977417,
                -0.9503603577613831
            ],
            "type" : "VEC3"
        },
        {
            "bufferView" : 21,
            "componentType" : 5126,
            "count" : 32,
            "type" : "VEC3"
        },
        {
            "bufferView" : 22,
            "componentType" : 5126,
            "count" : 32,
            "type" : "VEC2"
        },
        {
            "bufferView" : 23,
            "componentType" : 5123,
            "count" : 114,
            "type" : "SCALAR"
        },
        {
            "bufferView" : 25,
            "componentType" : 5126,
            "count" : 17,
            "max" : [
                0.2910560071468353,
                -4.499459266662598,
                -0.40409332513809204
            ],
            "min" : [
                -0.4241830110549927,
                -4.978729248046875,
                -0.953860342502594
            ],
            "type" : "VEC3"
        },
        {
            "bufferView" : 26,
            "componentType" : 5126,
            "count" : 17,
            "type" : "VEC3"
        },
        {
            "bufferView" : 27,
            "componentType" : 5126,
            "count" : 17,
            "type" : "VEC2"
        },
        {
            "bufferView" : 28,
            "componentType" : 5123,
            "count" : 72,
            "type" : "SCALAR"
        },
        {
            "bufferView" : 30,
            "componentType" : 5126,
            "count" : 16,
            "max" : [
                0.39000698924064636,
                -4.499459266662598,
                -0.24888530373573303
            ],
            "min" : [
                -0.5226050019264221,
                -5.112239360809326,
                -0.953860342502594
            ],
            "type" : "VEC3"
        },
        {
            "bufferView" : 31,
            "componentType" : 5126,
            "count" : 16,
            "type" : "VEC3"
        },
        {
            "bufferView" : 32,
            "componentType" : 5126,
            "count" : 16,
            "type" : "VEC2"
        },
        {
            "bufferView" : 33,
            "componentType" : 5123,
            "count" : 48,
            "type" : "SCALAR"
        },
        {
            "bufferView" : 35,
            "componentType" : 5126,
            "count" : 162,
            "max" : [
                2.6859099864959717,
                -2.6174099445343018,
                1.154919981956482
            ],
            "min" : [
                -2.5303900241851807,
                -3.691809892654419,
                0.07481899857521057
            ],
            "type" : "VEC3"
        },
        {
            "bufferView" : 36,
            "componentType" : 5126,
            "count" : 162,
            "type" : "VEC3"
        },
        {
            "bufferView" : 37,
            "componentType" : 5126,
            "count" : 162,
            "type" : "VEC2"
        },
        {
            "bufferView" : 38,
            "componentType" : 5123,
            "count" : 360,
            "type" : "SCALAR"
        }
    ],
    "bufferViews" : [
        {
            "buffer" : 0,
            "byteLength" : 4776,
            "byteOffset" : 0
        },
        {
            "buffer" : 0,
            "byteLength" : 4776,
            "byteOffset" : 4776
        },
        {
            "buffer" : 0,
            "byteLength" : 3184,
            "byteOffset" : 9552
        },
        {
            "buffer" : 0,
            "byteLength" : 1554,
            "byteOffset" : 12736
        },
        {
            "buffer" : 0,
            "byteLength" : 894,
            "byteOffset" : 14292
        },
        {
            "buffer" : 0,
            "byteLength" : 900,
            "byteOffset" : 15188
        },
        {
            "buffer" : 0,
            "byteLength" : 900,
            "byteOffset" : 16088
        },
        {
            "buffer" : 0,
            "byteLength" : 600,
            "byteOffset" : 16988
        },
        {
            "buffer" : 0,
            "byteLength" : 504,
            "byteOffset" : 17588
        },
        {
            "buffer" : 0,
            "byteLength" : 75,
            "byteOffset" : 18092
        },
        {
            "buffer" : 0,
            "byteLength" : 240,
            "byteOffset" : 18168
        },
        {
            "buffer" : 0,
            "byteLength" : 240,
            "byteOffset" : 18408
        },
        {
            "buffer" : 0,
            "byteLength" : 160,
            "byteOffset" : 18648
        },
        {
            "buffer" : 0,
            "byteLength" : 72,
            "byteOffset" : 18808
        },
        {
            "buffer" : 0,
            "byteLength" : 3465,
            "byteOffset" : 18880
        },
        {
            "buffer" : 0,
            "byteLength" : 84,
            "byteOffset" : 22348
        },
        {
            "buffer" : 0,
            "byteLength" : 84,
            "byteOffset" : 22432
        },
        {
            "buffer" : 0,
            "byteLength" : 56,
            "byteOffset" : 22516
        },
        {
            "buffer" : 0,
            "byteLength" : 18,
            "byteOffset" : 22572
        },
        {
            "buffer" : 0,
            "byteLength" : 894,
            "byteOffset" : 22592
        },
        {
            "buffer" : 0,
            "byteLength" : 384,
            "byteOffset" : 23488
        },
        {
            "buffer" : 0,
            "byteLength" : 384,
            "byteOffset" : 23872
        },
        {
            "buffer" : 0,
            "byteLength" : 256,
            "byteOffset" : 24256
        },
        {
            "buffer" : 0,
            "byteLength" : 228,
            "byteOffset" : 24512
        },
        {
            "buffer" : 0,
            "byteLength" : 272,
            "byteOffset" : 24740
        },
        {
            "buffer" : 0,
            "byteLength" : 204,
            "byteOffset" : 25012
        },
        {
            "buffer" : 0,
            "byteLength" : 204,
            "byteOffset" : 25216
        },
        {
            "buffer" : 0,
            "byteLength" : 136,
            "byteOffset" : 25420
        },
        {
            "buffer" : 0,
            "byteLength" : 144,
            "byteOffset" : 25556
        },
        {
            "buffer" : 0,
            "byteLength" : 1073,
            "byteOffset" : 25700
        },
        {
            "buffer" : 0,
            "byteLength" : 192,
            "byteOffset" : 26776
        },
        {
            "buffer" : 0,
            "byteLength" : 192,
            "byteOffset" : 26968
        },
        {
            "buffer" : 0,
            "byteLength" : 128,
            "byteOffset" : 27160
        },
        {
            "buffer" : 0,
            "byteLength" : 96,
            "byteOffset" : 27288
        },
        {
            "buffer" : 0,
            "byteLength" : 272,
            "byteOffset" : 27384
        },
        {
            "buffer" : 0,
            "byteLength" : 1944,
            "byteOffset" : 27656
        },
        {
            "buffer" : 0,
            "byteLength" : 1944,
            "byteOffset" : 29600
        },
        {
            "buffer" : 0,
            "byteLength" : 1296,
            "byteOffset" : 31544
        },
        {
            "buffer" : 0,
            "byteLength" : 720,
            "byteOffset" : 32840
        },
        {
            "buffer" : 0,
            "byteLength" : 284,
            "byteOffset" : 33560
        }
    ],
    "buffers" : [
        {
            "byteLength" : 33844,
            "uri" : "data:application/octet-stream;base64,"
        }
    ]
}
