{
    "asset" : {
        "generator" : "Khronos Blender glTF 2.0 I/O",
        "version" : "2.0"
    },
    "scene" : 0,
    "scenes" : [
        {
            "name" : "1",
            "nodes" : [
                0
            ]
        }
    ],
    "nodes" : [
        {
            "mesh" : 0,
            "name" : "fushigidane_mat_0",
            "rotation" : [
                0.7071068286895752,
                0,
                0,
                0.7071068286895752
            ]
        }
    ],
    "materials" : [
        {
            "doubleSided" : true,
            "name" : "mat_0",
            "pbrMetallicRoughness" : {
                "baseColorTexture" : {
                    "index" : 0,
                    "texCoord" : 0
                },
                "metallicFactor" : 0,
                "roughnessFactor" : 0.5
            }
        },
        {
            "doubleSided" : true,
            "name" : "mat_1",
            "pbrMetallicRoughness" : {
                "baseColorTexture" : {
                    "index" : 1,
                    "texCoord" : 0
                },
                "metallicFactor" : 0,
                "roughnessFactor" : 0.5
            }
        }
    ],
    "meshes" : [
        {
            "name" : "fushigidane_mat_0",
            "primitives" : [
                {
                    "attributes" : {
                        "POSITION" : 0,
                        "NORMAL" : 1,
                        "TEXCOORD_0" : 2
                    },
                    "indices" : 3,
                    "material" : 0
                },
                {
                    "attributes" : {
                        "POSITION" : 4,
                        "NORMAL" : 5,
                        "TEXCOORD_0" : 6
                    },
                    "indices" : 7,
                    "material" : 1
                }
            ]
        }
    ],
    "textures" : [
        {
            "source" : 0
        },
        {
            "source" : 1
        }
    ],
    "images" : [
        {
            "bufferView" : 4,
            "mimeType" : "image/png",
            "name" : "fushigidane_0_0.tga"
        },
        {
            "bufferView" : 9,
            "mimeType" : "image/png",
            "name" : "fushigidane_0_1.tga"
        }
    ],
    "accessors" : [
        {
            "bufferView" : 0,
            "componentType" : 5126,
            "count" : 14,
            "max" : [
                2.203279972076416,
                4.716659069061279,
                -2.4074819087982178
            ],
            "min" : [
                -2.203279972076416,
                3.1303439140319824,
                -4.386120796203613
            ],
            "type" : "VEC3"
        },
        {
            "bufferView" : 1,
            "componentType" : 5126,
            "count" : 14,
            "type" : "VEC3"
        },
        {
            "bufferView" : 2,
            "componentType" : 5126,
            "count" : 14,
            "type" : "VEC2"
        },
        {
            "bufferView" : 3,
            "componentType" : 5123,
            "count" : 36,
            "type" : "SCALAR"
        },
        {
            "bufferView" : 5,
            "componentType" : 5126,
            "count" : 689,
            "max" : [
                3.3689401149749756,
                4.994813919067383,
                0.06334999948740005
            ],
            "min" : [
                -3.3516600131988525,
                -3.691890001296997,
                -7.2301859855651855
            ],
            "type" : "VEC3"
        },
        {
            "bufferView" : 6,
            "componentType" : 5126,
            "count" : 689,
            "type" : "VEC3"
        },
        {
            "bufferView" : 7,
            "componentType" : 5126,
            "count" : 689,
            "type" : "VEC2"
        },
        {
            "bufferView" : 8,
            "componentType" : 5123,
            "count" : 1920,
            "type" : "SCALAR"
        }
    ],
    "bufferViews" : [
        {
            "buffer" : 0,
            "byteLength" : 168,
            "byteOffset" : 0
        },
        {
            "buffer" : 0,
            "byteLength" : 168,
            "byteOffset" : 168
        },
        {
            "buffer" : 0,
            "byteLength" : 112,
            "byteOffset" : 336
        },
        {
            "buffer" : 0,
            "byteLength" : 72,
            "byteOffset" : 448
        },
        {
            "buffer" : 0,
            "byteLength" : 9710,
            "byteOffset" : 520
        },
        {
            "buffer" : 0,
            "byteLength" : 8268,
            "byteOffset" : 10232
        },
        {
            "buffer" : 0,
            "byteLength" : 8268,
            "byteOffset" : 18500
        },
        {
            "buffer" : 0,
            "byteLength" : 5512,
            "byteOffset" : 26768
        },
        {
            "buffer" : 0,
            "byteLength" : 3840,
            "byteOffset" : 32280
        },
        {
            "buffer" : 0,
            "byteLength" : 42916,
            "byteOffset" : 36120
        }
    ],
    "buffers" : [
        {
            "byteLength" : 79036,
            "uri" : "data:application/octet-stream;base64,"
        }
    ]
}
