{
    "asset" : {
        "generator" : "Khronos Blender glTF 2.0 I/O",
        "version" : "2.0"
    },
    "scene" : 0,
    "scenes" : [
        {
            "name" : "1",
            "nodes" : [
                0
            ]
        }
    ],
    "nodes" : [
        {
            "mesh" : 0,
            "name" : "polygon1_mat1"
        }
    ],
    "materials" : [
        {
            "doubleSided" : true,
            "name" : "mat1",
            "pbrMetallicRoughness" : {
                "baseColorTexture" : {
                    "index" : 0,
                    "texCoord" : 0
                },
                "metallicFactor" : 0,
                "roughnessFactor" : 0.9047619104385376
            }
        },
        {
            "doubleSided" : true,
            "name" : "mat2",
            "pbrMetallicRoughness" : {
                "baseColorTexture" : {
                    "index" : 1,
                    "texCoord" : 0
                },
                "metallicFactor" : 0,
                "roughnessFactor" : 0.5
            }
        }
    ],
    "meshes" : [
        {
            "name" : "polygon1_mat1",
            "primitives" : [
                {
                    "attributes" : {
                        "POSITION" : 0,
                        "NORMAL" : 1,
                        "TEXCOORD_0" : 2
                    },
                    "indices" : 3,
                    "material" : 0
                },
                {
                    "attributes" : {
                        "POSITION" : 4,
                        "NORMAL" : 5,
                        "TEXCOORD_0" : 6
                    },
                    "indices" : 7,
                    "material" : 1
                }
            ]
        }
    ],
    "textures" : [
        {
            "source" : 0
        },
        {
            "source" : 1
        }
    ],
    "images" : [
        {
            "bufferView" : 4,
            "mimeType" : "image/png",
            "name" : "ButterfreeDh.tga"
        },
        {
            "bufferView" : 9,
            "mimeType" : "image/png",
            "name" : "ButterfreeEyeDh.tga"
        }
    ],
    "accessors" : [
        {
            "bufferView" : 0,
            "componentType" : 5126,
            "count" : 909,
            "max" : [
                6.032468795776367,
                9.545970916748047,
                2.8025550842285156
            ],
            "min" : [
                -6.032468795776367,
                -0.16990600526332855,
                -1.0507960319519043
            ],
            "type" : "VEC3"
        },
        {
            "bufferView" : 1,
            "componentType" : 5126,
            "count" : 909,
            "type" : "VEC3"
        },
        {
            "bufferView" : 2,
            "componentType" : 5126,
            "count" : 909,
            "type" : "VEC2"
        },
        {
            "bufferView" : 3,
            "componentType" : 5123,
            "count" : 3864,
            "type" : "SCALAR"
        },
        {
            "bufferView" : 5,
            "componentType" : 5126,
            "count" : 114,
            "max" : [
                1.0954899787902832,
                5.81220006942749,
                1.3061200380325317
            ],
            "min" : [
                -1.0954899787902832,
                4.528605937957764,
                0.48476698994636536
            ],
            "type" : "VEC3"
        },
        {
            "bufferView" : 6,
            "componentType" : 5126,
            "count" : 114,
            "type" : "VEC3"
        },
        {
            "bufferView" : 7,
            "componentType" : 5126,
            "count" : 114,
            "type" : "VEC2"
        },
        {
            "bufferView" : 8,
            "componentType" : 5123,
            "count" : 552,
            "type" : "SCALAR"
        }
    ],
    "bufferViews" : [
        {
            "buffer" : 0,
            "byteLength" : 10908,
            "byteOffset" : 0
        },
        {
            "buffer" : 0,
            "byteLength" : 10908,
            "byteOffset" : 10908
        },
        {
            "buffer" : 0,
            "byteLength" : 7272,
            "byteOffset" : 21816
        },
        {
            "buffer" : 0,
            "byteLength" : 7728,
            "byteOffset" : 29088
        },
        {
            "buffer" : 0,
            "byteLength" : 34521,
            "byteOffset" : 36816
        },
        {
            "buffer" : 0,
            "byteLength" : 1368,
            "byteOffset" : 71340
        },
        {
            "buffer" : 0,
            "byteLength" : 1368,
            "byteOffset" : 72708
        },
        {
            "buffer" : 0,
            "byteLength" : 912,
            "byteOffset" : 74076
        },
        {
            "buffer" : 0,
            "byteLength" : 1104,
            "byteOffset" : 74988
        },
        {
            "buffer" : 0,
            "byteLength" : 12644,
            "byteOffset" : 76092
        }
    ],
    "buffers" : [
        {
            "byteLength" : 88736,
            "uri" : "data:application/octet-stream;base64,"
        }
    ]
}
