{
    "asset" : {
        "generator" : "Khronos Blender glTF 2.0 I/O",
        "version" : "2.0"
    },
    "scene" : 0,
    "scenes" : [
        {
            "name" : "1",
            "nodes" : [
                0
            ]
        }
    ],
    "nodes" : [
        {
            "mesh" : 0,
            "name" : "polygon0_mat3"
        }
    ],
    "materials" : [
        {
            "doubleSided" : true,
            "name" : "mat3",
            "pbrMetallicRoughness" : {
                "baseColorTexture" : {
                    "index" : 0,
                    "texCoord" : 0
                },
                "metallicFactor" : 0,
                "roughnessFactor" : 0.5
            }
        },
        {
            "doubleSided" : true,
            "name" : "mat1",
            "pbrMetallicRoughness" : {
                "baseColorTexture" : {
                    "index" : 1,
                    "texCoord" : 0
                },
                "metallicFactor" : 0,
                "roughnessFactor" : 0.5
            }
        },
        {
            "doubleSided" : true,
            "name" : "mat2",
            "pbrMetallicRoughness" : {
                "baseColorTexture" : {
                    "index" : 2,
                    "texCoord" : 0
                },
                "metallicFactor" : 0,
                "roughnessFactor" : 0.5
            }
        }
    ],
    "meshes" : [
        {
            "name" : "polygon0_mat3",
            "primitives" : [
                {
                    "attributes" : {
                        "POSITION" : 0,
                        "NORMAL" : 1,
                        "TEXCOORD_0" : 2
                    },
                    "indices" : 3,
                    "material" : 0
                },
                {
                    "attributes" : {
                        "POSITION" : 4,
                        "NORMAL" : 5,
                        "TEXCOORD_0" : 6
                    },
                    "indices" : 7,
                    "material" : 1
                },
                {
                    "attributes" : {
                        "POSITION" : 8,
                        "NORMAL" : 9,
                        "TEXCOORD_0" : 10
                    },
                    "indices" : 11,
                    "material" : 2
                }
            ]
        }
    ],
    "textures" : [
        {
            "source" : 0
        },
        {
            "source" : 1
        },
        {
            "source" : 2
        }
    ],
    "images" : [
        {
            "bufferView" : 4,
            "mimeType" : "image/png",
            "name" : "CaterpieDh.tga"
        },
        {
            "bufferView" : 9,
            "mimeType" : "image/png",
            "name" : "CaterpieDh.tga"
        },
        {
            "bufferView" : 14,
            "mimeType" : "image/png",
            "name" : "CaterpieEyeDh.tga"
        }
    ],
    "accessors" : [
        {
            "bufferView" : 0,
            "componentType" : 5126,
            "count" : 112,
            "max" : [
                0.4945249855518341,
                1.5630309581756592,
                1.2291799783706665
            ],
            "min" : [
                -0.4945249855518341,
                1.1046710014343262,
                0.9175829887390137
            ],
            "type" : "VEC3"
        },
        {
            "bufferView" : 1,
            "componentType" : 5126,
            "count" : 112,
            "type" : "VEC3"
        },
        {
            "bufferView" : 2,
            "componentType" : 5126,
            "count" : 112,
            "type" : "VEC2"
        },
        {
            "bufferView" : 3,
            "componentType" : 5123,
            "count" : 444,
            "type" : "SCALAR"
        },
        {
            "bufferView" : 5,
            "componentType" : 5126,
            "count" : 811,
            "max" : [
                0.57082200050354,
                1.7846759557724,
                1.054738998413086
            ],
            "min" : [
                -0.57082200050354,
                -0.0014140000566840172,
                -1.0970849990844727
            ],
            "type" : "VEC3"
        },
        {
            "bufferView" : 6,
            "componentType" : 5126,
            "count" : 811,
            "type" : "VEC3"
        },
        {
            "bufferView" : 7,
            "componentType" : 5126,
            "count" : 811,
            "type" : "VEC2"
        },
        {
            "bufferView" : 8,
            "componentType" : 5123,
            "count" : 3918,
            "type" : "SCALAR"
        },
        {
            "bufferView" : 10,
            "componentType" : 5126,
            "count" : 40,
            "max" : [
                0.5807660222053528,
                1.539273977279663,
                0.891959011554718
            ],
            "min" : [
                -0.5807660222053528,
                0.9950940012931824,
                0.3788740038871765
            ],
            "type" : "VEC3"
        },
        {
            "bufferView" : 11,
            "componentType" : 5126,
            "count" : 40,
            "type" : "VEC3"
        },
        {
            "bufferView" : 12,
            "componentType" : 5126,
            "count" : 40,
            "type" : "VEC2"
        },
        {
            "bufferView" : 13,
            "componentType" : 5123,
            "count" : 144,
            "type" : "SCALAR"
        }
    ],
    "bufferViews" : [
        {
            "buffer" : 0,
            "byteLength" : 1344,
            "byteOffset" : 0
        },
        {
            "buffer" : 0,
            "byteLength" : 1344,
            "byteOffset" : 1344
        },
        {
            "buffer" : 0,
            "byteLength" : 896,
            "byteOffset" : 2688
        },
        {
            "buffer" : 0,
            "byteLength" : 888,
            "byteOffset" : 3584
        },
        {
            "buffer" : 0,
            "byteLength" : 34596,
            "byteOffset" : 4472
        },
        {
            "buffer" : 0,
            "byteLength" : 9732,
            "byteOffset" : 39068
        },
        {
            "buffer" : 0,
            "byteLength" : 9732,
            "byteOffset" : 48800
        },
        {
            "buffer" : 0,
            "byteLength" : 6488,
            "byteOffset" : 58532
        },
        {
            "buffer" : 0,
            "byteLength" : 7836,
            "byteOffset" : 65020
        },
        {
            "buffer" : 0,
            "byteLength" : 34596,
            "byteOffset" : 72856
        },
        {
            "buffer" : 0,
            "byteLength" : 480,
            "byteOffset" : 107452
        },
        {
            "buffer" : 0,
            "byteLength" : 480,
            "byteOffset" : 107932
        },
        {
            "buffer" : 0,
            "byteLength" : 320,
            "byteOffset" : 108412
        },
        {
            "buffer" : 0,
            "byteLength" : 288,
            "byteOffset" : 108732
        },
        {
            "buffer" : 0,
            "byteLength" : 3043,
            "byteOffset" : 109020
        }
    ],
    "buffers" : [
        {
            "byteLength" : 112064,
            "uri" : "data:application/octet-stream;base64,"
        }
    ]
}
