{
    "asset" : {
        "generator" : "Khronos Blender glTF 2.0 I/O",
        "version" : "2.0"
    },
    "scene" : 0,
    "scenes" : [
        {
            "name" : "Scene",
            "nodes" : [
                0
            ]
        }
    ],
    "nodes" : [
        {
            "mesh" : 0,
            "name" : "lucky",
            "rotation" : [
                1,
                0,
                0,
                -1.6292068494294654e-07
            ]
        }
    ],
    "materials" : [
        {
            "name" : "mat_0",
            "pbrMetallicRoughness" : {
                "baseColorTexture" : {
                    "index" : 0,
                    "texCoord" : 0
                },
                "metallicFactor" : 0,
                "roughnessFactor" : 0.6732679605484009
            }
        },
        {
            "name" : "mat_1",
            "pbrMetallicRoughness" : {
                "baseColorTexture" : {
                    "index" : 1,
                    "texCoord" : 0
                },
                "metallicFactor" : 0,
                "roughnessFactor" : 0.6732679605484009
            }
        },
        {
            "name" : "mat_2",
            "pbrMetallicRoughness" : {
                "baseColorTexture" : {
                    "index" : 2,
                    "texCoord" : 0
                },
                "metallicFactor" : 0,
                "roughnessFactor" : 0.6732679605484009
            }
        }
    ],
    "meshes" : [
        {
            "name" : "lucky",
            "primitives" : [
                {
                    "attributes" : {
                        "POSITION" : 0,
                        "NORMAL" : 1,
                        "TEXCOORD_0" : 2
                    },
                    "indices" : 3,
                    "material" : 0
                },
                {
                    "attributes" : {
                        "POSITION" : 4,
                        "NORMAL" : 5,
                        "TEXCOORD_0" : 6
                    },
                    "indices" : 7,
                    "material" : 1
                },
                {
                    "attributes" : {
                        "POSITION" : 8,
                        "NORMAL" : 9,
                        "TEXCOORD_0" : 10
                    },
                    "indices" : 11,
                    "material" : 2
                }
            ]
        }
    ],
    "textures" : [
        {
            "source" : 0
        },
        {
            "source" : 1
        },
        {
            "source" : 2
        }
    ],
    "images" : [
        {
            "bufferView" : 4,
            "mimeType" : "image/png",
            "name" : "lucky_0_0.tga"
        },
        {
            "bufferView" : 9,
            "mimeType" : "image/png",
            "name" : "lucky_0_1.tga"
        },
        {
            "bufferView" : 14,
            "mimeType" : "image/png",
            "name" : "lucky_0_2.tga"
        }
    ],
    "accessors" : [
        {
            "bufferView" : 0,
            "componentType" : 5126,
            "count" : 2031,
            "max" : [
                5.364141941070557,
                0.020003000274300575,
                5.430781841278076
            ],
            "min" : [
                -5.352396011352539,
                -10.287775039672852,
                -5.923957824707031
            ],
            "type" : "VEC3"
        },
        {
            "bufferView" : 1,
            "componentType" : 5126,
            "count" : 2031,
            "type" : "VEC3"
        },
        {
            "bufferView" : 2,
            "componentType" : 5126,
            "count" : 2031,
            "type" : "VEC2"
        },
        {
            "bufferView" : 3,
            "componentType" : 5123,
            "count" : 8286,
            "type" : "SCALAR"
        },
        {
            "bufferView" : 5,
            "componentType" : 5126,
            "count" : 28,
            "max" : [
                2.077307939529419,
                -8.159477233886719,
                -2.0564639568328857
            ],
            "min" : [
                -2.0767860412597656,
                -9.672942161560059,
                -3.5360209941864014
            ],
            "type" : "VEC3"
        },
        {
            "bufferView" : 6,
            "componentType" : 5126,
            "count" : 28,
            "type" : "VEC3"
        },
        {
            "bufferView" : 7,
            "componentType" : 5126,
            "count" : 28,
            "type" : "VEC2"
        },
        {
            "bufferView" : 8,
            "componentType" : 5123,
            "count" : 72,
            "type" : "SCALAR"
        },
        {
            "bufferView" : 10,
            "componentType" : 5126,
            "count" : 11,
            "max" : [
                2.077307939529419,
                -7.473718166351318,
                -2.9246389865875244
            ],
            "min" : [
                -2.0767860412597656,
                -8.468823432922363,
                -4.015317916870117
            ],
            "type" : "VEC3"
        },
        {
            "bufferView" : 11,
            "componentType" : 5126,
            "count" : 11,
            "type" : "VEC3"
        },
        {
            "bufferView" : 12,
            "componentType" : 5126,
            "count" : 11,
            "type" : "VEC2"
        },
        {
            "bufferView" : 13,
            "componentType" : 5123,
            "count" : 36,
            "type" : "SCALAR"
        }
    ],
    "bufferViews" : [
        {
            "buffer" : 0,
            "byteLength" : 24372,
            "byteOffset" : 0
        },
        {
            "buffer" : 0,
            "byteLength" : 24372,
            "byteOffset" : 24372
        },
        {
            "buffer" : 0,
            "byteLength" : 16248,
            "byteOffset" : 48744
        },
        {
            "buffer" : 0,
            "byteLength" : 16572,
            "byteOffset" : 64992
        },
        {
            "buffer" : 0,
            "byteLength" : 3871,
            "byteOffset" : 81564
        },
        {
            "buffer" : 0,
            "byteLength" : 336,
            "byteOffset" : 85436
        },
        {
            "buffer" : 0,
            "byteLength" : 336,
            "byteOffset" : 85772
        },
        {
            "buffer" : 0,
            "byteLength" : 224,
            "byteOffset" : 86108
        },
        {
            "buffer" : 0,
            "byteLength" : 144,
            "byteOffset" : 86332
        },
        {
            "buffer" : 0,
            "byteLength" : 4006,
            "byteOffset" : 86476
        },
        {
            "buffer" : 0,
            "byteLength" : 132,
            "byteOffset" : 90484
        },
        {
            "buffer" : 0,
            "byteLength" : 132,
            "byteOffset" : 90616
        },
        {
            "buffer" : 0,
            "byteLength" : 88,
            "byteOffset" : 90748
        },
        {
            "buffer" : 0,
            "byteLength" : 72,
            "byteOffset" : 90836
        },
        {
            "buffer" : 0,
            "byteLength" : 8309,
            "byteOffset" : 90908
        }
    ],
    "buffers" : [
        {
            "byteLength" : 99220,
            "uri" : "data:application/octet-stream;base64,"
        }
    ]
}
