{
    "asset" : {
        "generator" : "Khronos Blender glTF 2.0 I/O",
        "version" : "2.0"
    },
    "scene" : 0,
    "scenes" : [
        {
            "name" : "1",
            "nodes" : [
                0
            ]
        }
    ],
    "nodes" : [
        {
            "mesh" : 0,
            "name" : "lizardo_mat_0",
            "rotation" : [
                0.7071068286895752,
                0,
                0,
                0.7071068286895752
            ]
        }
    ],
    "materials" : [
        {
            "doubleSided" : true,
            "name" : "mat_0",
            "pbrMetallicRoughness" : {
                "baseColorTexture" : {
                    "index" : 0,
                    "texCoord" : 0
                },
                "metallicFactor" : 0,
                "roughnessFactor" : 0.5
            }
        },
        {
            "doubleSided" : true,
            "name" : "mat_1",
            "pbrMetallicRoughness" : {
                "baseColorTexture" : {
                    "index" : 1,
                    "texCoord" : 0
                },
                "metallicFactor" : 0,
                "roughnessFactor" : 0.5
            }
        }
    ],
    "meshes" : [
        {
            "name" : "lizardo_mat_0",
            "primitives" : [
                {
                    "attributes" : {
                        "POSITION" : 0,
                        "NORMAL" : 1,
                        "TEXCOORD_0" : 2
                    },
                    "indices" : 3,
                    "material" : 0
                },
                {
                    "attributes" : {
                        "POSITION" : 4,
                        "NORMAL" : 5,
                        "TEXCOORD_0" : 6
                    },
                    "indices" : 7,
                    "material" : 1
                }
            ]
        }
    ],
    "textures" : [
        {
            "source" : 0
        },
        {
            "source" : 1
        }
    ],
    "images" : [
        {
            "bufferView" : 4,
            "mimeType" : "image/png",
            "name" : "lizardo_0_0.tga"
        },
        {
            "bufferView" : 9,
            "mimeType" : "image/png",
            "name" : "lizardo_0_1.tga"
        }
    ],
    "accessors" : [
        {
            "bufferView" : 0,
            "componentType" : 5126,
            "count" : 1365,
            "max" : [
                5.52698278427124,
                5.110997200012207,
                0.16981999576091766
            ],
            "min" : [
                -5.52698278427124,
                -8.90977954864502,
                -10.777532577514648
            ],
            "type" : "VEC3"
        },
        {
            "bufferView" : 1,
            "componentType" : 5126,
            "count" : 1365,
            "type" : "VEC3"
        },
        {
            "bufferView" : 2,
            "componentType" : 5126,
            "count" : 1365,
            "type" : "VEC2"
        },
        {
            "bufferView" : 3,
            "componentType" : 5123,
            "count" : 4884,
            "type" : "SCALAR"
        },
        {
            "bufferView" : 5,
            "componentType" : 5126,
            "count" : 22,
            "max" : [
                1.2764229774475098,
                4.054083824157715,
                -7.8606648445129395
            ],
            "min" : [
                -1.2751410007476807,
                2.6335179805755615,
                -8.69741153717041
            ],
            "type" : "VEC3"
        },
        {
            "bufferView" : 6,
            "componentType" : 5126,
            "count" : 22,
            "type" : "VEC3"
        },
        {
            "bufferView" : 7,
            "componentType" : 5126,
            "count" : 22,
            "type" : "VEC2"
        },
        {
            "bufferView" : 8,
            "componentType" : 5123,
            "count" : 72,
            "type" : "SCALAR"
        }
    ],
    "bufferViews" : [
        {
            "buffer" : 0,
            "byteLength" : 16380,
            "byteOffset" : 0
        },
        {
            "buffer" : 0,
            "byteLength" : 16380,
            "byteOffset" : 16380
        },
        {
            "buffer" : 0,
            "byteLength" : 10920,
            "byteOffset" : 32760
        },
        {
            "buffer" : 0,
            "byteLength" : 9768,
            "byteOffset" : 43680
        },
        {
            "buffer" : 0,
            "byteLength" : 33728,
            "byteOffset" : 53448
        },
        {
            "buffer" : 0,
            "byteLength" : 264,
            "byteOffset" : 87176
        },
        {
            "buffer" : 0,
            "byteLength" : 264,
            "byteOffset" : 87440
        },
        {
            "buffer" : 0,
            "byteLength" : 176,
            "byteOffset" : 87704
        },
        {
            "buffer" : 0,
            "byteLength" : 144,
            "byteOffset" : 87880
        },
        {
            "buffer" : 0,
            "byteLength" : 22644,
            "byteOffset" : 88024
        }
    ],
    "buffers" : [
        {
            "byteLength" : 110668,
            "uri" : "data:application/octet-stream;base64,"
        }
    ]
}
