{
    "asset" : {
        "generator" : "Khronos Blender glTF 2.0 I/O",
        "version" : "2.0"
    },
    "scene" : 0,
    "scenes" : [
        {
            "name" : "Scene",
            "nodes" : [
                0
            ]
        }
    ],
    "nodes" : [
        {
            "mesh" : 0,
            "name" : "pippi",
            "rotation" : [
                1,
                0,
                0,
                -1.6292068494294654e-07
            ]
        }
    ],
    "materials" : [
        {
            "name" : "mat_0.003",
            "pbrMetallicRoughness" : {
                "baseColorTexture" : {
                    "index" : 0,
                    "texCoord" : 0
                },
                "metallicFactor" : 0,
                "roughnessFactor" : 0.6732679605484009
            }
        },
        {
            "name" : "mat_1.003",
            "pbrMetallicRoughness" : {
                "baseColorTexture" : {
                    "index" : 1,
                    "texCoord" : 0
                },
                "metallicFactor" : 0,
                "roughnessFactor" : 0.6732679605484009
            }
        },
        {
            "name" : "mat_2.003",
            "pbrMetallicRoughness" : {
                "baseColorTexture" : {
                    "index" : 2,
                    "texCoord" : 0
                },
                "metallicFactor" : 0,
                "roughnessFactor" : 0.6732679605484009
            }
        }
    ],
    "meshes" : [
        {
            "name" : "pippi",
            "primitives" : [
                {
                    "attributes" : {
                        "POSITION" : 0,
                        "NORMAL" : 1,
                        "TEXCOORD_0" : 2
                    },
                    "indices" : 3,
                    "material" : 0
                },
                {
                    "attributes" : {
                        "POSITION" : 4,
                        "NORMAL" : 5,
                        "TEXCOORD_0" : 6
                    },
                    "indices" : 7,
                    "material" : 1
                },
                {
                    "attributes" : {
                        "POSITION" : 8,
                        "NORMAL" : 9,
                        "TEXCOORD_0" : 10
                    },
                    "indices" : 11,
                    "material" : 2
                }
            ]
        }
    ],
    "textures" : [
        {
            "source" : 0
        },
        {
            "source" : 1
        },
        {
            "source" : 2
        }
    ],
    "images" : [
        {
            "bufferView" : 4,
            "mimeType" : "image/png",
            "name" : "pippi_0_0.tga"
        },
        {
            "bufferView" : 9,
            "mimeType" : "image/png",
            "name" : "pippi_0_1.tga"
        },
        {
            "bufferView" : 14,
            "mimeType" : "image/png",
            "name" : "pippi_0_2.tga"
        }
    ],
    "accessors" : [
        {
            "bufferView" : 0,
            "componentType" : 5126,
            "count" : 36,
            "max" : [
                1.2599879503250122,
                -3.3217151165008545,
                -1.7204079627990723
            ],
            "min" : [
                -1.2599879503250122,
                -4.109457969665527,
                -2.1042261123657227
            ],
            "type" : "VEC3"
        },
        {
            "bufferView" : 1,
            "componentType" : 5126,
            "count" : 36,
            "type" : "VEC3"
        },
        {
            "bufferView" : 2,
            "componentType" : 5126,
            "count" : 36,
            "type" : "VEC2"
        },
        {
            "bufferView" : 3,
            "componentType" : 5123,
            "count" : 132,
            "type" : "SCALAR"
        },
        {
            "bufferView" : 5,
            "componentType" : 5126,
            "count" : 1606,
            "max" : [
                2.930316925048828,
                -0.024948999285697937,
                5.0926690101623535
            ],
            "min" : [
                -2.930316925048828,
                -5.995563983917236,
                -2.7709720134735107
            ],
            "type" : "VEC3"
        },
        {
            "bufferView" : 6,
            "componentType" : 5126,
            "count" : 1606,
            "type" : "VEC3"
        },
        {
            "bufferView" : 7,
            "componentType" : 5126,
            "count" : 1606,
            "type" : "VEC2"
        },
        {
            "bufferView" : 8,
            "componentType" : 5123,
            "count" : 6912,
            "type" : "SCALAR"
        },
        {
            "bufferView" : 10,
            "componentType" : 5126,
            "count" : 12,
            "max" : [
                0.35436201095581055,
                -2.352591037750244,
                -2.0696730613708496
            ],
            "min" : [
                -0.35436201095581055,
                -3.337636947631836,
                -2.145587921142578
            ],
            "type" : "VEC3"
        },
        {
            "bufferView" : 11,
            "componentType" : 5126,
            "count" : 12,
            "type" : "VEC3"
        },
        {
            "bufferView" : 12,
            "componentType" : 5126,
            "count" : 12,
            "type" : "VEC2"
        },
        {
            "bufferView" : 13,
            "componentType" : 5123,
            "count" : 36,
            "type" : "SCALAR"
        }
    ],
    "bufferViews" : [
        {
            "buffer" : 0,
            "byteLength" : 432,
            "byteOffset" : 0
        },
        {
            "buffer" : 0,
            "byteLength" : 432,
            "byteOffset" : 432
        },
        {
            "buffer" : 0,
            "byteLength" : 288,
            "byteOffset" : 864
        },
        {
            "buffer" : 0,
            "byteLength" : 264,
            "byteOffset" : 1152
        },
        {
            "buffer" : 0,
            "byteLength" : 9463,
            "byteOffset" : 1416
        },
        {
            "buffer" : 0,
            "byteLength" : 19272,
            "byteOffset" : 10880
        },
        {
            "buffer" : 0,
            "byteLength" : 19272,
            "byteOffset" : 30152
        },
        {
            "buffer" : 0,
            "byteLength" : 12848,
            "byteOffset" : 49424
        },
        {
            "buffer" : 0,
            "byteLength" : 13824,
            "byteOffset" : 62272
        },
        {
            "buffer" : 0,
            "byteLength" : 34578,
            "byteOffset" : 76096
        },
        {
            "buffer" : 0,
            "byteLength" : 144,
            "byteOffset" : 110676
        },
        {
            "buffer" : 0,
            "byteLength" : 144,
            "byteOffset" : 110820
        },
        {
            "buffer" : 0,
            "byteLength" : 96,
            "byteOffset" : 110964
        },
        {
            "buffer" : 0,
            "byteLength" : 72,
            "byteOffset" : 111060
        },
        {
            "buffer" : 0,
            "byteLength" : 4747,
            "byteOffset" : 111132
        }
    ],
    "buffers" : [
        {
            "byteLength" : 115880,
            "uri" : "data:application/octet-stream;base64,"
        }
    ]
}
