{
    "asset" : {
        "generator" : "Khronos Blender glTF 2.0 I/O",
        "version" : "2.0"
    },
    "scene" : 0,
    "scenes" : [
        {
            "name" : "Scene",
            "nodes" : [
                0
            ]
        }
    ],
    "nodes" : [
        {
            "mesh" : 0,
            "name" : "polygon1",
            "rotation" : [
                0.7071068286895752,
                0,
                0,
                0.7071067094802856
            ]
        }
    ],
    "materials" : [
        {
            "name" : "mat3",
            "pbrMetallicRoughness" : {
                "baseColorTexture" : {
                    "index" : 0,
                    "texCoord" : 0
                },
                "metallicFactor" : 0,
                "roughnessFactor" : 0.9066479802131653
            }
        },
        {
            "name" : "mat10",
            "pbrMetallicRoughness" : {
                "baseColorTexture" : {
                    "index" : 1,
                    "texCoord" : 0
                },
                "metallicFactor" : 0,
                "roughnessFactor" : 0.9066479802131653
            }
        },
        {
            "name" : "mat2",
            "pbrMetallicRoughness" : {
                "baseColorTexture" : {
                    "index" : 2,
                    "texCoord" : 0
                },
                "metallicFactor" : 0,
                "roughnessFactor" : 0.9066479802131653
            }
        },
        {
            "name" : "mat4",
            "pbrMetallicRoughness" : {
                "baseColorTexture" : {
                    "index" : 3,
                    "texCoord" : 0
                },
                "metallicFactor" : 0,
                "roughnessFactor" : 0.9066479802131653
            }
        },
        {
            "name" : "mat5",
            "pbrMetallicRoughness" : {
                "baseColorTexture" : {
                    "index" : 4,
                    "texCoord" : 0
                },
                "metallicFactor" : 0,
                "roughnessFactor" : 0.9066479802131653
            }
        },
        {
            "name" : "mat1",
            "pbrMetallicRoughness" : {
                "baseColorTexture" : {
                    "index" : 5,
                    "texCoord" : 0
                },
                "metallicFactor" : 0,
                "roughnessFactor" : 0.9066479802131653
            }
        },
        {
            "name" : "mat8",
            "pbrMetallicRoughness" : {
                "baseColorTexture" : {
                    "index" : 6,
                    "texCoord" : 0
                },
                "metallicFactor" : 0,
                "roughnessFactor" : 0.9066479802131653
            }
        },
        {
            "name" : "mat9",
            "pbrMetallicRoughness" : {
                "baseColorTexture" : {
                    "index" : 7,
                    "texCoord" : 0
                },
                "metallicFactor" : 0,
                "roughnessFactor" : 0.9066479802131653
            }
        },
        {
            "name" : "mat6",
            "pbrMetallicRoughness" : {
                "baseColorTexture" : {
                    "index" : 8,
                    "texCoord" : 0
                },
                "metallicFactor" : 0,
                "roughnessFactor" : 0.9066479802131653
            }
        },
        {
            "name" : "mat7",
            "pbrMetallicRoughness" : {
                "baseColorTexture" : {
                    "index" : 9,
                    "texCoord" : 0
                },
                "metallicFactor" : 0,
                "roughnessFactor" : 0.9066479802131653
            }
        }
    ],
    "meshes" : [
        {
            "name" : "polygon1",
            "primitives" : [
                {
                    "attributes" : {
                        "POSITION" : 0,
                        "NORMAL" : 1,
                        "TEXCOORD_0" : 2
                    },
                    "indices" : 3,
                    "material" : 0
                },
                {
                    "attributes" : {
                        "POSITION" : 4,
                        "NORMAL" : 5,
                        "TEXCOORD_0" : 6
                    },
                    "indices" : 7,
                    "material" : 1
                },
                {
                    "attributes" : {
                        "POSITION" : 8,
                        "NORMAL" : 9,
                        "TEXCOORD_0" : 10
                    },
                    "indices" : 11,
                    "material" : 2
                },
                {
                    "attributes" : {
                        "POSITION" : 12,
                        "NORMAL" : 13,
                        "TEXCOORD_0" : 14
                    },
                    "indices" : 15,
                    "material" : 3
                },
                {
                    "attributes" : {
                        "POSITION" : 16,
                        "NORMAL" : 17,
                        "TEXCOORD_0" : 18
                    },
                    "indices" : 19,
                    "material" : 4
                },
                {
                    "attributes" : {
                        "POSITION" : 20,
                        "NORMAL" : 21,
                        "TEXCOORD_0" : 22
                    },
                    "indices" : 23,
                    "material" : 5
                },
                {
                    "attributes" : {
                        "POSITION" : 24,
                        "NORMAL" : 25,
                        "TEXCOORD_0" : 26
                    },
                    "indices" : 27,
                    "material" : 6
                },
                {
                    "attributes" : {
                        "POSITION" : 28,
                        "NORMAL" : 29,
                        "TEXCOORD_0" : 30
                    },
                    "indices" : 31,
                    "material" : 7
                },
                {
                    "attributes" : {
                        "POSITION" : 32,
                        "NORMAL" : 33,
                        "TEXCOORD_0" : 34
                    },
                    "indices" : 35,
                    "material" : 8
                },
                {
                    "attributes" : {
                        "POSITION" : 36,
                        "NORMAL" : 37,
                        "TEXCOORD_0" : 38
                    },
                    "indices" : 39,
                    "material" : 9
                }
            ]
        }
    ],
    "textures" : [
        {
            "source" : 0
        },
        {
            "source" : 1
        },
        {
            "source" : 2
        },
        {
            "source" : 3
        },
        {
            "source" : 4
        },
        {
            "source" : 5
        },
        {
            "source" : 6
        },
        {
            "source" : 7
        },
        {
            "source" : 8
        },
        {
            "source" : 9
        }
    ],
    "images" : [
        {
            "bufferView" : 4,
            "mimeType" : "image/png",
            "name" : "karakara_gc_hara_a.png"
        },
        {
            "bufferView" : 9,
            "mimeType" : "image/png",
            "name" : "karakara__gc_hone_a.png"
        },
        {
            "bufferView" : 14,
            "mimeType" : "image/png",
            "name" : "karakara_gc_hada_a.png"
        },
        {
            "bufferView" : 19,
            "mimeType" : "image/png",
            "name" : "karakara_gc_me.png"
        },
        {
            "bufferView" : 24,
            "mimeType" : "image/png",
            "name" : "karakara_gc_kara_a.png"
        },
        {
            "bufferView" : 29,
            "mimeType" : "image/png",
            "name" : "karakara_gc_hada_a.png"
        },
        {
            "bufferView" : 34,
            "mimeType" : "image/png",
            "name" : "karakara_gc_era_a.png"
        },
        {
            "bufferView" : 39,
            "mimeType" : "image/png",
            "name" : "karakara_gc_ura_a.png"
        },
        {
            "bufferView" : 44,
            "mimeType" : "image/png",
            "name" : "karakara_gc_kara_b.png"
        },
        {
            "bufferView" : 49,
            "mimeType" : "image/png",
            "name" : "karakara_gc_kara_c.png"
        }
    ],
    "accessors" : [
        {
            "bufferView" : 0,
            "componentType" : 5126,
            "count" : 40,
            "max" : [
                2.889878988265991,
                2.5383079051971436,
                -0.28922200202941895
            ],
            "min" : [
                -2.3792030811309814,
                -1.0962779521942139,
                -6.384484767913818
            ],
            "type" : "VEC3"
        },
        {
            "bufferView" : 1,
            "componentType" : 5126,
            "count" : 40,
            "type" : "VEC3"
        },
        {
            "bufferView" : 2,
            "componentType" : 5126,
            "count" : 40,
            "type" : "VEC2"
        },
        {
            "bufferView" : 3,
            "componentType" : 5123,
            "count" : 138,
            "type" : "SCALAR"
        },
        {
            "bufferView" : 5,
            "componentType" : 5126,
            "count" : 56,
            "max" : [
                -2.3384780883789062,
                5.92600679397583,
                -1.4574379920959473
            ],
            "min" : [
                -5.71497917175293,
                3.422576904296875,
                -7.528141975402832
            ],
            "type" : "VEC3"
        },
        {
            "bufferView" : 6,
            "componentType" : 5126,
            "count" : 56,
            "type" : "VEC3"
        },
        {
            "bufferView" : 7,
            "componentType" : 5126,
            "count" : 56,
            "type" : "VEC2"
        },
        {
            "bufferView" : 8,
            "componentType" : 5123,
            "count" : 180,
            "type" : "SCALAR"
        },
        {
            "bufferView" : 10,
            "componentType" : 5126,
            "count" : 10,
            "max" : [
                4.641104221343994,
                2.252300977706909,
                0.016979999840259552
            ],
            "min" : [
                -4.005134105682373,
                -0.3757840096950531,
                -0.2829050123691559
            ],
            "type" : "VEC3"
        },
        {
            "bufferView" : 11,
            "componentType" : 5126,
            "count" : 10,
            "type" : "VEC3"
        },
        {
            "bufferView" : 12,
            "componentType" : 5126,
            "count" : 10,
            "type" : "VEC2"
        },
        {
            "bufferView" : 13,
            "componentType" : 5123,
            "count" : 24,
            "type" : "SCALAR"
        },
        {
            "bufferView" : 15,
            "componentType" : 5126,
            "count" : 12,
            "max" : [
                1.9247620105743408,
                4.656455039978027,
                -7.0840229988098145
            ],
            "min" : [
                -2.1709139347076416,
                1.4429839849472046,
                -9.395544052124023
            ],
            "type" : "VEC3"
        },
        {
            "bufferView" : 16,
            "componentType" : 5126,
            "count" : 12,
            "type" : "VEC3"
        },
        {
            "bufferView" : 17,
            "componentType" : 5126,
            "count" : 12,
            "type" : "VEC2"
        },
        {
            "bufferView" : 18,
            "componentType" : 5123,
            "count" : 24,
            "type" : "SCALAR"
        },
        {
            "bufferView" : 20,
            "componentType" : 5126,
            "count" : 29,
            "max" : [
                1.6008909940719604,
                6.5626139640808105,
                -3.897320032119751
            ],
            "min" : [
                -2.901197910308838,
                2.276336908340454,
                -7.618084907531738
            ],
            "type" : "VEC3"
        },
        {
            "bufferView" : 21,
            "componentType" : 5126,
            "count" : 29,
            "type" : "VEC3"
        },
        {
            "bufferView" : 22,
            "componentType" : 5126,
            "count" : 29,
            "type" : "VEC2"
        },
        {
            "bufferView" : 23,
            "componentType" : 5123,
            "count" : 93,
            "type" : "SCALAR"
        },
        {
            "bufferView" : 25,
            "componentType" : 5126,
            "count" : 532,
            "max" : [
                4.641104221343994,
                5.819260120391846,
                0.013434000313282013
            ],
            "min" : [
                -4.162113189697266,
                -5.889081001281738,
                -9.769513130187988
            ],
            "type" : "VEC3"
        },
        {
            "bufferView" : 26,
            "componentType" : 5126,
            "count" : 532,
            "type" : "VEC3"
        },
        {
            "bufferView" : 27,
            "componentType" : 5126,
            "count" : 532,
            "type" : "VEC2"
        },
        {
            "bufferView" : 28,
            "componentType" : 5123,
            "count" : 1521,
            "type" : "SCALAR"
        },
        {
            "bufferView" : 30,
            "componentType" : 5126,
            "count" : 22,
            "max" : [
                3.4316980838775635,
                3.7393620014190674,
                -7.333813190460205
            ],
            "min" : [
                -3.061037063598633,
                0.34654098749160767,
                -9.995064735412598
            ],
            "type" : "VEC3"
        },
        {
            "bufferView" : 31,
            "componentType" : 5126,
            "count" : 22,
            "type" : "VEC3"
        },
        {
            "bufferView" : 32,
            "componentType" : 5126,
            "count" : 22,
            "type" : "VEC2"
        },
        {
            "bufferView" : 33,
            "componentType" : 5123,
            "count" : 78,
            "type" : "SCALAR"
        },
        {
            "bufferView" : 35,
            "componentType" : 5126,
            "count" : 16,
            "max" : [
                2.3384969234466553,
                5.269964218139648,
                -4.392924785614014
            ],
            "min" : [
                -2.1260719299316406,
                -0.8029230237007141,
                -10.205022811889648
            ],
            "type" : "VEC3"
        },
        {
            "bufferView" : 36,
            "componentType" : 5126,
            "count" : 16,
            "type" : "VEC3"
        },
        {
            "bufferView" : 37,
            "componentType" : 5126,
            "count" : 16,
            "type" : "VEC2"
        },
        {
            "bufferView" : 38,
            "componentType" : 5123,
            "count" : 36,
            "type" : "SCALAR"
        },
        {
            "bufferView" : 40,
            "componentType" : 5126,
            "count" : 54,
            "max" : [
                2.984740972518921,
                4.922372817993164,
                -5.858569145202637
            ],
            "min" : [
                -2.9458489418029785,
                -0.8029230237007141,
                -10.298829078674316
            ],
            "type" : "VEC3"
        },
        {
            "bufferView" : 41,
            "componentType" : 5126,
            "count" : 54,
            "type" : "VEC3"
        },
        {
            "bufferView" : 42,
            "componentType" : 5126,
            "count" : 54,
            "type" : "VEC2"
        },
        {
            "bufferView" : 43,
            "componentType" : 5123,
            "count" : 114,
            "type" : "SCALAR"
        },
        {
            "bufferView" : 45,
            "componentType" : 5126,
            "count" : 47,
            "max" : [
                3.4316980838775635,
                3.941127061843872,
                -7.07087516784668
            ],
            "min" : [
                -2.930280923843384,
                -0.8029230237007141,
                -12.11938762664795
            ],
            "type" : "VEC3"
        },
        {
            "bufferView" : 46,
            "componentType" : 5126,
            "count" : 47,
            "type" : "VEC3"
        },
        {
            "bufferView" : 47,
            "componentType" : 5126,
            "count" : 47,
            "type" : "VEC2"
        },
        {
            "bufferView" : 48,
            "componentType" : 5123,
            "count" : 123,
            "type" : "SCALAR"
        }
    ],
    "bufferViews" : [
        {
            "buffer" : 0,
            "byteLength" : 480,
            "byteOffset" : 0
        },
        {
            "buffer" : 0,
            "byteLength" : 480,
            "byteOffset" : 480
        },
        {
            "buffer" : 0,
            "byteLength" : 320,
            "byteOffset" : 960
        },
        {
            "buffer" : 0,
            "byteLength" : 276,
            "byteOffset" : 1280
        },
        {
            "buffer" : 0,
            "byteLength" : 453,
            "byteOffset" : 1556
        },
        {
            "buffer" : 0,
            "byteLength" : 672,
            "byteOffset" : 2012
        },
        {
            "buffer" : 0,
            "byteLength" : 672,
            "byteOffset" : 2684
        },
        {
            "buffer" : 0,
            "byteLength" : 448,
            "byteOffset" : 3356
        },
        {
            "buffer" : 0,
            "byteLength" : 360,
            "byteOffset" : 3804
        },
        {
            "buffer" : 0,
            "byteLength" : 1444,
            "byteOffset" : 4164
        },
        {
            "buffer" : 0,
            "byteLength" : 120,
            "byteOffset" : 5608
        },
        {
            "buffer" : 0,
            "byteLength" : 120,
            "byteOffset" : 5728
        },
        {
            "buffer" : 0,
            "byteLength" : 80,
            "byteOffset" : 5848
        },
        {
            "buffer" : 0,
            "byteLength" : 48,
            "byteOffset" : 5928
        },
        {
            "buffer" : 0,
            "byteLength" : 104,
            "byteOffset" : 5976
        },
        {
            "buffer" : 0,
            "byteLength" : 144,
            "byteOffset" : 6080
        },
        {
            "buffer" : 0,
            "byteLength" : 144,
            "byteOffset" : 6224
        },
        {
            "buffer" : 0,
            "byteLength" : 96,
            "byteOffset" : 6368
        },
        {
            "buffer" : 0,
            "byteLength" : 48,
            "byteOffset" : 6464
        },
        {
            "buffer" : 0,
            "byteLength" : 5689,
            "byteOffset" : 6512
        },
        {
            "buffer" : 0,
            "byteLength" : 348,
            "byteOffset" : 12204
        },
        {
            "buffer" : 0,
            "byteLength" : 348,
            "byteOffset" : 12552
        },
        {
            "buffer" : 0,
            "byteLength" : 232,
            "byteOffset" : 12900
        },
        {
            "buffer" : 0,
            "byteLength" : 186,
            "byteOffset" : 13132
        },
        {
            "buffer" : 0,
            "byteLength" : 1730,
            "byteOffset" : 13320
        },
        {
            "buffer" : 0,
            "byteLength" : 6384,
            "byteOffset" : 15052
        },
        {
            "buffer" : 0,
            "byteLength" : 6384,
            "byteOffset" : 21436
        },
        {
            "buffer" : 0,
            "byteLength" : 4256,
            "byteOffset" : 27820
        },
        {
            "buffer" : 0,
            "byteLength" : 3042,
            "byteOffset" : 32076
        },
        {
            "buffer" : 0,
            "byteLength" : 104,
            "byteOffset" : 35120
        },
        {
            "buffer" : 0,
            "byteLength" : 264,
            "byteOffset" : 35224
        },
        {
            "buffer" : 0,
            "byteLength" : 264,
            "byteOffset" : 35488
        },
        {
            "buffer" : 0,
            "byteLength" : 176,
            "byteOffset" : 35752
        },
        {
            "buffer" : 0,
            "byteLength" : 156,
            "byteOffset" : 35928
        },
        {
            "buffer" : 0,
            "byteLength" : 1517,
            "byteOffset" : 36084
        },
        {
            "buffer" : 0,
            "byteLength" : 192,
            "byteOffset" : 37604
        },
        {
            "buffer" : 0,
            "byteLength" : 192,
            "byteOffset" : 37796
        },
        {
            "buffer" : 0,
            "byteLength" : 128,
            "byteOffset" : 37988
        },
        {
            "buffer" : 0,
            "byteLength" : 72,
            "byteOffset" : 38116
        },
        {
            "buffer" : 0,
            "byteLength" : 104,
            "byteOffset" : 38188
        },
        {
            "buffer" : 0,
            "byteLength" : 648,
            "byteOffset" : 38292
        },
        {
            "buffer" : 0,
            "byteLength" : 648,
            "byteOffset" : 38940
        },
        {
            "buffer" : 0,
            "byteLength" : 432,
            "byteOffset" : 39588
        },
        {
            "buffer" : 0,
            "byteLength" : 228,
            "byteOffset" : 40020
        },
        {
            "buffer" : 0,
            "byteLength" : 1745,
            "byteOffset" : 40248
        },
        {
            "buffer" : 0,
            "byteLength" : 564,
            "byteOffset" : 41996
        },
        {
            "buffer" : 0,
            "byteLength" : 564,
            "byteOffset" : 42560
        },
        {
            "buffer" : 0,
            "byteLength" : 376,
            "byteOffset" : 43124
        },
        {
            "buffer" : 0,
            "byteLength" : 246,
            "byteOffset" : 43500
        },
        {
            "buffer" : 0,
            "byteLength" : 1310,
            "byteOffset" : 43748
        }
    ],
    "buffers" : [
        {
            "byteLength" : 45060,
            "uri" : "data:application/octet-stream;base64,"
        }
    ]
}
