{
    "asset" : {
        "generator" : "Khronos Blender glTF 2.0 I/O",
        "version" : "2.0"
    },
    "scene" : 0,
    "scenes" : [
        {
            "name" : "Scene",
            "nodes" : [
                0
            ]
        }
    ],
    "nodes" : [
        {
            "mesh" : 0,
            "name" : "jugon",
            "rotation" : [
                0.7071068286895752,
                0,
                0,
                0.7071067094802856
            ]
        }
    ],
    "materials" : [
        {
            "name" : "mat_0.001",
            "pbrMetallicRoughness" : {
                "baseColorTexture" : {
                    "index" : 0,
                    "texCoord" : 0
                },
                "metallicFactor" : 0,
                "roughnessFactor" : 0.6732679605484009
            }
        },
        {
            "name" : "mat_1.001",
            "pbrMetallicRoughness" : {
                "baseColorTexture" : {
                    "index" : 1,
                    "texCoord" : 0
                },
                "metallicFactor" : 0,
                "roughnessFactor" : 0.6732679605484009
            }
        },
        {
            "name" : "mat_2.001",
            "pbrMetallicRoughness" : {
                "baseColorFactor" : [
                    0.800000011920929,
                    0.800000011920929,
                    0.800000011920929,
                    1
                ],
                "metallicFactor" : 0,
                "roughnessFactor" : 0.6732679605484009
            }
        },
        {
            "name" : "mat_3.001",
            "pbrMetallicRoughness" : {
                "baseColorTexture" : {
                    "index" : 2,
                    "texCoord" : 0
                },
                "metallicFactor" : 0,
                "roughnessFactor" : 0.6732679605484009
            }
        },
        {
            "name" : "mat_4.001",
            "pbrMetallicRoughness" : {
                "baseColorTexture" : {
                    "index" : 3,
                    "texCoord" : 0
                },
                "metallicFactor" : 0,
                "roughnessFactor" : 0.6732679605484009
            }
        },
        {
            "name" : "mat_5.001",
            "pbrMetallicRoughness" : {
                "baseColorTexture" : {
                    "index" : 4,
                    "texCoord" : 0
                },
                "metallicFactor" : 0,
                "roughnessFactor" : 0.6732679605484009
            }
        },
        {
            "name" : "mat_6.001",
            "pbrMetallicRoughness" : {
                "baseColorTexture" : {
                    "index" : 5,
                    "texCoord" : 0
                },
                "metallicFactor" : 0,
                "roughnessFactor" : 0.6732679605484009
            }
        }
    ],
    "meshes" : [
        {
            "name" : "jugon",
            "primitives" : [
                {
                    "attributes" : {
                        "POSITION" : 0,
                        "NORMAL" : 1,
                        "TEXCOORD_0" : 2
                    },
                    "indices" : 3,
                    "material" : 0
                },
                {
                    "attributes" : {
                        "POSITION" : 4,
                        "NORMAL" : 5,
                        "TEXCOORD_0" : 6
                    },
                    "indices" : 7,
                    "material" : 1
                },
                {
                    "attributes" : {
                        "POSITION" : 8,
                        "NORMAL" : 9,
                        "TEXCOORD_0" : 10
                    },
                    "indices" : 11,
                    "material" : 2
                },
                {
                    "attributes" : {
                        "POSITION" : 12,
                        "NORMAL" : 13,
                        "TEXCOORD_0" : 14
                    },
                    "indices" : 15,
                    "material" : 3
                },
                {
                    "attributes" : {
                        "POSITION" : 16,
                        "NORMAL" : 17,
                        "TEXCOORD_0" : 18
                    },
                    "indices" : 19,
                    "material" : 4
                },
                {
                    "attributes" : {
                        "POSITION" : 20,
                        "NORMAL" : 21,
                        "TEXCOORD_0" : 22
                    },
                    "indices" : 23,
                    "material" : 5
                },
                {
                    "attributes" : {
                        "POSITION" : 24,
                        "NORMAL" : 25,
                        "TEXCOORD_0" : 26
                    },
                    "indices" : 27,
                    "material" : 6
                }
            ]
        }
    ],
    "textures" : [
        {
            "source" : 0
        },
        {
            "source" : 1
        },
        {
            "source" : 2
        },
        {
            "source" : 3
        },
        {
            "source" : 4
        },
        {
            "source" : 5
        }
    ],
    "images" : [
        {
            "bufferView" : 4,
            "mimeType" : "image/png",
            "name" : "jugon_0_0.tga"
        },
        {
            "bufferView" : 9,
            "mimeType" : "image/png",
            "name" : "jugon_0_1.tga"
        },
        {
            "bufferView" : 18,
            "mimeType" : "image/png",
            "name" : "jugon_0_2.tga"
        },
        {
            "bufferView" : 23,
            "mimeType" : "image/png",
            "name" : "jugon_0_3.tga"
        },
        {
            "bufferView" : 28,
            "mimeType" : "image/png",
            "name" : "jugon_0_4.tga"
        },
        {
            "bufferView" : 33,
            "mimeType" : "image/png",
            "name" : "jugon_0_5.tga"
        }
    ],
    "accessors" : [
        {
            "bufferView" : 0,
            "componentType" : 5126,
            "count" : 394,
            "max" : [
                1.4107400178909302,
                1.368109941482544,
                2.5613598823547363
            ],
            "min" : [
                -1.4107400178909302,
                -1.3363699913024902,
                -8.277170181274414
            ],
            "type" : "VEC3"
        },
        {
            "bufferView" : 1,
            "componentType" : 5126,
            "count" : 394,
            "type" : "VEC3"
        },
        {
            "bufferView" : 2,
            "componentType" : 5126,
            "count" : 394,
            "type" : "VEC2"
        },
        {
            "bufferView" : 3,
            "componentType" : 5123,
            "count" : 1029,
            "type" : "SCALAR"
        },
        {
            "bufferView" : 5,
            "componentType" : 5126,
            "count" : 179,
            "max" : [
                3.3030800819396973,
                0.3176659941673279,
                8.721799850463867
            ],
            "min" : [
                -3.3030800819396973,
                -0.375124990940094,
                -5.96707010269165
            ],
            "type" : "VEC3"
        },
        {
            "bufferView" : 6,
            "componentType" : 5126,
            "count" : 179,
            "type" : "VEC3"
        },
        {
            "bufferView" : 7,
            "componentType" : 5126,
            "count" : 179,
            "type" : "VEC2"
        },
        {
            "bufferView" : 8,
            "componentType" : 5123,
            "count" : 738,
            "type" : "SCALAR"
        },
        {
            "bufferView" : 10,
            "componentType" : 5126,
            "count" : 8,
            "max" : [
                -0.4690369963645935,
                0.8713449835777283,
                -5.937620162963867
            ],
            "min" : [
                -0.6377320289611816,
                0.6765519976615906,
                -6.243969917297363
            ],
            "type" : "VEC3"
        },
        {
            "bufferView" : 11,
            "componentType" : 5126,
            "count" : 8,
            "type" : "VEC3"
        },
        {
            "bufferView" : 12,
            "componentType" : 5126,
            "count" : 8,
            "type" : "VEC2"
        },
        {
            "bufferView" : 13,
            "componentType" : 5123,
            "count" : 12,
            "type" : "SCALAR"
        },
        {
            "bufferView" : 14,
            "componentType" : 5126,
            "count" : 20,
            "max" : [
                0.8092740178108215,
                0.9059169888496399,
                -6.5737199783325195
            ],
            "min" : [
                -0.8092749714851379,
                0.2635610103607178,
                -7.609570026397705
            ],
            "type" : "VEC3"
        },
        {
            "bufferView" : 15,
            "componentType" : 5126,
            "count" : 20,
            "type" : "VEC3"
        },
        {
            "bufferView" : 16,
            "componentType" : 5126,
            "count" : 20,
            "type" : "VEC2"
        },
        {
            "bufferView" : 17,
            "componentType" : 5123,
            "count" : 42,
            "type" : "SCALAR"
        },
        {
            "bufferView" : 19,
            "componentType" : 5126,
            "count" : 13,
            "max" : [
                0.7629799842834473,
                1.0573999881744385,
                -6.179570198059082
            ],
            "min" : [
                -0.7629809975624084,
                0.3846069872379303,
                -6.320000171661377
            ],
            "type" : "VEC3"
        },
        {
            "bufferView" : 20,
            "componentType" : 5126,
            "count" : 13,
            "type" : "VEC3"
        },
        {
            "bufferView" : 21,
            "componentType" : 5126,
            "count" : 13,
            "type" : "VEC2"
        },
        {
            "bufferView" : 22,
            "componentType" : 5123,
            "count" : 27,
            "type" : "SCALAR"
        },
        {
            "bufferView" : 24,
            "componentType" : 5126,
            "count" : 11,
            "max" : [
                0.7629799842834473,
                0.8380579948425293,
                -6.179570198059082
            ],
            "min" : [
                -0.7629809975624084,
                0.3846069872379303,
                -6.31289005279541
            ],
            "type" : "VEC3"
        },
        {
            "bufferView" : 25,
            "componentType" : 5126,
            "count" : 11,
            "type" : "VEC3"
        },
        {
            "bufferView" : 26,
            "componentType" : 5126,
            "count" : 11,
            "type" : "VEC2"
        },
        {
            "bufferView" : 27,
            "componentType" : 5123,
            "count" : 30,
            "type" : "SCALAR"
        },
        {
            "bufferView" : 29,
            "componentType" : 5126,
            "count" : 28,
            "max" : [
                0.11508099734783173,
                1.151039958000183,
                -6.662459850311279
            ],
            "min" : [
                -0.11508099734783173,
                1.0358599424362183,
                -6.741049766540527
            ],
            "type" : "VEC3"
        },
        {
            "bufferView" : 30,
            "componentType" : 5126,
            "count" : 28,
            "type" : "VEC3"
        },
        {
            "bufferView" : 31,
            "componentType" : 5126,
            "count" : 28,
            "type" : "VEC2"
        },
        {
            "bufferView" : 32,
            "componentType" : 5123,
            "count" : 90,
            "type" : "SCALAR"
        }
    ],
    "bufferViews" : [
        {
            "buffer" : 0,
            "byteLength" : 4728,
            "byteOffset" : 0
        },
        {
            "buffer" : 0,
            "byteLength" : 4728,
            "byteOffset" : 4728
        },
        {
            "buffer" : 0,
            "byteLength" : 3152,
            "byteOffset" : 9456
        },
        {
            "buffer" : 0,
            "byteLength" : 2058,
            "byteOffset" : 12608
        },
        {
            "buffer" : 0,
            "byteLength" : 104,
            "byteOffset" : 14668
        },
        {
            "buffer" : 0,
            "byteLength" : 2148,
            "byteOffset" : 14772
        },
        {
            "buffer" : 0,
            "byteLength" : 2148,
            "byteOffset" : 16920
        },
        {
            "buffer" : 0,
            "byteLength" : 1432,
            "byteOffset" : 19068
        },
        {
            "buffer" : 0,
            "byteLength" : 1476,
            "byteOffset" : 20500
        },
        {
            "buffer" : 0,
            "byteLength" : 1007,
            "byteOffset" : 21976
        },
        {
            "buffer" : 0,
            "byteLength" : 96,
            "byteOffset" : 22984
        },
        {
            "buffer" : 0,
            "byteLength" : 96,
            "byteOffset" : 23080
        },
        {
            "buffer" : 0,
            "byteLength" : 64,
            "byteOffset" : 23176
        },
        {
            "buffer" : 0,
            "byteLength" : 24,
            "byteOffset" : 23240
        },
        {
            "buffer" : 0,
            "byteLength" : 240,
            "byteOffset" : 23264
        },
        {
            "buffer" : 0,
            "byteLength" : 240,
            "byteOffset" : 23504
        },
        {
            "buffer" : 0,
            "byteLength" : 160,
            "byteOffset" : 23744
        },
        {
            "buffer" : 0,
            "byteLength" : 84,
            "byteOffset" : 23904
        },
        {
            "buffer" : 0,
            "byteLength" : 3239,
            "byteOffset" : 23988
        },
        {
            "buffer" : 0,
            "byteLength" : 156,
            "byteOffset" : 27228
        },
        {
            "buffer" : 0,
            "byteLength" : 156,
            "byteOffset" : 27384
        },
        {
            "buffer" : 0,
            "byteLength" : 104,
            "byteOffset" : 27540
        },
        {
            "buffer" : 0,
            "byteLength" : 54,
            "byteOffset" : 27644
        },
        {
            "buffer" : 0,
            "byteLength" : 1167,
            "byteOffset" : 27700
        },
        {
            "buffer" : 0,
            "byteLength" : 132,
            "byteOffset" : 28868
        },
        {
            "buffer" : 0,
            "byteLength" : 132,
            "byteOffset" : 29000
        },
        {
            "buffer" : 0,
            "byteLength" : 88,
            "byteOffset" : 29132
        },
        {
            "buffer" : 0,
            "byteLength" : 60,
            "byteOffset" : 29220
        },
        {
            "buffer" : 0,
            "byteLength" : 823,
            "byteOffset" : 29280
        },
        {
            "buffer" : 0,
            "byteLength" : 336,
            "byteOffset" : 30104
        },
        {
            "buffer" : 0,
            "byteLength" : 336,
            "byteOffset" : 30440
        },
        {
            "buffer" : 0,
            "byteLength" : 224,
            "byteOffset" : 30776
        },
        {
            "buffer" : 0,
            "byteLength" : 180,
            "byteOffset" : 31000
        },
        {
            "buffer" : 0,
            "byteLength" : 531,
            "byteOffset" : 31180
        }
    ],
    "buffers" : [
        {
            "byteLength" : 31712,
            "uri" : "data:application/octet-stream;base64,"
        }
    ]
}
