{
    "asset" : {
        "generator" : "Khronos Blender glTF 2.0 I/O",
        "version" : "2.0"
    },
    "scene" : 0,
    "scenes" : [
        {
            "name" : "Scene",
            "nodes" : [
                0
            ]
        }
    ],
    "nodes" : [
        {
            "mesh" : 0,
            "name" : "Diglett",
            "rotation" : [
                0.7071068286895752,
                0,
                0,
                0.7071067094802856
            ]
        }
    ],
    "materials" : [
        {
            "name" : "mat1.005",
            "pbrMetallicRoughness" : {
                "baseColorTexture" : {
                    "index" : 0,
                    "texCoord" : 0
                },
                "metallicFactor" : 0,
                "roughnessFactor" : 0.8945907354354858
            }
        },
        {
            "name" : "mat2.005",
            "pbrMetallicRoughness" : {
                "baseColorTexture" : {
                    "index" : 1,
                    "texCoord" : 0
                },
                "metallicFactor" : 0,
                "roughnessFactor" : 0.8945907354354858
            }
        },
        {
            "name" : "mat3.004",
            "pbrMetallicRoughness" : {
                "baseColorTexture" : {
                    "index" : 2,
                    "texCoord" : 0
                },
                "metallicFactor" : 0,
                "roughnessFactor" : 0.8945907354354858
            }
        }
    ],
    "meshes" : [
        {
            "name" : "Diglett",
            "primitives" : [
                {
                    "attributes" : {
                        "POSITION" : 0,
                        "NORMAL" : 1,
                        "TEXCOORD_0" : 2
                    },
                    "indices" : 3,
                    "material" : 0
                },
                {
                    "attributes" : {
                        "POSITION" : 4,
                        "NORMAL" : 5,
                        "TEXCOORD_0" : 6
                    },
                    "indices" : 7,
                    "material" : 1
                },
                {
                    "attributes" : {
                        "POSITION" : 8,
                        "NORMAL" : 9,
                        "TEXCOORD_0" : 10
                    },
                    "indices" : 11,
                    "material" : 2
                }
            ]
        }
    ],
    "textures" : [
        {
            "source" : 0
        },
        {
            "source" : 1
        },
        {
            "source" : 2
        }
    ],
    "images" : [
        {
            "bufferView" : 4,
            "mimeType" : "image/png",
            "name" : "DigdaDh.tga"
        },
        {
            "bufferView" : 9,
            "mimeType" : "image/png",
            "name" : "DigdaEyeDh.tga"
        },
        {
            "bufferView" : 14,
            "mimeType" : "image/png",
            "name" : "DigdaDh.tga"
        }
    ],
    "accessors" : [
        {
            "bufferView" : 0,
            "componentType" : 5126,
            "count" : 389,
            "max" : [
                0.7714059948921204,
                0.9358959794044495,
                -0.10083899646997452
            ],
            "min" : [
                -0.7714059948921204,
                -0.7714059948921204,
                -2.013089895248413
            ],
            "type" : "VEC3"
        },
        {
            "bufferView" : 1,
            "componentType" : 5126,
            "count" : 389,
            "type" : "VEC3"
        },
        {
            "bufferView" : 2,
            "componentType" : 5126,
            "count" : 389,
            "type" : "VEC2"
        },
        {
            "bufferView" : 3,
            "componentType" : 5123,
            "count" : 2052,
            "type" : "SCALAR"
        },
        {
            "bufferView" : 5,
            "componentType" : 5126,
            "count" : 24,
            "max" : [
                0.5454670190811157,
                0.7714059948921204,
                -1.2416839599609375
            ],
            "min" : [
                -0.5454660058021545,
                0.45353901386260986,
                -1.6702539920806885
            ],
            "type" : "VEC3"
        },
        {
            "bufferView" : 6,
            "componentType" : 5126,
            "count" : 24,
            "type" : "VEC3"
        },
        {
            "bufferView" : 7,
            "componentType" : 5126,
            "count" : 24,
            "type" : "VEC2"
        },
        {
            "bufferView" : 8,
            "componentType" : 5123,
            "count" : 72,
            "type" : "SCALAR"
        },
        {
            "bufferView" : 10,
            "componentType" : 5126,
            "count" : 77,
            "max" : [
                1.4982600212097168,
                1.4385499954223633,
                0
            ],
            "min" : [
                -1.433150053024292,
                -1.5119999647140503,
                -0.48770299553871155
            ],
            "type" : "VEC3"
        },
        {
            "bufferView" : 11,
            "componentType" : 5126,
            "count" : 77,
            "type" : "VEC3"
        },
        {
            "bufferView" : 12,
            "componentType" : 5126,
            "count" : 77,
            "type" : "VEC2"
        },
        {
            "bufferView" : 13,
            "componentType" : 5123,
            "count" : 348,
            "type" : "SCALAR"
        }
    ],
    "bufferViews" : [
        {
            "buffer" : 0,
            "byteLength" : 4668,
            "byteOffset" : 0
        },
        {
            "buffer" : 0,
            "byteLength" : 4668,
            "byteOffset" : 4668
        },
        {
            "buffer" : 0,
            "byteLength" : 3112,
            "byteOffset" : 9336
        },
        {
            "buffer" : 0,
            "byteLength" : 4104,
            "byteOffset" : 12448
        },
        {
            "buffer" : 0,
            "byteLength" : 47617,
            "byteOffset" : 16552
        },
        {
            "buffer" : 0,
            "byteLength" : 288,
            "byteOffset" : 64172
        },
        {
            "buffer" : 0,
            "byteLength" : 288,
            "byteOffset" : 64460
        },
        {
            "buffer" : 0,
            "byteLength" : 192,
            "byteOffset" : 64748
        },
        {
            "buffer" : 0,
            "byteLength" : 144,
            "byteOffset" : 64940
        },
        {
            "buffer" : 0,
            "byteLength" : 3358,
            "byteOffset" : 65084
        },
        {
            "buffer" : 0,
            "byteLength" : 924,
            "byteOffset" : 68444
        },
        {
            "buffer" : 0,
            "byteLength" : 924,
            "byteOffset" : 69368
        },
        {
            "buffer" : 0,
            "byteLength" : 616,
            "byteOffset" : 70292
        },
        {
            "buffer" : 0,
            "byteLength" : 696,
            "byteOffset" : 70908
        },
        {
            "buffer" : 0,
            "byteLength" : 47617,
            "byteOffset" : 71604
        }
    ],
    "buffers" : [
        {
            "byteLength" : 119224,
            "uri" : "data:application/octet-stream;base64,"
        }
    ]
}
