{
    "asset" : {
        "generator" : "Khronos Blender glTF 2.0 I/O",
        "version" : "2.0"
    },
    "scene" : 0,
    "scenes" : [
        {
            "name" : "Scene",
            "nodes" : [
                0
            ]
        }
    ],
    "nodes" : [
        {
            "mesh" : 0,
            "name" : "metamon",
            "rotation" : [
                1,
                0,
                0,
                -1.6292068494294654e-07
            ]
        }
    ],
    "materials" : [
        {
            "name" : "mat_0",
            "pbrMetallicRoughness" : {
                "baseColorTexture" : {
                    "index" : 0,
                    "texCoord" : 0
                },
                "metallicFactor" : 0,
                "roughnessFactor" : 0.544696569442749
            }
        }
    ],
    "meshes" : [
        {
            "name" : "metamon",
            "primitives" : [
                {
                    "attributes" : {
                        "POSITION" : 0,
                        "NORMAL" : 1,
                        "TEXCOORD_0" : 2
                    },
                    "indices" : 3,
                    "material" : 0
                }
            ]
        }
    ],
    "textures" : [
        {
            "source" : 0
        }
    ],
    "images" : [
        {
            "bufferView" : 4,
            "mimeType" : "image/png",
            "name" : "metamon_0_0.tga"
        }
    ],
    "accessors" : [
        {
            "bufferView" : 0,
            "componentType" : 5126,
            "count" : 1213,
            "max" : [
                2.3075098991394043,
                0.059505999088287354,
                1.7229030132293701
            ],
            "min" : [
                -2.2708120346069336,
                -3.446650981903076,
                -1.7064640522003174
            ],
            "type" : "VEC3"
        },
        {
            "bufferView" : 1,
            "componentType" : 5126,
            "count" : 1213,
            "type" : "VEC3"
        },
        {
            "bufferView" : 2,
            "componentType" : 5126,
            "count" : 1213,
            "type" : "VEC2"
        },
        {
            "bufferView" : 3,
            "componentType" : 5123,
            "count" : 7224,
            "type" : "SCALAR"
        }
    ],
    "bufferViews" : [
        {
            "buffer" : 0,
            "byteLength" : 14556,
            "byteOffset" : 0
        },
        {
            "buffer" : 0,
            "byteLength" : 14556,
            "byteOffset" : 14556
        },
        {
            "buffer" : 0,
            "byteLength" : 9704,
            "byteOffset" : 29112
        },
        {
            "buffer" : 0,
            "byteLength" : 14448,
            "byteOffset" : 38816
        },
        {
            "buffer" : 0,
            "byteLength" : 76,
            "byteOffset" : 53264
        }
    ],
    "buffers" : [
        {
            "byteLength" : 53340,
            "uri" : "data:application/octet-stream;base64,"
        }
    ]
}
