{
    "asset" : {
        "generator" : "Khronos Blender glTF 2.0 I/O",
        "version" : "2.0"
    },
    "scene" : 0,
    "scenes" : [
        {
            "name" : "Scene",
            "nodes" : [
                0
            ]
        }
    ],
    "nodes" : [
        {
            "mesh" : 0,
            "name" : "dodorio",
            "rotation" : [
                1,
                0,
                0,
                -1.6292068494294654e-07
            ]
        }
    ],
    "materials" : [
        {
            "alphaMode" : "BLEND",
            "name" : "mat_0",
            "pbrMetallicRoughness" : {
                "baseColorTexture" : {
                    "index" : 0,
                    "texCoord" : 0
                },
                "metallicFactor" : 0,
                "roughnessFactor" : 0.6732679605484009
            }
        },
        {
            "name" : "mat_1",
            "pbrMetallicRoughness" : {
                "baseColorTexture" : {
                    "index" : 1,
                    "texCoord" : 0
                },
                "metallicFactor" : 0,
                "roughnessFactor" : 0.6732679605484009
            }
        },
        {
            "alphaMode" : "BLEND",
            "name" : "mat_2",
            "pbrMetallicRoughness" : {
                "baseColorTexture" : {
                    "index" : 2,
                    "texCoord" : 0
                },
                "metallicFactor" : 0,
                "roughnessFactor" : 0.6732679605484009
            }
        },
        {
            "name" : "mat_3",
            "pbrMetallicRoughness" : {
                "baseColorTexture" : {
                    "index" : 3,
                    "texCoord" : 0
                },
                "metallicFactor" : 0,
                "roughnessFactor" : 0.6732679605484009
            }
        },
        {
            "name" : "mat_4",
            "pbrMetallicRoughness" : {
                "baseColorTexture" : {
                    "index" : 4,
                    "texCoord" : 0
                },
                "metallicFactor" : 0,
                "roughnessFactor" : 0.6732679605484009
            }
        },
        {
            "name" : "mat_5",
            "pbrMetallicRoughness" : {
                "baseColorTexture" : {
                    "index" : 5,
                    "texCoord" : 0
                },
                "metallicFactor" : 0,
                "roughnessFactor" : 0.6732679605484009
            }
        }
    ],
    "meshes" : [
        {
            "name" : "dodorio",
            "primitives" : [
                {
                    "attributes" : {
                        "POSITION" : 0,
                        "NORMAL" : 1,
                        "TEXCOORD_0" : 2
                    },
                    "indices" : 3,
                    "material" : 0
                },
                {
                    "attributes" : {
                        "POSITION" : 4,
                        "NORMAL" : 5,
                        "TEXCOORD_0" : 6
                    },
                    "indices" : 7,
                    "material" : 1
                },
                {
                    "attributes" : {
                        "POSITION" : 8,
                        "NORMAL" : 9,
                        "TEXCOORD_0" : 10
                    },
                    "indices" : 11,
                    "material" : 2
                },
                {
                    "attributes" : {
                        "POSITION" : 12,
                        "NORMAL" : 13,
                        "TEXCOORD_0" : 14
                    },
                    "indices" : 7,
                    "material" : 3
                },
                {
                    "attributes" : {
                        "POSITION" : 15,
                        "NORMAL" : 16,
                        "TEXCOORD_0" : 17
                    },
                    "indices" : 7,
                    "material" : 4
                },
                {
                    "attributes" : {
                        "POSITION" : 18,
                        "NORMAL" : 19,
                        "TEXCOORD_0" : 20
                    },
                    "indices" : 21,
                    "material" : 5
                }
            ]
        }
    ],
    "textures" : [
        {
            "source" : 0
        },
        {
            "source" : 1
        },
        {
            "source" : 2
        },
        {
            "source" : 3
        },
        {
            "source" : 4
        },
        {
            "source" : 5
        }
    ],
    "images" : [
        {
            "bufferView" : 4,
            "mimeType" : "image/png",
            "name" : "dodorio_0_0.tga"
        },
        {
            "bufferView" : 9,
            "mimeType" : "image/png",
            "name" : "dodorio_0_1.tga"
        },
        {
            "bufferView" : 14,
            "mimeType" : "image/png",
            "name" : "dodorio_0_2.tga"
        },
        {
            "bufferView" : 18,
            "mimeType" : "image/png",
            "name" : "dodorio_0_3.tga"
        },
        {
            "bufferView" : 22,
            "mimeType" : "image/png",
            "name" : "dodorio_0_4.tga"
        },
        {
            "bufferView" : 27,
            "mimeType" : "image/png",
            "name" : "dodorio_0_5.tga"
        }
    ],
    "accessors" : [
        {
            "bufferView" : 0,
            "componentType" : 5126,
            "count" : 63,
            "max" : [
                4.681528091430664,
                -2.843252658843994,
                3.2576258182525635
            ],
            "min" : [
                -4.622541904449463,
                -8.88958740234375,
                0.09856879711151123
            ],
            "type" : "VEC3"
        },
        {
            "bufferView" : 1,
            "componentType" : 5126,
            "count" : 63,
            "type" : "VEC3"
        },
        {
            "bufferView" : 2,
            "componentType" : 5126,
            "count" : 63,
            "type" : "VEC2"
        },
        {
            "bufferView" : 3,
            "componentType" : 5123,
            "count" : 216,
            "type" : "SCALAR"
        },
        {
            "bufferView" : 5,
            "componentType" : 5126,
            "count" : 28,
            "max" : [
                1.1223809719085693,
                -16.73015594482422,
                -0.623903751373291
            ],
            "min" : [
                -1.1223809719085693,
                -17.788681030273438,
                -1.298886775970459
            ],
            "type" : "VEC3"
        },
        {
            "bufferView" : 6,
            "componentType" : 5126,
            "count" : 28,
            "type" : "VEC3"
        },
        {
            "bufferView" : 7,
            "componentType" : 5126,
            "count" : 28,
            "type" : "VEC2"
        },
        {
            "bufferView" : 8,
            "componentType" : 5123,
            "count" : 90,
            "type" : "SCALAR"
        },
        {
            "bufferView" : 10,
            "componentType" : 5126,
            "count" : 62,
            "max" : [
                3.0365190505981445,
                -7.955417156219482,
                2.4899508953094482
            ],
            "min" : [
                -3.0365190505981445,
                -10.44261646270752,
                -2.3786520957946777
            ],
            "type" : "VEC3"
        },
        {
            "bufferView" : 11,
            "componentType" : 5126,
            "count" : 62,
            "type" : "VEC3"
        },
        {
            "bufferView" : 12,
            "componentType" : 5126,
            "count" : 62,
            "type" : "VEC2"
        },
        {
            "bufferView" : 13,
            "componentType" : 5123,
            "count" : 192,
            "type" : "SCALAR"
        },
        {
            "bufferView" : 15,
            "componentType" : 5126,
            "count" : 28,
            "max" : [
                -2.1410255432128906,
                -16.453937530517578,
                -0.623903751373291
            ],
            "min" : [
                -4.308507442474365,
                -17.99701690673828,
                -1.298886775970459
            ],
            "type" : "VEC3"
        },
        {
            "bufferView" : 16,
            "componentType" : 5126,
            "count" : 28,
            "type" : "VEC3"
        },
        {
            "bufferView" : 17,
            "componentType" : 5126,
            "count" : 28,
            "type" : "VEC2"
        },
        {
            "bufferView" : 19,
            "componentType" : 5126,
            "count" : 28,
            "max" : [
                4.3357744216918945,
                -16.454017639160156,
                -0.623903751373291
            ],
            "min" : [
                2.168292760848999,
                -17.99709701538086,
                -1.298886775970459
            ],
            "type" : "VEC3"
        },
        {
            "bufferView" : 20,
            "componentType" : 5126,
            "count" : 28,
            "type" : "VEC3"
        },
        {
            "bufferView" : 21,
            "componentType" : 5126,
            "count" : 28,
            "type" : "VEC2"
        },
        {
            "bufferView" : 23,
            "componentType" : 5126,
            "count" : 2774,
            "max" : [
                5.7869110107421875,
                -0.7147629857063293,
                2.5017828941345215
            ],
            "min" : [
                -5.759644985198975,
                -21.03127098083496,
                -4.534552097320557
            ],
            "type" : "VEC3"
        },
        {
            "bufferView" : 24,
            "componentType" : 5126,
            "count" : 2774,
            "type" : "VEC3"
        },
        {
            "bufferView" : 25,
            "componentType" : 5126,
            "count" : 2774,
            "type" : "VEC2"
        },
        {
            "bufferView" : 26,
            "componentType" : 5123,
            "count" : 7614,
            "type" : "SCALAR"
        }
    ],
    "bufferViews" : [
        {
            "buffer" : 0,
            "byteLength" : 756,
            "byteOffset" : 0
        },
        {
            "buffer" : 0,
            "byteLength" : 756,
            "byteOffset" : 756
        },
        {
            "buffer" : 0,
            "byteLength" : 504,
            "byteOffset" : 1512
        },
        {
            "buffer" : 0,
            "byteLength" : 432,
            "byteOffset" : 2016
        },
        {
            "buffer" : 0,
            "byteLength" : 2473,
            "byteOffset" : 2448
        },
        {
            "buffer" : 0,
            "byteLength" : 336,
            "byteOffset" : 4924
        },
        {
            "buffer" : 0,
            "byteLength" : 336,
            "byteOffset" : 5260
        },
        {
            "buffer" : 0,
            "byteLength" : 224,
            "byteOffset" : 5596
        },
        {
            "buffer" : 0,
            "byteLength" : 180,
            "byteOffset" : 5820
        },
        {
            "buffer" : 0,
            "byteLength" : 3107,
            "byteOffset" : 6000
        },
        {
            "buffer" : 0,
            "byteLength" : 744,
            "byteOffset" : 9108
        },
        {
            "buffer" : 0,
            "byteLength" : 744,
            "byteOffset" : 9852
        },
        {
            "buffer" : 0,
            "byteLength" : 496,
            "byteOffset" : 10596
        },
        {
            "buffer" : 0,
            "byteLength" : 384,
            "byteOffset" : 11092
        },
        {
            "buffer" : 0,
            "byteLength" : 4958,
            "byteOffset" : 11476
        },
        {
            "buffer" : 0,
            "byteLength" : 336,
            "byteOffset" : 16436
        },
        {
            "buffer" : 0,
            "byteLength" : 336,
            "byteOffset" : 16772
        },
        {
            "buffer" : 0,
            "byteLength" : 224,
            "byteOffset" : 17108
        },
        {
            "buffer" : 0,
            "byteLength" : 3094,
            "byteOffset" : 17332
        },
        {
            "buffer" : 0,
            "byteLength" : 336,
            "byteOffset" : 20428
        },
        {
            "buffer" : 0,
            "byteLength" : 336,
            "byteOffset" : 20764
        },
        {
            "buffer" : 0,
            "byteLength" : 224,
            "byteOffset" : 21100
        },
        {
            "buffer" : 0,
            "byteLength" : 2228,
            "byteOffset" : 21324
        },
        {
            "buffer" : 0,
            "byteLength" : 33288,
            "byteOffset" : 23552
        },
        {
            "buffer" : 0,
            "byteLength" : 33288,
            "byteOffset" : 56840
        },
        {
            "buffer" : 0,
            "byteLength" : 22192,
            "byteOffset" : 90128
        },
        {
            "buffer" : 0,
            "byteLength" : 15228,
            "byteOffset" : 112320
        },
        {
            "buffer" : 0,
            "byteLength" : 4423,
            "byteOffset" : 127548
        }
    ],
    "buffers" : [
        {
            "byteLength" : 131972,
            "uri" : "data:application/octet-stream;base64,"
        }
    ]
}
