{
    "asset" : {
        "generator" : "Khronos Blender glTF 2.0 I/O",
        "version" : "2.0"
    },
    "scene" : 0,
    "scenes" : [
        {
            "name" : "Scene",
            "nodes" : [
                0
            ]
        }
    ],
    "nodes" : [
        {
            "mesh" : 0,
            "name" : "dodo",
            "rotation" : [
                1,
                0,
                0,
                -1.6292068494294654e-07
            ]
        }
    ],
    "materials" : [
        {
            "name" : "mat_0.003",
            "pbrMetallicRoughness" : {
                "baseColorTexture" : {
                    "index" : 0,
                    "texCoord" : 0
                },
                "metallicFactor" : 0,
                "roughnessFactor" : 0.6732679605484009
            }
        },
        {
            "name" : "mat_1.003",
            "pbrMetallicRoughness" : {
                "baseColorTexture" : {
                    "index" : 1,
                    "texCoord" : 0
                },
                "metallicFactor" : 0,
                "roughnessFactor" : 0.6732679605484009
            }
        },
        {
            "name" : "mat_2.002",
            "pbrMetallicRoughness" : {
                "baseColorTexture" : {
                    "index" : 2,
                    "texCoord" : 0
                },
                "metallicFactor" : 0,
                "roughnessFactor" : 0.6732679605484009
            }
        },
        {
            "name" : "mat_3.002",
            "pbrMetallicRoughness" : {
                "baseColorTexture" : {
                    "index" : 3,
                    "texCoord" : 0
                },
                "metallicFactor" : 0,
                "roughnessFactor" : 0.6732679605484009
            }
        },
        {
            "name" : "mat_4.002",
            "pbrMetallicRoughness" : {
                "baseColorTexture" : {
                    "index" : 4,
                    "texCoord" : 0
                },
                "metallicFactor" : 0,
                "roughnessFactor" : 0.6732679605484009
            }
        },
        {
            "name" : "mat_5.002",
            "pbrMetallicRoughness" : {
                "baseColorFactor" : [
                    0.800000011920929,
                    0.800000011920929,
                    0.800000011920929,
                    1
                ],
                "metallicFactor" : 0,
                "roughnessFactor" : 0.6732679605484009
            }
        },
        {
            "name" : "mat_6.002",
            "pbrMetallicRoughness" : {
                "baseColorFactor" : [
                    0.800000011920929,
                    0.800000011920929,
                    0.800000011920929,
                    1
                ],
                "metallicFactor" : 0,
                "roughnessFactor" : 0.6732679605484009
            }
        }
    ],
    "meshes" : [
        {
            "name" : "dodo",
            "primitives" : [
                {
                    "attributes" : {
                        "POSITION" : 0,
                        "NORMAL" : 1,
                        "TEXCOORD_0" : 2
                    },
                    "indices" : 3,
                    "material" : 0
                },
                {
                    "attributes" : {
                        "POSITION" : 4,
                        "NORMAL" : 5,
                        "TEXCOORD_0" : 6
                    },
                    "indices" : 7,
                    "material" : 1
                },
                {
                    "attributes" : {
                        "POSITION" : 8,
                        "NORMAL" : 9,
                        "TEXCOORD_0" : 10
                    },
                    "indices" : 11,
                    "material" : 2
                },
                {
                    "attributes" : {
                        "POSITION" : 12,
                        "NORMAL" : 13,
                        "TEXCOORD_0" : 14
                    },
                    "indices" : 15,
                    "material" : 3
                },
                {
                    "attributes" : {
                        "POSITION" : 16,
                        "NORMAL" : 17,
                        "TEXCOORD_0" : 18
                    },
                    "indices" : 19,
                    "material" : 4
                },
                {
                    "attributes" : {
                        "POSITION" : 20,
                        "NORMAL" : 21,
                        "TEXCOORD_0" : 22
                    },
                    "indices" : 23,
                    "material" : 5
                },
                {
                    "attributes" : {
                        "POSITION" : 24,
                        "NORMAL" : 25,
                        "TEXCOORD_0" : 26
                    },
                    "indices" : 27,
                    "material" : 6
                }
            ]
        }
    ],
    "textures" : [
        {
            "source" : 0
        },
        {
            "source" : 1
        },
        {
            "source" : 2
        },
        {
            "source" : 3
        },
        {
            "source" : 4
        }
    ],
    "images" : [
        {
            "bufferView" : 4,
            "mimeType" : "image/png",
            "name" : "dodo_0_0.tga"
        },
        {
            "bufferView" : 9,
            "mimeType" : "image/png",
            "name" : "dodo_0_1.tga"
        },
        {
            "bufferView" : 14,
            "mimeType" : "image/png",
            "name" : "dodo_0_2.tga"
        },
        {
            "bufferView" : 19,
            "mimeType" : "image/png",
            "name" : "dodo_0_3.tga"
        },
        {
            "bufferView" : 24,
            "mimeType" : "image/png",
            "name" : "dodo_0_4.tga"
        }
    ],
    "accessors" : [
        {
            "bufferView" : 0,
            "componentType" : 5126,
            "count" : 353,
            "max" : [
                2.732219934463501,
                -3.0968799591064453,
                2.879770040512085
            ],
            "min" : [
                -3.2764298915863037,
                -12.336199760437012,
                -1.9878499507904053
            ],
            "type" : "VEC3"
        },
        {
            "bufferView" : 1,
            "componentType" : 5126,
            "count" : 353,
            "type" : "VEC3"
        },
        {
            "bufferView" : 2,
            "componentType" : 5126,
            "count" : 353,
            "type" : "VEC2"
        },
        {
            "bufferView" : 3,
            "componentType" : 5123,
            "count" : 900,
            "type" : "SCALAR"
        },
        {
            "bufferView" : 5,
            "componentType" : 5126,
            "count" : 96,
            "max" : [
                1.945430040359497,
                -5.955410003662109,
                0.5950829982757568
            ],
            "min" : [
                -1.7962100505828857,
                -10.812100410461426,
                -1.8548099994659424
            ],
            "type" : "VEC3"
        },
        {
            "bufferView" : 6,
            "componentType" : 5126,
            "count" : 96,
            "type" : "VEC3"
        },
        {
            "bufferView" : 7,
            "componentType" : 5126,
            "count" : 96,
            "type" : "VEC2"
        },
        {
            "bufferView" : 8,
            "componentType" : 5123,
            "count" : 192,
            "type" : "SCALAR"
        },
        {
            "bufferView" : 10,
            "componentType" : 5126,
            "count" : 28,
            "max" : [
                1.7547199726104736,
                -11.138099670410156,
                -0.5037599802017212
            ],
            "min" : [
                -4.728509902954102,
                -14.256600379943848,
                -2.6784300804138184
            ],
            "type" : "VEC3"
        },
        {
            "bufferView" : 11,
            "componentType" : 5126,
            "count" : 28,
            "type" : "VEC3"
        },
        {
            "bufferView" : 12,
            "componentType" : 5126,
            "count" : 28,
            "type" : "VEC2"
        },
        {
            "bufferView" : 13,
            "componentType" : 5123,
            "count" : 60,
            "type" : "SCALAR"
        },
        {
            "bufferView" : 15,
            "componentType" : 5126,
            "count" : 56,
            "max" : [
                2.159990072250366,
                -10.809399604797363,
                0.38624998927116394
            ],
            "min" : [
                -3.248699903488159,
                -12.356499671936035,
                -0.4139690101146698
            ],
            "type" : "VEC3"
        },
        {
            "bufferView" : 16,
            "componentType" : 5126,
            "count" : 56,
            "type" : "VEC3"
        },
        {
            "bufferView" : 17,
            "componentType" : 5126,
            "count" : 56,
            "type" : "VEC2"
        },
        {
            "bufferView" : 18,
            "componentType" : 5123,
            "count" : 144,
            "type" : "SCALAR"
        },
        {
            "bufferView" : 20,
            "componentType" : 5126,
            "count" : 264,
            "max" : [
                2.710710048675537,
                0.012575999833643436,
                1.913059949874878
            ],
            "min" : [
                -2.8556699752807617,
                -4.769820213317871,
                -2.2399399280548096
            ],
            "type" : "VEC3"
        },
        {
            "bufferView" : 21,
            "componentType" : 5126,
            "count" : 264,
            "type" : "VEC3"
        },
        {
            "bufferView" : 22,
            "componentType" : 5126,
            "count" : 264,
            "type" : "VEC2"
        },
        {
            "bufferView" : 23,
            "componentType" : 5123,
            "count" : 564,
            "type" : "SCALAR"
        },
        {
            "bufferView" : 25,
            "componentType" : 5126,
            "count" : 12,
            "max" : [
                1.7543200254440308,
                -11.144800186157227,
                -0.5566700100898743
            ],
            "min" : [
                1.1429200172424316,
                -13.44159984588623,
                -1.9134600162506104
            ],
            "type" : "VEC3"
        },
        {
            "bufferView" : 26,
            "componentType" : 5126,
            "count" : 12,
            "type" : "VEC3"
        },
        {
            "bufferView" : 27,
            "componentType" : 5126,
            "count" : 12,
            "type" : "VEC2"
        },
        {
            "bufferView" : 28,
            "componentType" : 5123,
            "count" : 12,
            "type" : "SCALAR"
        },
        {
            "bufferView" : 29,
            "componentType" : 5126,
            "count" : 3,
            "max" : [
                1.619920015335083,
                -11.001799583435059,
                -0.5540400147438049
            ],
            "min" : [
                1.3055100440979004,
                -11.543800354003906,
                -0.666949987411499
            ],
            "type" : "VEC3"
        },
        {
            "bufferView" : 30,
            "componentType" : 5126,
            "count" : 3,
            "type" : "VEC3"
        },
        {
            "bufferView" : 31,
            "componentType" : 5126,
            "count" : 3,
            "type" : "VEC2"
        },
        {
            "bufferView" : 32,
            "componentType" : 5123,
            "count" : 3,
            "type" : "SCALAR"
        }
    ],
    "bufferViews" : [
        {
            "buffer" : 0,
            "byteLength" : 4236,
            "byteOffset" : 0
        },
        {
            "buffer" : 0,
            "byteLength" : 4236,
            "byteOffset" : 4236
        },
        {
            "buffer" : 0,
            "byteLength" : 2824,
            "byteOffset" : 8472
        },
        {
            "buffer" : 0,
            "byteLength" : 1800,
            "byteOffset" : 11296
        },
        {
            "buffer" : 0,
            "byteLength" : 2091,
            "byteOffset" : 13096
        },
        {
            "buffer" : 0,
            "byteLength" : 1152,
            "byteOffset" : 15188
        },
        {
            "buffer" : 0,
            "byteLength" : 1152,
            "byteOffset" : 16340
        },
        {
            "buffer" : 0,
            "byteLength" : 768,
            "byteOffset" : 17492
        },
        {
            "buffer" : 0,
            "byteLength" : 384,
            "byteOffset" : 18260
        },
        {
            "buffer" : 0,
            "byteLength" : 105,
            "byteOffset" : 18644
        },
        {
            "buffer" : 0,
            "byteLength" : 336,
            "byteOffset" : 18752
        },
        {
            "buffer" : 0,
            "byteLength" : 336,
            "byteOffset" : 19088
        },
        {
            "buffer" : 0,
            "byteLength" : 224,
            "byteOffset" : 19424
        },
        {
            "buffer" : 0,
            "byteLength" : 120,
            "byteOffset" : 19648
        },
        {
            "buffer" : 0,
            "byteLength" : 147,
            "byteOffset" : 19768
        },
        {
            "buffer" : 0,
            "byteLength" : 672,
            "byteOffset" : 19916
        },
        {
            "buffer" : 0,
            "byteLength" : 672,
            "byteOffset" : 20588
        },
        {
            "buffer" : 0,
            "byteLength" : 448,
            "byteOffset" : 21260
        },
        {
            "buffer" : 0,
            "byteLength" : 288,
            "byteOffset" : 21708
        },
        {
            "buffer" : 0,
            "byteLength" : 1670,
            "byteOffset" : 21996
        },
        {
            "buffer" : 0,
            "byteLength" : 3168,
            "byteOffset" : 23668
        },
        {
            "buffer" : 0,
            "byteLength" : 3168,
            "byteOffset" : 26836
        },
        {
            "buffer" : 0,
            "byteLength" : 2112,
            "byteOffset" : 30004
        },
        {
            "buffer" : 0,
            "byteLength" : 1128,
            "byteOffset" : 32116
        },
        {
            "buffer" : 0,
            "byteLength" : 104,
            "byteOffset" : 33244
        },
        {
            "buffer" : 0,
            "byteLength" : 144,
            "byteOffset" : 33348
        },
        {
            "buffer" : 0,
            "byteLength" : 144,
            "byteOffset" : 33492
        },
        {
            "buffer" : 0,
            "byteLength" : 96,
            "byteOffset" : 33636
        },
        {
            "buffer" : 0,
            "byteLength" : 24,
            "byteOffset" : 33732
        },
        {
            "buffer" : 0,
            "byteLength" : 36,
            "byteOffset" : 33756
        },
        {
            "buffer" : 0,
            "byteLength" : 36,
            "byteOffset" : 33792
        },
        {
            "buffer" : 0,
            "byteLength" : 24,
            "byteOffset" : 33828
        },
        {
            "buffer" : 0,
            "byteLength" : 6,
            "byteOffset" : 33852
        }
    ],
    "buffers" : [
        {
            "byteLength" : 33860,
            "uri" : "data:application/octet-stream;base64,"
        }
    ]
}
