{
    "asset" : {
        "generator" : "Khronos Blender glTF 2.0 I/O",
        "version" : "2.0"
    },
    "scene" : 0,
    "scenes" : [
        {
            "name" : "Scene",
            "nodes" : [
                0
            ]
        }
    ],
    "nodes" : [
        {
            "mesh" : 0,
            "name" : "miniryu",
            "rotation" : [
                1,
                0,
                0,
                -1.6292068494294654e-07
            ]
        }
    ],
    "materials" : [
        {
            "name" : "mat_0.004",
            "pbrMetallicRoughness" : {
                "baseColorTexture" : {
                    "index" : 0,
                    "texCoord" : 0
                },
                "metallicFactor" : 0,
                "roughnessFactor" : 0.6732679605484009
            }
        },
        {
            "name" : "mat_1.004",
            "pbrMetallicRoughness" : {
                "baseColorTexture" : {
                    "index" : 1,
                    "texCoord" : 0
                },
                "metallicFactor" : 0,
                "roughnessFactor" : 0.6732679605484009
            }
        },
        {
            "name" : "mat_2.003",
            "pbrMetallicRoughness" : {
                "baseColorTexture" : {
                    "index" : 2,
                    "texCoord" : 0
                },
                "metallicFactor" : 0,
                "roughnessFactor" : 0.6732679605484009
            }
        },
        {
            "name" : "mat_3.001",
            "pbrMetallicRoughness" : {
                "baseColorTexture" : {
                    "index" : 3,
                    "texCoord" : 0
                },
                "metallicFactor" : 0,
                "roughnessFactor" : 0.6732679605484009
            }
        },
        {
            "name" : "mat_4.001",
            "pbrMetallicRoughness" : {
                "baseColorTexture" : {
                    "index" : 4,
                    "texCoord" : 0
                },
                "metallicFactor" : 0,
                "roughnessFactor" : 0.6732679605484009
            }
        },
        {
            "name" : "mat_5.001",
            "pbrMetallicRoughness" : {
                "baseColorTexture" : {
                    "index" : 5,
                    "texCoord" : 0
                },
                "metallicFactor" : 0,
                "roughnessFactor" : 0.6732679605484009
            }
        },
        {
            "name" : "mat_6.001",
            "pbrMetallicRoughness" : {
                "baseColorTexture" : {
                    "index" : 6,
                    "texCoord" : 0
                },
                "metallicFactor" : 0,
                "roughnessFactor" : 0.6732679605484009
            }
        },
        {
            "name" : "mat_7",
            "pbrMetallicRoughness" : {
                "baseColorTexture" : {
                    "index" : 7,
                    "texCoord" : 0
                },
                "metallicFactor" : 0,
                "roughnessFactor" : 0.6732679605484009
            }
        },
        {
            "name" : "mat_8",
            "pbrMetallicRoughness" : {
                "baseColorTexture" : {
                    "index" : 8,
                    "texCoord" : 0
                },
                "metallicFactor" : 0,
                "roughnessFactor" : 0.6732679605484009
            }
        }
    ],
    "meshes" : [
        {
            "name" : "miniryu",
            "primitives" : [
                {
                    "attributes" : {
                        "POSITION" : 0,
                        "NORMAL" : 1,
                        "TEXCOORD_0" : 2
                    },
                    "indices" : 3,
                    "material" : 0
                },
                {
                    "attributes" : {
                        "POSITION" : 4,
                        "NORMAL" : 5,
                        "TEXCOORD_0" : 6
                    },
                    "indices" : 7,
                    "material" : 1
                },
                {
                    "attributes" : {
                        "POSITION" : 8,
                        "NORMAL" : 9,
                        "TEXCOORD_0" : 10
                    },
                    "indices" : 11,
                    "material" : 2
                },
                {
                    "attributes" : {
                        "POSITION" : 12,
                        "NORMAL" : 13,
                        "TEXCOORD_0" : 14
                    },
                    "indices" : 15,
                    "material" : 3
                },
                {
                    "attributes" : {
                        "POSITION" : 16,
                        "NORMAL" : 17,
                        "TEXCOORD_0" : 18
                    },
                    "indices" : 19,
                    "material" : 4
                },
                {
                    "attributes" : {
                        "POSITION" : 20,
                        "NORMAL" : 21,
                        "TEXCOORD_0" : 22
                    },
                    "indices" : 23,
                    "material" : 5
                },
                {
                    "attributes" : {
                        "POSITION" : 24,
                        "NORMAL" : 25,
                        "TEXCOORD_0" : 26
                    },
                    "indices" : 27,
                    "material" : 6
                },
                {
                    "attributes" : {
                        "POSITION" : 28,
                        "NORMAL" : 29,
                        "TEXCOORD_0" : 30
                    },
                    "indices" : 31,
                    "material" : 7
                },
                {
                    "attributes" : {
                        "POSITION" : 32,
                        "NORMAL" : 33,
                        "TEXCOORD_0" : 34
                    },
                    "indices" : 35,
                    "material" : 8
                }
            ]
        }
    ],
    "textures" : [
        {
            "source" : 0
        },
        {
            "source" : 1
        },
        {
            "source" : 2
        },
        {
            "source" : 3
        },
        {
            "source" : 4
        },
        {
            "source" : 5
        },
        {
            "source" : 6
        },
        {
            "source" : 7
        },
        {
            "source" : 8
        }
    ],
    "images" : [
        {
            "bufferView" : 4,
            "mimeType" : "image/png",
            "name" : "miniryu_0_0.tga"
        },
        {
            "bufferView" : 9,
            "mimeType" : "image/png",
            "name" : "miniryu_0_1.tga"
        },
        {
            "bufferView" : 14,
            "mimeType" : "image/png",
            "name" : "miniryu_0_1.tga"
        },
        {
            "bufferView" : 19,
            "mimeType" : "image/png",
            "name" : "miniryu_0_1.tga"
        },
        {
            "bufferView" : 24,
            "mimeType" : "image/png",
            "name" : "miniryu_0_4.tga"
        },
        {
            "bufferView" : 29,
            "mimeType" : "image/png",
            "name" : "miniryu_0_5.tga"
        },
        {
            "bufferView" : 34,
            "mimeType" : "image/png",
            "name" : "miniryu_0_6.tga"
        },
        {
            "bufferView" : 39,
            "mimeType" : "image/png",
            "name" : "miniryu_0_7.tga"
        },
        {
            "bufferView" : 44,
            "mimeType" : "image/png",
            "name" : "miniryu_0_1.tga"
        }
    ],
    "accessors" : [
        {
            "bufferView" : 0,
            "componentType" : 5126,
            "count" : 220,
            "max" : [
                1.165179967880249,
                -0.33807599544525146,
                2.161129951477051
            ],
            "min" : [
                -6.967249870300293,
                -7.412010192871094,
                -3.3653199672698975
            ],
            "type" : "VEC3"
        },
        {
            "bufferView" : 1,
            "componentType" : 5126,
            "count" : 220,
            "type" : "VEC3"
        },
        {
            "bufferView" : 2,
            "componentType" : 5126,
            "count" : 220,
            "type" : "VEC2"
        },
        {
            "bufferView" : 3,
            "componentType" : 5123,
            "count" : 882,
            "type" : "SCALAR"
        },
        {
            "bufferView" : 5,
            "componentType" : 5126,
            "count" : 66,
            "max" : [
                0.97536700963974,
                0.008658000268042088,
                2.0434200763702393
            ],
            "min" : [
                -6.967249870300293,
                -4.076300144195557,
                -3.679579973220825
            ],
            "type" : "VEC3"
        },
        {
            "bufferView" : 6,
            "componentType" : 5126,
            "count" : 66,
            "type" : "VEC3"
        },
        {
            "bufferView" : 7,
            "componentType" : 5126,
            "count" : 66,
            "type" : "VEC2"
        },
        {
            "bufferView" : 8,
            "componentType" : 5123,
            "count" : 210,
            "type" : "SCALAR"
        },
        {
            "bufferView" : 10,
            "componentType" : 5126,
            "count" : 20,
            "max" : [
                0.9548450112342834,
                0.020772000774741173,
                2.0434200763702393
            ],
            "min" : [
                -5.64162015914917,
                -0.7142030000686646,
                -0.8439689874649048
            ],
            "type" : "VEC3"
        },
        {
            "bufferView" : 11,
            "componentType" : 5126,
            "count" : 20,
            "type" : "VEC3"
        },
        {
            "bufferView" : 12,
            "componentType" : 5126,
            "count" : 20,
            "type" : "VEC2"
        },
        {
            "bufferView" : 13,
            "componentType" : 5123,
            "count" : 54,
            "type" : "SCALAR"
        },
        {
            "bufferView" : 15,
            "componentType" : 5126,
            "count" : 8,
            "max" : [
                0.9319459795951843,
                -0.5157880187034607,
                -2.667759895324707
            ],
            "min" : [
                -0.9079369902610779,
                -2.022059917449951,
                -3.679579973220825
            ],
            "type" : "VEC3"
        },
        {
            "bufferView" : 16,
            "componentType" : 5126,
            "count" : 8,
            "type" : "VEC3"
        },
        {
            "bufferView" : 17,
            "componentType" : 5126,
            "count" : 8,
            "type" : "VEC2"
        },
        {
            "bufferView" : 18,
            "componentType" : 5123,
            "count" : 18,
            "type" : "SCALAR"
        },
        {
            "bufferView" : 20,
            "componentType" : 5126,
            "count" : 12,
            "max" : [
                0.665041983127594,
                -4.074460029602051,
                -2.59512996673584
            ],
            "min" : [
                -0.6588889956474304,
                -4.968090057373047,
                -3.3532400131225586
            ],
            "type" : "VEC3"
        },
        {
            "bufferView" : 21,
            "componentType" : 5126,
            "count" : 12,
            "type" : "VEC3"
        },
        {
            "bufferView" : 22,
            "componentType" : 5126,
            "count" : 12,
            "type" : "VEC2"
        },
        {
            "bufferView" : 23,
            "componentType" : 5123,
            "count" : 36,
            "type" : "SCALAR"
        },
        {
            "bufferView" : 25,
            "componentType" : 5126,
            "count" : 14,
            "max" : [
                1.0437500476837158,
                -6.120409965515137,
                -2.5238499641418457
            ],
            "min" : [
                -1.037600040435791,
                -6.982749938964844,
                -3.3653199672698975
            ],
            "type" : "VEC3"
        },
        {
            "bufferView" : 26,
            "componentType" : 5126,
            "count" : 14,
            "type" : "VEC3"
        },
        {
            "bufferView" : 27,
            "componentType" : 5126,
            "count" : 14,
            "type" : "VEC2"
        },
        {
            "bufferView" : 28,
            "componentType" : 5123,
            "count" : 30,
            "type" : "SCALAR"
        },
        {
            "bufferView" : 30,
            "componentType" : 5126,
            "count" : 44,
            "max" : [
                0.8245949745178223,
                -5.1263298988342285,
                -2.9632999897003174
            ],
            "min" : [
                -0.8184419870376587,
                -6.285120010375977,
                -3.8338799476623535
            ],
            "type" : "VEC3"
        },
        {
            "bufferView" : 31,
            "componentType" : 5126,
            "count" : 44,
            "type" : "VEC3"
        },
        {
            "bufferView" : 32,
            "componentType" : 5126,
            "count" : 44,
            "type" : "VEC2"
        },
        {
            "bufferView" : 33,
            "componentType" : 5123,
            "count" : 222,
            "type" : "SCALAR"
        },
        {
            "bufferView" : 35,
            "componentType" : 5126,
            "count" : 146,
            "max" : [
                1.770550012588501,
                -5.347439765930176,
                -0.22131399810314178
            ],
            "min" : [
                -1.7835999727249146,
                -7.765620231628418,
                -1.969920039176941
            ],
            "type" : "VEC3"
        },
        {
            "bufferView" : 36,
            "componentType" : 5126,
            "count" : 146,
            "type" : "VEC3"
        },
        {
            "bufferView" : 37,
            "componentType" : 5126,
            "count" : 146,
            "type" : "VEC2"
        },
        {
            "bufferView" : 38,
            "componentType" : 5123,
            "count" : 384,
            "type" : "SCALAR"
        },
        {
            "bufferView" : 40,
            "componentType" : 5126,
            "count" : 19,
            "max" : [
                0.11977799981832504,
                -6.838039875030518,
                -2.945039987564087
            ],
            "min" : [
                -0.11690899729728699,
                -7.102859973907471,
                -3.182569980621338
            ],
            "type" : "VEC3"
        },
        {
            "bufferView" : 41,
            "componentType" : 5126,
            "count" : 19,
            "type" : "VEC3"
        },
        {
            "bufferView" : 42,
            "componentType" : 5126,
            "count" : 19,
            "type" : "VEC2"
        },
        {
            "bufferView" : 43,
            "componentType" : 5123,
            "count" : 60,
            "type" : "SCALAR"
        }
    ],
    "bufferViews" : [
        {
            "buffer" : 0,
            "byteLength" : 2640,
            "byteOffset" : 0
        },
        {
            "buffer" : 0,
            "byteLength" : 2640,
            "byteOffset" : 2640
        },
        {
            "buffer" : 0,
            "byteLength" : 1760,
            "byteOffset" : 5280
        },
        {
            "buffer" : 0,
            "byteLength" : 1764,
            "byteOffset" : 7040
        },
        {
            "buffer" : 0,
            "byteLength" : 75,
            "byteOffset" : 8804
        },
        {
            "buffer" : 0,
            "byteLength" : 792,
            "byteOffset" : 8880
        },
        {
            "buffer" : 0,
            "byteLength" : 792,
            "byteOffset" : 9672
        },
        {
            "buffer" : 0,
            "byteLength" : 528,
            "byteOffset" : 10464
        },
        {
            "buffer" : 0,
            "byteLength" : 420,
            "byteOffset" : 10992
        },
        {
            "buffer" : 0,
            "byteLength" : 91,
            "byteOffset" : 11412
        },
        {
            "buffer" : 0,
            "byteLength" : 240,
            "byteOffset" : 11504
        },
        {
            "buffer" : 0,
            "byteLength" : 240,
            "byteOffset" : 11744
        },
        {
            "buffer" : 0,
            "byteLength" : 160,
            "byteOffset" : 11984
        },
        {
            "buffer" : 0,
            "byteLength" : 108,
            "byteOffset" : 12144
        },
        {
            "buffer" : 0,
            "byteLength" : 91,
            "byteOffset" : 12252
        },
        {
            "buffer" : 0,
            "byteLength" : 96,
            "byteOffset" : 12344
        },
        {
            "buffer" : 0,
            "byteLength" : 96,
            "byteOffset" : 12440
        },
        {
            "buffer" : 0,
            "byteLength" : 64,
            "byteOffset" : 12536
        },
        {
            "buffer" : 0,
            "byteLength" : 36,
            "byteOffset" : 12600
        },
        {
            "buffer" : 0,
            "byteLength" : 91,
            "byteOffset" : 12636
        },
        {
            "buffer" : 0,
            "byteLength" : 144,
            "byteOffset" : 12728
        },
        {
            "buffer" : 0,
            "byteLength" : 144,
            "byteOffset" : 12872
        },
        {
            "buffer" : 0,
            "byteLength" : 96,
            "byteOffset" : 13016
        },
        {
            "buffer" : 0,
            "byteLength" : 72,
            "byteOffset" : 13112
        },
        {
            "buffer" : 0,
            "byteLength" : 210,
            "byteOffset" : 13184
        },
        {
            "buffer" : 0,
            "byteLength" : 168,
            "byteOffset" : 13396
        },
        {
            "buffer" : 0,
            "byteLength" : 168,
            "byteOffset" : 13564
        },
        {
            "buffer" : 0,
            "byteLength" : 112,
            "byteOffset" : 13732
        },
        {
            "buffer" : 0,
            "byteLength" : 60,
            "byteOffset" : 13844
        },
        {
            "buffer" : 0,
            "byteLength" : 4315,
            "byteOffset" : 13904
        },
        {
            "buffer" : 0,
            "byteLength" : 528,
            "byteOffset" : 18220
        },
        {
            "buffer" : 0,
            "byteLength" : 528,
            "byteOffset" : 18748
        },
        {
            "buffer" : 0,
            "byteLength" : 352,
            "byteOffset" : 19276
        },
        {
            "buffer" : 0,
            "byteLength" : 444,
            "byteOffset" : 19628
        },
        {
            "buffer" : 0,
            "byteLength" : 77,
            "byteOffset" : 20072
        },
        {
            "buffer" : 0,
            "byteLength" : 1752,
            "byteOffset" : 20152
        },
        {
            "buffer" : 0,
            "byteLength" : 1752,
            "byteOffset" : 21904
        },
        {
            "buffer" : 0,
            "byteLength" : 1168,
            "byteOffset" : 23656
        },
        {
            "buffer" : 0,
            "byteLength" : 768,
            "byteOffset" : 24824
        },
        {
            "buffer" : 0,
            "byteLength" : 1096,
            "byteOffset" : 25592
        },
        {
            "buffer" : 0,
            "byteLength" : 228,
            "byteOffset" : 26688
        },
        {
            "buffer" : 0,
            "byteLength" : 228,
            "byteOffset" : 26916
        },
        {
            "buffer" : 0,
            "byteLength" : 152,
            "byteOffset" : 27144
        },
        {
            "buffer" : 0,
            "byteLength" : 120,
            "byteOffset" : 27296
        },
        {
            "buffer" : 0,
            "byteLength" : 91,
            "byteOffset" : 27416
        }
    ],
    "buffers" : [
        {
            "byteLength" : 27508,
            "uri" : "data:application/octet-stream;base64,"
        }
    ]
}
