{
    "asset" : {
        "generator" : "Khronos Blender glTF 2.0 I/O",
        "version" : "2.0"
    },
    "scene" : 0,
    "scenes" : [
        {
            "name" : "Scene",
            "nodes" : [
                0
            ]
        }
    ],
    "nodes" : [
        {
            "mesh" : 0,
            "name" : "Dugtrio",
            "rotation" : [
                0.7071068286895752,
                0,
                0,
                0.7071067094802856
            ]
        }
    ],
    "materials" : [
        {
            "name" : "mat2.006",
            "pbrMetallicRoughness" : {
                "baseColorTexture" : {
                    "index" : 0,
                    "texCoord" : 0
                },
                "metallicFactor" : 0,
                "roughnessFactor" : 0.8945907354354858
            }
        },
        {
            "name" : "mat3.005",
            "pbrMetallicRoughness" : {
                "baseColorTexture" : {
                    "index" : 1,
                    "texCoord" : 0
                },
                "metallicFactor" : 0,
                "roughnessFactor" : 0.8945907354354858
            }
        },
        {
            "name" : "mat1.006",
            "pbrMetallicRoughness" : {
                "baseColorTexture" : {
                    "index" : 2,
                    "texCoord" : 0
                },
                "metallicFactor" : 0,
                "roughnessFactor" : 0.8945907354354858
            }
        }
    ],
    "meshes" : [
        {
            "name" : "Dugtrio",
            "primitives" : [
                {
                    "attributes" : {
                        "POSITION" : 0,
                        "NORMAL" : 1,
                        "TEXCOORD_0" : 2
                    },
                    "indices" : 3,
                    "material" : 0
                },
                {
                    "attributes" : {
                        "POSITION" : 4,
                        "NORMAL" : 5,
                        "TEXCOORD_0" : 6
                    },
                    "indices" : 7,
                    "material" : 1
                },
                {
                    "attributes" : {
                        "POSITION" : 8,
                        "NORMAL" : 9,
                        "TEXCOORD_0" : 10
                    },
                    "indices" : 11,
                    "material" : 2
                }
            ]
        }
    ],
    "textures" : [
        {
            "source" : 0
        },
        {
            "source" : 1
        },
        {
            "source" : 2
        }
    ],
    "images" : [
        {
            "bufferView" : 4,
            "mimeType" : "image/png",
            "name" : "DugtrioEyeDh.tga"
        },
        {
            "bufferView" : 9,
            "mimeType" : "image/png",
            "name" : "DugtrioDh.tga"
        },
        {
            "bufferView" : 14,
            "mimeType" : "image/png",
            "name" : "DugtrioDh.tga"
        }
    ],
    "accessors" : [
        {
            "bufferView" : 0,
            "componentType" : 5126,
            "count" : 66,
            "max" : [
                3.517254114151001,
                3.444883108139038,
                -1.824200987815857
            ],
            "min" : [
                -3.517251968383789,
                -1.3056060075759888,
                -6.419373035430908
            ],
            "type" : "VEC3"
        },
        {
            "bufferView" : 1,
            "componentType" : 5126,
            "count" : 66,
            "type" : "VEC3"
        },
        {
            "bufferView" : 2,
            "componentType" : 5126,
            "count" : 66,
            "type" : "VEC2"
        },
        {
            "bufferView" : 3,
            "componentType" : 5123,
            "count" : 198,
            "type" : "SCALAR"
        },
        {
            "bufferView" : 5,
            "componentType" : 5126,
            "count" : 180,
            "max" : [
                5.111036777496338,
                4.71757698059082,
                9.999999974752427e-07
            ],
            "min" : [
                -5.098886966705322,
                -5.2245869636535645,
                -1.0973320007324219
            ],
            "type" : "VEC3"
        },
        {
            "bufferView" : 6,
            "componentType" : 5126,
            "count" : 180,
            "type" : "VEC3"
        },
        {
            "bufferView" : 7,
            "componentType" : 5126,
            "count" : 180,
            "type" : "VEC2"
        },
        {
            "bufferView" : 8,
            "componentType" : 5123,
            "count" : 927,
            "type" : "SCALAR"
        },
        {
            "bufferView" : 10,
            "componentType" : 5126,
            "count" : 705,
            "max" : [
                3.8383429050445557,
                3.9222960472106934,
                -0.09822399914264679
            ],
            "min" : [
                -3.838340997695923,
                -3.964042901992798,
                -6.994627952575684
            ],
            "type" : "VEC3"
        },
        {
            "bufferView" : 11,
            "componentType" : 5126,
            "count" : 705,
            "type" : "VEC3"
        },
        {
            "bufferView" : 12,
            "componentType" : 5126,
            "count" : 705,
            "type" : "VEC2"
        },
        {
            "bufferView" : 13,
            "componentType" : 5123,
            "count" : 3420,
            "type" : "SCALAR"
        }
    ],
    "bufferViews" : [
        {
            "buffer" : 0,
            "byteLength" : 792,
            "byteOffset" : 0
        },
        {
            "buffer" : 0,
            "byteLength" : 792,
            "byteOffset" : 792
        },
        {
            "buffer" : 0,
            "byteLength" : 528,
            "byteOffset" : 1584
        },
        {
            "buffer" : 0,
            "byteLength" : 396,
            "byteOffset" : 2112
        },
        {
            "buffer" : 0,
            "byteLength" : 3937,
            "byteOffset" : 2508
        },
        {
            "buffer" : 0,
            "byteLength" : 2160,
            "byteOffset" : 6448
        },
        {
            "buffer" : 0,
            "byteLength" : 2160,
            "byteOffset" : 8608
        },
        {
            "buffer" : 0,
            "byteLength" : 1440,
            "byteOffset" : 10768
        },
        {
            "buffer" : 0,
            "byteLength" : 1854,
            "byteOffset" : 12208
        },
        {
            "buffer" : 0,
            "byteLength" : 21794,
            "byteOffset" : 14064
        },
        {
            "buffer" : 0,
            "byteLength" : 8460,
            "byteOffset" : 35860
        },
        {
            "buffer" : 0,
            "byteLength" : 8460,
            "byteOffset" : 44320
        },
        {
            "buffer" : 0,
            "byteLength" : 5640,
            "byteOffset" : 52780
        },
        {
            "buffer" : 0,
            "byteLength" : 6840,
            "byteOffset" : 58420
        },
        {
            "buffer" : 0,
            "byteLength" : 21794,
            "byteOffset" : 65260
        }
    ],
    "buffers" : [
        {
            "byteLength" : 87056,
            "uri" : "data:application/octet-stream;base64,"
        }
    ]
}
