{
    "asset" : {
        "generator" : "Khronos Blender glTF 2.0 I/O",
        "version" : "2.0"
    },
    "scene" : 0,
    "scenes" : [
        {
            "name" : "Scene",
            "nodes" : [
                0
            ]
        }
    ],
    "nodes" : [
        {
            "mesh" : 0,
            "name" : "arbo",
            "rotation" : [
                1,
                0,
                0,
                -1.6292068494294654e-07
            ]
        }
    ],
    "materials" : [
        {
            "name" : "mat_0",
            "pbrMetallicRoughness" : {
                "baseColorTexture" : {
                    "index" : 0,
                    "texCoord" : 0
                },
                "metallicFactor" : 0,
                "roughnessFactor" : 0.6732679605484009
            }
        },
        {
            "name" : "mat_1",
            "pbrMetallicRoughness" : {
                "baseColorTexture" : {
                    "index" : 1,
                    "texCoord" : 0
                },
                "metallicFactor" : 0,
                "roughnessFactor" : 0.6732679605484009
            }
        },
        {
            "name" : "mat_2",
            "pbrMetallicRoughness" : {
                "baseColorTexture" : {
                    "index" : 2,
                    "texCoord" : 0
                },
                "metallicFactor" : 0,
                "roughnessFactor" : 0.6732679605484009
            }
        },
        {
            "name" : "mat_3",
            "pbrMetallicRoughness" : {
                "baseColorTexture" : {
                    "index" : 3,
                    "texCoord" : 0
                },
                "metallicFactor" : 0,
                "roughnessFactor" : 0.6732679605484009
            }
        },
        {
            "name" : "mat_4",
            "pbrMetallicRoughness" : {
                "baseColorTexture" : {
                    "index" : 4,
                    "texCoord" : 0
                },
                "metallicFactor" : 0,
                "roughnessFactor" : 0.6732679605484009
            }
        },
        {
            "name" : "mat_5",
            "pbrMetallicRoughness" : {
                "baseColorTexture" : {
                    "index" : 5,
                    "texCoord" : 0
                },
                "metallicFactor" : 0,
                "roughnessFactor" : 0.6732679605484009
            }
        },
        {
            "name" : "mat_6",
            "pbrMetallicRoughness" : {
                "baseColorTexture" : {
                    "index" : 6,
                    "texCoord" : 0
                },
                "metallicFactor" : 0,
                "roughnessFactor" : 0.6732679605484009
            }
        },
        {
            "name" : "mat_7",
            "pbrMetallicRoughness" : {
                "baseColorTexture" : {
                    "index" : 7,
                    "texCoord" : 0
                },
                "metallicFactor" : 0,
                "roughnessFactor" : 0.6732679605484009
            }
        },
        {
            "name" : "mat_8",
            "pbrMetallicRoughness" : {
                "baseColorTexture" : {
                    "index" : 8,
                    "texCoord" : 0
                },
                "metallicFactor" : 0,
                "roughnessFactor" : 0.6732679605484009
            }
        }
    ],
    "meshes" : [
        {
            "name" : "arbo",
            "primitives" : [
                {
                    "attributes" : {
                        "POSITION" : 0,
                        "NORMAL" : 1,
                        "TEXCOORD_0" : 2
                    },
                    "indices" : 3,
                    "material" : 0
                },
                {
                    "attributes" : {
                        "POSITION" : 4,
                        "NORMAL" : 5,
                        "TEXCOORD_0" : 6
                    },
                    "indices" : 7,
                    "material" : 1
                },
                {
                    "attributes" : {
                        "POSITION" : 8,
                        "NORMAL" : 9,
                        "TEXCOORD_0" : 10
                    },
                    "indices" : 11,
                    "material" : 2
                },
                {
                    "attributes" : {
                        "POSITION" : 12,
                        "NORMAL" : 13,
                        "TEXCOORD_0" : 14
                    },
                    "indices" : 15,
                    "material" : 3
                },
                {
                    "attributes" : {
                        "POSITION" : 16,
                        "NORMAL" : 17,
                        "TEXCOORD_0" : 18
                    },
                    "indices" : 19,
                    "material" : 4
                },
                {
                    "attributes" : {
                        "POSITION" : 20,
                        "NORMAL" : 21,
                        "TEXCOORD_0" : 22
                    },
                    "indices" : 23,
                    "material" : 5
                },
                {
                    "attributes" : {
                        "POSITION" : 24,
                        "NORMAL" : 25,
                        "TEXCOORD_0" : 26
                    },
                    "indices" : 27,
                    "material" : 6
                },
                {
                    "attributes" : {
                        "POSITION" : 28,
                        "NORMAL" : 29,
                        "TEXCOORD_0" : 30
                    },
                    "indices" : 31,
                    "material" : 7
                },
                {
                    "attributes" : {
                        "POSITION" : 32,
                        "NORMAL" : 33,
                        "TEXCOORD_0" : 34
                    },
                    "indices" : 35,
                    "material" : 8
                }
            ]
        }
    ],
    "textures" : [
        {
            "source" : 0
        },
        {
            "source" : 1
        },
        {
            "source" : 2
        },
        {
            "source" : 3
        },
        {
            "source" : 4
        },
        {
            "source" : 5
        },
        {
            "source" : 6
        },
        {
            "source" : 7
        },
        {
            "source" : 8
        }
    ],
    "images" : [
        {
            "bufferView" : 4,
            "mimeType" : "image/png",
            "name" : "arbo_0_0.tga"
        },
        {
            "bufferView" : 9,
            "mimeType" : "image/png",
            "name" : "arbo_0_1.tga"
        },
        {
            "bufferView" : 14,
            "mimeType" : "image/png",
            "name" : "arbo_0_2.tga"
        },
        {
            "bufferView" : 19,
            "mimeType" : "image/png",
            "name" : "arbo_0_3.tga"
        },
        {
            "bufferView" : 24,
            "mimeType" : "image/png",
            "name" : "arbo_0_4.tga"
        },
        {
            "bufferView" : 29,
            "mimeType" : "image/png",
            "name" : "arbo_0_5.tga"
        },
        {
            "bufferView" : 34,
            "mimeType" : "image/png",
            "name" : "arbo_0_6.tga"
        },
        {
            "bufferView" : 39,
            "mimeType" : "image/png",
            "name" : "arbo_0_7.tga"
        },
        {
            "bufferView" : 44,
            "mimeType" : "image/png",
            "name" : "arbo_0_8.tga"
        }
    ],
    "accessors" : [
        {
            "bufferView" : 0,
            "componentType" : 5126,
            "count" : 263,
            "max" : [
                2.6511800289154053,
                -0.001512999995611608,
                4.312339782714844
            ],
            "min" : [
                -1.9205299615859985,
                -4.245850086212158,
                -1.6742500066757202
            ],
            "type" : "VEC3"
        },
        {
            "bufferView" : 1,
            "componentType" : 5126,
            "count" : 263,
            "type" : "VEC3"
        },
        {
            "bufferView" : 2,
            "componentType" : 5126,
            "count" : 263,
            "type" : "VEC2"
        },
        {
            "bufferView" : 3,
            "componentType" : 5123,
            "count" : 612,
            "type" : "SCALAR"
        },
        {
            "bufferView" : 5,
            "componentType" : 5126,
            "count" : 447,
            "max" : [
                2.5004100799560547,
                -0.2628290057182312,
                2.961869955062866
            ],
            "min" : [
                -1.9205299615859985,
                -3.653749942779541,
                -1.8426599502563477
            ],
            "type" : "VEC3"
        },
        {
            "bufferView" : 6,
            "componentType" : 5126,
            "count" : 447,
            "type" : "VEC3"
        },
        {
            "bufferView" : 7,
            "componentType" : 5126,
            "count" : 447,
            "type" : "VEC2"
        },
        {
            "bufferView" : 8,
            "componentType" : 5123,
            "count" : 951,
            "type" : "SCALAR"
        },
        {
            "bufferView" : 10,
            "componentType" : 5126,
            "count" : 58,
            "max" : [
                2.0554299354553223,
                -0.3127880096435547,
                1.1792900562286377
            ],
            "min" : [
                -1.9205299615859985,
                -2.424139976501465,
                -1.1212999820709229
            ],
            "type" : "VEC3"
        },
        {
            "bufferView" : 11,
            "componentType" : 5126,
            "count" : 58,
            "type" : "VEC3"
        },
        {
            "bufferView" : 12,
            "componentType" : 5126,
            "count" : 58,
            "type" : "VEC2"
        },
        {
            "bufferView" : 13,
            "componentType" : 5123,
            "count" : 120,
            "type" : "SCALAR"
        },
        {
            "bufferView" : 15,
            "componentType" : 5126,
            "count" : 8,
            "max" : [
                0.3298240005970001,
                -0.9975450038909912,
                2.082979917526245
            ],
            "min" : [
                -1.4033199548721313,
                -1.5246299505233765,
                0.9542109966278076
            ],
            "type" : "VEC3"
        },
        {
            "bufferView" : 16,
            "componentType" : 5126,
            "count" : 8,
            "type" : "VEC3"
        },
        {
            "bufferView" : 17,
            "componentType" : 5126,
            "count" : 8,
            "type" : "VEC2"
        },
        {
            "bufferView" : 18,
            "componentType" : 5123,
            "count" : 12,
            "type" : "SCALAR"
        },
        {
            "bufferView" : 20,
            "componentType" : 5126,
            "count" : 19,
            "max" : [
                2.2757699489593506,
                -2.544980049133301,
                -0.615917980670929
            ],
            "min" : [
                0.7297829985618591,
                -3.531670093536377,
                -1.5406299829483032
            ],
            "type" : "VEC3"
        },
        {
            "bufferView" : 21,
            "componentType" : 5126,
            "count" : 19,
            "type" : "VEC3"
        },
        {
            "bufferView" : 22,
            "componentType" : 5126,
            "count" : 19,
            "type" : "VEC2"
        },
        {
            "bufferView" : 23,
            "componentType" : 5123,
            "count" : 66,
            "type" : "SCALAR"
        },
        {
            "bufferView" : 25,
            "componentType" : 5126,
            "count" : 9,
            "max" : [
                1.8151600360870361,
                -2.3705599308013916,
                -1.485319972038269
            ],
            "min" : [
                1.142449975013733,
                -2.829740047454834,
                -1.8426599502563477
            ],
            "type" : "VEC3"
        },
        {
            "bufferView" : 26,
            "componentType" : 5126,
            "count" : 9,
            "type" : "VEC3"
        },
        {
            "bufferView" : 27,
            "componentType" : 5126,
            "count" : 9,
            "type" : "VEC2"
        },
        {
            "bufferView" : 28,
            "componentType" : 5123,
            "count" : 21,
            "type" : "SCALAR"
        },
        {
            "bufferView" : 30,
            "componentType" : 5126,
            "count" : 33,
            "max" : [
                2.3297600746154785,
                -2.211639881134033,
                -0.7749339938163757
            ],
            "min" : [
                0.6883739829063416,
                -2.519819974899292,
                -1.7996699810028076
            ],
            "type" : "VEC3"
        },
        {
            "bufferView" : 31,
            "componentType" : 5126,
            "count" : 33,
            "type" : "VEC3"
        },
        {
            "bufferView" : 32,
            "componentType" : 5126,
            "count" : 33,
            "type" : "VEC2"
        },
        {
            "bufferView" : 33,
            "componentType" : 5123,
            "count" : 81,
            "type" : "SCALAR"
        },
        {
            "bufferView" : 35,
            "componentType" : 5126,
            "count" : 7,
            "max" : [
                2.0898499488830566,
                -2.3139100074768066,
                -0.7749339938163757
            ],
            "min" : [
                0.9328110218048096,
                -2.519819974899292,
                -1.5583100318908691
            ],
            "type" : "VEC3"
        },
        {
            "bufferView" : 36,
            "componentType" : 5126,
            "count" : 7,
            "type" : "VEC3"
        },
        {
            "bufferView" : 37,
            "componentType" : 5126,
            "count" : 7,
            "type" : "VEC2"
        },
        {
            "bufferView" : 38,
            "componentType" : 5123,
            "count" : 21,
            "type" : "SCALAR"
        },
        {
            "bufferView" : 40,
            "componentType" : 5126,
            "count" : 30,
            "max" : [
                2.338710069656372,
                -2.722939968109131,
                -0.1859620064496994
            ],
            "min" : [
                0.6805790066719055,
                -3.3250200748443604,
                -0.9679549932479858
            ],
            "type" : "VEC3"
        },
        {
            "bufferView" : 41,
            "componentType" : 5126,
            "count" : 30,
            "type" : "VEC3"
        },
        {
            "bufferView" : 42,
            "componentType" : 5126,
            "count" : 30,
            "type" : "VEC2"
        },
        {
            "bufferView" : 43,
            "componentType" : 5123,
            "count" : 120,
            "type" : "SCALAR"
        }
    ],
    "bufferViews" : [
        {
            "buffer" : 0,
            "byteLength" : 3156,
            "byteOffset" : 0
        },
        {
            "buffer" : 0,
            "byteLength" : 3156,
            "byteOffset" : 3156
        },
        {
            "buffer" : 0,
            "byteLength" : 2104,
            "byteOffset" : 6312
        },
        {
            "buffer" : 0,
            "byteLength" : 1224,
            "byteOffset" : 8416
        },
        {
            "buffer" : 0,
            "byteLength" : 683,
            "byteOffset" : 9640
        },
        {
            "buffer" : 0,
            "byteLength" : 5364,
            "byteOffset" : 10324
        },
        {
            "buffer" : 0,
            "byteLength" : 5364,
            "byteOffset" : 15688
        },
        {
            "buffer" : 0,
            "byteLength" : 3576,
            "byteOffset" : 21052
        },
        {
            "buffer" : 0,
            "byteLength" : 1902,
            "byteOffset" : 24628
        },
        {
            "buffer" : 0,
            "byteLength" : 75,
            "byteOffset" : 26532
        },
        {
            "buffer" : 0,
            "byteLength" : 696,
            "byteOffset" : 26608
        },
        {
            "buffer" : 0,
            "byteLength" : 696,
            "byteOffset" : 27304
        },
        {
            "buffer" : 0,
            "byteLength" : 464,
            "byteOffset" : 28000
        },
        {
            "buffer" : 0,
            "byteLength" : 240,
            "byteOffset" : 28464
        },
        {
            "buffer" : 0,
            "byteLength" : 195,
            "byteOffset" : 28704
        },
        {
            "buffer" : 0,
            "byteLength" : 96,
            "byteOffset" : 28900
        },
        {
            "buffer" : 0,
            "byteLength" : 96,
            "byteOffset" : 28996
        },
        {
            "buffer" : 0,
            "byteLength" : 64,
            "byteOffset" : 29092
        },
        {
            "buffer" : 0,
            "byteLength" : 24,
            "byteOffset" : 29156
        },
        {
            "buffer" : 0,
            "byteLength" : 754,
            "byteOffset" : 29180
        },
        {
            "buffer" : 0,
            "byteLength" : 228,
            "byteOffset" : 29936
        },
        {
            "buffer" : 0,
            "byteLength" : 228,
            "byteOffset" : 30164
        },
        {
            "buffer" : 0,
            "byteLength" : 152,
            "byteOffset" : 30392
        },
        {
            "buffer" : 0,
            "byteLength" : 132,
            "byteOffset" : 30544
        },
        {
            "buffer" : 0,
            "byteLength" : 640,
            "byteOffset" : 30676
        },
        {
            "buffer" : 0,
            "byteLength" : 108,
            "byteOffset" : 31316
        },
        {
            "buffer" : 0,
            "byteLength" : 108,
            "byteOffset" : 31424
        },
        {
            "buffer" : 0,
            "byteLength" : 72,
            "byteOffset" : 31532
        },
        {
            "buffer" : 0,
            "byteLength" : 42,
            "byteOffset" : 31604
        },
        {
            "buffer" : 0,
            "byteLength" : 701,
            "byteOffset" : 31648
        },
        {
            "buffer" : 0,
            "byteLength" : 396,
            "byteOffset" : 32352
        },
        {
            "buffer" : 0,
            "byteLength" : 396,
            "byteOffset" : 32748
        },
        {
            "buffer" : 0,
            "byteLength" : 264,
            "byteOffset" : 33144
        },
        {
            "buffer" : 0,
            "byteLength" : 162,
            "byteOffset" : 33408
        },
        {
            "buffer" : 0,
            "byteLength" : 1464,
            "byteOffset" : 33572
        },
        {
            "buffer" : 0,
            "byteLength" : 84,
            "byteOffset" : 35036
        },
        {
            "buffer" : 0,
            "byteLength" : 84,
            "byteOffset" : 35120
        },
        {
            "buffer" : 0,
            "byteLength" : 56,
            "byteOffset" : 35204
        },
        {
            "buffer" : 0,
            "byteLength" : 42,
            "byteOffset" : 35260
        },
        {
            "buffer" : 0,
            "byteLength" : 1704,
            "byteOffset" : 35304
        },
        {
            "buffer" : 0,
            "byteLength" : 360,
            "byteOffset" : 37008
        },
        {
            "buffer" : 0,
            "byteLength" : 360,
            "byteOffset" : 37368
        },
        {
            "buffer" : 0,
            "byteLength" : 240,
            "byteOffset" : 37728
        },
        {
            "buffer" : 0,
            "byteLength" : 240,
            "byteOffset" : 37968
        },
        {
            "buffer" : 0,
            "byteLength" : 6738,
            "byteOffset" : 38208
        }
    ],
    "buffers" : [
        {
            "byteLength" : 44948,
            "uri" : "data:application/octet-stream;base64,"
        }
    ]
}
