{
    "asset" : {
        "generator" : "Khronos Blender glTF 2.0 I/O",
        "version" : "2.0"
    },
    "scene" : 0,
    "scenes" : [
        {
            "name" : "Scene",
            "nodes" : [
                0
            ]
        }
    ],
    "nodes" : [
        {
            "mesh" : 0,
            "name" : "Electrode",
            "rotation" : [
                0.7071068286895752,
                0,
                0,
                0.7071067094802856
            ]
        }
    ],
    "materials" : [
        {
            "name" : "mat4",
            "pbrMetallicRoughness" : {
                "baseColorTexture" : {
                    "index" : 0,
                    "texCoord" : 0
                },
                "metallicFactor" : 0,
                "roughnessFactor" : 0.8945907354354858
            }
        },
        {
            "name" : "mat1.002",
            "pbrMetallicRoughness" : {
                "baseColorTexture" : {
                    "index" : 1,
                    "texCoord" : 0
                },
                "metallicFactor" : 0,
                "roughnessFactor" : 0.8945907354354858
            }
        },
        {
            "name" : "mat2.002",
            "pbrMetallicRoughness" : {
                "baseColorTexture" : {
                    "index" : 2,
                    "texCoord" : 0
                },
                "metallicFactor" : 0,
                "roughnessFactor" : 0.8945907354354858
            }
        },
        {
            "name" : "mat3",
            "pbrMetallicRoughness" : {
                "baseColorTexture" : {
                    "index" : 3,
                    "texCoord" : 0
                },
                "metallicFactor" : 0,
                "roughnessFactor" : 0.8945907354354858
            }
        }
    ],
    "meshes" : [
        {
            "name" : "Electrode",
            "primitives" : [
                {
                    "attributes" : {
                        "POSITION" : 0,
                        "NORMAL" : 1,
                        "TEXCOORD_0" : 2
                    },
                    "indices" : 3,
                    "material" : 0
                },
                {
                    "attributes" : {
                        "POSITION" : 4,
                        "NORMAL" : 5,
                        "TEXCOORD_0" : 6
                    },
                    "indices" : 7,
                    "material" : 1
                },
                {
                    "attributes" : {
                        "POSITION" : 8,
                        "NORMAL" : 9,
                        "TEXCOORD_0" : 10
                    },
                    "indices" : 11,
                    "material" : 2
                },
                {
                    "attributes" : {
                        "POSITION" : 12,
                        "NORMAL" : 13,
                        "TEXCOORD_0" : 14
                    },
                    "indices" : 15,
                    "material" : 3
                }
            ]
        }
    ],
    "textures" : [
        {
            "source" : 0
        },
        {
            "source" : 1
        },
        {
            "source" : 2
        },
        {
            "source" : 3
        }
    ],
    "images" : [
        {
            "bufferView" : 4,
            "mimeType" : "image/png",
            "name" : "MarumineMouthDh.tga"
        },
        {
            "bufferView" : 9,
            "mimeType" : "image/png",
            "name" : "MarumineDh.tga"
        },
        {
            "bufferView" : 14,
            "mimeType" : "image/png",
            "name" : "MarumineEyeDh.tga"
        },
        {
            "bufferView" : 19,
            "mimeType" : "image/png",
            "name" : "MarumineDh.tga"
        }
    ],
    "accessors" : [
        {
            "bufferView" : 0,
            "componentType" : 5126,
            "count" : 35,
            "max" : [
                4.809878826141357,
                5.945336818695068,
                -1.7573599815368652
            ],
            "min" : [
                -4.809878826141357,
                2.4937620162963867,
                -5.282511234283447
            ],
            "type" : "VEC3"
        },
        {
            "bufferView" : 1,
            "componentType" : 5126,
            "count" : 35,
            "type" : "VEC3"
        },
        {
            "bufferView" : 2,
            "componentType" : 5126,
            "count" : 35,
            "type" : "VEC2"
        },
        {
            "bufferView" : 3,
            "componentType" : 5123,
            "count" : 144,
            "type" : "SCALAR"
        },
        {
            "bufferView" : 5,
            "componentType" : 5126,
            "count" : 858,
            "max" : [
                6.000000953674316,
                6.000000953674316,
                0
            ],
            "min" : [
                -6.000000953674316,
                -6.000001907348633,
                -12
            ],
            "type" : "VEC3"
        },
        {
            "bufferView" : 6,
            "componentType" : 5126,
            "count" : 858,
            "type" : "VEC3"
        },
        {
            "bufferView" : 7,
            "componentType" : 5126,
            "count" : 858,
            "type" : "VEC2"
        },
        {
            "bufferView" : 8,
            "componentType" : 5123,
            "count" : 3168,
            "type" : "SCALAR"
        },
        {
            "bufferView" : 10,
            "componentType" : 5126,
            "count" : 18,
            "max" : [
                3.494581937789917,
                5.945336818695068,
                -6.671648979187012
            ],
            "min" : [
                -3.494581937789917,
                4.325037002563477,
                -8.723943710327148
            ],
            "type" : "VEC3"
        },
        {
            "bufferView" : 11,
            "componentType" : 5126,
            "count" : 18,
            "type" : "VEC3"
        },
        {
            "bufferView" : 12,
            "componentType" : 5126,
            "count" : 18,
            "type" : "VEC2"
        },
        {
            "bufferView" : 13,
            "componentType" : 5123,
            "count" : 48,
            "type" : "SCALAR"
        },
        {
            "bufferView" : 15,
            "componentType" : 5126,
            "count" : 92,
            "max" : [
                3.7365610599517822,
                5.843400955200195,
                -7.626327991485596
            ],
            "min" : [
                -3.768109083175659,
                4.466639041900635,
                -9.715675354003906
            ],
            "type" : "VEC3"
        },
        {
            "bufferView" : 16,
            "componentType" : 5126,
            "count" : 92,
            "type" : "VEC3"
        },
        {
            "bufferView" : 17,
            "componentType" : 5126,
            "count" : 92,
            "type" : "VEC2"
        },
        {
            "bufferView" : 18,
            "componentType" : 5123,
            "count" : 276,
            "type" : "SCALAR"
        }
    ],
    "bufferViews" : [
        {
            "buffer" : 0,
            "byteLength" : 420,
            "byteOffset" : 0
        },
        {
            "buffer" : 0,
            "byteLength" : 420,
            "byteOffset" : 420
        },
        {
            "buffer" : 0,
            "byteLength" : 280,
            "byteOffset" : 840
        },
        {
            "buffer" : 0,
            "byteLength" : 288,
            "byteOffset" : 1120
        },
        {
            "buffer" : 0,
            "byteLength" : 12684,
            "byteOffset" : 1408
        },
        {
            "buffer" : 0,
            "byteLength" : 10296,
            "byteOffset" : 14092
        },
        {
            "buffer" : 0,
            "byteLength" : 10296,
            "byteOffset" : 24388
        },
        {
            "buffer" : 0,
            "byteLength" : 6864,
            "byteOffset" : 34684
        },
        {
            "buffer" : 0,
            "byteLength" : 6336,
            "byteOffset" : 41548
        },
        {
            "buffer" : 0,
            "byteLength" : 983,
            "byteOffset" : 47884
        },
        {
            "buffer" : 0,
            "byteLength" : 216,
            "byteOffset" : 48868
        },
        {
            "buffer" : 0,
            "byteLength" : 216,
            "byteOffset" : 49084
        },
        {
            "buffer" : 0,
            "byteLength" : 144,
            "byteOffset" : 49300
        },
        {
            "buffer" : 0,
            "byteLength" : 96,
            "byteOffset" : 49444
        },
        {
            "buffer" : 0,
            "byteLength" : 2412,
            "byteOffset" : 49540
        },
        {
            "buffer" : 0,
            "byteLength" : 1104,
            "byteOffset" : 51952
        },
        {
            "buffer" : 0,
            "byteLength" : 1104,
            "byteOffset" : 53056
        },
        {
            "buffer" : 0,
            "byteLength" : 736,
            "byteOffset" : 54160
        },
        {
            "buffer" : 0,
            "byteLength" : 552,
            "byteOffset" : 54896
        },
        {
            "buffer" : 0,
            "byteLength" : 983,
            "byteOffset" : 55448
        }
    ],
    "buffers" : [
        {
            "byteLength" : 56432,
            "uri" : "data:application/octet-stream;base64,"
        }
    ]
}
