{
    "asset" : {
        "generator" : "Khronos Blender glTF 2.0 I/O",
        "version" : "2.0"
    },
    "scene" : 0,
    "scenes" : [
        {
            "name" : "Scene",
            "nodes" : [
                0
            ]
        }
    ],
    "nodes" : [
        {
            "mesh" : 0,
            "name" : "Farfetch'd",
            "rotation" : [
                0.7071068286895752,
                0,
                0,
                0.7071067094802856
            ]
        }
    ],
    "materials" : [
        {
            "name" : "mat1.002",
            "pbrMetallicRoughness" : {
                "baseColorTexture" : {
                    "index" : 0,
                    "texCoord" : 0
                },
                "metallicFactor" : 0,
                "roughnessFactor" : 0.8945907354354858
            }
        },
        {
            "name" : "mat2.002",
            "pbrMetallicRoughness" : {
                "baseColorTexture" : {
                    "index" : 1,
                    "texCoord" : 0
                },
                "metallicFactor" : 0,
                "roughnessFactor" : 0.8945907354354858
            }
        }
    ],
    "meshes" : [
        {
            "name" : "Farfetch'd",
            "primitives" : [
                {
                    "attributes" : {
                        "POSITION" : 0,
                        "NORMAL" : 1,
                        "TEXCOORD_0" : 2
                    },
                    "indices" : 3,
                    "material" : 0
                },
                {
                    "attributes" : {
                        "POSITION" : 4,
                        "NORMAL" : 5,
                        "TEXCOORD_0" : 6
                    },
                    "indices" : 7,
                    "material" : 1
                }
            ]
        }
    ],
    "textures" : [
        {
            "source" : 0
        },
        {
            "source" : 1
        }
    ],
    "images" : [
        {
            "bufferView" : 4,
            "mimeType" : "image/png",
            "name" : "KamonegiDh.tga"
        },
        {
            "bufferView" : 9,
            "mimeType" : "image/png",
            "name" : "KamonegiEyeDh.tga"
        }
    ],
    "accessors" : [
        {
            "bufferView" : 0,
            "componentType" : 5126,
            "count" : 1097,
            "max" : [
                6.285457134246826,
                4.525922775268555,
                -0.005189999938011169
            ],
            "min" : [
                -6.285458087921143,
                -3.2664620876312256,
                -7.700070858001709
            ],
            "type" : "VEC3"
        },
        {
            "bufferView" : 1,
            "componentType" : 5126,
            "count" : 1097,
            "type" : "VEC3"
        },
        {
            "bufferView" : 2,
            "componentType" : 5126,
            "count" : 1097,
            "type" : "VEC2"
        },
        {
            "bufferView" : 3,
            "componentType" : 5123,
            "count" : 4674,
            "type" : "SCALAR"
        },
        {
            "bufferView" : 5,
            "componentType" : 5126,
            "count" : 34,
            "max" : [
                1.0977469682693481,
                2.2093560695648193,
                -4.717306137084961
            ],
            "min" : [
                -1.0977519750595093,
                1.631371021270752,
                -5.935462951660156
            ],
            "type" : "VEC3"
        },
        {
            "bufferView" : 6,
            "componentType" : 5126,
            "count" : 34,
            "type" : "VEC3"
        },
        {
            "bufferView" : 7,
            "componentType" : 5126,
            "count" : 34,
            "type" : "VEC2"
        },
        {
            "bufferView" : 8,
            "componentType" : 5123,
            "count" : 126,
            "type" : "SCALAR"
        }
    ],
    "bufferViews" : [
        {
            "buffer" : 0,
            "byteLength" : 13164,
            "byteOffset" : 0
        },
        {
            "buffer" : 0,
            "byteLength" : 13164,
            "byteOffset" : 13164
        },
        {
            "buffer" : 0,
            "byteLength" : 8776,
            "byteOffset" : 26328
        },
        {
            "buffer" : 0,
            "byteLength" : 9348,
            "byteOffset" : 35104
        },
        {
            "buffer" : 0,
            "byteLength" : 24094,
            "byteOffset" : 44452
        },
        {
            "buffer" : 0,
            "byteLength" : 408,
            "byteOffset" : 68548
        },
        {
            "buffer" : 0,
            "byteLength" : 408,
            "byteOffset" : 68956
        },
        {
            "buffer" : 0,
            "byteLength" : 272,
            "byteOffset" : 69364
        },
        {
            "buffer" : 0,
            "byteLength" : 252,
            "byteOffset" : 69636
        },
        {
            "buffer" : 0,
            "byteLength" : 8326,
            "byteOffset" : 69888
        }
    ],
    "buffers" : [
        {
            "byteLength" : 78216,
            "uri" : "data:application/octet-stream;base64,"
        }
    ]
}
