{
    "asset" : {
        "generator" : "Khronos Blender glTF 2.0 I/O",
        "version" : "2.0"
    },
    "scene" : 0,
    "scenes" : [
        {
            "name" : "Scene",
            "nodes" : [
                0
            ]
        }
    ],
    "nodes" : [
        {
            "mesh" : 0,
            "name" : "Gastly",
            "rotation" : [
                0.7071068286895752,
                0,
                0,
                0.7071067094802856
            ]
        }
    ],
    "materials" : [
        {
            "name" : "mat1",
            "pbrMetallicRoughness" : {
                "baseColorTexture" : {
                    "index" : 0,
                    "texCoord" : 0
                },
                "metallicFactor" : 0,
                "roughnessFactor" : 0.8945907354354858
            }
        },
        {
            "name" : "mat2",
            "pbrMetallicRoughness" : {
                "baseColorTexture" : {
                    "index" : 1,
                    "texCoord" : 0
                },
                "metallicFactor" : 0,
                "roughnessFactor" : 0.8945907354354858
            }
        }
    ],
    "meshes" : [
        {
            "name" : "Gastly",
            "primitives" : [
                {
                    "attributes" : {
                        "POSITION" : 0,
                        "NORMAL" : 1,
                        "TEXCOORD_0" : 2
                    },
                    "indices" : 3,
                    "material" : 0
                },
                {
                    "attributes" : {
                        "POSITION" : 4,
                        "NORMAL" : 5,
                        "TEXCOORD_0" : 6
                    },
                    "indices" : 7,
                    "material" : 1
                }
            ]
        }
    ],
    "textures" : [
        {
            "source" : 0
        },
        {
            "source" : 1
        }
    ],
    "images" : [
        {
            "bufferView" : 4,
            "mimeType" : "image/png",
            "name" : "GhosDh.tga"
        },
        {
            "bufferView" : 9,
            "mimeType" : "image/png",
            "name" : "GhosEyeDh.tga"
        }
    ],
    "accessors" : [
        {
            "bufferView" : 0,
            "componentType" : 5126,
            "count" : 980,
            "max" : [
                4.194934844970703,
                3.7348899841308594,
                -0.0015879999846220016
            ],
            "min" : [
                -4.194913864135742,
                -3.4219748973846436,
                -6.872050762176514
            ],
            "type" : "VEC3"
        },
        {
            "bufferView" : 1,
            "componentType" : 5126,
            "count" : 980,
            "type" : "VEC3"
        },
        {
            "bufferView" : 2,
            "componentType" : 5126,
            "count" : 980,
            "type" : "VEC2"
        },
        {
            "bufferView" : 3,
            "componentType" : 5123,
            "count" : 4302,
            "type" : "SCALAR"
        },
        {
            "bufferView" : 5,
            "componentType" : 5126,
            "count" : 16,
            "max" : [
                2.370429039001465,
                3.6409289836883545,
                -3.2559781074523926
            ],
            "min" : [
                -2.3704071044921875,
                3.248307943344116,
                -4.4559149742126465
            ],
            "type" : "VEC3"
        },
        {
            "bufferView" : 6,
            "componentType" : 5126,
            "count" : 16,
            "type" : "VEC3"
        },
        {
            "bufferView" : 7,
            "componentType" : 5126,
            "count" : 16,
            "type" : "VEC2"
        },
        {
            "bufferView" : 8,
            "componentType" : 5123,
            "count" : 42,
            "type" : "SCALAR"
        }
    ],
    "bufferViews" : [
        {
            "buffer" : 0,
            "byteLength" : 11760,
            "byteOffset" : 0
        },
        {
            "buffer" : 0,
            "byteLength" : 11760,
            "byteOffset" : 11760
        },
        {
            "buffer" : 0,
            "byteLength" : 7840,
            "byteOffset" : 23520
        },
        {
            "buffer" : 0,
            "byteLength" : 8604,
            "byteOffset" : 31360
        },
        {
            "buffer" : 0,
            "byteLength" : 7446,
            "byteOffset" : 39964
        },
        {
            "buffer" : 0,
            "byteLength" : 192,
            "byteOffset" : 47412
        },
        {
            "buffer" : 0,
            "byteLength" : 192,
            "byteOffset" : 47604
        },
        {
            "buffer" : 0,
            "byteLength" : 128,
            "byteOffset" : 47796
        },
        {
            "buffer" : 0,
            "byteLength" : 84,
            "byteOffset" : 47924
        },
        {
            "buffer" : 0,
            "byteLength" : 2247,
            "byteOffset" : 48008
        }
    ],
    "buffers" : [
        {
            "byteLength" : 50256,
            "uri" : "data:application/octet-stream;base64,"
        }
    ]
}
