{
    "asset" : {
        "generator" : "Khronos Blender glTF 2.0 I/O",
        "version" : "2.0"
    },
    "scene" : 0,
    "scenes" : [
        {
            "name" : "Scene",
            "nodes" : [
                0
            ]
        }
    ],
    "nodes" : [
        {
            "mesh" : 0,
            "name" : "Gyarados",
            "rotation" : [
                0.7071068286895752,
                0,
                0,
                0.7071067094802856
            ],
            "translation" : [
                0,
                -5.380098819732666,
                0
            ]
        }
    ],
    "materials" : [
        {
            "name" : "mat2.004",
            "pbrMetallicRoughness" : {
                "baseColorTexture" : {
                    "index" : 0,
                    "texCoord" : 0
                },
                "metallicFactor" : 0,
                "roughnessFactor" : 0.8945907354354858
            }
        },
        {
            "name" : "mat1.004",
            "pbrMetallicRoughness" : {
                "baseColorTexture" : {
                    "index" : 1,
                    "texCoord" : 0
                },
                "metallicFactor" : 0,
                "roughnessFactor" : 0.8945907354354858
            }
        }
    ],
    "meshes" : [
        {
            "name" : "Gyarados",
            "primitives" : [
                {
                    "attributes" : {
                        "POSITION" : 0,
                        "NORMAL" : 1,
                        "TEXCOORD_0" : 2
                    },
                    "indices" : 3,
                    "material" : 0
                },
                {
                    "attributes" : {
                        "POSITION" : 4,
                        "NORMAL" : 5,
                        "TEXCOORD_0" : 6
                    },
                    "indices" : 7,
                    "material" : 1
                }
            ]
        }
    ],
    "textures" : [
        {
            "source" : 0
        },
        {
            "source" : 1
        }
    ],
    "images" : [
        {
            "bufferView" : 4,
            "mimeType" : "image/png",
            "name" : "GyaradosEyeDh.tga"
        },
        {
            "bufferView" : 9,
            "mimeType" : "image/png",
            "name" : "GyaradosDh.tga"
        }
    ],
    "accessors" : [
        {
            "bufferView" : 0,
            "componentType" : 5126,
            "count" : 6,
            "max" : [
                2.600330114364624,
                16.606931686401367,
                -28.574674606323242
            ],
            "min" : [
                -2.600330114364624,
                14.592487335205078,
                -30.826488494873047
            ],
            "type" : "VEC3"
        },
        {
            "bufferView" : 1,
            "componentType" : 5126,
            "count" : 6,
            "type" : "VEC3"
        },
        {
            "bufferView" : 2,
            "componentType" : 5126,
            "count" : 6,
            "type" : "VEC2"
        },
        {
            "bufferView" : 3,
            "componentType" : 5123,
            "count" : 6,
            "type" : "SCALAR"
        },
        {
            "bufferView" : 5,
            "componentType" : 5126,
            "count" : 1339,
            "max" : [
                7.89890718460083,
                18.430856704711914,
                -9.188179016113281
            ],
            "min" : [
                -7.898906230926514,
                -37.8957405090332,
                -39.08327102661133
            ],
            "type" : "VEC3"
        },
        {
            "bufferView" : 6,
            "componentType" : 5126,
            "count" : 1339,
            "type" : "VEC3"
        },
        {
            "bufferView" : 7,
            "componentType" : 5126,
            "count" : 1339,
            "type" : "VEC2"
        },
        {
            "bufferView" : 8,
            "componentType" : 5123,
            "count" : 4647,
            "type" : "SCALAR"
        }
    ],
    "bufferViews" : [
        {
            "buffer" : 0,
            "byteLength" : 72,
            "byteOffset" : 0
        },
        {
            "buffer" : 0,
            "byteLength" : 72,
            "byteOffset" : 72
        },
        {
            "buffer" : 0,
            "byteLength" : 48,
            "byteOffset" : 144
        },
        {
            "buffer" : 0,
            "byteLength" : 12,
            "byteOffset" : 192
        },
        {
            "buffer" : 0,
            "byteLength" : 12803,
            "byteOffset" : 204
        },
        {
            "buffer" : 0,
            "byteLength" : 16068,
            "byteOffset" : 13008
        },
        {
            "buffer" : 0,
            "byteLength" : 16068,
            "byteOffset" : 29076
        },
        {
            "buffer" : 0,
            "byteLength" : 10712,
            "byteOffset" : 45144
        },
        {
            "buffer" : 0,
            "byteLength" : 9294,
            "byteOffset" : 55856
        },
        {
            "buffer" : 0,
            "byteLength" : 32017,
            "byteOffset" : 65152
        }
    ],
    "buffers" : [
        {
            "byteLength" : 97172,
            "uri" : "data:application/octet-stream;base64,"
        }
    ]
}
