{
    "asset" : {
        "generator" : "Khronos Blender glTF 2.0 I/O",
        "version" : "2.0"
    },
    "scene" : 0,
    "scenes" : [
        {
            "name" : "Scene",
            "nodes" : [
                0
            ]
        }
    ],
    "nodes" : [
        {
            "mesh" : 0,
            "name" : "Hitmonchan",
            "rotation" : [
                0.7071068286895752,
                0,
                0,
                0.7071067094802856
            ]
        }
    ],
    "materials" : [
        {
            "name" : "mat2.003",
            "pbrMetallicRoughness" : {
                "baseColorTexture" : {
                    "index" : 0,
                    "texCoord" : 0
                },
                "metallicFactor" : 0,
                "roughnessFactor" : 0.8945907354354858
            }
        },
        {
            "name" : "mat3.001",
            "pbrMetallicRoughness" : {
                "baseColorTexture" : {
                    "index" : 1,
                    "texCoord" : 0
                },
                "metallicFactor" : 0,
                "roughnessFactor" : 0.8945907354354858
            }
        },
        {
            "name" : "mat1.003",
            "pbrMetallicRoughness" : {
                "baseColorTexture" : {
                    "index" : 2,
                    "texCoord" : 0
                },
                "metallicFactor" : 0,
                "roughnessFactor" : 0.8945907354354858
            }
        }
    ],
    "meshes" : [
        {
            "name" : "Hitmonchan",
            "primitives" : [
                {
                    "attributes" : {
                        "POSITION" : 0,
                        "NORMAL" : 1,
                        "TEXCOORD_0" : 2
                    },
                    "indices" : 3,
                    "material" : 0
                },
                {
                    "attributes" : {
                        "POSITION" : 4,
                        "NORMAL" : 5,
                        "TEXCOORD_0" : 6
                    },
                    "indices" : 7,
                    "material" : 1
                },
                {
                    "attributes" : {
                        "POSITION" : 8,
                        "NORMAL" : 9,
                        "TEXCOORD_0" : 10
                    },
                    "indices" : 11,
                    "material" : 2
                }
            ]
        }
    ],
    "textures" : [
        {
            "source" : 0
        },
        {
            "source" : 1
        },
        {
            "source" : 2
        }
    ],
    "images" : [
        {
            "bufferView" : 4,
            "mimeType" : "image/png",
            "name" : "EbiwalarEyeDh.tga"
        },
        {
            "bufferView" : 9,
            "mimeType" : "image/png",
            "name" : "EbiwalarDh.tga"
        },
        {
            "bufferView" : 14,
            "mimeType" : "image/png",
            "name" : "EbiwalarDh.tga"
        }
    ],
    "accessors" : [
        {
            "bufferView" : 0,
            "componentType" : 5126,
            "count" : 24,
            "max" : [
                1.1196520328521729,
                2.300463914871216,
                -9.22260856628418
            ],
            "min" : [
                -1.1196520328521729,
                1.3772690296173096,
                -10.4817533493042
            ],
            "type" : "VEC3"
        },
        {
            "bufferView" : 1,
            "componentType" : 5126,
            "count" : 24,
            "type" : "VEC3"
        },
        {
            "bufferView" : 2,
            "componentType" : 5126,
            "count" : 24,
            "type" : "VEC2"
        },
        {
            "bufferView" : 3,
            "componentType" : 5123,
            "count" : 72,
            "type" : "SCALAR"
        },
        {
            "bufferView" : 5,
            "componentType" : 5126,
            "count" : 182,
            "max" : [
                8.19231128692627,
                1.1097990274429321,
                -7.32839298248291
            ],
            "min" : [
                -8.19231128692627,
                -0.7293940186500549,
                -9.062591552734375
            ],
            "type" : "VEC3"
        },
        {
            "bufferView" : 6,
            "componentType" : 5126,
            "count" : 182,
            "type" : "VEC3"
        },
        {
            "bufferView" : 7,
            "componentType" : 5126,
            "count" : 182,
            "type" : "VEC2"
        },
        {
            "bufferView" : 8,
            "componentType" : 5123,
            "count" : 768,
            "type" : "SCALAR"
        },
        {
            "bufferView" : 10,
            "componentType" : 5126,
            "count" : 986,
            "max" : [
                5.97805118560791,
                2.326986074447632,
                9.999999974752427e-07
            ],
            "min" : [
                -5.97805118560791,
                -1.6565940380096436,
                -12.493295669555664
            ],
            "type" : "VEC3"
        },
        {
            "bufferView" : 11,
            "componentType" : 5126,
            "count" : 986,
            "type" : "VEC3"
        },
        {
            "bufferView" : 12,
            "componentType" : 5126,
            "count" : 986,
            "type" : "VEC2"
        },
        {
            "bufferView" : 13,
            "componentType" : 5123,
            "count" : 3756,
            "type" : "SCALAR"
        }
    ],
    "bufferViews" : [
        {
            "buffer" : 0,
            "byteLength" : 288,
            "byteOffset" : 0
        },
        {
            "buffer" : 0,
            "byteLength" : 288,
            "byteOffset" : 288
        },
        {
            "buffer" : 0,
            "byteLength" : 192,
            "byteOffset" : 576
        },
        {
            "buffer" : 0,
            "byteLength" : 144,
            "byteOffset" : 768
        },
        {
            "buffer" : 0,
            "byteLength" : 11376,
            "byteOffset" : 912
        },
        {
            "buffer" : 0,
            "byteLength" : 2184,
            "byteOffset" : 12288
        },
        {
            "buffer" : 0,
            "byteLength" : 2184,
            "byteOffset" : 14472
        },
        {
            "buffer" : 0,
            "byteLength" : 1456,
            "byteOffset" : 16656
        },
        {
            "buffer" : 0,
            "byteLength" : 1536,
            "byteOffset" : 18112
        },
        {
            "buffer" : 0,
            "byteLength" : 35893,
            "byteOffset" : 19648
        },
        {
            "buffer" : 0,
            "byteLength" : 11832,
            "byteOffset" : 55544
        },
        {
            "buffer" : 0,
            "byteLength" : 11832,
            "byteOffset" : 67376
        },
        {
            "buffer" : 0,
            "byteLength" : 7888,
            "byteOffset" : 79208
        },
        {
            "buffer" : 0,
            "byteLength" : 7512,
            "byteOffset" : 87096
        },
        {
            "buffer" : 0,
            "byteLength" : 35893,
            "byteOffset" : 94608
        }
    ],
    "buffers" : [
        {
            "byteLength" : 130504,
            "uri" : "data:application/octet-stream;base64,"
        }
    ]
}
