{
    "asset" : {
        "generator" : "Khronos Blender glTF 2.0 I/O",
        "version" : "2.0"
    },
    "scene" : 0,
    "scenes" : [
        {
            "name" : "Scene",
            "nodes" : [
                0
            ]
        }
    ],
    "nodes" : [
        {
            "mesh" : 0,
            "name" : "tattu.001",
            "rotation" : [
                1,
                0,
                0,
                -1.6292068494294654e-07
            ]
        }
    ],
    "materials" : [
        {
            "name" : "mat_0.002",
            "pbrMetallicRoughness" : {
                "baseColorTexture" : {
                    "index" : 0,
                    "texCoord" : 0
                },
                "metallicFactor" : 0,
                "roughnessFactor" : 0.6732679605484009
            }
        },
        {
            "name" : "mat_1.002",
            "pbrMetallicRoughness" : {
                "baseColorTexture" : {
                    "index" : 1,
                    "texCoord" : 0
                },
                "metallicFactor" : 0,
                "roughnessFactor" : 0.6732679605484009
            }
        },
        {
            "name" : "mat_2.001",
            "pbrMetallicRoughness" : {
                "baseColorTexture" : {
                    "index" : 2,
                    "texCoord" : 0
                },
                "metallicFactor" : 0,
                "roughnessFactor" : 0.6732679605484009
            }
        },
        {
            "name" : "mat_3.001",
            "pbrMetallicRoughness" : {
                "baseColorTexture" : {
                    "index" : 3,
                    "texCoord" : 0
                },
                "metallicFactor" : 0,
                "roughnessFactor" : 0.6732679605484009
            }
        },
        {
            "name" : "mat_4.001",
            "pbrMetallicRoughness" : {
                "baseColorTexture" : {
                    "index" : 4,
                    "texCoord" : 0
                },
                "metallicFactor" : 0,
                "roughnessFactor" : 0.6732679605484009
            }
        },
        {
            "name" : "mat_5.001",
            "pbrMetallicRoughness" : {
                "baseColorTexture" : {
                    "index" : 5,
                    "texCoord" : 0
                },
                "metallicFactor" : 0,
                "roughnessFactor" : 0.6732679605484009
            }
        }
    ],
    "meshes" : [
        {
            "name" : "tattu.001",
            "primitives" : [
                {
                    "attributes" : {
                        "POSITION" : 0,
                        "NORMAL" : 1,
                        "TEXCOORD_0" : 2
                    },
                    "indices" : 3,
                    "material" : 0
                },
                {
                    "attributes" : {
                        "POSITION" : 4,
                        "NORMAL" : 5,
                        "TEXCOORD_0" : 6
                    },
                    "indices" : 7,
                    "material" : 1
                },
                {
                    "attributes" : {
                        "POSITION" : 8,
                        "NORMAL" : 9,
                        "TEXCOORD_0" : 10
                    },
                    "indices" : 11,
                    "material" : 2
                },
                {
                    "attributes" : {
                        "POSITION" : 12,
                        "NORMAL" : 13,
                        "TEXCOORD_0" : 14
                    },
                    "indices" : 15,
                    "material" : 3
                },
                {
                    "attributes" : {
                        "POSITION" : 16,
                        "NORMAL" : 17,
                        "TEXCOORD_0" : 18
                    },
                    "indices" : 19,
                    "material" : 4
                },
                {
                    "attributes" : {
                        "POSITION" : 20,
                        "NORMAL" : 21,
                        "TEXCOORD_0" : 22
                    },
                    "indices" : 23,
                    "material" : 5
                }
            ]
        }
    ],
    "textures" : [
        {
            "source" : 0
        },
        {
            "source" : 1
        },
        {
            "source" : 2
        },
        {
            "source" : 3
        },
        {
            "source" : 4
        },
        {
            "source" : 5
        }
    ],
    "images" : [
        {
            "bufferView" : 4,
            "mimeType" : "image/png",
            "name" : "tattu_0_0.tga.001"
        },
        {
            "bufferView" : 9,
            "mimeType" : "image/png",
            "name" : "tattu_0_1.tga.001"
        },
        {
            "bufferView" : 14,
            "mimeType" : "image/png",
            "name" : "tattu_0_1.tga.001"
        },
        {
            "bufferView" : 19,
            "mimeType" : "image/png",
            "name" : "tattu_0_3.tga.001"
        },
        {
            "bufferView" : 24,
            "mimeType" : "image/png",
            "name" : "tattu_0_4.tga.001"
        },
        {
            "bufferView" : 29,
            "mimeType" : "image/png",
            "name" : "tattu_0_5.tga.001"
        }
    ],
    "accessors" : [
        {
            "bufferView" : 0,
            "componentType" : 5126,
            "count" : 45,
            "max" : [
                0.6945750117301941,
                0.8500000238418579,
                0.05000000074505806
            ],
            "min" : [
                -0.6945750117301941,
                -0.5,
                -0.6825000047683716
            ],
            "type" : "VEC3"
        },
        {
            "bufferView" : 1,
            "componentType" : 5126,
            "count" : 45,
            "type" : "VEC3"
        },
        {
            "bufferView" : 2,
            "componentType" : 5126,
            "count" : 45,
            "type" : "VEC2"
        },
        {
            "bufferView" : 3,
            "componentType" : 5123,
            "count" : 120,
            "type" : "SCALAR"
        },
        {
            "bufferView" : 5,
            "componentType" : 5126,
            "count" : 258,
            "max" : [
                2.2074100971221924,
                1.5651899576187134,
                0.897773027420044
            ],
            "min" : [
                -2.2074100971221924,
                -2.633699893951416,
                -2.010010004043579
            ],
            "type" : "VEC3"
        },
        {
            "bufferView" : 6,
            "componentType" : 5126,
            "count" : 258,
            "type" : "VEC3"
        },
        {
            "bufferView" : 7,
            "componentType" : 5126,
            "count" : 258,
            "type" : "VEC2"
        },
        {
            "bufferView" : 8,
            "componentType" : 5123,
            "count" : 828,
            "type" : "SCALAR"
        },
        {
            "bufferView" : 10,
            "componentType" : 5126,
            "count" : 185,
            "max" : [
                1.125,
                -0.5,
                1.0699399709701538
            ],
            "min" : [
                -1.125,
                -2.4549999237060547,
                -1.033810019493103
            ],
            "type" : "VEC3"
        },
        {
            "bufferView" : 11,
            "componentType" : 5126,
            "count" : 185,
            "type" : "VEC3"
        },
        {
            "bufferView" : 12,
            "componentType" : 5126,
            "count" : 185,
            "type" : "VEC2"
        },
        {
            "bufferView" : 13,
            "componentType" : 5123,
            "count" : 660,
            "type" : "SCALAR"
        },
        {
            "bufferView" : 15,
            "componentType" : 5126,
            "count" : 16,
            "max" : [
                0.9101439714431763,
                -1.2276899814605713,
                -0.42082199454307556
            ],
            "min" : [
                -0.9101439714431763,
                -2.1621100902557373,
                -0.9629449844360352
            ],
            "type" : "VEC3"
        },
        {
            "bufferView" : 16,
            "componentType" : 5126,
            "count" : 16,
            "type" : "VEC3"
        },
        {
            "bufferView" : 17,
            "componentType" : 5126,
            "count" : 16,
            "type" : "VEC2"
        },
        {
            "bufferView" : 18,
            "componentType" : 5123,
            "count" : 30,
            "type" : "SCALAR"
        },
        {
            "bufferView" : 20,
            "componentType" : 5126,
            "count" : 16,
            "max" : [
                0.37619999051094055,
                -0.7237380146980286,
                -1.8793599605560303
            ],
            "min" : [
                -0.37619999051094055,
                -1.464709997177124,
                -2.052720069885254
            ],
            "type" : "VEC3"
        },
        {
            "bufferView" : 21,
            "componentType" : 5126,
            "count" : 16,
            "type" : "VEC3"
        },
        {
            "bufferView" : 22,
            "componentType" : 5126,
            "count" : 16,
            "type" : "VEC2"
        },
        {
            "bufferView" : 23,
            "componentType" : 5123,
            "count" : 66,
            "type" : "SCALAR"
        },
        {
            "bufferView" : 25,
            "componentType" : 5126,
            "count" : 22,
            "max" : [
                0.05681300163269043,
                0.11111599951982498,
                1.5422799587249756
            ],
            "min" : [
                -0.0569939985871315,
                -0.8153610229492188,
                0.5825909972190857
            ],
            "type" : "VEC3"
        },
        {
            "bufferView" : 26,
            "componentType" : 5126,
            "count" : 22,
            "type" : "VEC3"
        },
        {
            "bufferView" : 27,
            "componentType" : 5126,
            "count" : 22,
            "type" : "VEC2"
        },
        {
            "bufferView" : 28,
            "componentType" : 5123,
            "count" : 63,
            "type" : "SCALAR"
        }
    ],
    "bufferViews" : [
        {
            "buffer" : 0,
            "byteLength" : 540,
            "byteOffset" : 0
        },
        {
            "buffer" : 0,
            "byteLength" : 540,
            "byteOffset" : 540
        },
        {
            "buffer" : 0,
            "byteLength" : 360,
            "byteOffset" : 1080
        },
        {
            "buffer" : 0,
            "byteLength" : 240,
            "byteOffset" : 1440
        },
        {
            "buffer" : 0,
            "byteLength" : 1431,
            "byteOffset" : 1680
        },
        {
            "buffer" : 0,
            "byteLength" : 3096,
            "byteOffset" : 3112
        },
        {
            "buffer" : 0,
            "byteLength" : 3096,
            "byteOffset" : 6208
        },
        {
            "buffer" : 0,
            "byteLength" : 2064,
            "byteOffset" : 9304
        },
        {
            "buffer" : 0,
            "byteLength" : 1656,
            "byteOffset" : 11368
        },
        {
            "buffer" : 0,
            "byteLength" : 75,
            "byteOffset" : 13024
        },
        {
            "buffer" : 0,
            "byteLength" : 2220,
            "byteOffset" : 13100
        },
        {
            "buffer" : 0,
            "byteLength" : 2220,
            "byteOffset" : 15320
        },
        {
            "buffer" : 0,
            "byteLength" : 1480,
            "byteOffset" : 17540
        },
        {
            "buffer" : 0,
            "byteLength" : 1320,
            "byteOffset" : 19020
        },
        {
            "buffer" : 0,
            "byteLength" : 75,
            "byteOffset" : 20340
        },
        {
            "buffer" : 0,
            "byteLength" : 192,
            "byteOffset" : 20416
        },
        {
            "buffer" : 0,
            "byteLength" : 192,
            "byteOffset" : 20608
        },
        {
            "buffer" : 0,
            "byteLength" : 128,
            "byteOffset" : 20800
        },
        {
            "buffer" : 0,
            "byteLength" : 60,
            "byteOffset" : 20928
        },
        {
            "buffer" : 0,
            "byteLength" : 3792,
            "byteOffset" : 20988
        },
        {
            "buffer" : 0,
            "byteLength" : 192,
            "byteOffset" : 24780
        },
        {
            "buffer" : 0,
            "byteLength" : 192,
            "byteOffset" : 24972
        },
        {
            "buffer" : 0,
            "byteLength" : 128,
            "byteOffset" : 25164
        },
        {
            "buffer" : 0,
            "byteLength" : 132,
            "byteOffset" : 25292
        },
        {
            "buffer" : 0,
            "byteLength" : 823,
            "byteOffset" : 25424
        },
        {
            "buffer" : 0,
            "byteLength" : 264,
            "byteOffset" : 26248
        },
        {
            "buffer" : 0,
            "byteLength" : 264,
            "byteOffset" : 26512
        },
        {
            "buffer" : 0,
            "byteLength" : 176,
            "byteOffset" : 26776
        },
        {
            "buffer" : 0,
            "byteLength" : 126,
            "byteOffset" : 26952
        },
        {
            "buffer" : 0,
            "byteLength" : 1457,
            "byteOffset" : 27080
        }
    ],
    "buffers" : [
        {
            "byteLength" : 28540,
            "uri" : "data:application/octet-stream;base64,"
        }
    ]
}
