{
    "asset" : {
        "generator" : "Khronos Blender glTF 2.0 I/O",
        "version" : "2.0"
    },
    "scene" : 0,
    "scenes" : [
        {
            "name" : "1",
            "nodes" : [
                0
            ]
        }
    ],
    "nodes" : [
        {
            "mesh" : 0,
            "name" : "fushigisou_mat_0",
            "rotation" : [
                0.7071068286895752,
                0,
                0,
                0.7071068286895752
            ]
        }
    ],
    "materials" : [
        {
            "doubleSided" : true,
            "name" : "mat_0",
            "pbrMetallicRoughness" : {
                "baseColorTexture" : {
                    "index" : 0,
                    "texCoord" : 0
                },
                "metallicFactor" : 0,
                "roughnessFactor" : 0.5
            }
        },
        {
            "doubleSided" : true,
            "name" : "mat_1",
            "pbrMetallicRoughness" : {
                "baseColorTexture" : {
                    "index" : 1,
                    "texCoord" : 0
                },
                "metallicFactor" : 0,
                "roughnessFactor" : 0.5
            }
        }
    ],
    "meshes" : [
        {
            "name" : "fushigisou_mat_0",
            "primitives" : [
                {
                    "attributes" : {
                        "POSITION" : 0,
                        "NORMAL" : 1,
                        "TEXCOORD_0" : 2
                    },
                    "indices" : 3,
                    "material" : 0
                },
                {
                    "attributes" : {
                        "POSITION" : 4,
                        "NORMAL" : 5,
                        "TEXCOORD_0" : 6
                    },
                    "indices" : 7,
                    "material" : 1
                }
            ]
        }
    ],
    "textures" : [
        {
            "source" : 0
        },
        {
            "source" : 1
        }
    ],
    "images" : [
        {
            "bufferView" : 4,
            "mimeType" : "image/png",
            "name" : "fushigisou_0_0.tga"
        },
        {
            "bufferView" : 9,
            "mimeType" : "image/png",
            "name" : "fushigisou_0_0.tga"
        }
    ],
    "accessors" : [
        {
            "bufferView" : 0,
            "componentType" : 5126,
            "count" : 836,
            "max" : [
                5.129693984985352,
                6.12693977355957,
                0.02261899970471859
            ],
            "min" : [
                -5.134130001068115,
                -6.8137288093566895,
                -12.632001876831055
            ],
            "type" : "VEC3"
        },
        {
            "bufferView" : 1,
            "componentType" : 5126,
            "count" : 836,
            "type" : "VEC3"
        },
        {
            "bufferView" : 2,
            "componentType" : 5126,
            "count" : 836,
            "type" : "VEC2"
        },
        {
            "bufferView" : 3,
            "componentType" : 5123,
            "count" : 2352,
            "type" : "SCALAR"
        },
        {
            "bufferView" : 5,
            "componentType" : 5126,
            "count" : 14,
            "max" : [
                2.9968349933624268,
                5.676116943359375,
                -3.4025819301605225
            ],
            "min" : [
                -3.001270055770874,
                3.5586938858032227,
                -6.094018936157227
            ],
            "type" : "VEC3"
        },
        {
            "bufferView" : 6,
            "componentType" : 5126,
            "count" : 14,
            "type" : "VEC3"
        },
        {
            "bufferView" : 7,
            "componentType" : 5126,
            "count" : 14,
            "type" : "VEC2"
        },
        {
            "bufferView" : 8,
            "componentType" : 5123,
            "count" : 30,
            "type" : "SCALAR"
        }
    ],
    "bufferViews" : [
        {
            "buffer" : 0,
            "byteLength" : 10032,
            "byteOffset" : 0
        },
        {
            "buffer" : 0,
            "byteLength" : 10032,
            "byteOffset" : 10032
        },
        {
            "buffer" : 0,
            "byteLength" : 6688,
            "byteOffset" : 20064
        },
        {
            "buffer" : 0,
            "byteLength" : 4704,
            "byteOffset" : 26752
        },
        {
            "buffer" : 0,
            "byteLength" : 43594,
            "byteOffset" : 31456
        },
        {
            "buffer" : 0,
            "byteLength" : 168,
            "byteOffset" : 75052
        },
        {
            "buffer" : 0,
            "byteLength" : 168,
            "byteOffset" : 75220
        },
        {
            "buffer" : 0,
            "byteLength" : 112,
            "byteOffset" : 75388
        },
        {
            "buffer" : 0,
            "byteLength" : 60,
            "byteOffset" : 75500
        },
        {
            "buffer" : 0,
            "byteLength" : 43594,
            "byteOffset" : 75560
        }
    ],
    "buffers" : [
        {
            "byteLength" : 119156,
            "uri" : "data:application/octet-stream;base64,"
        }
    ]
}
