{
    "asset" : {
        "generator" : "Khronos Blender glTF 2.0 I/O",
        "version" : "2.0"
    },
    "scene" : 0,
    "scenes" : [
        {
            "name" : "Scene",
            "nodes" : [
                0
            ]
        }
    ],
    "nodes" : [
        {
            "mesh" : 0,
            "name" : "purin",
            "rotation" : [
                1,
                0,
                0,
                -1.6292068494294654e-07
            ]
        }
    ],
    "materials" : [
        {
            "name" : "mat_0.005",
            "pbrMetallicRoughness" : {
                "baseColorTexture" : {
                    "index" : 0,
                    "texCoord" : 0
                },
                "metallicFactor" : 0,
                "roughnessFactor" : 0.6732679605484009
            }
        },
        {
            "name" : "mat_1.005",
            "pbrMetallicRoughness" : {
                "baseColorTexture" : {
                    "index" : 1,
                    "texCoord" : 0
                },
                "metallicFactor" : 0,
                "roughnessFactor" : 0.6732679605484009
            }
        },
        {
            "name" : "mat_2.005",
            "pbrMetallicRoughness" : {
                "baseColorTexture" : {
                    "index" : 2,
                    "texCoord" : 0
                },
                "metallicFactor" : 0,
                "roughnessFactor" : 0.6732679605484009
            }
        }
    ],
    "meshes" : [
        {
            "name" : "purin",
            "primitives" : [
                {
                    "attributes" : {
                        "POSITION" : 0,
                        "NORMAL" : 1,
                        "TEXCOORD_0" : 2
                    },
                    "indices" : 3,
                    "material" : 0
                },
                {
                    "attributes" : {
                        "POSITION" : 4,
                        "NORMAL" : 5,
                        "TEXCOORD_0" : 6
                    },
                    "indices" : 7,
                    "material" : 1
                },
                {
                    "attributes" : {
                        "POSITION" : 8,
                        "NORMAL" : 9,
                        "TEXCOORD_0" : 10
                    },
                    "indices" : 11,
                    "material" : 2
                }
            ]
        }
    ],
    "textures" : [
        {
            "source" : 0
        },
        {
            "source" : 1
        },
        {
            "source" : 2
        }
    ],
    "images" : [
        {
            "bufferView" : 4,
            "mimeType" : "image/png",
            "name" : "purin_0_0.tga"
        },
        {
            "bufferView" : 9,
            "mimeType" : "image/png",
            "name" : "purin_0_0.tga"
        },
        {
            "bufferView" : 14,
            "mimeType" : "image/png",
            "name" : "purin_0_0.tga"
        }
    ],
    "accessors" : [
        {
            "bufferView" : 0,
            "componentType" : 5126,
            "count" : 10,
            "max" : [
                0.625,
                -1.5432909727096558,
                -2.2309980392456055
            ],
            "min" : [
                -0.625,
                -2.5,
                -2.5
            ],
            "type" : "VEC3"
        },
        {
            "bufferView" : 1,
            "componentType" : 5126,
            "count" : 10,
            "type" : "VEC3"
        },
        {
            "bufferView" : 2,
            "componentType" : 5126,
            "count" : 10,
            "type" : "VEC2"
        },
        {
            "bufferView" : 3,
            "componentType" : 5123,
            "count" : 30,
            "type" : "SCALAR"
        },
        {
            "bufferView" : 5,
            "componentType" : 5126,
            "count" : 1738,
            "max" : [
                2.582024097442627,
                0,
                2.5
            ],
            "min" : [
                -2.582024097442627,
                -5.133220195770264,
                -2.9312570095062256
            ],
            "type" : "VEC3"
        },
        {
            "bufferView" : 6,
            "componentType" : 5126,
            "count" : 1738,
            "type" : "VEC3"
        },
        {
            "bufferView" : 7,
            "componentType" : 5126,
            "count" : 1738,
            "type" : "VEC2"
        },
        {
            "bufferView" : 8,
            "componentType" : 5123,
            "count" : 7482,
            "type" : "SCALAR"
        },
        {
            "bufferView" : 10,
            "componentType" : 5126,
            "count" : 68,
            "max" : [
                2.16506290435791,
                -1.852952003479004,
                -1.0825320482254028
            ],
            "min" : [
                -2.16506290435791,
                -3.75,
                -2.5
            ],
            "type" : "VEC3"
        },
        {
            "bufferView" : 11,
            "componentType" : 5126,
            "count" : 68,
            "type" : "VEC3"
        },
        {
            "bufferView" : 12,
            "componentType" : 5126,
            "count" : 68,
            "type" : "VEC2"
        },
        {
            "bufferView" : 13,
            "componentType" : 5123,
            "count" : 282,
            "type" : "SCALAR"
        }
    ],
    "bufferViews" : [
        {
            "buffer" : 0,
            "byteLength" : 120,
            "byteOffset" : 0
        },
        {
            "buffer" : 0,
            "byteLength" : 120,
            "byteOffset" : 120
        },
        {
            "buffer" : 0,
            "byteLength" : 80,
            "byteOffset" : 240
        },
        {
            "buffer" : 0,
            "byteLength" : 60,
            "byteOffset" : 320
        },
        {
            "buffer" : 0,
            "byteLength" : 16056,
            "byteOffset" : 380
        },
        {
            "buffer" : 0,
            "byteLength" : 20856,
            "byteOffset" : 16436
        },
        {
            "buffer" : 0,
            "byteLength" : 20856,
            "byteOffset" : 37292
        },
        {
            "buffer" : 0,
            "byteLength" : 13904,
            "byteOffset" : 58148
        },
        {
            "buffer" : 0,
            "byteLength" : 14964,
            "byteOffset" : 72052
        },
        {
            "buffer" : 0,
            "byteLength" : 16056,
            "byteOffset" : 87016
        },
        {
            "buffer" : 0,
            "byteLength" : 816,
            "byteOffset" : 103072
        },
        {
            "buffer" : 0,
            "byteLength" : 816,
            "byteOffset" : 103888
        },
        {
            "buffer" : 0,
            "byteLength" : 544,
            "byteOffset" : 104704
        },
        {
            "buffer" : 0,
            "byteLength" : 564,
            "byteOffset" : 105248
        },
        {
            "buffer" : 0,
            "byteLength" : 16056,
            "byteOffset" : 105812
        }
    ],
    "buffers" : [
        {
            "byteLength" : 121868,
            "uri" : "data:application/octet-stream;base64,"
        }
    ]
}
