{
    "asset" : {
        "generator" : "Khronos Blender glTF 2.0 I/O",
        "version" : "2.0"
    },
    "scene" : 0,
    "scenes" : [
        {
            "name" : "Scene",
            "nodes" : [
                0
            ]
        }
    ],
    "nodes" : [
        {
            "mesh" : 0,
            "name" : "Jolteon",
            "rotation" : [
                0.7071068286895752,
                0,
                0,
                0.7071067094802856
            ]
        }
    ],
    "materials" : [
        {
            "name" : "mat1.003",
            "pbrMetallicRoughness" : {
                "baseColorTexture" : {
                    "index" : 0,
                    "texCoord" : 0
                },
                "metallicFactor" : 0,
                "roughnessFactor" : 0.8945907354354858
            }
        },
        {
            "name" : "mat2.003",
            "pbrMetallicRoughness" : {
                "baseColorTexture" : {
                    "index" : 1,
                    "texCoord" : 0
                },
                "metallicFactor" : 0,
                "roughnessFactor" : 0.8945907354354858
            }
        }
    ],
    "meshes" : [
        {
            "name" : "Jolteon",
            "primitives" : [
                {
                    "attributes" : {
                        "POSITION" : 0,
                        "NORMAL" : 1,
                        "TEXCOORD_0" : 2
                    },
                    "indices" : 3,
                    "material" : 0
                },
                {
                    "attributes" : {
                        "POSITION" : 4,
                        "NORMAL" : 5,
                        "TEXCOORD_0" : 6
                    },
                    "indices" : 7,
                    "material" : 1
                }
            ]
        }
    ],
    "textures" : [
        {
            "source" : 0
        },
        {
            "source" : 1
        }
    ],
    "images" : [
        {
            "bufferView" : 4,
            "mimeType" : "image/png",
            "name" : "ThundersDh.tga"
        },
        {
            "bufferView" : 9,
            "mimeType" : "image/png",
            "name" : "ThundersEyeDh.tga"
        }
    ],
    "accessors" : [
        {
            "bufferView" : 0,
            "componentType" : 5126,
            "count" : 1138,
            "max" : [
                2.5531020164489746,
                4.6029372215271,
                0.0021200000774115324
            ],
            "min" : [
                -2.5531020164489746,
                -3.468709945678711,
                -7.584458827972412
            ],
            "type" : "VEC3"
        },
        {
            "bufferView" : 1,
            "componentType" : 5126,
            "count" : 1138,
            "type" : "VEC3"
        },
        {
            "bufferView" : 2,
            "componentType" : 5126,
            "count" : 1138,
            "type" : "VEC2"
        },
        {
            "bufferView" : 3,
            "componentType" : 5123,
            "count" : 4572,
            "type" : "SCALAR"
        },
        {
            "bufferView" : 5,
            "componentType" : 5126,
            "count" : 24,
            "max" : [
                0.9104470014572144,
                4.178407192230225,
                -4.499884128570557
            ],
            "min" : [
                -0.9104470014572144,
                3.2711470127105713,
                -5.15544319152832
            ],
            "type" : "VEC3"
        },
        {
            "bufferView" : 6,
            "componentType" : 5126,
            "count" : 24,
            "type" : "VEC3"
        },
        {
            "bufferView" : 7,
            "componentType" : 5126,
            "count" : 24,
            "type" : "VEC2"
        },
        {
            "bufferView" : 8,
            "componentType" : 5123,
            "count" : 72,
            "type" : "SCALAR"
        }
    ],
    "bufferViews" : [
        {
            "buffer" : 0,
            "byteLength" : 13656,
            "byteOffset" : 0
        },
        {
            "buffer" : 0,
            "byteLength" : 13656,
            "byteOffset" : 13656
        },
        {
            "buffer" : 0,
            "byteLength" : 9104,
            "byteOffset" : 27312
        },
        {
            "buffer" : 0,
            "byteLength" : 9144,
            "byteOffset" : 36416
        },
        {
            "buffer" : 0,
            "byteLength" : 20851,
            "byteOffset" : 45560
        },
        {
            "buffer" : 0,
            "byteLength" : 288,
            "byteOffset" : 66412
        },
        {
            "buffer" : 0,
            "byteLength" : 288,
            "byteOffset" : 66700
        },
        {
            "buffer" : 0,
            "byteLength" : 192,
            "byteOffset" : 66988
        },
        {
            "buffer" : 0,
            "byteLength" : 144,
            "byteOffset" : 67180
        },
        {
            "buffer" : 0,
            "byteLength" : 10664,
            "byteOffset" : 67324
        }
    ],
    "buffers" : [
        {
            "byteLength" : 77988,
            "uri" : "data:application/octet-stream;base64,"
        }
    ]
}
