{
    "asset" : {
        "generator" : "Khronos Blender glTF 2.0 I/O",
        "version" : "2.0"
    },
    "scene" : 0,
    "scenes" : [
        {
            "name" : "Scene",
            "nodes" : [
                0
            ]
        }
    ],
    "nodes" : [
        {
            "mesh" : 0,
            "name" : "kabuto",
            "rotation" : [
                1,
                0,
                0,
                -1.6292068494294654e-07
            ]
        }
    ],
    "materials" : [
        {
            "name" : "mat_0",
            "pbrMetallicRoughness" : {
                "baseColorTexture" : {
                    "index" : 0,
                    "texCoord" : 0
                },
                "metallicFactor" : 0,
                "roughnessFactor" : 0.6732679605484009
            }
        },
        {
            "name" : "mat_1",
            "pbrMetallicRoughness" : {
                "baseColorTexture" : {
                    "index" : 1,
                    "texCoord" : 0
                },
                "metallicFactor" : 0,
                "roughnessFactor" : 0.6732679605484009
            }
        },
        {
            "name" : "mat_2",
            "pbrMetallicRoughness" : {
                "baseColorTexture" : {
                    "index" : 2,
                    "texCoord" : 0
                },
                "metallicFactor" : 0,
                "roughnessFactor" : 0.6732679605484009
            }
        },
        {
            "name" : "mat_3",
            "pbrMetallicRoughness" : {
                "baseColorTexture" : {
                    "index" : 3,
                    "texCoord" : 0
                },
                "metallicFactor" : 0,
                "roughnessFactor" : 0.6732679605484009
            }
        },
        {
            "name" : "mat_4",
            "pbrMetallicRoughness" : {
                "baseColorTexture" : {
                    "index" : 4,
                    "texCoord" : 0
                },
                "metallicFactor" : 0,
                "roughnessFactor" : 0.6732679605484009
            }
        },
        {
            "name" : "mat_5",
            "pbrMetallicRoughness" : {
                "baseColorTexture" : {
                    "index" : 5,
                    "texCoord" : 0
                },
                "metallicFactor" : 0,
                "roughnessFactor" : 0.6732679605484009
            }
        },
        {
            "name" : "mat_6",
            "pbrMetallicRoughness" : {
                "baseColorTexture" : {
                    "index" : 6,
                    "texCoord" : 0
                },
                "metallicFactor" : 0,
                "roughnessFactor" : 0.6732679605484009
            }
        }
    ],
    "meshes" : [
        {
            "name" : "kabuto",
            "primitives" : [
                {
                    "attributes" : {
                        "POSITION" : 0,
                        "NORMAL" : 1,
                        "TEXCOORD_0" : 2
                    },
                    "indices" : 3,
                    "material" : 0
                },
                {
                    "attributes" : {
                        "POSITION" : 4,
                        "NORMAL" : 5,
                        "TEXCOORD_0" : 6
                    },
                    "indices" : 7,
                    "material" : 1
                },
                {
                    "attributes" : {
                        "POSITION" : 8,
                        "NORMAL" : 9,
                        "TEXCOORD_0" : 10
                    },
                    "indices" : 11,
                    "material" : 2
                },
                {
                    "attributes" : {
                        "POSITION" : 12,
                        "NORMAL" : 13,
                        "TEXCOORD_0" : 14
                    },
                    "indices" : 15,
                    "material" : 3
                },
                {
                    "attributes" : {
                        "POSITION" : 16,
                        "NORMAL" : 17,
                        "TEXCOORD_0" : 18
                    },
                    "indices" : 19,
                    "material" : 4
                },
                {
                    "attributes" : {
                        "POSITION" : 20,
                        "NORMAL" : 21,
                        "TEXCOORD_0" : 22
                    },
                    "indices" : 23,
                    "material" : 5
                },
                {
                    "attributes" : {
                        "POSITION" : 24,
                        "NORMAL" : 25,
                        "TEXCOORD_0" : 26
                    },
                    "indices" : 27,
                    "material" : 6
                }
            ]
        }
    ],
    "textures" : [
        {
            "source" : 0
        },
        {
            "source" : 1
        },
        {
            "source" : 2
        },
        {
            "source" : 3
        },
        {
            "source" : 4
        },
        {
            "source" : 5
        },
        {
            "source" : 6
        }
    ],
    "images" : [
        {
            "bufferView" : 4,
            "mimeType" : "image/png",
            "name" : "kabuto_0_0.tga"
        },
        {
            "bufferView" : 9,
            "mimeType" : "image/png",
            "name" : "kabuto_0_2.tga"
        },
        {
            "bufferView" : 14,
            "mimeType" : "image/png",
            "name" : "kabuto_0_3.tga"
        },
        {
            "bufferView" : 19,
            "mimeType" : "image/png",
            "name" : "kabuto_0_4.tga"
        },
        {
            "bufferView" : 24,
            "mimeType" : "image/png",
            "name" : "kabuto_0_5.tga"
        },
        {
            "bufferView" : 29,
            "mimeType" : "image/png",
            "name" : "kabuto_0_6.tga"
        },
        {
            "bufferView" : 34,
            "mimeType" : "image/png",
            "name" : "kabuto_0_7.tga"
        }
    ],
    "accessors" : [
        {
            "bufferView" : 0,
            "componentType" : 5126,
            "count" : 258,
            "max" : [
                2.4787700176239014,
                -0.47453200817108154,
                2.5804800987243652
            ],
            "min" : [
                -2.4787700176239014,
                -3.5461699962615967,
                -2.464279890060425
            ],
            "type" : "VEC3"
        },
        {
            "bufferView" : 1,
            "componentType" : 5126,
            "count" : 258,
            "type" : "VEC3"
        },
        {
            "bufferView" : 2,
            "componentType" : 5126,
            "count" : 258,
            "type" : "VEC2"
        },
        {
            "bufferView" : 3,
            "componentType" : 5123,
            "count" : 1215,
            "type" : "SCALAR"
        },
        {
            "bufferView" : 5,
            "componentType" : 5126,
            "count" : 20,
            "max" : [
                1.9902199506759644,
                -0.6175850033760071,
                2.4565699100494385
            ],
            "min" : [
                -1.9902199506759644,
                -1.0555599927902222,
                -0.8298789858818054
            ],
            "type" : "VEC3"
        },
        {
            "bufferView" : 6,
            "componentType" : 5126,
            "count" : 20,
            "type" : "VEC3"
        },
        {
            "bufferView" : 7,
            "componentType" : 5126,
            "count" : 20,
            "type" : "VEC2"
        },
        {
            "bufferView" : 8,
            "componentType" : 5123,
            "count" : 69,
            "type" : "SCALAR"
        },
        {
            "bufferView" : 10,
            "componentType" : 5126,
            "count" : 14,
            "max" : [
                1.8286999464035034,
                -0.9666360020637512,
                -0.8155570030212402
            ],
            "min" : [
                -1.8286999464035034,
                -1.4784300327301025,
                -1.8834600448608398
            ],
            "type" : "VEC3"
        },
        {
            "bufferView" : 11,
            "componentType" : 5126,
            "count" : 14,
            "type" : "VEC3"
        },
        {
            "bufferView" : 12,
            "componentType" : 5126,
            "count" : 14,
            "type" : "VEC2"
        },
        {
            "bufferView" : 13,
            "componentType" : 5123,
            "count" : 36,
            "type" : "SCALAR"
        },
        {
            "bufferView" : 15,
            "componentType" : 5126,
            "count" : 56,
            "max" : [
                1.6554499864578247,
                -0.49013298749923706,
                1.1053199768066406
            ],
            "min" : [
                -1.6554499864578247,
                -1.4413000345230103,
                -0.6143109798431396
            ],
            "type" : "VEC3"
        },
        {
            "bufferView" : 16,
            "componentType" : 5126,
            "count" : 56,
            "type" : "VEC3"
        },
        {
            "bufferView" : 17,
            "componentType" : 5126,
            "count" : 56,
            "type" : "VEC2"
        },
        {
            "bufferView" : 18,
            "componentType" : 5123,
            "count" : 120,
            "type" : "SCALAR"
        },
        {
            "bufferView" : 20,
            "componentType" : 5126,
            "count" : 72,
            "max" : [
                1.5894299745559692,
                -0.0817980021238327,
                0.9430789947509766
            ],
            "min" : [
                -1.5894299745559692,
                -0.788968026638031,
                -0.7068650126457214
            ],
            "type" : "VEC3"
        },
        {
            "bufferView" : 21,
            "componentType" : 5126,
            "count" : 72,
            "type" : "VEC3"
        },
        {
            "bufferView" : 22,
            "componentType" : 5126,
            "count" : 72,
            "type" : "VEC2"
        },
        {
            "bufferView" : 23,
            "componentType" : 5123,
            "count" : 192,
            "type" : "SCALAR"
        },
        {
            "bufferView" : 25,
            "componentType" : 5126,
            "count" : 100,
            "max" : [
                1.299489974975586,
                0.003926999866962433,
                0.8453059792518616
            ],
            "min" : [
                -1.299489974975586,
                -0.4156450033187866,
                -0.7075830101966858
            ],
            "type" : "VEC3"
        },
        {
            "bufferView" : 26,
            "componentType" : 5126,
            "count" : 100,
            "type" : "VEC3"
        },
        {
            "bufferView" : 27,
            "componentType" : 5126,
            "count" : 100,
            "type" : "VEC2"
        },
        {
            "bufferView" : 28,
            "componentType" : 5123,
            "count" : 324,
            "type" : "SCALAR"
        },
        {
            "bufferView" : 30,
            "componentType" : 5126,
            "count" : 34,
            "max" : [
                0.6810020208358765,
                -2.639539957046509,
                -2.040299892425537
            ],
            "min" : [
                -0.6807190179824829,
                -2.8504199981689453,
                -2.1841800212860107
            ],
            "type" : "VEC3"
        },
        {
            "bufferView" : 31,
            "componentType" : 5126,
            "count" : 34,
            "type" : "VEC3"
        },
        {
            "bufferView" : 32,
            "componentType" : 5126,
            "count" : 34,
            "type" : "VEC2"
        },
        {
            "bufferView" : 33,
            "componentType" : 5123,
            "count" : 144,
            "type" : "SCALAR"
        }
    ],
    "bufferViews" : [
        {
            "buffer" : 0,
            "byteLength" : 3096,
            "byteOffset" : 0
        },
        {
            "buffer" : 0,
            "byteLength" : 3096,
            "byteOffset" : 3096
        },
        {
            "buffer" : 0,
            "byteLength" : 2064,
            "byteOffset" : 6192
        },
        {
            "buffer" : 0,
            "byteLength" : 2430,
            "byteOffset" : 8256
        },
        {
            "buffer" : 0,
            "byteLength" : 82,
            "byteOffset" : 10688
        },
        {
            "buffer" : 0,
            "byteLength" : 240,
            "byteOffset" : 10772
        },
        {
            "buffer" : 0,
            "byteLength" : 240,
            "byteOffset" : 11012
        },
        {
            "buffer" : 0,
            "byteLength" : 160,
            "byteOffset" : 11252
        },
        {
            "buffer" : 0,
            "byteLength" : 138,
            "byteOffset" : 11412
        },
        {
            "buffer" : 0,
            "byteLength" : 70,
            "byteOffset" : 11552
        },
        {
            "buffer" : 0,
            "byteLength" : 168,
            "byteOffset" : 11624
        },
        {
            "buffer" : 0,
            "byteLength" : 168,
            "byteOffset" : 11792
        },
        {
            "buffer" : 0,
            "byteLength" : 112,
            "byteOffset" : 11960
        },
        {
            "buffer" : 0,
            "byteLength" : 72,
            "byteOffset" : 12072
        },
        {
            "buffer" : 0,
            "byteLength" : 3544,
            "byteOffset" : 12144
        },
        {
            "buffer" : 0,
            "byteLength" : 672,
            "byteOffset" : 15688
        },
        {
            "buffer" : 0,
            "byteLength" : 672,
            "byteOffset" : 16360
        },
        {
            "buffer" : 0,
            "byteLength" : 448,
            "byteOffset" : 17032
        },
        {
            "buffer" : 0,
            "byteLength" : 240,
            "byteOffset" : 17480
        },
        {
            "buffer" : 0,
            "byteLength" : 318,
            "byteOffset" : 17720
        },
        {
            "buffer" : 0,
            "byteLength" : 864,
            "byteOffset" : 18040
        },
        {
            "buffer" : 0,
            "byteLength" : 864,
            "byteOffset" : 18904
        },
        {
            "buffer" : 0,
            "byteLength" : 576,
            "byteOffset" : 19768
        },
        {
            "buffer" : 0,
            "byteLength" : 384,
            "byteOffset" : 20344
        },
        {
            "buffer" : 0,
            "byteLength" : 83,
            "byteOffset" : 20728
        },
        {
            "buffer" : 0,
            "byteLength" : 1200,
            "byteOffset" : 20812
        },
        {
            "buffer" : 0,
            "byteLength" : 1200,
            "byteOffset" : 22012
        },
        {
            "buffer" : 0,
            "byteLength" : 800,
            "byteOffset" : 23212
        },
        {
            "buffer" : 0,
            "byteLength" : 648,
            "byteOffset" : 24012
        },
        {
            "buffer" : 0,
            "byteLength" : 317,
            "byteOffset" : 24660
        },
        {
            "buffer" : 0,
            "byteLength" : 408,
            "byteOffset" : 24980
        },
        {
            "buffer" : 0,
            "byteLength" : 408,
            "byteOffset" : 25388
        },
        {
            "buffer" : 0,
            "byteLength" : 272,
            "byteOffset" : 25796
        },
        {
            "buffer" : 0,
            "byteLength" : 288,
            "byteOffset" : 26068
        },
        {
            "buffer" : 0,
            "byteLength" : 724,
            "byteOffset" : 26356
        }
    ],
    "buffers" : [
        {
            "byteLength" : 27080,
            "uri" : "data:application/octet-stream;base64,"
        }
    ]
}
