{
    "asset" : {
        "generator" : "Khronos Blender glTF 2.0 I/O",
        "version" : "2.0"
    },
    "scene" : 0,
    "scenes" : [
        {
            "name" : "1",
            "nodes" : [
                0
            ]
        }
    ],
    "nodes" : [
        {
            "mesh" : 0,
            "name" : "cocoon_mat_1",
            "rotation" : [
                0.7071068286895752,
                0,
                0,
                0.7071068286895752
            ]
        }
    ],
    "materials" : [
        {
            "doubleSided" : true,
            "name" : "mat_1",
            "pbrMetallicRoughness" : {
                "baseColorTexture" : {
                    "index" : 0,
                    "texCoord" : 0
                },
                "metallicFactor" : 0,
                "roughnessFactor" : 0.5
            }
        },
        {
            "doubleSided" : true,
            "name" : "mat_0",
            "pbrMetallicRoughness" : {
                "baseColorTexture" : {
                    "index" : 1,
                    "texCoord" : 0
                },
                "metallicFactor" : 0,
                "roughnessFactor" : 0.5
            }
        }
    ],
    "meshes" : [
        {
            "name" : "cocoon_mat_1",
            "primitives" : [
                {
                    "attributes" : {
                        "POSITION" : 0,
                        "NORMAL" : 1,
                        "TEXCOORD_0" : 2
                    },
                    "indices" : 3,
                    "material" : 0
                },
                {
                    "attributes" : {
                        "POSITION" : 4,
                        "NORMAL" : 5,
                        "TEXCOORD_0" : 6
                    },
                    "indices" : 7,
                    "material" : 1
                }
            ]
        }
    ],
    "textures" : [
        {
            "source" : 0
        },
        {
            "source" : 1
        }
    ],
    "images" : [
        {
            "bufferView" : 4,
            "mimeType" : "image/png",
            "name" : "cocoon_0_0.tga"
        },
        {
            "bufferView" : 9,
            "mimeType" : "image/png",
            "name" : "cocoon_0_0.tga"
        }
    ],
    "accessors" : [
        {
            "bufferView" : 0,
            "componentType" : 5126,
            "count" : 1296,
            "max" : [
                1.5126579999923706,
                0.3828069865703583,
                -0.09815800189971924
            ],
            "min" : [
                -1.5126579999923706,
                -2.627376079559326,
                -5.971768856048584
            ],
            "type" : "VEC3"
        },
        {
            "bufferView" : 1,
            "componentType" : 5126,
            "count" : 1296,
            "type" : "VEC3"
        },
        {
            "bufferView" : 2,
            "componentType" : 5126,
            "count" : 1296,
            "type" : "VEC2"
        },
        {
            "bufferView" : 3,
            "componentType" : 5123,
            "count" : 4578,
            "type" : "SCALAR"
        },
        {
            "bufferView" : 5,
            "componentType" : 5126,
            "count" : 36,
            "max" : [
                1.0635199546813965,
                0.3237619996070862,
                -4.384778022766113
            ],
            "min" : [
                -1.0635199546813965,
                -0.3236829936504364,
                -5.229119777679443
            ],
            "type" : "VEC3"
        },
        {
            "bufferView" : 6,
            "componentType" : 5126,
            "count" : 36,
            "type" : "VEC3"
        },
        {
            "bufferView" : 7,
            "componentType" : 5126,
            "count" : 36,
            "type" : "VEC2"
        },
        {
            "bufferView" : 8,
            "componentType" : 5123,
            "count" : 150,
            "type" : "SCALAR"
        }
    ],
    "bufferViews" : [
        {
            "buffer" : 0,
            "byteLength" : 15552,
            "byteOffset" : 0
        },
        {
            "buffer" : 0,
            "byteLength" : 15552,
            "byteOffset" : 15552
        },
        {
            "buffer" : 0,
            "byteLength" : 10368,
            "byteOffset" : 31104
        },
        {
            "buffer" : 0,
            "byteLength" : 9156,
            "byteOffset" : 41472
        },
        {
            "buffer" : 0,
            "byteLength" : 23708,
            "byteOffset" : 50628
        },
        {
            "buffer" : 0,
            "byteLength" : 432,
            "byteOffset" : 74336
        },
        {
            "buffer" : 0,
            "byteLength" : 432,
            "byteOffset" : 74768
        },
        {
            "buffer" : 0,
            "byteLength" : 288,
            "byteOffset" : 75200
        },
        {
            "buffer" : 0,
            "byteLength" : 300,
            "byteOffset" : 75488
        },
        {
            "buffer" : 0,
            "byteLength" : 23708,
            "byteOffset" : 75788
        }
    ],
    "buffers" : [
        {
            "byteLength" : 99496,
            "uri" : "data:application/octet-stream;base64,"
        }
    ]
}
