{
    "asset" : {
        "generator" : "Khronos Blender glTF 2.0 I/O",
        "version" : "2.0"
    },
    "scene" : 0,
    "scenes" : [
        {
            "name" : "Scene",
            "nodes" : [
                0
            ]
        }
    ],
    "nodes" : [
        {
            "mesh" : 0,
            "name" : "kingler",
            "rotation" : [
                1,
                0,
                0,
                -1.6292068494294654e-07
            ]
        }
    ],
    "materials" : [
        {
            "name" : "mat_0.001",
            "pbrMetallicRoughness" : {
                "baseColorTexture" : {
                    "index" : 0,
                    "texCoord" : 0
                },
                "metallicFactor" : 0,
                "roughnessFactor" : 0.6732679605484009
            }
        },
        {
            "name" : "mat_1.001",
            "pbrMetallicRoughness" : {
                "baseColorTexture" : {
                    "index" : 1,
                    "texCoord" : 0
                },
                "metallicFactor" : 0,
                "roughnessFactor" : 0.6732679605484009
            }
        },
        {
            "name" : "mat_2",
            "pbrMetallicRoughness" : {
                "baseColorTexture" : {
                    "index" : 2,
                    "texCoord" : 0
                },
                "metallicFactor" : 0,
                "roughnessFactor" : 0.6732679605484009
            }
        },
        {
            "name" : "mat_3",
            "pbrMetallicRoughness" : {
                "baseColorTexture" : {
                    "index" : 3,
                    "texCoord" : 0
                },
                "metallicFactor" : 0,
                "roughnessFactor" : 0.6732679605484009
            }
        },
        {
            "name" : "mat_4",
            "pbrMetallicRoughness" : {
                "baseColorTexture" : {
                    "index" : 4,
                    "texCoord" : 0
                },
                "metallicFactor" : 0,
                "roughnessFactor" : 0.6732679605484009
            }
        },
        {
            "name" : "mat_5",
            "pbrMetallicRoughness" : {
                "baseColorTexture" : {
                    "index" : 5,
                    "texCoord" : 0
                },
                "metallicFactor" : 0,
                "roughnessFactor" : 0.6732679605484009
            }
        },
        {
            "name" : "mat_6",
            "pbrMetallicRoughness" : {
                "baseColorTexture" : {
                    "index" : 6,
                    "texCoord" : 0
                },
                "metallicFactor" : 0,
                "roughnessFactor" : 0.6732679605484009
            }
        },
        {
            "name" : "mat_7",
            "pbrMetallicRoughness" : {
                "baseColorTexture" : {
                    "index" : 7,
                    "texCoord" : 0
                },
                "metallicFactor" : 0,
                "roughnessFactor" : 0.6732679605484009
            }
        },
        {
            "name" : "mat_8",
            "pbrMetallicRoughness" : {
                "baseColorTexture" : {
                    "index" : 8,
                    "texCoord" : 0
                },
                "metallicFactor" : 0,
                "roughnessFactor" : 0.6732679605484009
            }
        },
        {
            "name" : "mat_9",
            "pbrMetallicRoughness" : {
                "baseColorTexture" : {
                    "index" : 9,
                    "texCoord" : 0
                },
                "metallicFactor" : 0,
                "roughnessFactor" : 0.6732679605484009
            }
        }
    ],
    "meshes" : [
        {
            "name" : "kingler",
            "primitives" : [
                {
                    "attributes" : {
                        "POSITION" : 0,
                        "NORMAL" : 1,
                        "TEXCOORD_0" : 2
                    },
                    "indices" : 3,
                    "material" : 0
                },
                {
                    "attributes" : {
                        "POSITION" : 4,
                        "NORMAL" : 5,
                        "TEXCOORD_0" : 6
                    },
                    "indices" : 7,
                    "material" : 1
                },
                {
                    "attributes" : {
                        "POSITION" : 8,
                        "NORMAL" : 9,
                        "TEXCOORD_0" : 10
                    },
                    "indices" : 11,
                    "material" : 2
                },
                {
                    "attributes" : {
                        "POSITION" : 12,
                        "NORMAL" : 13,
                        "TEXCOORD_0" : 14
                    },
                    "indices" : 15,
                    "material" : 3
                },
                {
                    "attributes" : {
                        "POSITION" : 16,
                        "NORMAL" : 17,
                        "TEXCOORD_0" : 18
                    },
                    "indices" : 19,
                    "material" : 4
                },
                {
                    "attributes" : {
                        "POSITION" : 20,
                        "NORMAL" : 21,
                        "TEXCOORD_0" : 22
                    },
                    "indices" : 23,
                    "material" : 5
                },
                {
                    "attributes" : {
                        "POSITION" : 24,
                        "NORMAL" : 25,
                        "TEXCOORD_0" : 26
                    },
                    "indices" : 27,
                    "material" : 6
                },
                {
                    "attributes" : {
                        "POSITION" : 28,
                        "NORMAL" : 29,
                        "TEXCOORD_0" : 30
                    },
                    "indices" : 31,
                    "material" : 7
                },
                {
                    "attributes" : {
                        "POSITION" : 32,
                        "NORMAL" : 33,
                        "TEXCOORD_0" : 34
                    },
                    "indices" : 35,
                    "material" : 8
                },
                {
                    "attributes" : {
                        "POSITION" : 36,
                        "NORMAL" : 37,
                        "TEXCOORD_0" : 38
                    },
                    "indices" : 39,
                    "material" : 9
                }
            ]
        }
    ],
    "textures" : [
        {
            "source" : 0
        },
        {
            "source" : 1
        },
        {
            "source" : 2
        },
        {
            "source" : 3
        },
        {
            "source" : 4
        },
        {
            "source" : 5
        },
        {
            "source" : 6
        },
        {
            "source" : 7
        },
        {
            "source" : 8
        },
        {
            "source" : 9
        }
    ],
    "images" : [
        {
            "bufferView" : 4,
            "mimeType" : "image/png",
            "name" : "kingler_0_0.tga"
        },
        {
            "bufferView" : 9,
            "mimeType" : "image/png",
            "name" : "kingler_0_1.tga"
        },
        {
            "bufferView" : 14,
            "mimeType" : "image/png",
            "name" : "kingler_0_2.tga"
        },
        {
            "bufferView" : 19,
            "mimeType" : "image/png",
            "name" : "kingler_0_3.tga"
        },
        {
            "bufferView" : 24,
            "mimeType" : "image/png",
            "name" : "kingler_0_4.tga"
        },
        {
            "bufferView" : 29,
            "mimeType" : "image/png",
            "name" : "kingler_0_5.tga"
        },
        {
            "bufferView" : 34,
            "mimeType" : "image/png",
            "name" : "kingler_0_6.tga"
        },
        {
            "bufferView" : 39,
            "mimeType" : "image/png",
            "name" : "kingler_0_7.tga"
        },
        {
            "bufferView" : 44,
            "mimeType" : "image/png",
            "name" : "kingler_0_8.tga"
        },
        {
            "bufferView" : 49,
            "mimeType" : "image/png",
            "name" : "kingler_0_9.tga"
        }
    ],
    "accessors" : [
        {
            "bufferView" : 0,
            "componentType" : 5126,
            "count" : 326,
            "max" : [
                11.728099822998047,
                -0.19357800483703613,
                5.265659809112549
            ],
            "min" : [
                -11.728099822998047,
                -8.61338996887207,
                -7.813799858093262
            ],
            "type" : "VEC3"
        },
        {
            "bufferView" : 1,
            "componentType" : 5126,
            "count" : 326,
            "type" : "VEC3"
        },
        {
            "bufferView" : 2,
            "componentType" : 5126,
            "count" : 326,
            "type" : "VEC2"
        },
        {
            "bufferView" : 3,
            "componentType" : 5123,
            "count" : 744,
            "type" : "SCALAR"
        },
        {
            "bufferView" : 5,
            "componentType" : 5126,
            "count" : 166,
            "max" : [
                13.722000122070312,
                0.015509000048041344,
                6.589099884033203
            ],
            "min" : [
                -13.721799850463867,
                -6.933499813079834,
                -7.016900062561035
            ],
            "type" : "VEC3"
        },
        {
            "bufferView" : 6,
            "componentType" : 5126,
            "count" : 166,
            "type" : "VEC3"
        },
        {
            "bufferView" : 7,
            "componentType" : 5126,
            "count" : 166,
            "type" : "VEC2"
        },
        {
            "bufferView" : 8,
            "componentType" : 5123,
            "count" : 405,
            "type" : "SCALAR"
        },
        {
            "bufferView" : 10,
            "componentType" : 5126,
            "count" : 67,
            "max" : [
                6.305739879608154,
                -0.909492015838623,
                4.544879913330078
            ],
            "min" : [
                -6.2818498611450195,
                -13.059900283813477,
                -6.471280097961426
            ],
            "type" : "VEC3"
        },
        {
            "bufferView" : 11,
            "componentType" : 5126,
            "count" : 67,
            "type" : "VEC3"
        },
        {
            "bufferView" : 12,
            "componentType" : 5126,
            "count" : 67,
            "type" : "VEC2"
        },
        {
            "bufferView" : 13,
            "componentType" : 5123,
            "count" : 165,
            "type" : "SCALAR"
        },
        {
            "bufferView" : 15,
            "componentType" : 5126,
            "count" : 92,
            "max" : [
                6.305739879608154,
                -3.8815300464630127,
                3.830049991607666
            ],
            "min" : [
                -6.2818498611450195,
                -13.059900283813477,
                -5.212220191955566
            ],
            "type" : "VEC3"
        },
        {
            "bufferView" : 16,
            "componentType" : 5126,
            "count" : 92,
            "type" : "VEC3"
        },
        {
            "bufferView" : 17,
            "componentType" : 5126,
            "count" : 92,
            "type" : "VEC2"
        },
        {
            "bufferView" : 18,
            "componentType" : 5123,
            "count" : 162,
            "type" : "SCALAR"
        },
        {
            "bufferView" : 20,
            "componentType" : 5126,
            "count" : 5,
            "max" : [
                1.6922199726104736,
                -6.7162299156188965,
                -1.678439974784851
            ],
            "min" : [
                -1.64382004737854,
                -8.133790016174316,
                -3.6455299854278564
            ],
            "type" : "VEC3"
        },
        {
            "bufferView" : 21,
            "componentType" : 5126,
            "count" : 5,
            "type" : "VEC3"
        },
        {
            "bufferView" : 22,
            "componentType" : 5126,
            "count" : 5,
            "type" : "VEC2"
        },
        {
            "bufferView" : 23,
            "componentType" : 5123,
            "count" : 12,
            "type" : "SCALAR"
        },
        {
            "bufferView" : 25,
            "componentType" : 5126,
            "count" : 34,
            "max" : [
                3.616919994354248,
                -6.007160186767578,
                -3.1171700954437256
            ],
            "min" : [
                -3.5913798809051514,
                -7.459080219268799,
                -5.212220191955566
            ],
            "type" : "VEC3"
        },
        {
            "bufferView" : 26,
            "componentType" : 5126,
            "count" : 34,
            "type" : "VEC3"
        },
        {
            "bufferView" : 27,
            "componentType" : 5126,
            "count" : 34,
            "type" : "VEC2"
        },
        {
            "bufferView" : 28,
            "componentType" : 5123,
            "count" : 132,
            "type" : "SCALAR"
        },
        {
            "bufferView" : 30,
            "componentType" : 5126,
            "count" : 74,
            "max" : [
                8.762430191040039,
                -7.235869884490967,
                -4.550710201263428
            ],
            "min" : [
                -10.305800437927246,
                -14.860400199890137,
                -10.541099548339844
            ],
            "type" : "VEC3"
        },
        {
            "bufferView" : 31,
            "componentType" : 5126,
            "count" : 74,
            "type" : "VEC3"
        },
        {
            "bufferView" : 32,
            "componentType" : 5126,
            "count" : 74,
            "type" : "VEC2"
        },
        {
            "bufferView" : 33,
            "componentType" : 5123,
            "count" : 264,
            "type" : "SCALAR"
        },
        {
            "bufferView" : 35,
            "componentType" : 5126,
            "count" : 34,
            "max" : [
                8.25862979888916,
                -6.534840106964111,
                -6.012279987335205
            ],
            "min" : [
                -8.6528902053833,
                -13.956700325012207,
                -10.541099548339844
            ],
            "type" : "VEC3"
        },
        {
            "bufferView" : 36,
            "componentType" : 5126,
            "count" : 34,
            "type" : "VEC3"
        },
        {
            "bufferView" : 37,
            "componentType" : 5126,
            "count" : 34,
            "type" : "VEC2"
        },
        {
            "bufferView" : 38,
            "componentType" : 5123,
            "count" : 78,
            "type" : "SCALAR"
        },
        {
            "bufferView" : 40,
            "componentType" : 5126,
            "count" : 27,
            "max" : [
                8.25862979888916,
                -6.091400146484375,
                -6.086609840393066
            ],
            "min" : [
                -9.088509559631348,
                -10.9375,
                -10.150500297546387
            ],
            "type" : "VEC3"
        },
        {
            "bufferView" : 41,
            "componentType" : 5126,
            "count" : 27,
            "type" : "VEC3"
        },
        {
            "bufferView" : 42,
            "componentType" : 5126,
            "count" : 27,
            "type" : "VEC2"
        },
        {
            "bufferView" : 43,
            "componentType" : 5123,
            "count" : 90,
            "type" : "SCALAR"
        },
        {
            "bufferView" : 45,
            "componentType" : 5126,
            "count" : 20,
            "max" : [
                9.61886978149414,
                -6.133080005645752,
                -4.78341007232666
            ],
            "min" : [
                5.246099948883057,
                -10.37030029296875,
                -9.333889961242676
            ],
            "type" : "VEC3"
        },
        {
            "bufferView" : 46,
            "componentType" : 5126,
            "count" : 20,
            "type" : "VEC3"
        },
        {
            "bufferView" : 47,
            "componentType" : 5126,
            "count" : 20,
            "type" : "VEC2"
        },
        {
            "bufferView" : 48,
            "componentType" : 5123,
            "count" : 42,
            "type" : "SCALAR"
        }
    ],
    "bufferViews" : [
        {
            "buffer" : 0,
            "byteLength" : 3912,
            "byteOffset" : 0
        },
        {
            "buffer" : 0,
            "byteLength" : 3912,
            "byteOffset" : 3912
        },
        {
            "buffer" : 0,
            "byteLength" : 2608,
            "byteOffset" : 7824
        },
        {
            "buffer" : 0,
            "byteLength" : 1488,
            "byteOffset" : 10432
        },
        {
            "buffer" : 0,
            "byteLength" : 134,
            "byteOffset" : 11920
        },
        {
            "buffer" : 0,
            "byteLength" : 1992,
            "byteOffset" : 12056
        },
        {
            "buffer" : 0,
            "byteLength" : 1992,
            "byteOffset" : 14048
        },
        {
            "buffer" : 0,
            "byteLength" : 1328,
            "byteOffset" : 16040
        },
        {
            "buffer" : 0,
            "byteLength" : 810,
            "byteOffset" : 17368
        },
        {
            "buffer" : 0,
            "byteLength" : 75,
            "byteOffset" : 18180
        },
        {
            "buffer" : 0,
            "byteLength" : 804,
            "byteOffset" : 18256
        },
        {
            "buffer" : 0,
            "byteLength" : 804,
            "byteOffset" : 19060
        },
        {
            "buffer" : 0,
            "byteLength" : 536,
            "byteOffset" : 19864
        },
        {
            "buffer" : 0,
            "byteLength" : 330,
            "byteOffset" : 20400
        },
        {
            "buffer" : 0,
            "byteLength" : 250,
            "byteOffset" : 20732
        },
        {
            "buffer" : 0,
            "byteLength" : 1104,
            "byteOffset" : 20984
        },
        {
            "buffer" : 0,
            "byteLength" : 1104,
            "byteOffset" : 22088
        },
        {
            "buffer" : 0,
            "byteLength" : 736,
            "byteOffset" : 23192
        },
        {
            "buffer" : 0,
            "byteLength" : 324,
            "byteOffset" : 23928
        },
        {
            "buffer" : 0,
            "byteLength" : 75,
            "byteOffset" : 24252
        },
        {
            "buffer" : 0,
            "byteLength" : 60,
            "byteOffset" : 24328
        },
        {
            "buffer" : 0,
            "byteLength" : 60,
            "byteOffset" : 24388
        },
        {
            "buffer" : 0,
            "byteLength" : 40,
            "byteOffset" : 24448
        },
        {
            "buffer" : 0,
            "byteLength" : 24,
            "byteOffset" : 24488
        },
        {
            "buffer" : 0,
            "byteLength" : 670,
            "byteOffset" : 24512
        },
        {
            "buffer" : 0,
            "byteLength" : 408,
            "byteOffset" : 25184
        },
        {
            "buffer" : 0,
            "byteLength" : 408,
            "byteOffset" : 25592
        },
        {
            "buffer" : 0,
            "byteLength" : 272,
            "byteOffset" : 26000
        },
        {
            "buffer" : 0,
            "byteLength" : 264,
            "byteOffset" : 26272
        },
        {
            "buffer" : 0,
            "byteLength" : 2093,
            "byteOffset" : 26536
        },
        {
            "buffer" : 0,
            "byteLength" : 888,
            "byteOffset" : 28632
        },
        {
            "buffer" : 0,
            "byteLength" : 888,
            "byteOffset" : 29520
        },
        {
            "buffer" : 0,
            "byteLength" : 592,
            "byteOffset" : 30408
        },
        {
            "buffer" : 0,
            "byteLength" : 528,
            "byteOffset" : 31000
        },
        {
            "buffer" : 0,
            "byteLength" : 1222,
            "byteOffset" : 31528
        },
        {
            "buffer" : 0,
            "byteLength" : 408,
            "byteOffset" : 32752
        },
        {
            "buffer" : 0,
            "byteLength" : 408,
            "byteOffset" : 33160
        },
        {
            "buffer" : 0,
            "byteLength" : 272,
            "byteOffset" : 33568
        },
        {
            "buffer" : 0,
            "byteLength" : 156,
            "byteOffset" : 33840
        },
        {
            "buffer" : 0,
            "byteLength" : 436,
            "byteOffset" : 33996
        },
        {
            "buffer" : 0,
            "byteLength" : 324,
            "byteOffset" : 34432
        },
        {
            "buffer" : 0,
            "byteLength" : 324,
            "byteOffset" : 34756
        },
        {
            "buffer" : 0,
            "byteLength" : 216,
            "byteOffset" : 35080
        },
        {
            "buffer" : 0,
            "byteLength" : 180,
            "byteOffset" : 35296
        },
        {
            "buffer" : 0,
            "byteLength" : 539,
            "byteOffset" : 35476
        },
        {
            "buffer" : 0,
            "byteLength" : 240,
            "byteOffset" : 36016
        },
        {
            "buffer" : 0,
            "byteLength" : 240,
            "byteOffset" : 36256
        },
        {
            "buffer" : 0,
            "byteLength" : 160,
            "byteOffset" : 36496
        },
        {
            "buffer" : 0,
            "byteLength" : 84,
            "byteOffset" : 36656
        },
        {
            "buffer" : 0,
            "byteLength" : 694,
            "byteOffset" : 36740
        }
    ],
    "buffers" : [
        {
            "byteLength" : 37436,
            "uri" : "data:application/octet-stream;base64,"
        }
    ]
}
