{
    "asset" : {
        "generator" : "Khronos Blender glTF 2.0 I/O",
        "version" : "2.0"
    },
    "scene" : 0,
    "scenes" : [
        {
            "name" : "Scene",
            "nodes" : [
                0
            ]
        }
    ],
    "nodes" : [
        {
            "mesh" : 0,
            "name" : "dogars",
            "rotation" : [
                1,
                0,
                0,
                -1.6292068494294654e-07
            ],
            "translation" : [
                0,
                9.45253849029541,
                0
            ]
        }
    ],
    "materials" : [
        {
            "name" : "mat_0.003",
            "pbrMetallicRoughness" : {
                "baseColorTexture" : {
                    "index" : 0,
                    "texCoord" : 0
                },
                "metallicFactor" : 0,
                "roughnessFactor" : 0.6732679605484009
            }
        },
        {
            "name" : "mat_1.003",
            "pbrMetallicRoughness" : {
                "baseColorTexture" : {
                    "index" : 1,
                    "texCoord" : 0
                },
                "metallicFactor" : 0,
                "roughnessFactor" : 0.6732679605484009
            }
        },
        {
            "name" : "mat_2.003",
            "pbrMetallicRoughness" : {
                "baseColorTexture" : {
                    "index" : 2,
                    "texCoord" : 0
                },
                "metallicFactor" : 0,
                "roughnessFactor" : 0.6732679605484009
            }
        },
        {
            "name" : "mat_3.003",
            "pbrMetallicRoughness" : {
                "baseColorTexture" : {
                    "index" : 3,
                    "texCoord" : 0
                },
                "metallicFactor" : 0,
                "roughnessFactor" : 0.6732679605484009
            }
        },
        {
            "name" : "mat_4.003",
            "pbrMetallicRoughness" : {
                "baseColorTexture" : {
                    "index" : 4,
                    "texCoord" : 0
                },
                "metallicFactor" : 0,
                "roughnessFactor" : 0.6732679605484009
            }
        }
    ],
    "meshes" : [
        {
            "name" : "dogars",
            "primitives" : [
                {
                    "attributes" : {
                        "POSITION" : 0,
                        "NORMAL" : 1,
                        "TEXCOORD_0" : 2
                    },
                    "indices" : 3,
                    "material" : 0
                },
                {
                    "attributes" : {
                        "POSITION" : 4,
                        "NORMAL" : 5,
                        "TEXCOORD_0" : 6
                    },
                    "indices" : 7,
                    "material" : 1
                },
                {
                    "attributes" : {
                        "POSITION" : 8,
                        "NORMAL" : 9,
                        "TEXCOORD_0" : 10
                    },
                    "indices" : 11,
                    "material" : 2
                },
                {
                    "attributes" : {
                        "POSITION" : 12,
                        "NORMAL" : 13,
                        "TEXCOORD_0" : 14
                    },
                    "indices" : 15,
                    "material" : 3
                },
                {
                    "attributes" : {
                        "POSITION" : 16,
                        "NORMAL" : 17,
                        "TEXCOORD_0" : 18
                    },
                    "indices" : 19,
                    "material" : 4
                }
            ]
        }
    ],
    "textures" : [
        {
            "source" : 0
        },
        {
            "source" : 1
        },
        {
            "source" : 2
        },
        {
            "source" : 3
        },
        {
            "source" : 4
        }
    ],
    "images" : [
        {
            "bufferView" : 4,
            "mimeType" : "image/png",
            "name" : "dogars_0_0.tga"
        },
        {
            "bufferView" : 9,
            "mimeType" : "image/png",
            "name" : "dogars_0_1.tga"
        },
        {
            "bufferView" : 14,
            "mimeType" : "image/png",
            "name" : "dogars_0_2.tga"
        },
        {
            "bufferView" : 19,
            "mimeType" : "image/png",
            "name" : "dogars_0_3.tga"
        },
        {
            "bufferView" : 24,
            "mimeType" : "image/png",
            "name" : "dogars_0_4.tga"
        }
    ],
    "accessors" : [
        {
            "bufferView" : 0,
            "componentType" : 5126,
            "count" : 351,
            "max" : [
                3.0746400356292725,
                3.0909879207611084,
                3.099220037460327
            ],
            "min" : [
                -3.0582098960876465,
                -3.072511911392212,
                -2.6775999069213867
            ],
            "type" : "VEC3"
        },
        {
            "bufferView" : 1,
            "componentType" : 5126,
            "count" : 351,
            "type" : "VEC3"
        },
        {
            "bufferView" : 2,
            "componentType" : 5126,
            "count" : 351,
            "type" : "VEC2"
        },
        {
            "bufferView" : 3,
            "componentType" : 5123,
            "count" : 1566,
            "type" : "SCALAR"
        },
        {
            "bufferView" : 5,
            "componentType" : 5126,
            "count" : 166,
            "max" : [
                2.8884499073028564,
                3.0678679943084717,
                2.810689926147461
            ],
            "min" : [
                -2.8652400970458984,
                -2.3562119007110596,
                -2.7048099040985107
            ],
            "type" : "VEC3"
        },
        {
            "bufferView" : 6,
            "componentType" : 5126,
            "count" : 166,
            "type" : "VEC3"
        },
        {
            "bufferView" : 7,
            "componentType" : 5126,
            "count" : 166,
            "type" : "VEC2"
        },
        {
            "bufferView" : 8,
            "componentType" : 5123,
            "count" : 726,
            "type" : "SCALAR"
        },
        {
            "bufferView" : 10,
            "componentType" : 5126,
            "count" : 20,
            "max" : [
                2.108760118484497,
                2.328778028488159,
                -1.1958800554275513
            ],
            "min" : [
                -2.108760118484497,
                0.5088279843330383,
                -2.835750102996826
            ],
            "type" : "VEC3"
        },
        {
            "bufferView" : 11,
            "componentType" : 5126,
            "count" : 20,
            "type" : "VEC3"
        },
        {
            "bufferView" : 12,
            "componentType" : 5126,
            "count" : 20,
            "type" : "VEC2"
        },
        {
            "bufferView" : 13,
            "componentType" : 5123,
            "count" : 54,
            "type" : "SCALAR"
        },
        {
            "bufferView" : 15,
            "componentType" : 5126,
            "count" : 12,
            "max" : [
                2.2746899127960205,
                -0.5197610259056091,
                -1.2831100225448608
            ],
            "min" : [
                -2.2746899127960205,
                -1.5411620140075684,
                -2.7001500129699707
            ],
            "type" : "VEC3"
        },
        {
            "bufferView" : 16,
            "componentType" : 5126,
            "count" : 12,
            "type" : "VEC3"
        },
        {
            "bufferView" : 17,
            "componentType" : 5126,
            "count" : 12,
            "type" : "VEC2"
        },
        {
            "bufferView" : 18,
            "componentType" : 5123,
            "count" : 24,
            "type" : "SCALAR"
        },
        {
            "bufferView" : 20,
            "componentType" : 5126,
            "count" : 20,
            "max" : [
                2.2746899127960205,
                0.5757700204849243,
                -1.4781800508499146
            ],
            "min" : [
                -2.2746899127960205,
                -0.5197619795799255,
                -2.871649980545044
            ],
            "type" : "VEC3"
        },
        {
            "bufferView" : 21,
            "componentType" : 5126,
            "count" : 20,
            "type" : "VEC3"
        },
        {
            "bufferView" : 22,
            "componentType" : 5126,
            "count" : 20,
            "type" : "VEC2"
        },
        {
            "bufferView" : 23,
            "componentType" : 5123,
            "count" : 54,
            "type" : "SCALAR"
        }
    ],
    "bufferViews" : [
        {
            "buffer" : 0,
            "byteLength" : 4212,
            "byteOffset" : 0
        },
        {
            "buffer" : 0,
            "byteLength" : 4212,
            "byteOffset" : 4212
        },
        {
            "buffer" : 0,
            "byteLength" : 2808,
            "byteOffset" : 8424
        },
        {
            "buffer" : 0,
            "byteLength" : 3132,
            "byteOffset" : 11232
        },
        {
            "buffer" : 0,
            "byteLength" : 827,
            "byteOffset" : 14364
        },
        {
            "buffer" : 0,
            "byteLength" : 1992,
            "byteOffset" : 15192
        },
        {
            "buffer" : 0,
            "byteLength" : 1992,
            "byteOffset" : 17184
        },
        {
            "buffer" : 0,
            "byteLength" : 1328,
            "byteOffset" : 19176
        },
        {
            "buffer" : 0,
            "byteLength" : 1452,
            "byteOffset" : 20504
        },
        {
            "buffer" : 0,
            "byteLength" : 82,
            "byteOffset" : 21956
        },
        {
            "buffer" : 0,
            "byteLength" : 240,
            "byteOffset" : 22040
        },
        {
            "buffer" : 0,
            "byteLength" : 240,
            "byteOffset" : 22280
        },
        {
            "buffer" : 0,
            "byteLength" : 160,
            "byteOffset" : 22520
        },
        {
            "buffer" : 0,
            "byteLength" : 108,
            "byteOffset" : 22680
        },
        {
            "buffer" : 0,
            "byteLength" : 5203,
            "byteOffset" : 22788
        },
        {
            "buffer" : 0,
            "byteLength" : 144,
            "byteOffset" : 27992
        },
        {
            "buffer" : 0,
            "byteLength" : 144,
            "byteOffset" : 28136
        },
        {
            "buffer" : 0,
            "byteLength" : 96,
            "byteOffset" : 28280
        },
        {
            "buffer" : 0,
            "byteLength" : 48,
            "byteOffset" : 28376
        },
        {
            "buffer" : 0,
            "byteLength" : 4942,
            "byteOffset" : 28424
        },
        {
            "buffer" : 0,
            "byteLength" : 240,
            "byteOffset" : 33368
        },
        {
            "buffer" : 0,
            "byteLength" : 240,
            "byteOffset" : 33608
        },
        {
            "buffer" : 0,
            "byteLength" : 160,
            "byteOffset" : 33848
        },
        {
            "buffer" : 0,
            "byteLength" : 108,
            "byteOffset" : 34008
        },
        {
            "buffer" : 0,
            "byteLength" : 4407,
            "byteOffset" : 34116
        }
    ],
    "buffers" : [
        {
            "byteLength" : 38524,
            "uri" : "data:application/octet-stream;base64,"
        }
    ]
}
