{
    "asset" : {
        "generator" : "Khronos Blender glTF 2.0 I/O",
        "version" : "2.0"
    },
    "scene" : 0,
    "scenes" : [
        {
            "name" : "Scene",
            "nodes" : [
                0
            ]
        }
    ],
    "nodes" : [
        {
            "mesh" : 0,
            "name" : "Lapras",
            "rotation" : [
                0.7071068286895752,
                0,
                0,
                0.7071067094802856
            ]
        }
    ],
    "materials" : [
        {
            "name" : "mat4",
            "pbrMetallicRoughness" : {
                "baseColorTexture" : {
                    "index" : 0,
                    "texCoord" : 0
                },
                "metallicFactor" : 0,
                "roughnessFactor" : 0.8945907354354858
            }
        },
        {
            "name" : "mat1.005",
            "pbrMetallicRoughness" : {
                "baseColorTexture" : {
                    "index" : 1,
                    "texCoord" : 0
                },
                "metallicFactor" : 0,
                "roughnessFactor" : 0.8945907354354858
            }
        },
        {
            "name" : "mat2.005",
            "pbrMetallicRoughness" : {
                "baseColorTexture" : {
                    "index" : 2,
                    "texCoord" : 0
                },
                "metallicFactor" : 0,
                "roughnessFactor" : 0.8945907354354858
            }
        },
        {
            "name" : "mat3.002",
            "pbrMetallicRoughness" : {
                "baseColorTexture" : {
                    "index" : 3,
                    "texCoord" : 0
                },
                "metallicFactor" : 0,
                "roughnessFactor" : 0.8945907354354858
            }
        }
    ],
    "meshes" : [
        {
            "name" : "Lapras",
            "primitives" : [
                {
                    "attributes" : {
                        "POSITION" : 0,
                        "NORMAL" : 1,
                        "TEXCOORD_0" : 2
                    },
                    "indices" : 3,
                    "material" : 0
                },
                {
                    "attributes" : {
                        "POSITION" : 4,
                        "NORMAL" : 5,
                        "TEXCOORD_0" : 6
                    },
                    "indices" : 7,
                    "material" : 1
                },
                {
                    "attributes" : {
                        "POSITION" : 8,
                        "NORMAL" : 9,
                        "TEXCOORD_0" : 10
                    },
                    "indices" : 11,
                    "material" : 2
                },
                {
                    "attributes" : {
                        "POSITION" : 12,
                        "NORMAL" : 13,
                        "TEXCOORD_0" : 14
                    },
                    "indices" : 15,
                    "material" : 3
                }
            ]
        }
    ],
    "textures" : [
        {
            "source" : 0
        },
        {
            "source" : 1
        },
        {
            "source" : 2
        },
        {
            "source" : 3
        }
    ],
    "images" : [
        {
            "bufferView" : 4,
            "mimeType" : "image/png",
            "name" : "LaplaceDh.tga"
        },
        {
            "bufferView" : 9,
            "mimeType" : "image/png",
            "name" : "LaplaceDh.tga"
        },
        {
            "bufferView" : 14,
            "mimeType" : "image/png",
            "name" : "LaplaceDh.tga"
        },
        {
            "bufferView" : 19,
            "mimeType" : "image/png",
            "name" : "LaplaceEyeDh.tga"
        }
    ],
    "accessors" : [
        {
            "bufferView" : 0,
            "componentType" : 5126,
            "count" : 34,
            "max" : [
                2.4278299808502197,
                10.67656135559082,
                -16.55585289001465
            ],
            "min" : [
                -2.4278340339660645,
                6.2347798347473145,
                -17.9820499420166
            ],
            "type" : "VEC3"
        },
        {
            "bufferView" : 1,
            "componentType" : 5126,
            "count" : 34,
            "type" : "VEC3"
        },
        {
            "bufferView" : 2,
            "componentType" : 5126,
            "count" : 34,
            "type" : "VEC2"
        },
        {
            "bufferView" : 3,
            "componentType" : 5123,
            "count" : 90,
            "type" : "SCALAR"
        },
        {
            "bufferView" : 5,
            "componentType" : 5126,
            "count" : 788,
            "max" : [
                18.146154403686523,
                11.29869270324707,
                -0.1569720059633255
            ],
            "min" : [
                -18.14615821838379,
                -13.565205574035645,
                -21.856842041015625
            ],
            "type" : "VEC3"
        },
        {
            "bufferView" : 6,
            "componentType" : 5126,
            "count" : 788,
            "type" : "VEC3"
        },
        {
            "bufferView" : 7,
            "componentType" : 5126,
            "count" : 788,
            "type" : "VEC2"
        },
        {
            "bufferView" : 8,
            "componentType" : 5123,
            "count" : 3312,
            "type" : "SCALAR"
        },
        {
            "bufferView" : 10,
            "componentType" : 5126,
            "count" : 282,
            "max" : [
                6.631586074829102,
                3.3581740856170654,
                -4.105016231536865
            ],
            "min" : [
                -6.483646869659424,
                -10.134529113769531,
                -13.186079978942871
            ],
            "type" : "VEC3"
        },
        {
            "bufferView" : 11,
            "componentType" : 5126,
            "count" : 282,
            "type" : "VEC3"
        },
        {
            "bufferView" : 12,
            "componentType" : 5126,
            "count" : 282,
            "type" : "VEC2"
        },
        {
            "bufferView" : 13,
            "componentType" : 5123,
            "count" : 1434,
            "type" : "SCALAR"
        },
        {
            "bufferView" : 15,
            "componentType" : 5126,
            "count" : 26,
            "max" : [
                2.535546064376831,
                9.047012329101562,
                -16.950563430786133
            ],
            "min" : [
                -2.535550117492676,
                6.429781913757324,
                -19.706890106201172
            ],
            "type" : "VEC3"
        },
        {
            "bufferView" : 16,
            "componentType" : 5126,
            "count" : 26,
            "type" : "VEC3"
        },
        {
            "bufferView" : 17,
            "componentType" : 5126,
            "count" : 26,
            "type" : "VEC2"
        },
        {
            "bufferView" : 18,
            "componentType" : 5123,
            "count" : 90,
            "type" : "SCALAR"
        }
    ],
    "bufferViews" : [
        {
            "buffer" : 0,
            "byteLength" : 408,
            "byteOffset" : 0
        },
        {
            "buffer" : 0,
            "byteLength" : 408,
            "byteOffset" : 408
        },
        {
            "buffer" : 0,
            "byteLength" : 272,
            "byteOffset" : 816
        },
        {
            "buffer" : 0,
            "byteLength" : 180,
            "byteOffset" : 1088
        },
        {
            "buffer" : 0,
            "byteLength" : 30534,
            "byteOffset" : 1268
        },
        {
            "buffer" : 0,
            "byteLength" : 9456,
            "byteOffset" : 31804
        },
        {
            "buffer" : 0,
            "byteLength" : 9456,
            "byteOffset" : 41260
        },
        {
            "buffer" : 0,
            "byteLength" : 6304,
            "byteOffset" : 50716
        },
        {
            "buffer" : 0,
            "byteLength" : 6624,
            "byteOffset" : 57020
        },
        {
            "buffer" : 0,
            "byteLength" : 30534,
            "byteOffset" : 63644
        },
        {
            "buffer" : 0,
            "byteLength" : 3384,
            "byteOffset" : 94180
        },
        {
            "buffer" : 0,
            "byteLength" : 3384,
            "byteOffset" : 97564
        },
        {
            "buffer" : 0,
            "byteLength" : 2256,
            "byteOffset" : 100948
        },
        {
            "buffer" : 0,
            "byteLength" : 2868,
            "byteOffset" : 103204
        },
        {
            "buffer" : 0,
            "byteLength" : 30534,
            "byteOffset" : 106072
        },
        {
            "buffer" : 0,
            "byteLength" : 312,
            "byteOffset" : 136608
        },
        {
            "buffer" : 0,
            "byteLength" : 312,
            "byteOffset" : 136920
        },
        {
            "buffer" : 0,
            "byteLength" : 208,
            "byteOffset" : 137232
        },
        {
            "buffer" : 0,
            "byteLength" : 180,
            "byteOffset" : 137440
        },
        {
            "buffer" : 0,
            "byteLength" : 14008,
            "byteOffset" : 137620
        }
    ],
    "buffers" : [
        {
            "byteLength" : 151628,
            "uri" : "data:application/octet-stream;base64,"
        }
    ]
}
