{
    "asset" : {
        "generator" : "Khronos Blender glTF 2.0 I/O",
        "version" : "2.0"
    },
    "scene" : 0,
    "scenes" : [
        {
            "name" : "Scene",
            "nodes" : [
                0
            ]
        }
    ],
    "nodes" : [
        {
            "mesh" : 0,
            "name" : "beroringa",
            "rotation" : [
                1,
                0,
                0,
                -1.6292068494294654e-07
            ]
        }
    ],
    "materials" : [
        {
            "name" : "mat_0.002",
            "pbrMetallicRoughness" : {
                "baseColorTexture" : {
                    "index" : 0,
                    "texCoord" : 0
                },
                "metallicFactor" : 0,
                "roughnessFactor" : 0.6732679605484009
            }
        },
        {
            "name" : "mat_1.002",
            "pbrMetallicRoughness" : {
                "baseColorTexture" : {
                    "index" : 1,
                    "texCoord" : 0
                },
                "metallicFactor" : 0,
                "roughnessFactor" : 0.6732679605484009
            }
        },
        {
            "name" : "mat_2.002",
            "pbrMetallicRoughness" : {
                "baseColorTexture" : {
                    "index" : 2,
                    "texCoord" : 0
                },
                "metallicFactor" : 0,
                "roughnessFactor" : 0.6732679605484009
            }
        },
        {
            "name" : "mat_3.002",
            "pbrMetallicRoughness" : {
                "baseColorTexture" : {
                    "index" : 3,
                    "texCoord" : 0
                },
                "metallicFactor" : 0,
                "roughnessFactor" : 0.6732679605484009
            }
        },
        {
            "name" : "mat_4.002",
            "pbrMetallicRoughness" : {
                "baseColorTexture" : {
                    "index" : 4,
                    "texCoord" : 0
                },
                "metallicFactor" : 0,
                "roughnessFactor" : 0.6732679605484009
            }
        },
        {
            "name" : "mat_5.002",
            "pbrMetallicRoughness" : {
                "baseColorTexture" : {
                    "index" : 5,
                    "texCoord" : 0
                },
                "metallicFactor" : 0,
                "roughnessFactor" : 0.6732679605484009
            }
        },
        {
            "name" : "mat_6.002",
            "pbrMetallicRoughness" : {
                "baseColorTexture" : {
                    "index" : 6,
                    "texCoord" : 0
                },
                "metallicFactor" : 0,
                "roughnessFactor" : 0.6732679605484009
            }
        },
        {
            "name" : "mat_7.002",
            "pbrMetallicRoughness" : {
                "baseColorTexture" : {
                    "index" : 7,
                    "texCoord" : 0
                },
                "metallicFactor" : 0,
                "roughnessFactor" : 0.6732679605484009
            }
        },
        {
            "name" : "mat_8.002",
            "pbrMetallicRoughness" : {
                "baseColorTexture" : {
                    "index" : 8,
                    "texCoord" : 0
                },
                "metallicFactor" : 0,
                "roughnessFactor" : 0.6732679605484009
            }
        },
        {
            "name" : "mat_9.002",
            "pbrMetallicRoughness" : {
                "baseColorTexture" : {
                    "index" : 9,
                    "texCoord" : 0
                },
                "metallicFactor" : 0,
                "roughnessFactor" : 0.6732679605484009
            }
        }
    ],
    "meshes" : [
        {
            "name" : "beroringa",
            "primitives" : [
                {
                    "attributes" : {
                        "POSITION" : 0,
                        "NORMAL" : 1,
                        "TEXCOORD_0" : 2
                    },
                    "indices" : 3,
                    "material" : 0
                },
                {
                    "attributes" : {
                        "POSITION" : 4,
                        "NORMAL" : 5,
                        "TEXCOORD_0" : 6
                    },
                    "indices" : 7,
                    "material" : 1
                },
                {
                    "attributes" : {
                        "POSITION" : 8,
                        "NORMAL" : 9,
                        "TEXCOORD_0" : 10
                    },
                    "indices" : 11,
                    "material" : 2
                },
                {
                    "attributes" : {
                        "POSITION" : 12,
                        "NORMAL" : 13,
                        "TEXCOORD_0" : 14
                    },
                    "indices" : 15,
                    "material" : 3
                },
                {
                    "attributes" : {
                        "POSITION" : 16,
                        "NORMAL" : 17,
                        "TEXCOORD_0" : 18
                    },
                    "indices" : 19,
                    "material" : 4
                },
                {
                    "attributes" : {
                        "POSITION" : 20,
                        "NORMAL" : 21,
                        "TEXCOORD_0" : 22
                    },
                    "indices" : 23,
                    "material" : 5
                },
                {
                    "attributes" : {
                        "POSITION" : 24,
                        "NORMAL" : 25,
                        "TEXCOORD_0" : 26
                    },
                    "indices" : 27,
                    "material" : 6
                },
                {
                    "attributes" : {
                        "POSITION" : 28,
                        "NORMAL" : 29,
                        "TEXCOORD_0" : 30
                    },
                    "indices" : 31,
                    "material" : 7
                },
                {
                    "attributes" : {
                        "POSITION" : 32,
                        "NORMAL" : 33,
                        "TEXCOORD_0" : 34
                    },
                    "indices" : 35,
                    "material" : 8
                },
                {
                    "attributes" : {
                        "POSITION" : 36,
                        "NORMAL" : 37,
                        "TEXCOORD_0" : 38
                    },
                    "indices" : 39,
                    "material" : 9
                }
            ]
        }
    ],
    "textures" : [
        {
            "source" : 0
        },
        {
            "source" : 1
        },
        {
            "source" : 2
        },
        {
            "source" : 3
        },
        {
            "source" : 4
        },
        {
            "source" : 5
        },
        {
            "source" : 6
        },
        {
            "source" : 7
        },
        {
            "source" : 8
        },
        {
            "source" : 9
        }
    ],
    "images" : [
        {
            "bufferView" : 4,
            "mimeType" : "image/png",
            "name" : "beroringa_0_0.tga"
        },
        {
            "bufferView" : 9,
            "mimeType" : "image/png",
            "name" : "beroringa_0_1.tga"
        },
        {
            "bufferView" : 14,
            "mimeType" : "image/png",
            "name" : "beroringa_0_2.tga"
        },
        {
            "bufferView" : 19,
            "mimeType" : "image/png",
            "name" : "beroringa_0_3.tga"
        },
        {
            "bufferView" : 24,
            "mimeType" : "image/png",
            "name" : "beroringa_0_4.tga"
        },
        {
            "bufferView" : 29,
            "mimeType" : "image/png",
            "name" : "beroringa_0_5.tga"
        },
        {
            "bufferView" : 34,
            "mimeType" : "image/png",
            "name" : "beroringa_0_6.tga"
        },
        {
            "bufferView" : 39,
            "mimeType" : "image/png",
            "name" : "beroringa_0_7.tga"
        },
        {
            "bufferView" : 44,
            "mimeType" : "image/png",
            "name" : "beroringa_0_8.tga"
        },
        {
            "bufferView" : 49,
            "mimeType" : "image/png",
            "name" : "beroringa_0_9.tga"
        }
    ],
    "accessors" : [
        {
            "bufferView" : 0,
            "componentType" : 5126,
            "count" : 21,
            "max" : [
                3.3306000232696533,
                -0.6543020009994507,
                2.1892099380493164
            ],
            "min" : [
                -3.3466598987579346,
                -2.5290400981903076,
                -1.7315900325775146
            ],
            "type" : "VEC3"
        },
        {
            "bufferView" : 1,
            "componentType" : 5126,
            "count" : 21,
            "type" : "VEC3"
        },
        {
            "bufferView" : 2,
            "componentType" : 5126,
            "count" : 21,
            "type" : "VEC2"
        },
        {
            "bufferView" : 3,
            "componentType" : 5123,
            "count" : 45,
            "type" : "SCALAR"
        },
        {
            "bufferView" : 5,
            "componentType" : 5126,
            "count" : 50,
            "max" : [
                3.6344099044799805,
                -0.7119560241699219,
                -0.629984974861145
            ],
            "min" : [
                -3.623260021209717,
                -7.64169979095459,
                -4.086309909820557
            ],
            "type" : "VEC3"
        },
        {
            "bufferView" : 6,
            "componentType" : 5126,
            "count" : 50,
            "type" : "VEC3"
        },
        {
            "bufferView" : 7,
            "componentType" : 5126,
            "count" : 50,
            "type" : "VEC2"
        },
        {
            "bufferView" : 8,
            "componentType" : 5123,
            "count" : 171,
            "type" : "SCALAR"
        },
        {
            "bufferView" : 10,
            "componentType" : 5126,
            "count" : 395,
            "max" : [
                6.165480136871338,
                -0.0026809999253600836,
                8.734199523925781
            ],
            "min" : [
                -6.219069957733154,
                -11.943599700927734,
                -4.099380016326904
            ],
            "type" : "VEC3"
        },
        {
            "bufferView" : 11,
            "componentType" : 5126,
            "count" : 395,
            "type" : "VEC3"
        },
        {
            "bufferView" : 12,
            "componentType" : 5126,
            "count" : 395,
            "type" : "VEC2"
        },
        {
            "bufferView" : 13,
            "componentType" : 5123,
            "count" : 948,
            "type" : "SCALAR"
        },
        {
            "bufferView" : 15,
            "componentType" : 5126,
            "count" : 22,
            "max" : [
                2.6515300273895264,
                -7.782750129699707,
                -1.7361600399017334
            ],
            "min" : [
                -2.6221399307250977,
                -8.894709587097168,
                -3.9122400283813477
            ],
            "type" : "VEC3"
        },
        {
            "bufferView" : 16,
            "componentType" : 5126,
            "count" : 22,
            "type" : "VEC3"
        },
        {
            "bufferView" : 17,
            "componentType" : 5126,
            "count" : 22,
            "type" : "VEC2"
        },
        {
            "bufferView" : 18,
            "componentType" : 5123,
            "count" : 36,
            "type" : "SCALAR"
        },
        {
            "bufferView" : 20,
            "componentType" : 5126,
            "count" : 10,
            "max" : [
                0.9140340089797974,
                -8.625459671020508,
                -3.8666000366210938
            ],
            "min" : [
                -0.9213359951972961,
                -9.484519958496094,
                -4.115190029144287
            ],
            "type" : "VEC3"
        },
        {
            "bufferView" : 21,
            "componentType" : 5126,
            "count" : 10,
            "type" : "VEC3"
        },
        {
            "bufferView" : 22,
            "componentType" : 5126,
            "count" : 10,
            "type" : "VEC2"
        },
        {
            "bufferView" : 23,
            "componentType" : 5123,
            "count" : 18,
            "type" : "SCALAR"
        },
        {
            "bufferView" : 25,
            "componentType" : 5126,
            "count" : 8,
            "max" : [
                1.784309983253479,
                -9.899979591369629,
                -2.569960117340088
            ],
            "min" : [
                -1.7806999683380127,
                -10.896300315856934,
                -3.443010091781616
            ],
            "type" : "VEC3"
        },
        {
            "bufferView" : 26,
            "componentType" : 5126,
            "count" : 8,
            "type" : "VEC3"
        },
        {
            "bufferView" : 27,
            "componentType" : 5126,
            "count" : 8,
            "type" : "VEC2"
        },
        {
            "bufferView" : 28,
            "componentType" : 5123,
            "count" : 12,
            "type" : "SCALAR"
        },
        {
            "bufferView" : 30,
            "componentType" : 5126,
            "count" : 123,
            "max" : [
                2.203819990158081,
                -0.513260006904602,
                -0.6104260087013245
            ],
            "min" : [
                -2.2004599571228027,
                -9.35571002960205,
                -9.446020126342773
            ],
            "type" : "VEC3"
        },
        {
            "bufferView" : 31,
            "componentType" : 5126,
            "count" : 123,
            "type" : "VEC3"
        },
        {
            "bufferView" : 32,
            "componentType" : 5126,
            "count" : 123,
            "type" : "VEC2"
        },
        {
            "bufferView" : 33,
            "componentType" : 5123,
            "count" : 285,
            "type" : "SCALAR"
        },
        {
            "bufferView" : 35,
            "componentType" : 5126,
            "count" : 78,
            "max" : [
                6.440310001373291,
                -0.0026809999253600836,
                1.7721999883651733
            ],
            "min" : [
                -6.428450107574463,
                -8.425600051879883,
                -2.925189971923828
            ],
            "type" : "VEC3"
        },
        {
            "bufferView" : 36,
            "componentType" : 5126,
            "count" : 78,
            "type" : "VEC3"
        },
        {
            "bufferView" : 37,
            "componentType" : 5126,
            "count" : 78,
            "type" : "VEC2"
        },
        {
            "bufferView" : 38,
            "componentType" : 5123,
            "count" : 210,
            "type" : "SCALAR"
        },
        {
            "bufferView" : 40,
            "componentType" : 5126,
            "count" : 42,
            "max" : [
                5.326539993286133,
                -0.01811799965798855,
                -0.42638298869132996
            ],
            "min" : [
                -5.291860103607178,
                -8.262709617614746,
                -2.7115299701690674
            ],
            "type" : "VEC3"
        },
        {
            "bufferView" : 41,
            "componentType" : 5126,
            "count" : 42,
            "type" : "VEC3"
        },
        {
            "bufferView" : 42,
            "componentType" : 5126,
            "count" : 42,
            "type" : "VEC2"
        },
        {
            "bufferView" : 43,
            "componentType" : 5123,
            "count" : 90,
            "type" : "SCALAR"
        },
        {
            "bufferView" : 45,
            "componentType" : 5126,
            "count" : 82,
            "max" : [
                4.920050144195557,
                -0.7887510061264038,
                2.7914700508117676
            ],
            "min" : [
                -4.920050144195557,
                -5.444240093231201,
                -2.0800299644470215
            ],
            "type" : "VEC3"
        },
        {
            "bufferView" : 46,
            "componentType" : 5126,
            "count" : 82,
            "type" : "VEC3"
        },
        {
            "bufferView" : 47,
            "componentType" : 5126,
            "count" : 82,
            "type" : "VEC2"
        },
        {
            "bufferView" : 48,
            "componentType" : 5123,
            "count" : 252,
            "type" : "SCALAR"
        }
    ],
    "bufferViews" : [
        {
            "buffer" : 0,
            "byteLength" : 252,
            "byteOffset" : 0
        },
        {
            "buffer" : 0,
            "byteLength" : 252,
            "byteOffset" : 252
        },
        {
            "buffer" : 0,
            "byteLength" : 168,
            "byteOffset" : 504
        },
        {
            "buffer" : 0,
            "byteLength" : 90,
            "byteOffset" : 672
        },
        {
            "buffer" : 0,
            "byteLength" : 289,
            "byteOffset" : 764
        },
        {
            "buffer" : 0,
            "byteLength" : 600,
            "byteOffset" : 1056
        },
        {
            "buffer" : 0,
            "byteLength" : 600,
            "byteOffset" : 1656
        },
        {
            "buffer" : 0,
            "byteLength" : 400,
            "byteOffset" : 2256
        },
        {
            "buffer" : 0,
            "byteLength" : 342,
            "byteOffset" : 2656
        },
        {
            "buffer" : 0,
            "byteLength" : 1532,
            "byteOffset" : 3000
        },
        {
            "buffer" : 0,
            "byteLength" : 4740,
            "byteOffset" : 4532
        },
        {
            "buffer" : 0,
            "byteLength" : 4740,
            "byteOffset" : 9272
        },
        {
            "buffer" : 0,
            "byteLength" : 3160,
            "byteOffset" : 14012
        },
        {
            "buffer" : 0,
            "byteLength" : 1896,
            "byteOffset" : 17172
        },
        {
            "buffer" : 0,
            "byteLength" : 76,
            "byteOffset" : 19068
        },
        {
            "buffer" : 0,
            "byteLength" : 264,
            "byteOffset" : 19144
        },
        {
            "buffer" : 0,
            "byteLength" : 264,
            "byteOffset" : 19408
        },
        {
            "buffer" : 0,
            "byteLength" : 176,
            "byteOffset" : 19672
        },
        {
            "buffer" : 0,
            "byteLength" : 72,
            "byteOffset" : 19848
        },
        {
            "buffer" : 0,
            "byteLength" : 75,
            "byteOffset" : 19920
        },
        {
            "buffer" : 0,
            "byteLength" : 120,
            "byteOffset" : 19996
        },
        {
            "buffer" : 0,
            "byteLength" : 120,
            "byteOffset" : 20116
        },
        {
            "buffer" : 0,
            "byteLength" : 80,
            "byteOffset" : 20236
        },
        {
            "buffer" : 0,
            "byteLength" : 36,
            "byteOffset" : 20316
        },
        {
            "buffer" : 0,
            "byteLength" : 691,
            "byteOffset" : 20352
        },
        {
            "buffer" : 0,
            "byteLength" : 96,
            "byteOffset" : 21044
        },
        {
            "buffer" : 0,
            "byteLength" : 96,
            "byteOffset" : 21140
        },
        {
            "buffer" : 0,
            "byteLength" : 64,
            "byteOffset" : 21236
        },
        {
            "buffer" : 0,
            "byteLength" : 24,
            "byteOffset" : 21300
        },
        {
            "buffer" : 0,
            "byteLength" : 2933,
            "byteOffset" : 21324
        },
        {
            "buffer" : 0,
            "byteLength" : 1476,
            "byteOffset" : 24260
        },
        {
            "buffer" : 0,
            "byteLength" : 1476,
            "byteOffset" : 25736
        },
        {
            "buffer" : 0,
            "byteLength" : 984,
            "byteOffset" : 27212
        },
        {
            "buffer" : 0,
            "byteLength" : 570,
            "byteOffset" : 28196
        },
        {
            "buffer" : 0,
            "byteLength" : 1537,
            "byteOffset" : 28768
        },
        {
            "buffer" : 0,
            "byteLength" : 936,
            "byteOffset" : 30308
        },
        {
            "buffer" : 0,
            "byteLength" : 936,
            "byteOffset" : 31244
        },
        {
            "buffer" : 0,
            "byteLength" : 624,
            "byteOffset" : 32180
        },
        {
            "buffer" : 0,
            "byteLength" : 420,
            "byteOffset" : 32804
        },
        {
            "buffer" : 0,
            "byteLength" : 600,
            "byteOffset" : 33224
        },
        {
            "buffer" : 0,
            "byteLength" : 504,
            "byteOffset" : 33824
        },
        {
            "buffer" : 0,
            "byteLength" : 504,
            "byteOffset" : 34328
        },
        {
            "buffer" : 0,
            "byteLength" : 336,
            "byteOffset" : 34832
        },
        {
            "buffer" : 0,
            "byteLength" : 180,
            "byteOffset" : 35168
        },
        {
            "buffer" : 0,
            "byteLength" : 103,
            "byteOffset" : 35348
        },
        {
            "buffer" : 0,
            "byteLength" : 984,
            "byteOffset" : 35452
        },
        {
            "buffer" : 0,
            "byteLength" : 984,
            "byteOffset" : 36436
        },
        {
            "buffer" : 0,
            "byteLength" : 656,
            "byteOffset" : 37420
        },
        {
            "buffer" : 0,
            "byteLength" : 504,
            "byteOffset" : 38076
        },
        {
            "buffer" : 0,
            "byteLength" : 662,
            "byteOffset" : 38580
        }
    ],
    "buffers" : [
        {
            "byteLength" : 39244,
            "uri" : "data:application/octet-stream;base64,"
        }
    ]
}
