{
    "asset" : {
        "generator" : "Khronos Blender glTF 2.0 I/O",
        "version" : "2.0"
    },
    "scene" : 0,
    "scenes" : [
        {
            "name" : "Scene",
            "nodes" : [
                0
            ]
        }
    ],
    "nodes" : [
        {
            "mesh" : 0,
            "name" : "goriky",
            "rotation" : [
                1,
                0,
                0,
                -1.6292068494294654e-07
            ]
        }
    ],
    "materials" : [
        {
            "name" : "mat_0.001",
            "pbrMetallicRoughness" : {
                "baseColorTexture" : {
                    "index" : 0,
                    "texCoord" : 0
                },
                "metallicFactor" : 0,
                "roughnessFactor" : 0.6732679605484009
            }
        },
        {
            "name" : "mat_1.001",
            "pbrMetallicRoughness" : {
                "baseColorTexture" : {
                    "index" : 1,
                    "texCoord" : 0
                },
                "metallicFactor" : 0,
                "roughnessFactor" : 0.6732679605484009
            }
        }
    ],
    "meshes" : [
        {
            "name" : "goriky",
            "primitives" : [
                {
                    "attributes" : {
                        "POSITION" : 0,
                        "NORMAL" : 1,
                        "TEXCOORD_0" : 2
                    },
                    "indices" : 3,
                    "material" : 0
                },
                {
                    "attributes" : {
                        "POSITION" : 4,
                        "NORMAL" : 5,
                        "TEXCOORD_0" : 6
                    },
                    "indices" : 7,
                    "material" : 1
                }
            ]
        }
    ],
    "textures" : [
        {
            "source" : 0
        },
        {
            "source" : 1
        }
    ],
    "images" : [
        {
            "bufferView" : 4,
            "mimeType" : "image/png",
            "name" : "goriky_0_0.tga"
        },
        {
            "bufferView" : 9,
            "mimeType" : "image/png",
            "name" : "goriky_0_1.tga"
        }
    ],
    "accessors" : [
        {
            "bufferView" : 0,
            "componentType" : 5126,
            "count" : 1580,
            "max" : [
                7.006939888000488,
                1.4125030040740967,
                2.3937408924102783
            ],
            "min" : [
                -7.006939888000488,
                -13.311558723449707,
                -5.353759765625
            ],
            "type" : "VEC3"
        },
        {
            "bufferView" : 1,
            "componentType" : 5126,
            "count" : 1580,
            "type" : "VEC3"
        },
        {
            "bufferView" : 2,
            "componentType" : 5126,
            "count" : 1580,
            "type" : "VEC2"
        },
        {
            "bufferView" : 3,
            "componentType" : 5123,
            "count" : 5886,
            "type" : "SCALAR"
        },
        {
            "bufferView" : 5,
            "componentType" : 5126,
            "count" : 16,
            "max" : [
                1.4051580429077148,
                -10.93913459777832,
                -3.1736910343170166
            ],
            "min" : [
                -1.4051580429077148,
                -11.993682861328125,
                -4.346850872039795
            ],
            "type" : "VEC3"
        },
        {
            "bufferView" : 6,
            "componentType" : 5126,
            "count" : 16,
            "type" : "VEC3"
        },
        {
            "bufferView" : 7,
            "componentType" : 5126,
            "count" : 16,
            "type" : "VEC2"
        },
        {
            "bufferView" : 8,
            "componentType" : 5123,
            "count" : 42,
            "type" : "SCALAR"
        }
    ],
    "bufferViews" : [
        {
            "buffer" : 0,
            "byteLength" : 18960,
            "byteOffset" : 0
        },
        {
            "buffer" : 0,
            "byteLength" : 18960,
            "byteOffset" : 18960
        },
        {
            "buffer" : 0,
            "byteLength" : 12640,
            "byteOffset" : 37920
        },
        {
            "buffer" : 0,
            "byteLength" : 11772,
            "byteOffset" : 50560
        },
        {
            "buffer" : 0,
            "byteLength" : 54234,
            "byteOffset" : 62332
        },
        {
            "buffer" : 0,
            "byteLength" : 192,
            "byteOffset" : 116568
        },
        {
            "buffer" : 0,
            "byteLength" : 192,
            "byteOffset" : 116760
        },
        {
            "buffer" : 0,
            "byteLength" : 128,
            "byteOffset" : 116952
        },
        {
            "buffer" : 0,
            "byteLength" : 84,
            "byteOffset" : 117080
        },
        {
            "buffer" : 0,
            "byteLength" : 10961,
            "byteOffset" : 117164
        }
    ],
    "buffers" : [
        {
            "byteLength" : 128128,
            "uri" : "data:application/octet-stream;base64,"
        }
    ]
}
