{
    "asset" : {
        "generator" : "Khronos Blender glTF 2.0 I/O",
        "version" : "2.0"
    },
    "scene" : 0,
    "scenes" : [
        {
            "name" : "Scene",
            "nodes" : [
                0
            ]
        }
    ],
    "nodes" : [
        {
            "mesh" : 0,
            "name" : "Magikarp",
            "rotation" : [
                0.7071068286895752,
                0,
                0,
                0.7071067094802856
            ],
            "translation" : [
                0,
                3.6046676635742188,
                0
            ]
        }
    ],
    "materials" : [
        {
            "name" : "mat2.003",
            "pbrMetallicRoughness" : {
                "baseColorTexture" : {
                    "index" : 0,
                    "texCoord" : 0
                },
                "metallicFactor" : 0,
                "roughnessFactor" : 0.8945907354354858
            }
        },
        {
            "name" : "mat1.003",
            "pbrMetallicRoughness" : {
                "baseColorTexture" : {
                    "index" : 1,
                    "texCoord" : 0
                },
                "metallicFactor" : 0,
                "roughnessFactor" : 0.8945907354354858
            }
        }
    ],
    "meshes" : [
        {
            "name" : "Magikarp",
            "primitives" : [
                {
                    "attributes" : {
                        "POSITION" : 0,
                        "NORMAL" : 1,
                        "TEXCOORD_0" : 2
                    },
                    "indices" : 3,
                    "material" : 0
                },
                {
                    "attributes" : {
                        "POSITION" : 4,
                        "NORMAL" : 5,
                        "TEXCOORD_0" : 6
                    },
                    "indices" : 7,
                    "material" : 1
                }
            ]
        }
    ],
    "textures" : [
        {
            "source" : 0
        },
        {
            "source" : 1
        }
    ],
    "images" : [
        {
            "bufferView" : 4,
            "mimeType" : "image/png",
            "name" : "KoikingEyeDh.tga"
        },
        {
            "bufferView" : 9,
            "mimeType" : "image/png",
            "name" : "KoikingDh.tga"
        }
    ],
    "accessors" : [
        {
            "bufferView" : 0,
            "componentType" : 5126,
            "count" : 146,
            "max" : [
                1.3651440143585205,
                2.545922040939331,
                -0.45781800150871277
            ],
            "min" : [
                -1.365144968032837,
                1.4530839920043945,
                -1.6829509735107422
            ],
            "type" : "VEC3"
        },
        {
            "bufferView" : 1,
            "componentType" : 5126,
            "count" : 146,
            "type" : "VEC3"
        },
        {
            "bufferView" : 2,
            "componentType" : 5126,
            "count" : 146,
            "type" : "VEC2"
        },
        {
            "bufferView" : 3,
            "componentType" : 5123,
            "count" : 744,
            "type" : "SCALAR"
        },
        {
            "bufferView" : 5,
            "componentType" : 5126,
            "count" : 922,
            "max" : [
                6.660752773284912,
                3.946898937225342,
                3.5205230712890625
            ],
            "min" : [
                -6.660754203796387,
                -5.121477127075195,
                -4.951469898223877
            ],
            "type" : "VEC3"
        },
        {
            "bufferView" : 6,
            "componentType" : 5126,
            "count" : 922,
            "type" : "VEC3"
        },
        {
            "bufferView" : 7,
            "componentType" : 5126,
            "count" : 922,
            "type" : "VEC2"
        },
        {
            "bufferView" : 8,
            "componentType" : 5123,
            "count" : 3750,
            "type" : "SCALAR"
        }
    ],
    "bufferViews" : [
        {
            "buffer" : 0,
            "byteLength" : 1752,
            "byteOffset" : 0
        },
        {
            "buffer" : 0,
            "byteLength" : 1752,
            "byteOffset" : 1752
        },
        {
            "buffer" : 0,
            "byteLength" : 1168,
            "byteOffset" : 3504
        },
        {
            "buffer" : 0,
            "byteLength" : 1488,
            "byteOffset" : 4672
        },
        {
            "buffer" : 0,
            "byteLength" : 8427,
            "byteOffset" : 6160
        },
        {
            "buffer" : 0,
            "byteLength" : 11064,
            "byteOffset" : 14588
        },
        {
            "buffer" : 0,
            "byteLength" : 11064,
            "byteOffset" : 25652
        },
        {
            "buffer" : 0,
            "byteLength" : 7376,
            "byteOffset" : 36716
        },
        {
            "buffer" : 0,
            "byteLength" : 7500,
            "byteOffset" : 44092
        },
        {
            "buffer" : 0,
            "byteLength" : 30324,
            "byteOffset" : 51592
        }
    ],
    "buffers" : [
        {
            "byteLength" : 81916,
            "uri" : "data:application/octet-stream;base64,"
        }
    ]
}
