{
    "asset" : {
        "generator" : "Khronos Blender glTF 2.0 I/O",
        "version" : "2.0"
    },
    "scene" : 0,
    "scenes" : [
        {
            "name" : "Scene",
            "nodes" : [
                0
            ]
        }
    ],
    "nodes" : [
        {
            "mesh" : 0,
            "name" : "rarecoil",
            "rotation" : [
                1,
                0,
                0,
                -1.6292068494294654e-07
            ]
        }
    ],
    "materials" : [
        {
            "name" : "mat_0.002",
            "pbrMetallicRoughness" : {
                "baseColorTexture" : {
                    "index" : 0,
                    "texCoord" : 0
                },
                "metallicFactor" : 0.47272732853889465,
                "roughnessFactor" : 0.3096315860748291
            }
        },
        {
            "name" : "mat_1.002",
            "pbrMetallicRoughness" : {
                "baseColorTexture" : {
                    "index" : 1,
                    "texCoord" : 0
                },
                "metallicFactor" : 0,
                "roughnessFactor" : 0.6732679605484009
            }
        },
        {
            "name" : "mat_2.001",
            "pbrMetallicRoughness" : {
                "baseColorTexture" : {
                    "index" : 2,
                    "texCoord" : 0
                },
                "metallicFactor" : 0,
                "roughnessFactor" : 0.6732679605484009
            }
        },
        {
            "name" : "mat_3.001",
            "pbrMetallicRoughness" : {
                "baseColorTexture" : {
                    "index" : 3,
                    "texCoord" : 0
                },
                "metallicFactor" : 0,
                "roughnessFactor" : 0.6732679605484009
            }
        },
        {
            "name" : "mat_4.001",
            "pbrMetallicRoughness" : {
                "baseColorTexture" : {
                    "index" : 4,
                    "texCoord" : 0
                },
                "metallicFactor" : 0,
                "roughnessFactor" : 0.6732679605484009
            }
        },
        {
            "name" : "mat_5.001",
            "pbrMetallicRoughness" : {
                "baseColorTexture" : {
                    "index" : 5,
                    "texCoord" : 0
                },
                "metallicFactor" : 0,
                "roughnessFactor" : 0.6732679605484009
            }
        },
        {
            "name" : "mat_6.001",
            "pbrMetallicRoughness" : {
                "baseColorTexture" : {
                    "index" : 6,
                    "texCoord" : 0
                },
                "metallicFactor" : 0,
                "roughnessFactor" : 0.6732679605484009
            }
        }
    ],
    "meshes" : [
        {
            "name" : "rarecoil",
            "primitives" : [
                {
                    "attributes" : {
                        "POSITION" : 0,
                        "NORMAL" : 1,
                        "TEXCOORD_0" : 2
                    },
                    "indices" : 3,
                    "material" : 0
                },
                {
                    "attributes" : {
                        "POSITION" : 4,
                        "NORMAL" : 5,
                        "TEXCOORD_0" : 6
                    },
                    "indices" : 7,
                    "material" : 1
                },
                {
                    "attributes" : {
                        "POSITION" : 8,
                        "NORMAL" : 9,
                        "TEXCOORD_0" : 10
                    },
                    "indices" : 11,
                    "material" : 2
                },
                {
                    "attributes" : {
                        "POSITION" : 12,
                        "NORMAL" : 13,
                        "TEXCOORD_0" : 14
                    },
                    "indices" : 15,
                    "material" : 3
                },
                {
                    "attributes" : {
                        "POSITION" : 16,
                        "NORMAL" : 17,
                        "TEXCOORD_0" : 18
                    },
                    "indices" : 19,
                    "material" : 4
                },
                {
                    "attributes" : {
                        "POSITION" : 20,
                        "NORMAL" : 21,
                        "TEXCOORD_0" : 22
                    },
                    "indices" : 23,
                    "material" : 5
                },
                {
                    "attributes" : {
                        "POSITION" : 24,
                        "NORMAL" : 25,
                        "TEXCOORD_0" : 26
                    },
                    "indices" : 27,
                    "material" : 6
                }
            ]
        }
    ],
    "textures" : [
        {
            "source" : 0
        },
        {
            "source" : 1
        },
        {
            "source" : 2
        },
        {
            "source" : 3
        },
        {
            "source" : 4
        },
        {
            "source" : 5
        },
        {
            "source" : 6
        }
    ],
    "images" : [
        {
            "bufferView" : 4,
            "mimeType" : "image/png",
            "name" : "rarecoil_0_0.tga"
        },
        {
            "bufferView" : 9,
            "mimeType" : "image/png",
            "name" : "rarecoil_0_1.tga"
        },
        {
            "bufferView" : 14,
            "mimeType" : "image/png",
            "name" : "rarecoil_0_2.tga"
        },
        {
            "bufferView" : 19,
            "mimeType" : "image/png",
            "name" : "rarecoil_0_3.tga"
        },
        {
            "bufferView" : 24,
            "mimeType" : "image/png",
            "name" : "rarecoil_0_4.tga"
        },
        {
            "bufferView" : 29,
            "mimeType" : "image/png",
            "name" : "rarecoil_0_5.tga"
        },
        {
            "bufferView" : 34,
            "mimeType" : "image/png",
            "name" : "rarecoil_0_6.tga"
        }
    ],
    "accessors" : [
        {
            "bufferView" : 0,
            "componentType" : 5126,
            "count" : 169,
            "max" : [
                4.724050045013428,
                5.024050235748291,
                2.524049997329712
            ],
            "min" : [
                -4.724050045013428,
                -3.2440500259399414,
                -1.521090030670166
            ],
            "type" : "VEC3"
        },
        {
            "bufferView" : 1,
            "componentType" : 5126,
            "count" : 169,
            "type" : "VEC3"
        },
        {
            "bufferView" : 2,
            "componentType" : 5126,
            "count" : 169,
            "type" : "VEC2"
        },
        {
            "bufferView" : 3,
            "componentType" : 5123,
            "count" : 720,
            "type" : "SCALAR"
        },
        {
            "bufferView" : 5,
            "componentType" : 5126,
            "count" : 467,
            "max" : [
                4.566370010375977,
                4.596499919891357,
                1.374400019645691
            ],
            "min" : [
                -4.136769771575928,
                -3.6127500534057617,
                -2.0051400661468506
            ],
            "type" : "VEC3"
        },
        {
            "bufferView" : 6,
            "componentType" : 5126,
            "count" : 467,
            "type" : "VEC3"
        },
        {
            "bufferView" : 7,
            "componentType" : 5126,
            "count" : 467,
            "type" : "VEC2"
        },
        {
            "bufferView" : 8,
            "componentType" : 5123,
            "count" : 1026,
            "type" : "SCALAR"
        },
        {
            "bufferView" : 10,
            "componentType" : 5126,
            "count" : 153,
            "max" : [
                4.616469860076904,
                4.42933988571167,
                1.374400019645691
            ],
            "min" : [
                -4.136769771575928,
                -3.7863199710845947,
                -2.0160601139068604
            ],
            "type" : "VEC3"
        },
        {
            "bufferView" : 11,
            "componentType" : 5126,
            "count" : 153,
            "type" : "VEC3"
        },
        {
            "bufferView" : 12,
            "componentType" : 5126,
            "count" : 153,
            "type" : "VEC2"
        },
        {
            "bufferView" : 13,
            "componentType" : 5123,
            "count" : 648,
            "type" : "SCALAR"
        },
        {
            "bufferView" : 15,
            "componentType" : 5126,
            "count" : 75,
            "max" : [
                3.900739908218384,
                4.198160171508789,
                -0.4103280007839203
            ],
            "min" : [
                -3.900739908218384,
                -2.3955399990081787,
                -1.5960899591445923
            ],
            "type" : "VEC3"
        },
        {
            "bufferView" : 16,
            "componentType" : 5126,
            "count" : 75,
            "type" : "VEC3"
        },
        {
            "bufferView" : 17,
            "componentType" : 5126,
            "count" : 75,
            "type" : "VEC2"
        },
        {
            "bufferView" : 18,
            "componentType" : 5123,
            "count" : 216,
            "type" : "SCALAR"
        },
        {
            "bufferView" : 20,
            "componentType" : 5126,
            "count" : 124,
            "max" : [
                6.1014299392700195,
                3.9596400260925293,
                1.952589988708496
            ],
            "min" : [
                -5.9374098777771,
                -3.967010021209717,
                0.33759400248527527
            ],
            "type" : "VEC3"
        },
        {
            "bufferView" : 21,
            "componentType" : 5126,
            "count" : 124,
            "type" : "VEC3"
        },
        {
            "bufferView" : 22,
            "componentType" : 5126,
            "count" : 124,
            "type" : "VEC2"
        },
        {
            "bufferView" : 23,
            "componentType" : 5123,
            "count" : 180,
            "type" : "SCALAR"
        },
        {
            "bufferView" : 25,
            "componentType" : 5126,
            "count" : 408,
            "max" : [
                5.21327018737793,
                4.562839984893799,
                1.719230055809021
            ],
            "min" : [
                -5.1939802169799805,
                -3.425179958343506,
                0.2152329981327057
            ],
            "type" : "VEC3"
        },
        {
            "bufferView" : 26,
            "componentType" : 5126,
            "count" : 408,
            "type" : "VEC3"
        },
        {
            "bufferView" : 27,
            "componentType" : 5126,
            "count" : 408,
            "type" : "VEC2"
        },
        {
            "bufferView" : 28,
            "componentType" : 5123,
            "count" : 1080,
            "type" : "SCALAR"
        },
        {
            "bufferView" : 30,
            "componentType" : 5126,
            "count" : 128,
            "max" : [
                5.871059894561768,
                4.803309917449951,
                1.9731500148773193
            ],
            "min" : [
                -6.097300052642822,
                -3.255419969558716,
                0.36924999952316284
            ],
            "type" : "VEC3"
        },
        {
            "bufferView" : 31,
            "componentType" : 5126,
            "count" : 128,
            "type" : "VEC3"
        },
        {
            "bufferView" : 32,
            "componentType" : 5126,
            "count" : 128,
            "type" : "VEC2"
        },
        {
            "bufferView" : 33,
            "componentType" : 5123,
            "count" : 180,
            "type" : "SCALAR"
        }
    ],
    "bufferViews" : [
        {
            "buffer" : 0,
            "byteLength" : 2028,
            "byteOffset" : 0
        },
        {
            "buffer" : 0,
            "byteLength" : 2028,
            "byteOffset" : 2028
        },
        {
            "buffer" : 0,
            "byteLength" : 1352,
            "byteOffset" : 4056
        },
        {
            "buffer" : 0,
            "byteLength" : 1440,
            "byteOffset" : 5408
        },
        {
            "buffer" : 0,
            "byteLength" : 3195,
            "byteOffset" : 6848
        },
        {
            "buffer" : 0,
            "byteLength" : 5604,
            "byteOffset" : 10044
        },
        {
            "buffer" : 0,
            "byteLength" : 5604,
            "byteOffset" : 15648
        },
        {
            "buffer" : 0,
            "byteLength" : 3736,
            "byteOffset" : 21252
        },
        {
            "buffer" : 0,
            "byteLength" : 2052,
            "byteOffset" : 24988
        },
        {
            "buffer" : 0,
            "byteLength" : 1026,
            "byteOffset" : 27040
        },
        {
            "buffer" : 0,
            "byteLength" : 1836,
            "byteOffset" : 28068
        },
        {
            "buffer" : 0,
            "byteLength" : 1836,
            "byteOffset" : 29904
        },
        {
            "buffer" : 0,
            "byteLength" : 1224,
            "byteOffset" : 31740
        },
        {
            "buffer" : 0,
            "byteLength" : 1296,
            "byteOffset" : 32964
        },
        {
            "buffer" : 0,
            "byteLength" : 3704,
            "byteOffset" : 34260
        },
        {
            "buffer" : 0,
            "byteLength" : 900,
            "byteOffset" : 37964
        },
        {
            "buffer" : 0,
            "byteLength" : 900,
            "byteOffset" : 38864
        },
        {
            "buffer" : 0,
            "byteLength" : 600,
            "byteOffset" : 39764
        },
        {
            "buffer" : 0,
            "byteLength" : 432,
            "byteOffset" : 40364
        },
        {
            "buffer" : 0,
            "byteLength" : 4438,
            "byteOffset" : 40796
        },
        {
            "buffer" : 0,
            "byteLength" : 1488,
            "byteOffset" : 45236
        },
        {
            "buffer" : 0,
            "byteLength" : 1488,
            "byteOffset" : 46724
        },
        {
            "buffer" : 0,
            "byteLength" : 992,
            "byteOffset" : 48212
        },
        {
            "buffer" : 0,
            "byteLength" : 360,
            "byteOffset" : 49204
        },
        {
            "buffer" : 0,
            "byteLength" : 111,
            "byteOffset" : 49564
        },
        {
            "buffer" : 0,
            "byteLength" : 4896,
            "byteOffset" : 49676
        },
        {
            "buffer" : 0,
            "byteLength" : 4896,
            "byteOffset" : 54572
        },
        {
            "buffer" : 0,
            "byteLength" : 3264,
            "byteOffset" : 59468
        },
        {
            "buffer" : 0,
            "byteLength" : 2160,
            "byteOffset" : 62732
        },
        {
            "buffer" : 0,
            "byteLength" : 103,
            "byteOffset" : 64892
        },
        {
            "buffer" : 0,
            "byteLength" : 1536,
            "byteOffset" : 64996
        },
        {
            "buffer" : 0,
            "byteLength" : 1536,
            "byteOffset" : 66532
        },
        {
            "buffer" : 0,
            "byteLength" : 1024,
            "byteOffset" : 68068
        },
        {
            "buffer" : 0,
            "byteLength" : 360,
            "byteOffset" : 69092
        },
        {
            "buffer" : 0,
            "byteLength" : 111,
            "byteOffset" : 69452
        }
    ],
    "buffers" : [
        {
            "byteLength" : 69564,
            "uri" : "data:application/octet-stream;base64,"
        }
    ]
}
