{
    "asset" : {
        "generator" : "Khronos Blender glTF 2.0 I/O",
        "version" : "2.0"
    },
    "scene" : 0,
    "scenes" : [
        {
            "name" : "Scene",
            "nodes" : [
                0
            ]
        }
    ],
    "nodes" : [
        {
            "mesh" : 0,
            "name" : "Meowth",
            "rotation" : [
                0.7071068286895752,
                0,
                0,
                0.7071067094802856
            ]
        }
    ],
    "materials" : [
        {
            "name" : "mat3.006",
            "pbrMetallicRoughness" : {
                "baseColorTexture" : {
                    "index" : 0,
                    "texCoord" : 0
                },
                "metallicFactor" : 0,
                "roughnessFactor" : 0.8945907354354858
            }
        },
        {
            "name" : "mat2.007",
            "pbrMetallicRoughness" : {
                "baseColorTexture" : {
                    "index" : 1,
                    "texCoord" : 0
                },
                "metallicFactor" : 0,
                "roughnessFactor" : 0.8945907354354858
            }
        },
        {
            "name" : "mat1.007",
            "pbrMetallicRoughness" : {
                "baseColorTexture" : {
                    "index" : 2,
                    "texCoord" : 0
                },
                "metallicFactor" : 0,
                "roughnessFactor" : 0.8945907354354858
            }
        }
    ],
    "meshes" : [
        {
            "name" : "Meowth",
            "primitives" : [
                {
                    "attributes" : {
                        "POSITION" : 0,
                        "NORMAL" : 1,
                        "TEXCOORD_0" : 2
                    },
                    "indices" : 3,
                    "material" : 0
                },
                {
                    "attributes" : {
                        "POSITION" : 4,
                        "NORMAL" : 5,
                        "TEXCOORD_0" : 6
                    },
                    "indices" : 7,
                    "material" : 1
                },
                {
                    "attributes" : {
                        "POSITION" : 8,
                        "NORMAL" : 9,
                        "TEXCOORD_0" : 10
                    },
                    "indices" : 11,
                    "material" : 2
                }
            ]
        }
    ],
    "textures" : [
        {
            "source" : 0
        },
        {
            "source" : 1
        },
        {
            "source" : 2
        }
    ],
    "images" : [
        {
            "bufferView" : 4,
            "mimeType" : "image/png",
            "name" : "NyarthMouthDh.tga"
        },
        {
            "bufferView" : 9,
            "mimeType" : "image/png",
            "name" : "NyarthEyeDh.tga"
        },
        {
            "bufferView" : 14,
            "mimeType" : "image/png",
            "name" : "NyarthDh.tga"
        }
    ],
    "accessors" : [
        {
            "bufferView" : 0,
            "componentType" : 5126,
            "count" : 58,
            "max" : [
                0.7342560291290283,
                1.1141339540481567,
                -2.055177927017212
            ],
            "min" : [
                -0.7342560291290283,
                0.33747899532318115,
                -2.8115639686584473
            ],
            "type" : "VEC3"
        },
        {
            "bufferView" : 1,
            "componentType" : 5126,
            "count" : 58,
            "type" : "VEC3"
        },
        {
            "bufferView" : 2,
            "componentType" : 5126,
            "count" : 58,
            "type" : "VEC2"
        },
        {
            "bufferView" : 3,
            "componentType" : 5123,
            "count" : 240,
            "type" : "SCALAR"
        },
        {
            "bufferView" : 5,
            "componentType" : 5126,
            "count" : 54,
            "max" : [
                0.9612089991569519,
                1.0482980012893677,
                -2.771476984024048
            ],
            "min" : [
                -0.9612089991569519,
                0.47915399074554443,
                -3.4915831089019775
            ],
            "type" : "VEC3"
        },
        {
            "bufferView" : 6,
            "componentType" : 5126,
            "count" : 54,
            "type" : "VEC3"
        },
        {
            "bufferView" : 7,
            "componentType" : 5126,
            "count" : 54,
            "type" : "VEC2"
        },
        {
            "bufferView" : 8,
            "componentType" : 5123,
            "count" : 222,
            "type" : "SCALAR"
        },
        {
            "bufferView" : 10,
            "componentType" : 5126,
            "count" : 1126,
            "max" : [
                2.3401710987091064,
                1.184412956237793,
                0.023344000801444054
            ],
            "min" : [
                -2.340169906616211,
                -2.1646430492401123,
                -4.415947914123535
            ],
            "type" : "VEC3"
        },
        {
            "bufferView" : 11,
            "componentType" : 5126,
            "count" : 1126,
            "type" : "VEC3"
        },
        {
            "bufferView" : 12,
            "componentType" : 5126,
            "count" : 1126,
            "type" : "VEC2"
        },
        {
            "bufferView" : 13,
            "componentType" : 5123,
            "count" : 4392,
            "type" : "SCALAR"
        }
    ],
    "bufferViews" : [
        {
            "buffer" : 0,
            "byteLength" : 696,
            "byteOffset" : 0
        },
        {
            "buffer" : 0,
            "byteLength" : 696,
            "byteOffset" : 696
        },
        {
            "buffer" : 0,
            "byteLength" : 464,
            "byteOffset" : 1392
        },
        {
            "buffer" : 0,
            "byteLength" : 480,
            "byteOffset" : 1856
        },
        {
            "buffer" : 0,
            "byteLength" : 4518,
            "byteOffset" : 2336
        },
        {
            "buffer" : 0,
            "byteLength" : 648,
            "byteOffset" : 6856
        },
        {
            "buffer" : 0,
            "byteLength" : 648,
            "byteOffset" : 7504
        },
        {
            "buffer" : 0,
            "byteLength" : 432,
            "byteOffset" : 8152
        },
        {
            "buffer" : 0,
            "byteLength" : 444,
            "byteOffset" : 8584
        },
        {
            "buffer" : 0,
            "byteLength" : 10084,
            "byteOffset" : 9028
        },
        {
            "buffer" : 0,
            "byteLength" : 13512,
            "byteOffset" : 19112
        },
        {
            "buffer" : 0,
            "byteLength" : 13512,
            "byteOffset" : 32624
        },
        {
            "buffer" : 0,
            "byteLength" : 9008,
            "byteOffset" : 46136
        },
        {
            "buffer" : 0,
            "byteLength" : 8784,
            "byteOffset" : 55144
        },
        {
            "buffer" : 0,
            "byteLength" : 16580,
            "byteOffset" : 63928
        }
    ],
    "buffers" : [
        {
            "byteLength" : 80508,
            "uri" : "data:application/octet-stream;base64,"
        }
    ]
}
