{
    "asset" : {
        "generator" : "Khronos Blender glTF 2.0 I/O",
        "version" : "2.0"
    },
    "scene" : 0,
    "scenes" : [
        {
            "name" : "1",
            "nodes" : [
                0
            ]
        }
    ],
    "nodes" : [
        {
            "mesh" : 0,
            "name" : "transel_mat_0",
            "rotation" : [
                0.7071068286895752,
                0,
                0,
                0.7071068286895752
            ]
        }
    ],
    "materials" : [
        {
            "doubleSided" : true,
            "name" : "mat_0",
            "pbrMetallicRoughness" : {
                "baseColorTexture" : {
                    "index" : 0,
                    "texCoord" : 0
                },
                "metallicFactor" : 0,
                "roughnessFactor" : 0.5
            }
        },
        {
            "doubleSided" : true,
            "name" : "mat_1",
            "pbrMetallicRoughness" : {
                "baseColorTexture" : {
                    "index" : 1,
                    "texCoord" : 0
                },
                "metallicFactor" : 0,
                "roughnessFactor" : 0.5
            }
        }
    ],
    "meshes" : [
        {
            "name" : "transel_mat_0",
            "primitives" : [
                {
                    "attributes" : {
                        "POSITION" : 0,
                        "NORMAL" : 1,
                        "TEXCOORD_0" : 2
                    },
                    "indices" : 3,
                    "material" : 0
                },
                {
                    "attributes" : {
                        "POSITION" : 4,
                        "NORMAL" : 5,
                        "TEXCOORD_0" : 6
                    },
                    "indices" : 7,
                    "material" : 1
                }
            ]
        }
    ],
    "textures" : [
        {
            "source" : 0
        },
        {
            "source" : 1
        }
    ],
    "images" : [
        {
            "bufferView" : 4,
            "mimeType" : "image/png",
            "name" : "transel_0_0.tga"
        },
        {
            "bufferView" : 9,
            "mimeType" : "image/png",
            "name" : "transel_0_1.tga"
        }
    ],
    "accessors" : [
        {
            "bufferView" : 0,
            "componentType" : 5126,
            "count" : 1328,
            "max" : [
                1.3119210004806519,
                3.6066179275512695,
                -0.0004870000120718032
            ],
            "min" : [
                -1.3119210004806519,
                -4.048264980316162,
                -5.876830101013184
            ],
            "type" : "VEC3"
        },
        {
            "bufferView" : 1,
            "componentType" : 5126,
            "count" : 1328,
            "type" : "VEC3"
        },
        {
            "bufferView" : 2,
            "componentType" : 5126,
            "count" : 1328,
            "type" : "VEC2"
        },
        {
            "bufferView" : 3,
            "componentType" : 5123,
            "count" : 5952,
            "type" : "SCALAR"
        },
        {
            "bufferView" : 5,
            "componentType" : 5126,
            "count" : 154,
            "max" : [
                0.9672070145606995,
                2.7849130630493164,
                -3.2414700984954834
            ],
            "min" : [
                -0.9672070145606995,
                1.950150966644287,
                -4.0798420906066895
            ],
            "type" : "VEC3"
        },
        {
            "bufferView" : 6,
            "componentType" : 5126,
            "count" : 154,
            "type" : "VEC3"
        },
        {
            "bufferView" : 7,
            "componentType" : 5126,
            "count" : 154,
            "type" : "VEC2"
        },
        {
            "bufferView" : 8,
            "componentType" : 5123,
            "count" : 762,
            "type" : "SCALAR"
        }
    ],
    "bufferViews" : [
        {
            "buffer" : 0,
            "byteLength" : 15936,
            "byteOffset" : 0
        },
        {
            "buffer" : 0,
            "byteLength" : 15936,
            "byteOffset" : 15936
        },
        {
            "buffer" : 0,
            "byteLength" : 10624,
            "byteOffset" : 31872
        },
        {
            "buffer" : 0,
            "byteLength" : 11904,
            "byteOffset" : 42496
        },
        {
            "buffer" : 0,
            "byteLength" : 18097,
            "byteOffset" : 54400
        },
        {
            "buffer" : 0,
            "byteLength" : 1848,
            "byteOffset" : 72500
        },
        {
            "buffer" : 0,
            "byteLength" : 1848,
            "byteOffset" : 74348
        },
        {
            "buffer" : 0,
            "byteLength" : 1232,
            "byteOffset" : 76196
        },
        {
            "buffer" : 0,
            "byteLength" : 1524,
            "byteOffset" : 77428
        },
        {
            "buffer" : 0,
            "byteLength" : 6448,
            "byteOffset" : 78952
        }
    ],
    "buffers" : [
        {
            "byteLength" : 85400,
            "uri" : "data:application/octet-stream;base64,"
        }
    ]
}
