{
    "asset" : {
        "generator" : "Khronos Blender glTF 2.0 I/O",
        "version" : "2.0"
    },
    "scene" : 0,
    "scenes" : [
        {
            "name" : "Scene",
            "nodes" : [
                0
            ]
        }
    ],
    "nodes" : [
        {
            "mesh" : 0,
            "name" : "Mew",
            "rotation" : [
                0.7071068286895752,
                0,
                0,
                0.7071067094802856
            ]
        }
    ],
    "materials" : [
        {
            "name" : "mat1.003",
            "pbrMetallicRoughness" : {
                "baseColorTexture" : {
                    "index" : 0,
                    "texCoord" : 0
                },
                "metallicFactor" : 0,
                "roughnessFactor" : 0.8945907354354858
            }
        },
        {
            "name" : "mat2.003",
            "pbrMetallicRoughness" : {
                "baseColorTexture" : {
                    "index" : 1,
                    "texCoord" : 0
                },
                "metallicFactor" : 0,
                "roughnessFactor" : 0.8945907354354858
            }
        }
    ],
    "meshes" : [
        {
            "name" : "Mew",
            "primitives" : [
                {
                    "attributes" : {
                        "POSITION" : 0,
                        "NORMAL" : 1,
                        "TEXCOORD_0" : 2
                    },
                    "indices" : 3,
                    "material" : 0
                },
                {
                    "attributes" : {
                        "POSITION" : 4,
                        "NORMAL" : 5,
                        "TEXCOORD_0" : 6
                    },
                    "indices" : 7,
                    "material" : 1
                }
            ]
        }
    ],
    "textures" : [
        {
            "source" : 0
        },
        {
            "source" : 1
        }
    ],
    "images" : [
        {
            "bufferView" : 4,
            "mimeType" : "image/png",
            "name" : "MewBodyDh.tga"
        },
        {
            "bufferView" : 9,
            "mimeType" : "image/png",
            "name" : "MewEyeDh.tga"
        }
    ],
    "accessors" : [
        {
            "bufferView" : 0,
            "componentType" : 5126,
            "count" : 1142,
            "max" : [
                1.0823570489883423,
                1.9371960163116455,
                -5.813456058502197
            ],
            "min" : [
                -1.0823570489883423,
                -7.087550163269043,
                -9.952393531799316
            ],
            "type" : "VEC3"
        },
        {
            "bufferView" : 1,
            "componentType" : 5126,
            "count" : 1142,
            "type" : "VEC3"
        },
        {
            "bufferView" : 2,
            "componentType" : 5126,
            "count" : 1142,
            "type" : "VEC2"
        },
        {
            "bufferView" : 3,
            "componentType" : 5123,
            "count" : 5184,
            "type" : "SCALAR"
        },
        {
            "bufferView" : 5,
            "componentType" : 5126,
            "count" : 34,
            "max" : [
                0.6980819702148438,
                0.5763689875602722,
                -9.14490795135498
            ],
            "min" : [
                -0.6980819702148438,
                0.2522279918193817,
                -9.636537551879883
            ],
            "type" : "VEC3"
        },
        {
            "bufferView" : 6,
            "componentType" : 5126,
            "count" : 34,
            "type" : "VEC3"
        },
        {
            "bufferView" : 7,
            "componentType" : 5126,
            "count" : 34,
            "type" : "VEC2"
        },
        {
            "bufferView" : 8,
            "componentType" : 5123,
            "count" : 120,
            "type" : "SCALAR"
        }
    ],
    "bufferViews" : [
        {
            "buffer" : 0,
            "byteLength" : 13704,
            "byteOffset" : 0
        },
        {
            "buffer" : 0,
            "byteLength" : 13704,
            "byteOffset" : 13704
        },
        {
            "buffer" : 0,
            "byteLength" : 9136,
            "byteOffset" : 27408
        },
        {
            "buffer" : 0,
            "byteLength" : 10368,
            "byteOffset" : 36544
        },
        {
            "buffer" : 0,
            "byteLength" : 23915,
            "byteOffset" : 46912
        },
        {
            "buffer" : 0,
            "byteLength" : 408,
            "byteOffset" : 70828
        },
        {
            "buffer" : 0,
            "byteLength" : 408,
            "byteOffset" : 71236
        },
        {
            "buffer" : 0,
            "byteLength" : 272,
            "byteOffset" : 71644
        },
        {
            "buffer" : 0,
            "byteLength" : 240,
            "byteOffset" : 71916
        },
        {
            "buffer" : 0,
            "byteLength" : 6211,
            "byteOffset" : 72156
        }
    ],
    "buffers" : [
        {
            "byteLength" : 78368,
            "uri" : "data:application/octet-stream;base64,"
        }
    ]
}
