{
    "asset" : {
        "generator" : "Khronos Blender glTF 2.0 I/O",
        "version" : "2.0"
    },
    "scene" : 0,
    "scenes" : [
        {
            "name" : "Scene",
            "nodes" : [
                0
            ]
        }
    ],
    "nodes" : [
        {
            "mesh" : 0,
            "name" : "Mr. Mime",
            "rotation" : [
                0.7071068286895752,
                0,
                0,
                0.7071067094802856
            ]
        }
    ],
    "materials" : [
        {
            "name" : "mat1",
            "pbrMetallicRoughness" : {
                "baseColorTexture" : {
                    "index" : 0,
                    "texCoord" : 0
                },
                "metallicFactor" : 0,
                "roughnessFactor" : 0.8945907354354858
            }
        },
        {
            "name" : "mat2",
            "pbrMetallicRoughness" : {
                "baseColorTexture" : {
                    "index" : 1,
                    "texCoord" : 0
                },
                "metallicFactor" : 0,
                "roughnessFactor" : 0.8945907354354858
            }
        },
        {
            "name" : "mat3",
            "pbrMetallicRoughness" : {
                "baseColorTexture" : {
                    "index" : 2,
                    "texCoord" : 0
                },
                "metallicFactor" : 0,
                "roughnessFactor" : 0.8945907354354858
            }
        }
    ],
    "meshes" : [
        {
            "name" : "Mr. Mime",
            "primitives" : [
                {
                    "attributes" : {
                        "POSITION" : 0,
                        "NORMAL" : 1,
                        "TEXCOORD_0" : 2
                    },
                    "indices" : 3,
                    "material" : 0
                },
                {
                    "attributes" : {
                        "POSITION" : 4,
                        "NORMAL" : 5,
                        "TEXCOORD_0" : 6
                    },
                    "indices" : 7,
                    "material" : 1
                },
                {
                    "attributes" : {
                        "POSITION" : 8,
                        "NORMAL" : 9,
                        "TEXCOORD_0" : 10
                    },
                    "indices" : 11,
                    "material" : 2
                }
            ]
        }
    ],
    "textures" : [
        {
            "source" : 0
        },
        {
            "source" : 1
        },
        {
            "source" : 2
        }
    ],
    "images" : [
        {
            "bufferView" : 4,
            "mimeType" : "image/png",
            "name" : "BarrierdDh.tga"
        },
        {
            "bufferView" : 9,
            "mimeType" : "image/png",
            "name" : "BarrierdEyeDh.tga"
        },
        {
            "bufferView" : 14,
            "mimeType" : "image/png",
            "name" : "BarrierdMouthDh.tga"
        }
    ],
    "accessors" : [
        {
            "bufferView" : 0,
            "componentType" : 5126,
            "count" : 1122,
            "max" : [
                11.477326393127441,
                2.4923601150512695,
                0.04252300038933754
            ],
            "min" : [
                -11.477325439453125,
                -1.9003020524978638,
                -13.064416885375977
            ],
            "type" : "VEC3"
        },
        {
            "bufferView" : 1,
            "componentType" : 5126,
            "count" : 1122,
            "type" : "VEC3"
        },
        {
            "bufferView" : 2,
            "componentType" : 5126,
            "count" : 1122,
            "type" : "VEC2"
        },
        {
            "bufferView" : 3,
            "componentType" : 5123,
            "count" : 4512,
            "type" : "SCALAR"
        },
        {
            "bufferView" : 5,
            "componentType" : 5126,
            "count" : 18,
            "max" : [
                1.092182993888855,
                2.2383151054382324,
                -9.598188400268555
            ],
            "min" : [
                -1.092182993888855,
                1.5834009647369385,
                -10.905896186828613
            ],
            "type" : "VEC3"
        },
        {
            "bufferView" : 6,
            "componentType" : 5126,
            "count" : 18,
            "type" : "VEC3"
        },
        {
            "bufferView" : 7,
            "componentType" : 5126,
            "count" : 18,
            "type" : "VEC2"
        },
        {
            "bufferView" : 8,
            "componentType" : 5123,
            "count" : 48,
            "type" : "SCALAR"
        },
        {
            "bufferView" : 10,
            "componentType" : 5126,
            "count" : 44,
            "max" : [
                2.0480029582977295,
                2.455559015274048,
                -8.416045188903809
            ],
            "min" : [
                -2.048003911972046,
                1.037147045135498,
                -10.201062202453613
            ],
            "type" : "VEC3"
        },
        {
            "bufferView" : 11,
            "componentType" : 5126,
            "count" : 44,
            "type" : "VEC3"
        },
        {
            "bufferView" : 12,
            "componentType" : 5126,
            "count" : 44,
            "type" : "VEC2"
        },
        {
            "bufferView" : 13,
            "componentType" : 5123,
            "count" : 162,
            "type" : "SCALAR"
        }
    ],
    "bufferViews" : [
        {
            "buffer" : 0,
            "byteLength" : 13464,
            "byteOffset" : 0
        },
        {
            "buffer" : 0,
            "byteLength" : 13464,
            "byteOffset" : 13464
        },
        {
            "buffer" : 0,
            "byteLength" : 8976,
            "byteOffset" : 26928
        },
        {
            "buffer" : 0,
            "byteLength" : 9024,
            "byteOffset" : 35904
        },
        {
            "buffer" : 0,
            "byteLength" : 31842,
            "byteOffset" : 44928
        },
        {
            "buffer" : 0,
            "byteLength" : 216,
            "byteOffset" : 76772
        },
        {
            "buffer" : 0,
            "byteLength" : 216,
            "byteOffset" : 76988
        },
        {
            "buffer" : 0,
            "byteLength" : 144,
            "byteOffset" : 77204
        },
        {
            "buffer" : 0,
            "byteLength" : 96,
            "byteOffset" : 77348
        },
        {
            "buffer" : 0,
            "byteLength" : 6697,
            "byteOffset" : 77444
        },
        {
            "buffer" : 0,
            "byteLength" : 528,
            "byteOffset" : 84144
        },
        {
            "buffer" : 0,
            "byteLength" : 528,
            "byteOffset" : 84672
        },
        {
            "buffer" : 0,
            "byteLength" : 352,
            "byteOffset" : 85200
        },
        {
            "buffer" : 0,
            "byteLength" : 324,
            "byteOffset" : 85552
        },
        {
            "buffer" : 0,
            "byteLength" : 4034,
            "byteOffset" : 85876
        }
    ],
    "buffers" : [
        {
            "byteLength" : 89912,
            "uri" : "data:application/octet-stream;base64,"
        }
    ]
}
