{
    "asset" : {
        "generator" : "Khronos Blender glTF 2.0 I/O",
        "version" : "2.0"
    },
    "scene" : 0,
    "scenes" : [
        {
            "name" : "Scene",
            "nodes" : [
                0
            ]
        }
    ],
    "nodes" : [
        {
            "mesh" : 0,
            "name" : "nidoran_f",
            "rotation" : [
                1,
                0,
                0,
                -1.6292068494294654e-07
            ]
        }
    ],
    "materials" : [
        {
            "name" : "mat_0.002",
            "pbrMetallicRoughness" : {
                "baseColorTexture" : {
                    "index" : 0,
                    "texCoord" : 0
                },
                "metallicFactor" : 0,
                "roughnessFactor" : 0.6732679605484009
            }
        },
        {
            "name" : "mat_1.001",
            "pbrMetallicRoughness" : {
                "baseColorTexture" : {
                    "index" : 1,
                    "texCoord" : 0
                },
                "metallicFactor" : 0,
                "roughnessFactor" : 0.6732679605484009
            }
        },
        {
            "name" : "mat_2.001",
            "pbrMetallicRoughness" : {
                "baseColorTexture" : {
                    "index" : 2,
                    "texCoord" : 0
                },
                "metallicFactor" : 0,
                "roughnessFactor" : 0.6732679605484009
            }
        },
        {
            "name" : "mat_3.001",
            "pbrMetallicRoughness" : {
                "baseColorTexture" : {
                    "index" : 3,
                    "texCoord" : 0
                },
                "metallicFactor" : 0,
                "roughnessFactor" : 0.6732679605484009
            }
        },
        {
            "name" : "mat_4.001",
            "pbrMetallicRoughness" : {
                "baseColorTexture" : {
                    "index" : 4,
                    "texCoord" : 0
                },
                "metallicFactor" : 0,
                "roughnessFactor" : 0.6732679605484009
            }
        },
        {
            "name" : "mat_5",
            "pbrMetallicRoughness" : {
                "baseColorFactor" : [
                    0.800000011920929,
                    0.800000011920929,
                    0.800000011920929,
                    1
                ],
                "metallicFactor" : 0,
                "roughnessFactor" : 0.6732679605484009
            }
        },
        {
            "name" : "mat_6",
            "pbrMetallicRoughness" : {
                "baseColorTexture" : {
                    "index" : 5,
                    "texCoord" : 0
                },
                "metallicFactor" : 0,
                "roughnessFactor" : 0.6732679605484009
            }
        },
        {
            "name" : "mat_7",
            "pbrMetallicRoughness" : {
                "baseColorTexture" : {
                    "index" : 6,
                    "texCoord" : 0
                },
                "metallicFactor" : 0,
                "roughnessFactor" : 0.6732679605484009
            }
        }
    ],
    "meshes" : [
        {
            "name" : "nidoran_f",
            "primitives" : [
                {
                    "attributes" : {
                        "POSITION" : 0,
                        "NORMAL" : 1,
                        "TEXCOORD_0" : 2
                    },
                    "indices" : 3,
                    "material" : 0
                },
                {
                    "attributes" : {
                        "POSITION" : 4,
                        "NORMAL" : 5,
                        "TEXCOORD_0" : 6
                    },
                    "indices" : 7,
                    "material" : 1
                },
                {
                    "attributes" : {
                        "POSITION" : 8,
                        "NORMAL" : 9,
                        "TEXCOORD_0" : 10
                    },
                    "indices" : 11,
                    "material" : 2
                },
                {
                    "attributes" : {
                        "POSITION" : 12,
                        "NORMAL" : 13,
                        "TEXCOORD_0" : 14
                    },
                    "indices" : 15,
                    "material" : 3
                },
                {
                    "attributes" : {
                        "POSITION" : 16,
                        "NORMAL" : 17,
                        "TEXCOORD_0" : 18
                    },
                    "indices" : 19,
                    "material" : 4
                },
                {
                    "attributes" : {
                        "POSITION" : 20,
                        "NORMAL" : 21,
                        "TEXCOORD_0" : 22
                    },
                    "indices" : 23,
                    "material" : 5
                },
                {
                    "attributes" : {
                        "POSITION" : 24,
                        "NORMAL" : 25,
                        "TEXCOORD_0" : 26
                    },
                    "indices" : 27,
                    "material" : 6
                },
                {
                    "attributes" : {
                        "POSITION" : 28,
                        "NORMAL" : 29,
                        "TEXCOORD_0" : 30
                    },
                    "indices" : 31,
                    "material" : 7
                }
            ]
        }
    ],
    "textures" : [
        {
            "source" : 0
        },
        {
            "source" : 1
        },
        {
            "source" : 2
        },
        {
            "source" : 3
        },
        {
            "source" : 4
        },
        {
            "source" : 5
        },
        {
            "source" : 6
        }
    ],
    "images" : [
        {
            "bufferView" : 4,
            "mimeType" : "image/png",
            "name" : "nidoran_f_0_0.tga"
        },
        {
            "bufferView" : 9,
            "mimeType" : "image/png",
            "name" : "nidoran_f_0_0.tga"
        },
        {
            "bufferView" : 14,
            "mimeType" : "image/png",
            "name" : "nidoran_f_0_2.tga"
        },
        {
            "bufferView" : 19,
            "mimeType" : "image/png",
            "name" : "nidoran_f_0_3.tga"
        },
        {
            "bufferView" : 24,
            "mimeType" : "image/png",
            "name" : "nidoran_f_0_4.tga"
        },
        {
            "bufferView" : 33,
            "mimeType" : "image/png",
            "name" : "nidoran_f_0_5.tga"
        },
        {
            "bufferView" : 38,
            "mimeType" : "image/png",
            "name" : "nidoran_f_0_6.tga"
        }
    ],
    "accessors" : [
        {
            "bufferView" : 0,
            "componentType" : 5126,
            "count" : 92,
            "max" : [
                1.2715200185775757,
                -0.16946299374103546,
                2.1045100688934326
            ],
            "min" : [
                -1.311519980430603,
                -2.620889902114868,
                0.10432299971580505
            ],
            "type" : "VEC3"
        },
        {
            "bufferView" : 1,
            "componentType" : 5126,
            "count" : 92,
            "type" : "VEC3"
        },
        {
            "bufferView" : 2,
            "componentType" : 5126,
            "count" : 92,
            "type" : "VEC2"
        },
        {
            "bufferView" : 3,
            "componentType" : 5123,
            "count" : 204,
            "type" : "SCALAR"
        },
        {
            "bufferView" : 5,
            "componentType" : 5126,
            "count" : 50,
            "max" : [
                1.2715200185775757,
                -0.4134640097618103,
                1.8890000581741333
            ],
            "min" : [
                -1.050719976425171,
                -2.324460029602051,
                -0.6696599721908569
            ],
            "type" : "VEC3"
        },
        {
            "bufferView" : 6,
            "componentType" : 5126,
            "count" : 50,
            "type" : "VEC3"
        },
        {
            "bufferView" : 7,
            "componentType" : 5126,
            "count" : 50,
            "type" : "VEC2"
        },
        {
            "bufferView" : 8,
            "componentType" : 5123,
            "count" : 132,
            "type" : "SCALAR"
        },
        {
            "bufferView" : 10,
            "componentType" : 5126,
            "count" : 292,
            "max" : [
                1.7208800315856934,
                0.011568999849259853,
                2.477370023727417
            ],
            "min" : [
                -1.7208800315856934,
                -3.6686699390411377,
                -2.2179698944091797
            ],
            "type" : "VEC3"
        },
        {
            "bufferView" : 11,
            "componentType" : 5126,
            "count" : 292,
            "type" : "VEC3"
        },
        {
            "bufferView" : 12,
            "componentType" : 5126,
            "count" : 292,
            "type" : "VEC2"
        },
        {
            "bufferView" : 13,
            "componentType" : 5123,
            "count" : 1236,
            "type" : "SCALAR"
        },
        {
            "bufferView" : 15,
            "componentType" : 5126,
            "count" : 12,
            "max" : [
                0.8963900208473206,
                -2.45674991607666,
                -0.7436069846153259
            ],
            "min" : [
                -0.9296690225601196,
                -3.3102099895477295,
                -1.8119299411773682
            ],
            "type" : "VEC3"
        },
        {
            "bufferView" : 16,
            "componentType" : 5126,
            "count" : 12,
            "type" : "VEC3"
        },
        {
            "bufferView" : 17,
            "componentType" : 5126,
            "count" : 12,
            "type" : "VEC2"
        },
        {
            "bufferView" : 18,
            "componentType" : 5123,
            "count" : 30,
            "type" : "SCALAR"
        },
        {
            "bufferView" : 20,
            "componentType" : 5126,
            "count" : 17,
            "max" : [
                0.37842801213264465,
                -1.8997000455856323,
                -1.7736400365829468
            ],
            "min" : [
                -0.4117070138454437,
                -2.5131399631500244,
                -2.0792899131774902
            ],
            "type" : "VEC3"
        },
        {
            "bufferView" : 21,
            "componentType" : 5126,
            "count" : 17,
            "type" : "VEC3"
        },
        {
            "bufferView" : 22,
            "componentType" : 5126,
            "count" : 17,
            "type" : "VEC2"
        },
        {
            "bufferView" : 23,
            "componentType" : 5123,
            "count" : 36,
            "type" : "SCALAR"
        },
        {
            "bufferView" : 25,
            "componentType" : 5126,
            "count" : 5,
            "max" : [
                0.1168069988489151,
                -2.2907299995422363,
                -2.047339916229248
            ],
            "min" : [
                -0.18344800174236298,
                -2.6178500652313232,
                -2.1892600059509277
            ],
            "type" : "VEC3"
        },
        {
            "bufferView" : 26,
            "componentType" : 5126,
            "count" : 5,
            "type" : "VEC3"
        },
        {
            "bufferView" : 27,
            "componentType" : 5126,
            "count" : 5,
            "type" : "VEC2"
        },
        {
            "bufferView" : 28,
            "componentType" : 5123,
            "count" : 9,
            "type" : "SCALAR"
        },
        {
            "bufferView" : 29,
            "componentType" : 5126,
            "count" : 12,
            "max" : [
                0.2704809904098511,
                -2.6202900409698486,
                -2.091789960861206
            ],
            "min" : [
                -0.30375999212265015,
                -3.038680076599121,
                -2.269279956817627
            ],
            "type" : "VEC3"
        },
        {
            "bufferView" : 30,
            "componentType" : 5126,
            "count" : 12,
            "type" : "VEC3"
        },
        {
            "bufferView" : 31,
            "componentType" : 5126,
            "count" : 12,
            "type" : "VEC2"
        },
        {
            "bufferView" : 32,
            "componentType" : 5123,
            "count" : 24,
            "type" : "SCALAR"
        },
        {
            "bufferView" : 34,
            "componentType" : 5126,
            "count" : 160,
            "max" : [
                2.2498700618743896,
                -2.2564399242401123,
                1.3337899446487427
            ],
            "min" : [
                -2.2498700618743896,
                -4.000539779663086,
                -0.7436069846153259
            ],
            "type" : "VEC3"
        },
        {
            "bufferView" : 35,
            "componentType" : 5126,
            "count" : 160,
            "type" : "VEC3"
        },
        {
            "bufferView" : 36,
            "componentType" : 5126,
            "count" : 160,
            "type" : "VEC2"
        },
        {
            "bufferView" : 37,
            "componentType" : 5123,
            "count" : 348,
            "type" : "SCALAR"
        }
    ],
    "bufferViews" : [
        {
            "buffer" : 0,
            "byteLength" : 1104,
            "byteOffset" : 0
        },
        {
            "buffer" : 0,
            "byteLength" : 1104,
            "byteOffset" : 1104
        },
        {
            "buffer" : 0,
            "byteLength" : 736,
            "byteOffset" : 2208
        },
        {
            "buffer" : 0,
            "byteLength" : 408,
            "byteOffset" : 2944
        },
        {
            "buffer" : 0,
            "byteLength" : 664,
            "byteOffset" : 3352
        },
        {
            "buffer" : 0,
            "byteLength" : 600,
            "byteOffset" : 4016
        },
        {
            "buffer" : 0,
            "byteLength" : 600,
            "byteOffset" : 4616
        },
        {
            "buffer" : 0,
            "byteLength" : 400,
            "byteOffset" : 5216
        },
        {
            "buffer" : 0,
            "byteLength" : 264,
            "byteOffset" : 5616
        },
        {
            "buffer" : 0,
            "byteLength" : 664,
            "byteOffset" : 5880
        },
        {
            "buffer" : 0,
            "byteLength" : 3504,
            "byteOffset" : 6544
        },
        {
            "buffer" : 0,
            "byteLength" : 3504,
            "byteOffset" : 10048
        },
        {
            "buffer" : 0,
            "byteLength" : 2336,
            "byteOffset" : 13552
        },
        {
            "buffer" : 0,
            "byteLength" : 2472,
            "byteOffset" : 15888
        },
        {
            "buffer" : 0,
            "byteLength" : 1221,
            "byteOffset" : 18360
        },
        {
            "buffer" : 0,
            "byteLength" : 144,
            "byteOffset" : 19584
        },
        {
            "buffer" : 0,
            "byteLength" : 144,
            "byteOffset" : 19728
        },
        {
            "buffer" : 0,
            "byteLength" : 96,
            "byteOffset" : 19872
        },
        {
            "buffer" : 0,
            "byteLength" : 60,
            "byteOffset" : 19968
        },
        {
            "buffer" : 0,
            "byteLength" : 5610,
            "byteOffset" : 20028
        },
        {
            "buffer" : 0,
            "byteLength" : 204,
            "byteOffset" : 25640
        },
        {
            "buffer" : 0,
            "byteLength" : 204,
            "byteOffset" : 25844
        },
        {
            "buffer" : 0,
            "byteLength" : 136,
            "byteOffset" : 26048
        },
        {
            "buffer" : 0,
            "byteLength" : 72,
            "byteOffset" : 26184
        },
        {
            "buffer" : 0,
            "byteLength" : 1593,
            "byteOffset" : 26256
        },
        {
            "buffer" : 0,
            "byteLength" : 60,
            "byteOffset" : 27852
        },
        {
            "buffer" : 0,
            "byteLength" : 60,
            "byteOffset" : 27912
        },
        {
            "buffer" : 0,
            "byteLength" : 40,
            "byteOffset" : 27972
        },
        {
            "buffer" : 0,
            "byteLength" : 18,
            "byteOffset" : 28012
        },
        {
            "buffer" : 0,
            "byteLength" : 144,
            "byteOffset" : 28032
        },
        {
            "buffer" : 0,
            "byteLength" : 144,
            "byteOffset" : 28176
        },
        {
            "buffer" : 0,
            "byteLength" : 96,
            "byteOffset" : 28320
        },
        {
            "buffer" : 0,
            "byteLength" : 48,
            "byteOffset" : 28416
        },
        {
            "buffer" : 0,
            "byteLength" : 494,
            "byteOffset" : 28464
        },
        {
            "buffer" : 0,
            "byteLength" : 1920,
            "byteOffset" : 28960
        },
        {
            "buffer" : 0,
            "byteLength" : 1920,
            "byteOffset" : 30880
        },
        {
            "buffer" : 0,
            "byteLength" : 1280,
            "byteOffset" : 32800
        },
        {
            "buffer" : 0,
            "byteLength" : 696,
            "byteOffset" : 34080
        },
        {
            "buffer" : 0,
            "byteLength" : 1609,
            "byteOffset" : 34776
        }
    ],
    "buffers" : [
        {
            "byteLength" : 36388,
            "uri" : "data:application/octet-stream;base64,"
        }
    ]
}
