{
    "asset" : {
        "generator" : "Khronos Blender glTF 2.0 I/O",
        "version" : "2.0"
    },
    "scene" : 0,
    "scenes" : [
        {
            "name" : "Scene",
            "nodes" : [
                0
            ]
        }
    ],
    "nodes" : [
        {
            "mesh" : 0,
            "name" : "Ninetales",
            "rotation" : [
                0.7071068286895752,
                0,
                0,
                0.7071067094802856
            ]
        }
    ],
    "materials" : [
        {
            "name" : "mat3.001",
            "pbrMetallicRoughness" : {
                "baseColorTexture" : {
                    "index" : 0,
                    "texCoord" : 0
                },
                "metallicFactor" : 0,
                "roughnessFactor" : 0.8945907354354858
            }
        },
        {
            "name" : "mat2.001",
            "pbrMetallicRoughness" : {
                "baseColorTexture" : {
                    "index" : 1,
                    "texCoord" : 0
                },
                "metallicFactor" : 0,
                "roughnessFactor" : 0.8945907354354858
            }
        },
        {
            "name" : "mat1.001",
            "pbrMetallicRoughness" : {
                "baseColorTexture" : {
                    "index" : 2,
                    "texCoord" : 0
                },
                "metallicFactor" : 0,
                "roughnessFactor" : 0.8945907354354858
            }
        }
    ],
    "meshes" : [
        {
            "name" : "Ninetales",
            "primitives" : [
                {
                    "attributes" : {
                        "POSITION" : 0,
                        "NORMAL" : 1,
                        "TEXCOORD_0" : 2
                    },
                    "indices" : 3,
                    "material" : 0
                },
                {
                    "attributes" : {
                        "POSITION" : 4,
                        "NORMAL" : 5,
                        "TEXCOORD_0" : 6
                    },
                    "indices" : 7,
                    "material" : 1
                },
                {
                    "attributes" : {
                        "POSITION" : 8,
                        "NORMAL" : 9,
                        "TEXCOORD_0" : 10
                    },
                    "indices" : 11,
                    "material" : 2
                }
            ]
        }
    ],
    "textures" : [
        {
            "source" : 0
        },
        {
            "source" : 1
        },
        {
            "source" : 2
        }
    ],
    "images" : [
        {
            "bufferView" : 4,
            "mimeType" : "image/png",
            "name" : "KyukonEyeDh.tga"
        },
        {
            "bufferView" : 9,
            "mimeType" : "image/png",
            "name" : "KyukonChestDh.tga"
        },
        {
            "bufferView" : 14,
            "mimeType" : "image/png",
            "name" : "KyukonDh.tga"
        }
    ],
    "accessors" : [
        {
            "bufferView" : 0,
            "componentType" : 5126,
            "count" : 18,
            "max" : [
                0.7887529730796814,
                4.792133808135986,
                -7.203165054321289
            ],
            "min" : [
                -0.7887150049209595,
                3.9179599285125732,
                -7.961769104003906
            ],
            "type" : "VEC3"
        },
        {
            "bufferView" : 1,
            "componentType" : 5126,
            "count" : 18,
            "type" : "VEC3"
        },
        {
            "bufferView" : 2,
            "componentType" : 5126,
            "count" : 18,
            "type" : "VEC2"
        },
        {
            "bufferView" : 3,
            "componentType" : 5123,
            "count" : 48,
            "type" : "SCALAR"
        },
        {
            "bufferView" : 5,
            "componentType" : 5126,
            "count" : 150,
            "max" : [
                1.4698619842529297,
                3.1902270317077637,
                -2.8607499599456787
            ],
            "min" : [
                -1.4698619842529297,
                0.349947988986969,
                -6.748362064361572
            ],
            "type" : "VEC3"
        },
        {
            "bufferView" : 6,
            "componentType" : 5126,
            "count" : 150,
            "type" : "VEC3"
        },
        {
            "bufferView" : 7,
            "componentType" : 5126,
            "count" : 150,
            "type" : "VEC2"
        },
        {
            "bufferView" : 8,
            "componentType" : 5123,
            "count" : 336,
            "type" : "SCALAR"
        },
        {
            "bufferView" : 10,
            "componentType" : 5126,
            "count" : 1196,
            "max" : [
                6.7741827964782715,
                5.518102169036865,
                0
            ],
            "min" : [
                -6.7741827964782715,
                -22.281906127929688,
                -10.252634048461914
            ],
            "type" : "VEC3"
        },
        {
            "bufferView" : 11,
            "componentType" : 5126,
            "count" : 1196,
            "type" : "VEC3"
        },
        {
            "bufferView" : 12,
            "componentType" : 5126,
            "count" : 1196,
            "type" : "VEC2"
        },
        {
            "bufferView" : 13,
            "componentType" : 5123,
            "count" : 4398,
            "type" : "SCALAR"
        }
    ],
    "bufferViews" : [
        {
            "buffer" : 0,
            "byteLength" : 216,
            "byteOffset" : 0
        },
        {
            "buffer" : 0,
            "byteLength" : 216,
            "byteOffset" : 216
        },
        {
            "buffer" : 0,
            "byteLength" : 144,
            "byteOffset" : 432
        },
        {
            "buffer" : 0,
            "byteLength" : 96,
            "byteOffset" : 576
        },
        {
            "buffer" : 0,
            "byteLength" : 9241,
            "byteOffset" : 672
        },
        {
            "buffer" : 0,
            "byteLength" : 1800,
            "byteOffset" : 9916
        },
        {
            "buffer" : 0,
            "byteLength" : 1800,
            "byteOffset" : 11716
        },
        {
            "buffer" : 0,
            "byteLength" : 1200,
            "byteOffset" : 13516
        },
        {
            "buffer" : 0,
            "byteLength" : 672,
            "byteOffset" : 14716
        },
        {
            "buffer" : 0,
            "byteLength" : 4185,
            "byteOffset" : 15388
        },
        {
            "buffer" : 0,
            "byteLength" : 14352,
            "byteOffset" : 19576
        },
        {
            "buffer" : 0,
            "byteLength" : 14352,
            "byteOffset" : 33928
        },
        {
            "buffer" : 0,
            "byteLength" : 9568,
            "byteOffset" : 48280
        },
        {
            "buffer" : 0,
            "byteLength" : 8796,
            "byteOffset" : 57848
        },
        {
            "buffer" : 0,
            "byteLength" : 18582,
            "byteOffset" : 66644
        }
    ],
    "buffers" : [
        {
            "byteLength" : 85228,
            "uri" : "data:application/octet-stream;base64,"
        }
    ]
}
