{
    "asset" : {
        "generator" : "Khronos Blender glTF 2.0 I/O",
        "version" : "2.0"
    },
    "scene" : 0,
    "scenes" : [
        {
            "name" : "Scene",
            "nodes" : [
                0
            ]
        }
    ],
    "nodes" : [
        {
            "mesh" : 0,
            "name" : "Oddish",
            "rotation" : [
                0.7071068286895752,
                0,
                0,
                0.7071067094802856
            ]
        }
    ],
    "materials" : [
        {
            "name" : "mat3.003",
            "pbrMetallicRoughness" : {
                "baseColorTexture" : {
                    "index" : 0,
                    "texCoord" : 0
                },
                "metallicFactor" : 0,
                "roughnessFactor" : 0.8945907354354858
            }
        },
        {
            "name" : "mat1.004",
            "pbrMetallicRoughness" : {
                "baseColorTexture" : {
                    "index" : 1,
                    "texCoord" : 0
                },
                "metallicFactor" : 0,
                "roughnessFactor" : 0.8945907354354858
            }
        },
        {
            "name" : "mat2.004",
            "pbrMetallicRoughness" : {
                "baseColorTexture" : {
                    "index" : 2,
                    "texCoord" : 0
                },
                "metallicFactor" : 0,
                "roughnessFactor" : 0.8945907354354858
            }
        }
    ],
    "meshes" : [
        {
            "name" : "Oddish",
            "primitives" : [
                {
                    "attributes" : {
                        "POSITION" : 0,
                        "NORMAL" : 1,
                        "TEXCOORD_0" : 2
                    },
                    "indices" : 3,
                    "material" : 0
                },
                {
                    "attributes" : {
                        "POSITION" : 4,
                        "NORMAL" : 5,
                        "TEXCOORD_0" : 6
                    },
                    "indices" : 7,
                    "material" : 1
                },
                {
                    "attributes" : {
                        "POSITION" : 8,
                        "NORMAL" : 9,
                        "TEXCOORD_0" : 10
                    },
                    "indices" : 11,
                    "material" : 2
                }
            ]
        }
    ],
    "textures" : [
        {
            "source" : 0
        },
        {
            "source" : 1
        },
        {
            "source" : 2
        }
    ],
    "images" : [
        {
            "bufferView" : 4,
            "mimeType" : "image/png",
            "name" : "NazonokusaMouthDh.tga"
        },
        {
            "bufferView" : 9,
            "mimeType" : "image/png",
            "name" : "NazonokusaDh.tga"
        },
        {
            "bufferView" : 14,
            "mimeType" : "image/png",
            "name" : "NazonokusaEyeDh.tga"
        }
    ],
    "accessors" : [
        {
            "bufferView" : 0,
            "componentType" : 5126,
            "count" : 7,
            "max" : [
                0.2745940089225769,
                1.0312399864196777,
                -0.8101040124893188
            ],
            "min" : [
                -0.2745940089225769,
                0.9366980195045471,
                -1.2564899921417236
            ],
            "type" : "VEC3"
        },
        {
            "bufferView" : 1,
            "componentType" : 5126,
            "count" : 7,
            "type" : "VEC3"
        },
        {
            "bufferView" : 2,
            "componentType" : 5126,
            "count" : 7,
            "type" : "VEC2"
        },
        {
            "bufferView" : 3,
            "componentType" : 5123,
            "count" : 18,
            "type" : "SCALAR"
        },
        {
            "bufferView" : 5,
            "componentType" : 5126,
            "count" : 637,
            "max" : [
                3.0225698947906494,
                1.0107200145721436,
                0.015468000434339046
            ],
            "min" : [
                -3.0225698947906494,
                -2.063380002975464,
                -4.958427906036377
            ],
            "type" : "VEC3"
        },
        {
            "bufferView" : 6,
            "componentType" : 5126,
            "count" : 637,
            "type" : "VEC3"
        },
        {
            "bufferView" : 7,
            "componentType" : 5126,
            "count" : 637,
            "type" : "VEC2"
        },
        {
            "bufferView" : 8,
            "componentType" : 5123,
            "count" : 2154,
            "type" : "SCALAR"
        },
        {
            "bufferView" : 10,
            "componentType" : 5126,
            "count" : 8,
            "max" : [
                0.5382599830627441,
                1.0107200145721436,
                -1.2564899921417236
            ],
            "min" : [
                -0.5382599830627441,
                0.8058680295944214,
                -1.4834669828414917
            ],
            "type" : "VEC3"
        },
        {
            "bufferView" : 11,
            "componentType" : 5126,
            "count" : 8,
            "type" : "VEC3"
        },
        {
            "bufferView" : 12,
            "componentType" : 5126,
            "count" : 8,
            "type" : "VEC2"
        },
        {
            "bufferView" : 13,
            "componentType" : 5123,
            "count" : 12,
            "type" : "SCALAR"
        }
    ],
    "bufferViews" : [
        {
            "buffer" : 0,
            "byteLength" : 84,
            "byteOffset" : 0
        },
        {
            "buffer" : 0,
            "byteLength" : 84,
            "byteOffset" : 84
        },
        {
            "buffer" : 0,
            "byteLength" : 56,
            "byteOffset" : 168
        },
        {
            "buffer" : 0,
            "byteLength" : 36,
            "byteOffset" : 224
        },
        {
            "buffer" : 0,
            "byteLength" : 2731,
            "byteOffset" : 260
        },
        {
            "buffer" : 0,
            "byteLength" : 7644,
            "byteOffset" : 2992
        },
        {
            "buffer" : 0,
            "byteLength" : 7644,
            "byteOffset" : 10636
        },
        {
            "buffer" : 0,
            "byteLength" : 5096,
            "byteOffset" : 18280
        },
        {
            "buffer" : 0,
            "byteLength" : 4308,
            "byteOffset" : 23376
        },
        {
            "buffer" : 0,
            "byteLength" : 15968,
            "byteOffset" : 27684
        },
        {
            "buffer" : 0,
            "byteLength" : 96,
            "byteOffset" : 43652
        },
        {
            "buffer" : 0,
            "byteLength" : 96,
            "byteOffset" : 43748
        },
        {
            "buffer" : 0,
            "byteLength" : 64,
            "byteOffset" : 43844
        },
        {
            "buffer" : 0,
            "byteLength" : 24,
            "byteOffset" : 43908
        },
        {
            "buffer" : 0,
            "byteLength" : 3578,
            "byteOffset" : 43932
        }
    ],
    "buffers" : [
        {
            "byteLength" : 47512,
            "uri" : "data:application/octet-stream;base64,"
        }
    ]
}
