{
    "asset" : {
        "generator" : "Khronos Blender glTF 2.0 I/O",
        "version" : "2.0"
    },
    "scene" : 0,
    "scenes" : [
        {
            "name" : "Scene",
            "nodes" : [
                0
            ]
        }
    ],
    "nodes" : [
        {
            "mesh" : 0,
            "name" : "omnite",
            "rotation" : [
                1,
                0,
                0,
                -1.6292068494294654e-07
            ]
        }
    ],
    "materials" : [
        {
            "name" : "mat_0.002",
            "pbrMetallicRoughness" : {
                "baseColorTexture" : {
                    "index" : 0,
                    "texCoord" : 0
                },
                "metallicFactor" : 0,
                "roughnessFactor" : 0.6732679605484009
            }
        },
        {
            "name" : "mat_1.001",
            "pbrMetallicRoughness" : {
                "baseColorTexture" : {
                    "index" : 1,
                    "texCoord" : 0
                },
                "metallicFactor" : 0,
                "roughnessFactor" : 0.6732679605484009
            }
        },
        {
            "name" : "mat_2",
            "pbrMetallicRoughness" : {
                "baseColorTexture" : {
                    "index" : 2,
                    "texCoord" : 0
                },
                "metallicFactor" : 0,
                "roughnessFactor" : 0.6732679605484009
            }
        },
        {
            "name" : "mat_3",
            "pbrMetallicRoughness" : {
                "baseColorTexture" : {
                    "index" : 3,
                    "texCoord" : 0
                },
                "metallicFactor" : 0,
                "roughnessFactor" : 0.6732679605484009
            }
        },
        {
            "name" : "mat_4",
            "pbrMetallicRoughness" : {
                "baseColorTexture" : {
                    "index" : 4,
                    "texCoord" : 0
                },
                "metallicFactor" : 0,
                "roughnessFactor" : 0.6732679605484009
            }
        },
        {
            "name" : "mat_5",
            "pbrMetallicRoughness" : {
                "baseColorTexture" : {
                    "index" : 5,
                    "texCoord" : 0
                },
                "metallicFactor" : 0,
                "roughnessFactor" : 0.6732679605484009
            }
        }
    ],
    "meshes" : [
        {
            "name" : "omnite",
            "primitives" : [
                {
                    "attributes" : {
                        "POSITION" : 0,
                        "NORMAL" : 1,
                        "TEXCOORD_0" : 2
                    },
                    "indices" : 3,
                    "material" : 0
                },
                {
                    "attributes" : {
                        "POSITION" : 4,
                        "NORMAL" : 5,
                        "TEXCOORD_0" : 6
                    },
                    "indices" : 7,
                    "material" : 1
                },
                {
                    "attributes" : {
                        "POSITION" : 8,
                        "NORMAL" : 9,
                        "TEXCOORD_0" : 10
                    },
                    "indices" : 11,
                    "material" : 2
                },
                {
                    "attributes" : {
                        "POSITION" : 12,
                        "NORMAL" : 13,
                        "TEXCOORD_0" : 14
                    },
                    "indices" : 15,
                    "material" : 3
                },
                {
                    "attributes" : {
                        "POSITION" : 16,
                        "NORMAL" : 17,
                        "TEXCOORD_0" : 18
                    },
                    "indices" : 19,
                    "material" : 4
                },
                {
                    "attributes" : {
                        "POSITION" : 20,
                        "NORMAL" : 21,
                        "TEXCOORD_0" : 22
                    },
                    "indices" : 23,
                    "material" : 5
                }
            ]
        }
    ],
    "textures" : [
        {
            "source" : 0
        },
        {
            "source" : 1
        },
        {
            "source" : 2
        },
        {
            "source" : 3
        },
        {
            "source" : 4
        },
        {
            "source" : 5
        }
    ],
    "images" : [
        {
            "bufferView" : 4,
            "mimeType" : "image/png",
            "name" : "omnite_0_0.tga"
        },
        {
            "bufferView" : 9,
            "mimeType" : "image/png",
            "name" : "omnite_0_1.tga"
        },
        {
            "bufferView" : 14,
            "mimeType" : "image/png",
            "name" : "omnite_0_2.tga"
        },
        {
            "bufferView" : 19,
            "mimeType" : "image/png",
            "name" : "omnite_0_3.tga"
        },
        {
            "bufferView" : 24,
            "mimeType" : "image/png",
            "name" : "omnite_0_4.tga"
        },
        {
            "bufferView" : 29,
            "mimeType" : "image/png",
            "name" : "omnite_0_5.tga"
        }
    ],
    "accessors" : [
        {
            "bufferView" : 0,
            "componentType" : 5126,
            "count" : 140,
            "max" : [
                1.0555000305175781,
                -0.08313799649477005,
                0.7615230083465576
            ],
            "min" : [
                -1.0558700561523438,
                -2.2782199382781982,
                -2.64697003364563
            ],
            "type" : "VEC3"
        },
        {
            "bufferView" : 1,
            "componentType" : 5126,
            "count" : 140,
            "type" : "VEC3"
        },
        {
            "bufferView" : 2,
            "componentType" : 5126,
            "count" : 140,
            "type" : "VEC2"
        },
        {
            "bufferView" : 3,
            "componentType" : 5123,
            "count" : 378,
            "type" : "SCALAR"
        },
        {
            "bufferView" : 5,
            "componentType" : 5126,
            "count" : 315,
            "max" : [
                0.8603670001029968,
                -0.6170899868011475,
                1.7353700399398804
            ],
            "min" : [
                -0.8603670001029968,
                -3.8241000175476074,
                -2.3993101119995117
            ],
            "type" : "VEC3"
        },
        {
            "bufferView" : 6,
            "componentType" : 5126,
            "count" : 315,
            "type" : "VEC3"
        },
        {
            "bufferView" : 7,
            "componentType" : 5126,
            "count" : 315,
            "type" : "VEC2"
        },
        {
            "bufferView" : 8,
            "componentType" : 5123,
            "count" : 723,
            "type" : "SCALAR"
        },
        {
            "bufferView" : 10,
            "componentType" : 5126,
            "count" : 21,
            "max" : [
                0.9548630118370056,
                -0.08313799649477005,
                0.6246280074119568
            ],
            "min" : [
                -0.9537090063095093,
                -1.3606899976730347,
                -2.64697003364563
            ],
            "type" : "VEC3"
        },
        {
            "bufferView" : 11,
            "componentType" : 5126,
            "count" : 21,
            "type" : "VEC3"
        },
        {
            "bufferView" : 12,
            "componentType" : 5126,
            "count" : 21,
            "type" : "VEC2"
        },
        {
            "bufferView" : 13,
            "componentType" : 5123,
            "count" : 51,
            "type" : "SCALAR"
        },
        {
            "bufferView" : 15,
            "componentType" : 5126,
            "count" : 34,
            "max" : [
                0.9809529781341553,
                -0.04128300026059151,
                -0.12289399653673172
            ],
            "min" : [
                -0.9809529781341553,
                -1.280269980430603,
                -2.5785000324249268
            ],
            "type" : "VEC3"
        },
        {
            "bufferView" : 16,
            "componentType" : 5126,
            "count" : 34,
            "type" : "VEC3"
        },
        {
            "bufferView" : 17,
            "componentType" : 5126,
            "count" : 34,
            "type" : "VEC2"
        },
        {
            "bufferView" : 18,
            "componentType" : 5123,
            "count" : 114,
            "type" : "SCALAR"
        },
        {
            "bufferView" : 20,
            "componentType" : 5126,
            "count" : 183,
            "max" : [
                1.5255999565124512,
                -0.00042699999175965786,
                -1.5157599449157715
            ],
            "min" : [
                -1.4926300048828125,
                -1.461169958114624,
                -3.2090399265289307
            ],
            "type" : "VEC3"
        },
        {
            "bufferView" : 21,
            "componentType" : 5126,
            "count" : 183,
            "type" : "VEC3"
        },
        {
            "bufferView" : 22,
            "componentType" : 5126,
            "count" : 183,
            "type" : "VEC2"
        },
        {
            "bufferView" : 23,
            "componentType" : 5123,
            "count" : 528,
            "type" : "SCALAR"
        },
        {
            "bufferView" : 25,
            "componentType" : 5126,
            "count" : 82,
            "max" : [
                0.7457209825515747,
                -0.6643499732017517,
                -2.427489995956421
            ],
            "min" : [
                -0.7457209825515747,
                -1.2910499572753906,
                -2.810659885406494
            ],
            "type" : "VEC3"
        },
        {
            "bufferView" : 26,
            "componentType" : 5126,
            "count" : 82,
            "type" : "VEC3"
        },
        {
            "bufferView" : 27,
            "componentType" : 5126,
            "count" : 82,
            "type" : "VEC2"
        },
        {
            "bufferView" : 28,
            "componentType" : 5123,
            "count" : 240,
            "type" : "SCALAR"
        }
    ],
    "bufferViews" : [
        {
            "buffer" : 0,
            "byteLength" : 1680,
            "byteOffset" : 0
        },
        {
            "buffer" : 0,
            "byteLength" : 1680,
            "byteOffset" : 1680
        },
        {
            "buffer" : 0,
            "byteLength" : 1120,
            "byteOffset" : 3360
        },
        {
            "buffer" : 0,
            "byteLength" : 756,
            "byteOffset" : 4480
        },
        {
            "buffer" : 0,
            "byteLength" : 76,
            "byteOffset" : 5236
        },
        {
            "buffer" : 0,
            "byteLength" : 3780,
            "byteOffset" : 5312
        },
        {
            "buffer" : 0,
            "byteLength" : 3780,
            "byteOffset" : 9092
        },
        {
            "buffer" : 0,
            "byteLength" : 2520,
            "byteOffset" : 12872
        },
        {
            "buffer" : 0,
            "byteLength" : 1446,
            "byteOffset" : 15392
        },
        {
            "buffer" : 0,
            "byteLength" : 824,
            "byteOffset" : 16840
        },
        {
            "buffer" : 0,
            "byteLength" : 252,
            "byteOffset" : 17664
        },
        {
            "buffer" : 0,
            "byteLength" : 252,
            "byteOffset" : 17916
        },
        {
            "buffer" : 0,
            "byteLength" : 168,
            "byteOffset" : 18168
        },
        {
            "buffer" : 0,
            "byteLength" : 102,
            "byteOffset" : 18336
        },
        {
            "buffer" : 0,
            "byteLength" : 561,
            "byteOffset" : 18440
        },
        {
            "buffer" : 0,
            "byteLength" : 408,
            "byteOffset" : 19004
        },
        {
            "buffer" : 0,
            "byteLength" : 408,
            "byteOffset" : 19412
        },
        {
            "buffer" : 0,
            "byteLength" : 272,
            "byteOffset" : 19820
        },
        {
            "buffer" : 0,
            "byteLength" : 228,
            "byteOffset" : 20092
        },
        {
            "buffer" : 0,
            "byteLength" : 574,
            "byteOffset" : 20320
        },
        {
            "buffer" : 0,
            "byteLength" : 2196,
            "byteOffset" : 20896
        },
        {
            "buffer" : 0,
            "byteLength" : 2196,
            "byteOffset" : 23092
        },
        {
            "buffer" : 0,
            "byteLength" : 1464,
            "byteOffset" : 25288
        },
        {
            "buffer" : 0,
            "byteLength" : 1056,
            "byteOffset" : 26752
        },
        {
            "buffer" : 0,
            "byteLength" : 76,
            "byteOffset" : 27808
        },
        {
            "buffer" : 0,
            "byteLength" : 984,
            "byteOffset" : 27884
        },
        {
            "buffer" : 0,
            "byteLength" : 984,
            "byteOffset" : 28868
        },
        {
            "buffer" : 0,
            "byteLength" : 656,
            "byteOffset" : 29852
        },
        {
            "buffer" : 0,
            "byteLength" : 480,
            "byteOffset" : 30508
        },
        {
            "buffer" : 0,
            "byteLength" : 3868,
            "byteOffset" : 30988
        }
    ],
    "buffers" : [
        {
            "byteLength" : 34856,
            "uri" : "data:application/octet-stream;base64,"
        }
    ]
}
