{
    "asset" : {
        "generator" : "Khronos Blender glTF 2.0 I/O",
        "version" : "2.0"
    },
    "scene" : 0,
    "scenes" : [
        {
            "name" : "Scene",
            "nodes" : [
                0
            ]
        }
    ],
    "nodes" : [
        {
            "mesh" : 0,
            "name" : "iwark",
            "rotation" : [
                1,
                0,
                0,
                -1.6292068494294654e-07
            ]
        }
    ],
    "materials" : [
        {
            "name" : "mat_0",
            "pbrMetallicRoughness" : {
                "baseColorTexture" : {
                    "index" : 0,
                    "texCoord" : 0
                },
                "metallicFactor" : 0,
                "roughnessFactor" : 0.6732679605484009
            }
        },
        {
            "name" : "mat_1",
            "pbrMetallicRoughness" : {
                "baseColorTexture" : {
                    "index" : 1,
                    "texCoord" : 0
                },
                "metallicFactor" : 0,
                "roughnessFactor" : 0.6732679605484009
            }
        },
        {
            "name" : "mat_2",
            "pbrMetallicRoughness" : {
                "baseColorTexture" : {
                    "index" : 2,
                    "texCoord" : 0
                },
                "metallicFactor" : 0,
                "roughnessFactor" : 0.6732679605484009
            }
        },
        {
            "name" : "mat_3",
            "pbrMetallicRoughness" : {
                "baseColorTexture" : {
                    "index" : 3,
                    "texCoord" : 0
                },
                "metallicFactor" : 0,
                "roughnessFactor" : 0.6732679605484009
            }
        },
        {
            "name" : "mat_4",
            "pbrMetallicRoughness" : {
                "baseColorTexture" : {
                    "index" : 4,
                    "texCoord" : 0
                },
                "metallicFactor" : 0,
                "roughnessFactor" : 0.6732679605484009
            }
        }
    ],
    "meshes" : [
        {
            "name" : "iwark",
            "primitives" : [
                {
                    "attributes" : {
                        "POSITION" : 0,
                        "NORMAL" : 1,
                        "TEXCOORD_0" : 2
                    },
                    "indices" : 3,
                    "material" : 0
                },
                {
                    "attributes" : {
                        "POSITION" : 4,
                        "NORMAL" : 5,
                        "TEXCOORD_0" : 6
                    },
                    "indices" : 7,
                    "material" : 1
                },
                {
                    "attributes" : {
                        "POSITION" : 8,
                        "NORMAL" : 9,
                        "TEXCOORD_0" : 10
                    },
                    "indices" : 11,
                    "material" : 2
                },
                {
                    "attributes" : {
                        "POSITION" : 12,
                        "NORMAL" : 13,
                        "TEXCOORD_0" : 14
                    },
                    "indices" : 15,
                    "material" : 3
                },
                {
                    "attributes" : {
                        "POSITION" : 16,
                        "NORMAL" : 17,
                        "TEXCOORD_0" : 18
                    },
                    "indices" : 19,
                    "material" : 4
                }
            ]
        }
    ],
    "textures" : [
        {
            "source" : 0
        },
        {
            "source" : 1
        },
        {
            "source" : 2
        },
        {
            "source" : 3
        },
        {
            "source" : 4
        }
    ],
    "images" : [
        {
            "bufferView" : 4,
            "mimeType" : "image/png",
            "name" : "iwark_0_0.tga"
        },
        {
            "bufferView" : 9,
            "mimeType" : "image/png",
            "name" : "iwark_0_2.tga"
        },
        {
            "bufferView" : 14,
            "mimeType" : "image/png",
            "name" : "iwark_0_4.tga"
        },
        {
            "bufferView" : 19,
            "mimeType" : "image/png",
            "name" : "iwark_0_5.tga"
        },
        {
            "bufferView" : 24,
            "mimeType" : "image/png",
            "name" : "iwark_0_2.tga"
        }
    ],
    "accessors" : [
        {
            "bufferView" : 0,
            "componentType" : 5126,
            "count" : 12,
            "max" : [
                13.484289169311523,
                -13.732366561889648,
                -17.521270751953125
            ],
            "min" : [
                5.963955879211426,
                -16.899459838867188,
                -24.434982299804688
            ],
            "type" : "VEC3"
        },
        {
            "bufferView" : 1,
            "componentType" : 5126,
            "count" : 12,
            "type" : "VEC3"
        },
        {
            "bufferView" : 2,
            "componentType" : 5126,
            "count" : 12,
            "type" : "VEC2"
        },
        {
            "bufferView" : 3,
            "componentType" : 5123,
            "count" : 36,
            "type" : "SCALAR"
        },
        {
            "bufferView" : 5,
            "componentType" : 5126,
            "count" : 1046,
            "max" : [
                24.737245559692383,
                0.518930971622467,
                21.652050018310547
            ],
            "min" : [
                -12.83828353881836,
                -27.74738311767578,
                -25.812517166137695
            ],
            "type" : "VEC3"
        },
        {
            "bufferView" : 6,
            "componentType" : 5126,
            "count" : 1046,
            "type" : "VEC3"
        },
        {
            "bufferView" : 7,
            "componentType" : 5126,
            "count" : 1046,
            "type" : "VEC2"
        },
        {
            "bufferView" : 8,
            "componentType" : 5123,
            "count" : 1971,
            "type" : "SCALAR"
        },
        {
            "bufferView" : 10,
            "componentType" : 5126,
            "count" : 12,
            "max" : [
                11.155474662780762,
                -16.779436111450195,
                -21.557926177978516
            ],
            "min" : [
                5.770713806152344,
                -18.159116744995117,
                -24.23998260498047
            ],
            "type" : "VEC3"
        },
        {
            "bufferView" : 11,
            "componentType" : 5126,
            "count" : 12,
            "type" : "VEC3"
        },
        {
            "bufferView" : 12,
            "componentType" : 5126,
            "count" : 12,
            "type" : "VEC2"
        },
        {
            "bufferView" : 13,
            "componentType" : 5123,
            "count" : 24,
            "type" : "SCALAR"
        },
        {
            "bufferView" : 15,
            "componentType" : 5126,
            "count" : 12,
            "max" : [
                13.702310562133789,
                -13.532926559448242,
                -17.01129722595215
            ],
            "min" : [
                5.551733016967773,
                -15.493624687194824,
                -24.71142578125
            ],
            "type" : "VEC3"
        },
        {
            "bufferView" : 16,
            "componentType" : 5126,
            "count" : 12,
            "type" : "VEC3"
        },
        {
            "bufferView" : 17,
            "componentType" : 5126,
            "count" : 12,
            "type" : "VEC2"
        },
        {
            "bufferView" : 18,
            "componentType" : 5123,
            "count" : 24,
            "type" : "SCALAR"
        },
        {
            "bufferView" : 20,
            "componentType" : 5126,
            "count" : 7,
            "max" : [
                13.529783248901367,
                -13.398104667663574,
                -16.460203170776367
            ],
            "min" : [
                6.571046829223633,
                -16.175046920776367,
                -19.879030227661133
            ],
            "type" : "VEC3"
        },
        {
            "bufferView" : 21,
            "componentType" : 5126,
            "count" : 7,
            "type" : "VEC3"
        },
        {
            "bufferView" : 22,
            "componentType" : 5126,
            "count" : 7,
            "type" : "VEC2"
        },
        {
            "bufferView" : 23,
            "componentType" : 5123,
            "count" : 18,
            "type" : "SCALAR"
        }
    ],
    "bufferViews" : [
        {
            "buffer" : 0,
            "byteLength" : 144,
            "byteOffset" : 0
        },
        {
            "buffer" : 0,
            "byteLength" : 144,
            "byteOffset" : 144
        },
        {
            "buffer" : 0,
            "byteLength" : 96,
            "byteOffset" : 288
        },
        {
            "buffer" : 0,
            "byteLength" : 72,
            "byteOffset" : 384
        },
        {
            "buffer" : 0,
            "byteLength" : 696,
            "byteOffset" : 456
        },
        {
            "buffer" : 0,
            "byteLength" : 12552,
            "byteOffset" : 1152
        },
        {
            "buffer" : 0,
            "byteLength" : 12552,
            "byteOffset" : 13704
        },
        {
            "buffer" : 0,
            "byteLength" : 8368,
            "byteOffset" : 26256
        },
        {
            "buffer" : 0,
            "byteLength" : 3942,
            "byteOffset" : 34624
        },
        {
            "buffer" : 0,
            "byteLength" : 902,
            "byteOffset" : 38568
        },
        {
            "buffer" : 0,
            "byteLength" : 144,
            "byteOffset" : 39472
        },
        {
            "buffer" : 0,
            "byteLength" : 144,
            "byteOffset" : 39616
        },
        {
            "buffer" : 0,
            "byteLength" : 96,
            "byteOffset" : 39760
        },
        {
            "buffer" : 0,
            "byteLength" : 48,
            "byteOffset" : 39856
        },
        {
            "buffer" : 0,
            "byteLength" : 3174,
            "byteOffset" : 39904
        },
        {
            "buffer" : 0,
            "byteLength" : 144,
            "byteOffset" : 43080
        },
        {
            "buffer" : 0,
            "byteLength" : 144,
            "byteOffset" : 43224
        },
        {
            "buffer" : 0,
            "byteLength" : 96,
            "byteOffset" : 43368
        },
        {
            "buffer" : 0,
            "byteLength" : 48,
            "byteOffset" : 43464
        },
        {
            "buffer" : 0,
            "byteLength" : 779,
            "byteOffset" : 43512
        },
        {
            "buffer" : 0,
            "byteLength" : 84,
            "byteOffset" : 44292
        },
        {
            "buffer" : 0,
            "byteLength" : 84,
            "byteOffset" : 44376
        },
        {
            "buffer" : 0,
            "byteLength" : 56,
            "byteOffset" : 44460
        },
        {
            "buffer" : 0,
            "byteLength" : 36,
            "byteOffset" : 44516
        },
        {
            "buffer" : 0,
            "byteLength" : 902,
            "byteOffset" : 44552
        }
    ],
    "buffers" : [
        {
            "byteLength" : 45456,
            "uri" : "data:application/octet-stream;base64,"
        }
    ]
}
