{
    "asset" : {
        "generator" : "Khronos Blender glTF 2.0 I/O",
        "version" : "2.0"
    },
    "scene" : 0,
    "scenes" : [
        {
            "name" : "Scene",
            "nodes" : [
                0
            ]
        }
    ],
    "nodes" : [
        {
            "mesh" : 0,
            "name" : "polygon2",
            "rotation" : [
                0.7071068286895752,
                0,
                0,
                0.7071067094802856
            ]
        }
    ],
    "materials" : [
        {
            "name" : "mat3",
            "pbrMetallicRoughness" : {
                "baseColorTexture" : {
                    "index" : 0,
                    "texCoord" : 0
                },
                "metallicFactor" : 0,
                "roughnessFactor" : 0.5
            }
        },
        {
            "name" : "mat1",
            "pbrMetallicRoughness" : {
                "baseColorTexture" : {
                    "index" : 1,
                    "texCoord" : 0
                },
                "metallicFactor" : 0,
                "roughnessFactor" : 0.5
            }
        },
        {
            "name" : "mat2",
            "pbrMetallicRoughness" : {
                "baseColorTexture" : {
                    "index" : 2,
                    "texCoord" : 0
                },
                "metallicFactor" : 0,
                "roughnessFactor" : 0.5
            }
        }
    ],
    "meshes" : [
        {
            "name" : "polygon2",
            "primitives" : [
                {
                    "attributes" : {
                        "POSITION" : 0,
                        "NORMAL" : 1,
                        "TEXCOORD_0" : 2
                    },
                    "indices" : 3,
                    "material" : 0
                },
                {
                    "attributes" : {
                        "POSITION" : 4,
                        "NORMAL" : 5,
                        "TEXCOORD_0" : 6
                    },
                    "indices" : 7,
                    "material" : 1
                },
                {
                    "attributes" : {
                        "POSITION" : 8,
                        "NORMAL" : 9,
                        "TEXCOORD_0" : 10
                    },
                    "indices" : 11,
                    "material" : 2
                }
            ]
        }
    ],
    "textures" : [
        {
            "source" : 0
        },
        {
            "source" : 1
        },
        {
            "source" : 2
        }
    ],
    "images" : [
        {
            "bufferView" : 4,
            "mimeType" : "image/png",
            "name" : "LizardonFireWP.tga"
        },
        {
            "bufferView" : 9,
            "mimeType" : "image/png",
            "name" : "LizardonDh.tga"
        },
        {
            "bufferView" : 14,
            "mimeType" : "image/png",
            "name" : "LizardonEyeDh.tga"
        }
    ],
    "accessors" : [
        {
            "bufferView" : 0,
            "componentType" : 5126,
            "count" : 8,
            "max" : [
                0.5298910140991211,
                -21.045974731445312,
                -4.191761016845703
            ],
            "min" : [
                0,
                -25.91424560546875,
                -12.645306587219238
            ],
            "type" : "VEC3"
        },
        {
            "bufferView" : 1,
            "componentType" : 5126,
            "count" : 8,
            "type" : "VEC3"
        },
        {
            "bufferView" : 2,
            "componentType" : 5126,
            "count" : 8,
            "type" : "VEC2"
        },
        {
            "bufferView" : 3,
            "componentType" : 5123,
            "count" : 12,
            "type" : "SCALAR"
        },
        {
            "bufferView" : 5,
            "componentType" : 5126,
            "count" : 1254,
            "max" : [
                13.663575172424316,
                10.82068920135498,
                0.06080799922347069
            ],
            "min" : [
                -13.663575172424316,
                -24.00391960144043,
                -19.33237648010254
            ],
            "type" : "VEC3"
        },
        {
            "bufferView" : 6,
            "componentType" : 5126,
            "count" : 1254,
            "type" : "VEC3"
        },
        {
            "bufferView" : 7,
            "componentType" : 5126,
            "count" : 1254,
            "type" : "VEC2"
        },
        {
            "bufferView" : 8,
            "componentType" : 5123,
            "count" : 4650,
            "type" : "SCALAR"
        },
        {
            "bufferView" : 10,
            "componentType" : 5126,
            "count" : 22,
            "max" : [
                1.4634310007095337,
                9.450404167175293,
                -15.213794708251953
            ],
            "min" : [
                -1.46343195438385,
                7.770970821380615,
                -16.137977600097656
            ],
            "type" : "VEC3"
        },
        {
            "bufferView" : 11,
            "componentType" : 5126,
            "count" : 22,
            "type" : "VEC3"
        },
        {
            "bufferView" : 12,
            "componentType" : 5126,
            "count" : 22,
            "type" : "VEC2"
        },
        {
            "bufferView" : 13,
            "componentType" : 5123,
            "count" : 66,
            "type" : "SCALAR"
        }
    ],
    "bufferViews" : [
        {
            "buffer" : 0,
            "byteLength" : 96,
            "byteOffset" : 0
        },
        {
            "buffer" : 0,
            "byteLength" : 96,
            "byteOffset" : 96
        },
        {
            "buffer" : 0,
            "byteLength" : 64,
            "byteOffset" : 192
        },
        {
            "buffer" : 0,
            "byteLength" : 24,
            "byteOffset" : 256
        },
        {
            "buffer" : 0,
            "byteLength" : 53457,
            "byteOffset" : 280
        },
        {
            "buffer" : 0,
            "byteLength" : 15048,
            "byteOffset" : 53740
        },
        {
            "buffer" : 0,
            "byteLength" : 15048,
            "byteOffset" : 68788
        },
        {
            "buffer" : 0,
            "byteLength" : 10032,
            "byteOffset" : 83836
        },
        {
            "buffer" : 0,
            "byteLength" : 9300,
            "byteOffset" : 93868
        },
        {
            "buffer" : 0,
            "byteLength" : 34540,
            "byteOffset" : 103168
        },
        {
            "buffer" : 0,
            "byteLength" : 264,
            "byteOffset" : 137708
        },
        {
            "buffer" : 0,
            "byteLength" : 264,
            "byteOffset" : 137972
        },
        {
            "buffer" : 0,
            "byteLength" : 176,
            "byteOffset" : 138236
        },
        {
            "buffer" : 0,
            "byteLength" : 132,
            "byteOffset" : 138412
        },
        {
            "buffer" : 0,
            "byteLength" : 9891,
            "byteOffset" : 138544
        }
    ],
    "buffers" : [
        {
            "byteLength" : 148436,
            "uri" : "data:application/octet-stream;base64,"
        }
    ]
}
