{
    "asset" : {
        "generator" : "Khronos Blender glTF 2.0 I/O",
        "version" : "2.0"
    },
    "scene" : 0,
    "scenes" : [
        {
            "name" : "Scene",
            "nodes" : [
                0
            ]
        }
    ],
    "nodes" : [
        {
            "mesh" : 0,
            "name" : "paras",
            "rotation" : [
                1,
                0,
                0,
                -1.6292068494294654e-07
            ]
        }
    ],
    "materials" : [
        {
            "name" : "mat_0.009",
            "pbrMetallicRoughness" : {
                "baseColorTexture" : {
                    "index" : 0,
                    "texCoord" : 0
                },
                "metallicFactor" : 0,
                "roughnessFactor" : 0.6732679605484009
            }
        },
        {
            "name" : "mat_1.008",
            "pbrMetallicRoughness" : {
                "baseColorFactor" : [
                    0.800000011920929,
                    0.800000011920929,
                    0.800000011920929,
                    1
                ],
                "metallicFactor" : 0,
                "roughnessFactor" : 0.6732679605484009
            }
        },
        {
            "name" : "mat_2.008",
            "pbrMetallicRoughness" : {
                "baseColorFactor" : [
                    0.800000011920929,
                    0.800000011920929,
                    0.800000011920929,
                    1
                ],
                "metallicFactor" : 0,
                "roughnessFactor" : 0.6732679605484009
            }
        },
        {
            "name" : "mat_3.004",
            "pbrMetallicRoughness" : {
                "baseColorTexture" : {
                    "index" : 1,
                    "texCoord" : 0
                },
                "metallicFactor" : 0,
                "roughnessFactor" : 0.6732679605484009
            }
        },
        {
            "name" : "mat_4.004",
            "pbrMetallicRoughness" : {
                "baseColorTexture" : {
                    "index" : 2,
                    "texCoord" : 0
                },
                "metallicFactor" : 0,
                "roughnessFactor" : 0.6732679605484009
            }
        },
        {
            "name" : "mat_5.003",
            "pbrMetallicRoughness" : {
                "baseColorTexture" : {
                    "index" : 3,
                    "texCoord" : 0
                },
                "metallicFactor" : 0,
                "roughnessFactor" : 0.6732679605484009
            }
        },
        {
            "name" : "mat_6.003",
            "pbrMetallicRoughness" : {
                "baseColorTexture" : {
                    "index" : 4,
                    "texCoord" : 0
                },
                "metallicFactor" : 0,
                "roughnessFactor" : 0.6732679605484009
            }
        },
        {
            "name" : "mat_7.003",
            "pbrMetallicRoughness" : {
                "baseColorTexture" : {
                    "index" : 5,
                    "texCoord" : 0
                },
                "metallicFactor" : 0,
                "roughnessFactor" : 0.6732679605484009
            }
        },
        {
            "name" : "mat_8.003",
            "pbrMetallicRoughness" : {
                "baseColorTexture" : {
                    "index" : 6,
                    "texCoord" : 0
                },
                "metallicFactor" : 0,
                "roughnessFactor" : 0.6732679605484009
            }
        },
        {
            "name" : "mat_9.003",
            "pbrMetallicRoughness" : {
                "baseColorTexture" : {
                    "index" : 7,
                    "texCoord" : 0
                },
                "metallicFactor" : 0,
                "roughnessFactor" : 0.6732679605484009
            }
        },
        {
            "name" : "mat_10.003",
            "pbrMetallicRoughness" : {
                "baseColorTexture" : {
                    "index" : 8,
                    "texCoord" : 0
                },
                "metallicFactor" : 0,
                "roughnessFactor" : 0.6732679605484009
            }
        }
    ],
    "meshes" : [
        {
            "name" : "paras",
            "primitives" : [
                {
                    "attributes" : {
                        "POSITION" : 0,
                        "NORMAL" : 1,
                        "TEXCOORD_0" : 2
                    },
                    "indices" : 3,
                    "material" : 0
                },
                {
                    "attributes" : {
                        "POSITION" : 4,
                        "NORMAL" : 5,
                        "TEXCOORD_0" : 6
                    },
                    "indices" : 7,
                    "material" : 1
                },
                {
                    "attributes" : {
                        "POSITION" : 8,
                        "NORMAL" : 9,
                        "TEXCOORD_0" : 10
                    },
                    "indices" : 11,
                    "material" : 2
                },
                {
                    "attributes" : {
                        "POSITION" : 12,
                        "NORMAL" : 13,
                        "TEXCOORD_0" : 14
                    },
                    "indices" : 15,
                    "material" : 3
                },
                {
                    "attributes" : {
                        "POSITION" : 16,
                        "NORMAL" : 17,
                        "TEXCOORD_0" : 18
                    },
                    "indices" : 19,
                    "material" : 4
                },
                {
                    "attributes" : {
                        "POSITION" : 20,
                        "NORMAL" : 21,
                        "TEXCOORD_0" : 22
                    },
                    "indices" : 19,
                    "material" : 5
                },
                {
                    "attributes" : {
                        "POSITION" : 23,
                        "NORMAL" : 24,
                        "TEXCOORD_0" : 25
                    },
                    "indices" : 26,
                    "material" : 6
                },
                {
                    "attributes" : {
                        "POSITION" : 27,
                        "NORMAL" : 28,
                        "TEXCOORD_0" : 29
                    },
                    "indices" : 30,
                    "material" : 7
                },
                {
                    "attributes" : {
                        "POSITION" : 31,
                        "NORMAL" : 32,
                        "TEXCOORD_0" : 33
                    },
                    "indices" : 34,
                    "material" : 8
                },
                {
                    "attributes" : {
                        "POSITION" : 35,
                        "NORMAL" : 36,
                        "TEXCOORD_0" : 37
                    },
                    "indices" : 38,
                    "material" : 9
                },
                {
                    "attributes" : {
                        "POSITION" : 39,
                        "NORMAL" : 40,
                        "TEXCOORD_0" : 41
                    },
                    "indices" : 42,
                    "material" : 10
                }
            ]
        }
    ],
    "textures" : [
        {
            "source" : 0
        },
        {
            "source" : 1
        },
        {
            "source" : 2
        },
        {
            "source" : 3
        },
        {
            "source" : 4
        },
        {
            "source" : 5
        },
        {
            "source" : 6
        },
        {
            "source" : 7
        },
        {
            "source" : 8
        }
    ],
    "images" : [
        {
            "bufferView" : 4,
            "mimeType" : "image/png",
            "name" : "paras_0_0.tga"
        },
        {
            "bufferView" : 17,
            "mimeType" : "image/png",
            "name" : "paras_0_1.tga"
        },
        {
            "bufferView" : 22,
            "mimeType" : "image/png",
            "name" : "paras_0_2.tga"
        },
        {
            "bufferView" : 26,
            "mimeType" : "image/png",
            "name" : "paras_0_2.tga"
        },
        {
            "bufferView" : 31,
            "mimeType" : "image/png",
            "name" : "paras_0_4.tga"
        },
        {
            "bufferView" : 36,
            "mimeType" : "image/png",
            "name" : "paras_0_5.tga"
        },
        {
            "bufferView" : 41,
            "mimeType" : "image/png",
            "name" : "paras_0_4.tga"
        },
        {
            "bufferView" : 46,
            "mimeType" : "image/png",
            "name" : "paras_0_7.tga"
        },
        {
            "bufferView" : 51,
            "mimeType" : "image/png",
            "name" : "paras_0_8.tga"
        }
    ],
    "accessors" : [
        {
            "bufferView" : 0,
            "componentType" : 5126,
            "count" : 88,
            "max" : [
                1.5399999618530273,
                -1.036910057067871,
                2.1700000762939453
            ],
            "min" : [
                -1.5399999618530273,
                -2.994999885559082,
                -1.75
            ],
            "type" : "VEC3"
        },
        {
            "bufferView" : 1,
            "componentType" : 5126,
            "count" : 88,
            "type" : "VEC3"
        },
        {
            "bufferView" : 2,
            "componentType" : 5126,
            "count" : 88,
            "type" : "VEC2"
        },
        {
            "bufferView" : 3,
            "componentType" : 5123,
            "count" : 246,
            "type" : "SCALAR"
        },
        {
            "bufferView" : 5,
            "componentType" : 5126,
            "count" : 13,
            "max" : [
                0.5049999952316284,
                -1.5877000093460083,
                -1.4768400192260742
            ],
            "min" : [
                0.27097201347351074,
                -1.7985199689865112,
                -1.816249966621399
            ],
            "type" : "VEC3"
        },
        {
            "bufferView" : 6,
            "componentType" : 5126,
            "count" : 13,
            "type" : "VEC3"
        },
        {
            "bufferView" : 7,
            "componentType" : 5126,
            "count" : 13,
            "type" : "VEC2"
        },
        {
            "bufferView" : 8,
            "componentType" : 5123,
            "count" : 15,
            "type" : "SCALAR"
        },
        {
            "bufferView" : 9,
            "componentType" : 5126,
            "count" : 6,
            "max" : [
                -0.27097201347351074,
                -1.5877000093460083,
                -1.4768400192260742
            ],
            "min" : [
                -0.414000004529953,
                -1.7310400009155273,
                -1.7696199417114258
            ],
            "type" : "VEC3"
        },
        {
            "bufferView" : 10,
            "componentType" : 5126,
            "count" : 6,
            "type" : "VEC3"
        },
        {
            "bufferView" : 11,
            "componentType" : 5126,
            "count" : 6,
            "type" : "VEC2"
        },
        {
            "bufferView" : 12,
            "componentType" : 5123,
            "count" : 6,
            "type" : "SCALAR"
        },
        {
            "bufferView" : 13,
            "componentType" : 5126,
            "count" : 11,
            "max" : [
                0.41999998688697815,
                -1.4500000476837158,
                -1.5509999990463257
            ],
            "min" : [
                -0.41999998688697815,
                -2.114000082015991,
                -1.8589999675750732
            ],
            "type" : "VEC3"
        },
        {
            "bufferView" : 14,
            "componentType" : 5126,
            "count" : 11,
            "type" : "VEC3"
        },
        {
            "bufferView" : 15,
            "componentType" : 5126,
            "count" : 11,
            "type" : "VEC2"
        },
        {
            "bufferView" : 16,
            "componentType" : 5123,
            "count" : 36,
            "type" : "SCALAR"
        },
        {
            "bufferView" : 18,
            "componentType" : 5126,
            "count" : 23,
            "max" : [
                1.1042499542236328,
                -1.960729956626892,
                -0.9185240268707275
            ],
            "min" : [
                0.2957499921321869,
                -2.639270067214966,
                -1.641759991645813
            ],
            "type" : "VEC3"
        },
        {
            "bufferView" : 19,
            "componentType" : 5126,
            "count" : 23,
            "type" : "VEC3"
        },
        {
            "bufferView" : 20,
            "componentType" : 5126,
            "count" : 23,
            "type" : "VEC2"
        },
        {
            "bufferView" : 21,
            "componentType" : 5123,
            "count" : 90,
            "type" : "SCALAR"
        },
        {
            "bufferView" : 23,
            "componentType" : 5126,
            "count" : 23,
            "max" : [
                -0.2957499921321869,
                -1.961840033531189,
                -0.9173439741134644
            ],
            "min" : [
                -1.1042499542236328,
                -2.638159990310669,
                -1.6404800415039062
            ],
            "type" : "VEC3"
        },
        {
            "bufferView" : 24,
            "componentType" : 5126,
            "count" : 23,
            "type" : "VEC3"
        },
        {
            "bufferView" : 25,
            "componentType" : 5126,
            "count" : 23,
            "type" : "VEC2"
        },
        {
            "bufferView" : 27,
            "componentType" : 5126,
            "count" : 18,
            "max" : [
                1.6599400043487549,
                -2.0709400177001953,
                0.5910000205039978
            ],
            "min" : [
                -1.5861799716949463,
                -3.4270899295806885,
                -0.29100000858306885
            ],
            "type" : "VEC3"
        },
        {
            "bufferView" : 28,
            "componentType" : 5126,
            "count" : 18,
            "type" : "VEC3"
        },
        {
            "bufferView" : 29,
            "componentType" : 5126,
            "count" : 18,
            "type" : "VEC2"
        },
        {
            "bufferView" : 30,
            "componentType" : 5123,
            "count" : 18,
            "type" : "SCALAR"
        },
        {
            "bufferView" : 32,
            "componentType" : 5126,
            "count" : 242,
            "max" : [
                2.699739933013916,
                0,
                1.5153800249099731
            ],
            "min" : [
                -2.7090799808502197,
                -1.9328700304031372,
                -1.485260009765625
            ],
            "type" : "VEC3"
        },
        {
            "bufferView" : 33,
            "componentType" : 5126,
            "count" : 242,
            "type" : "VEC3"
        },
        {
            "bufferView" : 34,
            "componentType" : 5126,
            "count" : 242,
            "type" : "VEC2"
        },
        {
            "bufferView" : 35,
            "componentType" : 5123,
            "count" : 630,
            "type" : "SCALAR"
        },
        {
            "bufferView" : 37,
            "componentType" : 5126,
            "count" : 70,
            "max" : [
                2.006920099258423,
                -2.210520029067993,
                1.1086599826812744
            ],
            "min" : [
                -1.933150053024292,
                -3.444540023803711,
                -0.8086649775505066
            ],
            "type" : "VEC3"
        },
        {
            "bufferView" : 38,
            "componentType" : 5126,
            "count" : 70,
            "type" : "VEC3"
        },
        {
            "bufferView" : 39,
            "componentType" : 5126,
            "count" : 70,
            "type" : "VEC2"
        },
        {
            "bufferView" : 40,
            "componentType" : 5123,
            "count" : 150,
            "type" : "SCALAR"
        },
        {
            "bufferView" : 42,
            "componentType" : 5126,
            "count" : 42,
            "max" : [
                2.077199935913086,
                -2.210520029067993,
                1.1086599826812744
            ],
            "min" : [
                -2.003429889678955,
                -3.6474499702453613,
                -0.8086649775505066
            ],
            "type" : "VEC3"
        },
        {
            "bufferView" : 43,
            "componentType" : 5126,
            "count" : 42,
            "type" : "VEC3"
        },
        {
            "bufferView" : 44,
            "componentType" : 5126,
            "count" : 42,
            "type" : "VEC2"
        },
        {
            "bufferView" : 45,
            "componentType" : 5123,
            "count" : 210,
            "type" : "SCALAR"
        },
        {
            "bufferView" : 47,
            "componentType" : 5126,
            "count" : 88,
            "max" : [
                1.8481999635696411,
                -9.999999974752427e-07,
                -1.1005200147628784
            ],
            "min" : [
                -1.8481999635696411,
                -1.933650016784668,
                -2.5
            ],
            "type" : "VEC3"
        },
        {
            "bufferView" : 48,
            "componentType" : 5126,
            "count" : 88,
            "type" : "VEC3"
        },
        {
            "bufferView" : 49,
            "componentType" : 5126,
            "count" : 88,
            "type" : "VEC2"
        },
        {
            "bufferView" : 50,
            "componentType" : 5123,
            "count" : 336,
            "type" : "SCALAR"
        }
    ],
    "bufferViews" : [
        {
            "buffer" : 0,
            "byteLength" : 1056,
            "byteOffset" : 0
        },
        {
            "buffer" : 0,
            "byteLength" : 1056,
            "byteOffset" : 1056
        },
        {
            "buffer" : 0,
            "byteLength" : 704,
            "byteOffset" : 2112
        },
        {
            "buffer" : 0,
            "byteLength" : 492,
            "byteOffset" : 2816
        },
        {
            "buffer" : 0,
            "byteLength" : 757,
            "byteOffset" : 3308
        },
        {
            "buffer" : 0,
            "byteLength" : 156,
            "byteOffset" : 4068
        },
        {
            "buffer" : 0,
            "byteLength" : 156,
            "byteOffset" : 4224
        },
        {
            "buffer" : 0,
            "byteLength" : 104,
            "byteOffset" : 4380
        },
        {
            "buffer" : 0,
            "byteLength" : 30,
            "byteOffset" : 4484
        },
        {
            "buffer" : 0,
            "byteLength" : 72,
            "byteOffset" : 4516
        },
        {
            "buffer" : 0,
            "byteLength" : 72,
            "byteOffset" : 4588
        },
        {
            "buffer" : 0,
            "byteLength" : 48,
            "byteOffset" : 4660
        },
        {
            "buffer" : 0,
            "byteLength" : 12,
            "byteOffset" : 4708
        },
        {
            "buffer" : 0,
            "byteLength" : 132,
            "byteOffset" : 4720
        },
        {
            "buffer" : 0,
            "byteLength" : 132,
            "byteOffset" : 4852
        },
        {
            "buffer" : 0,
            "byteLength" : 88,
            "byteOffset" : 4984
        },
        {
            "buffer" : 0,
            "byteLength" : 72,
            "byteOffset" : 5072
        },
        {
            "buffer" : 0,
            "byteLength" : 155,
            "byteOffset" : 5144
        },
        {
            "buffer" : 0,
            "byteLength" : 276,
            "byteOffset" : 5300
        },
        {
            "buffer" : 0,
            "byteLength" : 276,
            "byteOffset" : 5576
        },
        {
            "buffer" : 0,
            "byteLength" : 184,
            "byteOffset" : 5852
        },
        {
            "buffer" : 0,
            "byteLength" : 180,
            "byteOffset" : 6036
        },
        {
            "buffer" : 0,
            "byteLength" : 1702,
            "byteOffset" : 6216
        },
        {
            "buffer" : 0,
            "byteLength" : 276,
            "byteOffset" : 7920
        },
        {
            "buffer" : 0,
            "byteLength" : 276,
            "byteOffset" : 8196
        },
        {
            "buffer" : 0,
            "byteLength" : 184,
            "byteOffset" : 8472
        },
        {
            "buffer" : 0,
            "byteLength" : 1702,
            "byteOffset" : 8656
        },
        {
            "buffer" : 0,
            "byteLength" : 216,
            "byteOffset" : 10360
        },
        {
            "buffer" : 0,
            "byteLength" : 216,
            "byteOffset" : 10576
        },
        {
            "buffer" : 0,
            "byteLength" : 144,
            "byteOffset" : 10792
        },
        {
            "buffer" : 0,
            "byteLength" : 36,
            "byteOffset" : 10936
        },
        {
            "buffer" : 0,
            "byteLength" : 298,
            "byteOffset" : 10972
        },
        {
            "buffer" : 0,
            "byteLength" : 2904,
            "byteOffset" : 11272
        },
        {
            "buffer" : 0,
            "byteLength" : 2904,
            "byteOffset" : 14176
        },
        {
            "buffer" : 0,
            "byteLength" : 1936,
            "byteOffset" : 17080
        },
        {
            "buffer" : 0,
            "byteLength" : 1260,
            "byteOffset" : 19016
        },
        {
            "buffer" : 0,
            "byteLength" : 104,
            "byteOffset" : 20276
        },
        {
            "buffer" : 0,
            "byteLength" : 840,
            "byteOffset" : 20380
        },
        {
            "buffer" : 0,
            "byteLength" : 840,
            "byteOffset" : 21220
        },
        {
            "buffer" : 0,
            "byteLength" : 560,
            "byteOffset" : 22060
        },
        {
            "buffer" : 0,
            "byteLength" : 300,
            "byteOffset" : 22620
        },
        {
            "buffer" : 0,
            "byteLength" : 298,
            "byteOffset" : 22920
        },
        {
            "buffer" : 0,
            "byteLength" : 504,
            "byteOffset" : 23220
        },
        {
            "buffer" : 0,
            "byteLength" : 504,
            "byteOffset" : 23724
        },
        {
            "buffer" : 0,
            "byteLength" : 336,
            "byteOffset" : 24228
        },
        {
            "buffer" : 0,
            "byteLength" : 420,
            "byteOffset" : 24564
        },
        {
            "buffer" : 0,
            "byteLength" : 712,
            "byteOffset" : 24984
        },
        {
            "buffer" : 0,
            "byteLength" : 1056,
            "byteOffset" : 25696
        },
        {
            "buffer" : 0,
            "byteLength" : 1056,
            "byteOffset" : 26752
        },
        {
            "buffer" : 0,
            "byteLength" : 704,
            "byteOffset" : 27808
        },
        {
            "buffer" : 0,
            "byteLength" : 672,
            "byteOffset" : 28512
        },
        {
            "buffer" : 0,
            "byteLength" : 153,
            "byteOffset" : 29184
        }
    ],
    "buffers" : [
        {
            "byteLength" : 29340,
            "uri" : "data:application/octet-stream;base64,"
        }
    ]
}
