{
    "asset" : {
        "generator" : "Khronos Blender glTF 2.0 I/O",
        "version" : "2.0"
    },
    "scene" : 0,
    "scenes" : [
        {
            "name" : "1",
            "nodes" : [
                0
            ]
        }
    ],
    "nodes" : [
        {
            "mesh" : 0,
            "name" : "pigeot_mat_0",
            "rotation" : [
                0.7071068286895752,
                0,
                0,
                0.7071068286895752
            ]
        }
    ],
    "materials" : [
        {
            "doubleSided" : true,
            "name" : "mat_0",
            "pbrMetallicRoughness" : {
                "baseColorTexture" : {
                    "index" : 0,
                    "texCoord" : 0
                },
                "metallicFactor" : 0,
                "roughnessFactor" : 0.5
            }
        },
        {
            "doubleSided" : true,
            "name" : "mat_1",
            "pbrMetallicRoughness" : {
                "baseColorTexture" : {
                    "index" : 1,
                    "texCoord" : 0
                },
                "metallicFactor" : 0,
                "roughnessFactor" : 0.5
            }
        }
    ],
    "meshes" : [
        {
            "name" : "pigeot_mat_0",
            "primitives" : [
                {
                    "attributes" : {
                        "POSITION" : 0,
                        "NORMAL" : 1,
                        "TEXCOORD_0" : 2
                    },
                    "indices" : 3,
                    "material" : 0
                },
                {
                    "attributes" : {
                        "POSITION" : 4,
                        "NORMAL" : 5,
                        "TEXCOORD_0" : 6
                    },
                    "indices" : 7,
                    "material" : 1
                }
            ]
        }
    ],
    "textures" : [
        {
            "source" : 0
        },
        {
            "source" : 1
        }
    ],
    "images" : [
        {
            "bufferView" : 4,
            "mimeType" : "image/png",
            "name" : "pigeot_0_0.tga"
        },
        {
            "bufferView" : 9,
            "mimeType" : "image/png",
            "name" : "pigeot_0_0.tga"
        }
    ],
    "accessors" : [
        {
            "bufferView" : 0,
            "componentType" : 5126,
            "count" : 2233,
            "max" : [
                7.718021869659424,
                7.215763092041016,
                1.0379170179367065
            ],
            "min" : [
                -7.718021869659424,
                -10.325931549072266,
                -16.080900192260742
            ],
            "type" : "VEC3"
        },
        {
            "bufferView" : 1,
            "componentType" : 5126,
            "count" : 2233,
            "type" : "VEC3"
        },
        {
            "bufferView" : 2,
            "componentType" : 5126,
            "count" : 2233,
            "type" : "VEC2"
        },
        {
            "bufferView" : 3,
            "componentType" : 5123,
            "count" : 8268,
            "type" : "SCALAR"
        },
        {
            "bufferView" : 5,
            "componentType" : 5126,
            "count" : 20,
            "max" : [
                1.3681379556655884,
                5.980100154876709,
                -10.971092224121094
            ],
            "min" : [
                -1.3681379556655884,
                4.815701961517334,
                -11.800472259521484
            ],
            "type" : "VEC3"
        },
        {
            "bufferView" : 6,
            "componentType" : 5126,
            "count" : 20,
            "type" : "VEC3"
        },
        {
            "bufferView" : 7,
            "componentType" : 5126,
            "count" : 20,
            "type" : "VEC2"
        },
        {
            "bufferView" : 8,
            "componentType" : 5123,
            "count" : 54,
            "type" : "SCALAR"
        }
    ],
    "bufferViews" : [
        {
            "buffer" : 0,
            "byteLength" : 26796,
            "byteOffset" : 0
        },
        {
            "buffer" : 0,
            "byteLength" : 26796,
            "byteOffset" : 26796
        },
        {
            "buffer" : 0,
            "byteLength" : 17864,
            "byteOffset" : 53592
        },
        {
            "buffer" : 0,
            "byteLength" : 16536,
            "byteOffset" : 71456
        },
        {
            "buffer" : 0,
            "byteLength" : 31970,
            "byteOffset" : 87992
        },
        {
            "buffer" : 0,
            "byteLength" : 240,
            "byteOffset" : 119964
        },
        {
            "buffer" : 0,
            "byteLength" : 240,
            "byteOffset" : 120204
        },
        {
            "buffer" : 0,
            "byteLength" : 160,
            "byteOffset" : 120444
        },
        {
            "buffer" : 0,
            "byteLength" : 108,
            "byteOffset" : 120604
        },
        {
            "buffer" : 0,
            "byteLength" : 31970,
            "byteOffset" : 120712
        }
    ],
    "buffers" : [
        {
            "byteLength" : 152684,
            "uri" : "data:application/octet-stream;base64,"
        }
    ]
}
