{
    "asset" : {
        "generator" : "Khronos Blender glTF 2.0 I/O",
        "version" : "2.0"
    },
    "scene" : 0,
    "scenes" : [
        {
            "name" : "Scene",
            "nodes" : [
                0
            ]
        }
    ],
    "nodes" : [
        {
            "mesh" : 0,
            "name" : "P2_Pikachu",
            "rotation" : [
                0.7071068286895752,
                0,
                0,
                0.7071067094802856
            ]
        }
    ],
    "materials" : [
        {
            "name" : "mat4",
            "pbrMetallicRoughness" : {
                "baseColorTexture" : {
                    "index" : 0,
                    "texCoord" : 0
                },
                "metallicFactor" : 0,
                "roughnessFactor" : 0.8945907354354858
            }
        },
        {
            "name" : "mat1",
            "pbrMetallicRoughness" : {
                "baseColorTexture" : {
                    "index" : 1,
                    "texCoord" : 0
                },
                "metallicFactor" : 0,
                "roughnessFactor" : 0.8945907354354858
            }
        },
        {
            "name" : "mat3",
            "pbrMetallicRoughness" : {
                "baseColorTexture" : {
                    "index" : 2,
                    "texCoord" : 0
                },
                "metallicFactor" : 0,
                "roughnessFactor" : 0.8945907354354858
            }
        },
        {
            "name" : "mat2",
            "pbrMetallicRoughness" : {
                "baseColorTexture" : {
                    "index" : 3,
                    "texCoord" : 0
                },
                "metallicFactor" : 0,
                "roughnessFactor" : 0.8945907354354858
            }
        },
        {
            "name" : "mat5",
            "pbrMetallicRoughness" : {
                "baseColorTexture" : {
                    "index" : 4,
                    "texCoord" : 0
                },
                "metallicFactor" : 0,
                "roughnessFactor" : 0.8945907354354858
            }
        }
    ],
    "meshes" : [
        {
            "name" : "P2_Pikachu",
            "primitives" : [
                {
                    "attributes" : {
                        "POSITION" : 0,
                        "NORMAL" : 1,
                        "TEXCOORD_0" : 2
                    },
                    "indices" : 3,
                    "material" : 0
                },
                {
                    "attributes" : {
                        "POSITION" : 4,
                        "NORMAL" : 5,
                        "TEXCOORD_0" : 6
                    },
                    "indices" : 7,
                    "material" : 1
                },
                {
                    "attributes" : {
                        "POSITION" : 8,
                        "NORMAL" : 9,
                        "TEXCOORD_0" : 10
                    },
                    "indices" : 11,
                    "material" : 2
                },
                {
                    "attributes" : {
                        "POSITION" : 12,
                        "NORMAL" : 13,
                        "TEXCOORD_0" : 14
                    },
                    "indices" : 15,
                    "material" : 3
                },
                {
                    "attributes" : {
                        "POSITION" : 16,
                        "NORMAL" : 17,
                        "TEXCOORD_0" : 18
                    },
                    "indices" : 19,
                    "material" : 4
                }
            ]
        }
    ],
    "textures" : [
        {
            "source" : 0
        },
        {
            "source" : 1
        },
        {
            "source" : 2
        },
        {
            "source" : 3
        },
        {
            "source" : 4
        }
    ],
    "images" : [
        {
            "bufferView" : 4,
            "mimeType" : "image/png",
            "name" : "PikachuMouthDh.tga"
        },
        {
            "bufferView" : 9,
            "mimeType" : "image/png",
            "name" : "PikachuDh.tga"
        },
        {
            "bufferView" : 14,
            "mimeType" : "image/png",
            "name" : "PikachuHohoDh.tga"
        },
        {
            "bufferView" : 19,
            "mimeType" : "image/png",
            "name" : "PikachuEyeDh.tga"
        },
        {
            "bufferView" : 24,
            "mimeType" : "image/png",
            "name" : "PikachuDh.tga"
        }
    ],
    "accessors" : [
        {
            "bufferView" : 0,
            "componentType" : 5126,
            "count" : 28,
            "max" : [
                0.43558499217033386,
                1.442162036895752,
                -3.1851460933685303
            ],
            "min" : [
                -0.43558600544929504,
                1.2463469505310059,
                -3.7534210681915283
            ],
            "type" : "VEC3"
        },
        {
            "bufferView" : 1,
            "componentType" : 5126,
            "count" : 28,
            "type" : "VEC3"
        },
        {
            "bufferView" : 2,
            "componentType" : 5126,
            "count" : 28,
            "type" : "VEC2"
        },
        {
            "bufferView" : 3,
            "componentType" : 5123,
            "count" : 114,
            "type" : "SCALAR"
        },
        {
            "bufferView" : 5,
            "componentType" : 5126,
            "count" : 882,
            "max" : [
                1.7303730249404907,
                1.6357840299606323,
                -0.0038449999410659075
            ],
            "min" : [
                -1.7303730249404907,
                -1.5352720022201538,
                -4.669928073883057
            ],
            "type" : "VEC3"
        },
        {
            "bufferView" : 6,
            "componentType" : 5126,
            "count" : 882,
            "type" : "VEC3"
        },
        {
            "bufferView" : 7,
            "componentType" : 5126,
            "count" : 882,
            "type" : "VEC2"
        },
        {
            "bufferView" : 8,
            "componentType" : 5123,
            "count" : 4212,
            "type" : "SCALAR"
        },
        {
            "bufferView" : 10,
            "componentType" : 5126,
            "count" : 40,
            "max" : [
                1.0107860565185547,
                1.186918020248413,
                -2.943718910217285
            ],
            "min" : [
                -1.0107860565185547,
                0.5521079897880554,
                -3.6379001140594482
            ],
            "type" : "VEC3"
        },
        {
            "bufferView" : 11,
            "componentType" : 5126,
            "count" : 40,
            "type" : "VEC3"
        },
        {
            "bufferView" : 12,
            "componentType" : 5126,
            "count" : 40,
            "type" : "VEC2"
        },
        {
            "bufferView" : 13,
            "componentType" : 5123,
            "count" : 144,
            "type" : "SCALAR"
        },
        {
            "bufferView" : 15,
            "componentType" : 5126,
            "count" : 26,
            "max" : [
                0.810155987739563,
                1.1991360187530518,
                -3.622243881225586
            ],
            "min" : [
                -0.8101570010185242,
                0.702593982219696,
                -4.017340183258057
            ],
            "type" : "VEC3"
        },
        {
            "bufferView" : 16,
            "componentType" : 5126,
            "count" : 26,
            "type" : "VEC3"
        },
        {
            "bufferView" : 17,
            "componentType" : 5126,
            "count" : 26,
            "type" : "VEC2"
        },
        {
            "bufferView" : 18,
            "componentType" : 5123,
            "count" : 84,
            "type" : "SCALAR"
        },
        {
            "bufferView" : 20,
            "componentType" : 5126,
            "count" : 76,
            "max" : [
                0.04016600176692009,
                -0.7170140147209167,
                -0.9236289858818054
            ],
            "min" : [
                -0.03999999910593033,
                -3.028580904006958,
                -4.723803997039795
            ],
            "type" : "VEC3"
        },
        {
            "bufferView" : 21,
            "componentType" : 5126,
            "count" : 76,
            "type" : "VEC3"
        },
        {
            "bufferView" : 22,
            "componentType" : 5126,
            "count" : 76,
            "type" : "VEC2"
        },
        {
            "bufferView" : 23,
            "componentType" : 5123,
            "count" : 150,
            "type" : "SCALAR"
        }
    ],
    "bufferViews" : [
        {
            "buffer" : 0,
            "byteLength" : 336,
            "byteOffset" : 0
        },
        {
            "buffer" : 0,
            "byteLength" : 336,
            "byteOffset" : 336
        },
        {
            "buffer" : 0,
            "byteLength" : 224,
            "byteOffset" : 672
        },
        {
            "buffer" : 0,
            "byteLength" : 228,
            "byteOffset" : 896
        },
        {
            "buffer" : 0,
            "byteLength" : 21025,
            "byteOffset" : 1124
        },
        {
            "buffer" : 0,
            "byteLength" : 10584,
            "byteOffset" : 22152
        },
        {
            "buffer" : 0,
            "byteLength" : 10584,
            "byteOffset" : 32736
        },
        {
            "buffer" : 0,
            "byteLength" : 7056,
            "byteOffset" : 43320
        },
        {
            "buffer" : 0,
            "byteLength" : 8424,
            "byteOffset" : 50376
        },
        {
            "buffer" : 0,
            "byteLength" : 14036,
            "byteOffset" : 58800
        },
        {
            "buffer" : 0,
            "byteLength" : 480,
            "byteOffset" : 72836
        },
        {
            "buffer" : 0,
            "byteLength" : 480,
            "byteOffset" : 73316
        },
        {
            "buffer" : 0,
            "byteLength" : 320,
            "byteOffset" : 73796
        },
        {
            "buffer" : 0,
            "byteLength" : 288,
            "byteOffset" : 74116
        },
        {
            "buffer" : 0,
            "byteLength" : 3015,
            "byteOffset" : 74404
        },
        {
            "buffer" : 0,
            "byteLength" : 312,
            "byteOffset" : 77420
        },
        {
            "buffer" : 0,
            "byteLength" : 312,
            "byteOffset" : 77732
        },
        {
            "buffer" : 0,
            "byteLength" : 208,
            "byteOffset" : 78044
        },
        {
            "buffer" : 0,
            "byteLength" : 168,
            "byteOffset" : 78252
        },
        {
            "buffer" : 0,
            "byteLength" : 37353,
            "byteOffset" : 78420
        },
        {
            "buffer" : 0,
            "byteLength" : 912,
            "byteOffset" : 115776
        },
        {
            "buffer" : 0,
            "byteLength" : 912,
            "byteOffset" : 116688
        },
        {
            "buffer" : 0,
            "byteLength" : 608,
            "byteOffset" : 117600
        },
        {
            "buffer" : 0,
            "byteLength" : 300,
            "byteOffset" : 118208
        },
        {
            "buffer" : 0,
            "byteLength" : 14036,
            "byteOffset" : 118508
        }
    ],
    "buffers" : [
        {
            "byteLength" : 132544,
            "uri" : "data:application/octet-stream;base64,"
        }
    ]
}
