{
    "asset" : {
        "generator" : "Khronos Blender glTF 2.0 I/O",
        "version" : "2.0"
    },
    "scene" : 0,
    "scenes" : [
        {
            "name" : "Scene",
            "nodes" : [
                0
            ]
        }
    ],
    "nodes" : [
        {
            "mesh" : 0,
            "name" : "kailios",
            "rotation" : [
                1,
                0,
                0,
                -1.6292068494294654e-07
            ]
        }
    ],
    "materials" : [
        {
            "name" : "mat_0.007",
            "pbrMetallicRoughness" : {
                "baseColorTexture" : {
                    "index" : 0,
                    "texCoord" : 0
                },
                "metallicFactor" : 0,
                "roughnessFactor" : 0.6732679605484009
            }
        },
        {
            "name" : "mat_1.004",
            "pbrMetallicRoughness" : {
                "baseColorTexture" : {
                    "index" : 1,
                    "texCoord" : 0
                },
                "metallicFactor" : 0,
                "roughnessFactor" : 0.6732679605484009
            }
        },
        {
            "name" : "mat_2.003",
            "pbrMetallicRoughness" : {
                "baseColorTexture" : {
                    "index" : 2,
                    "texCoord" : 0
                },
                "metallicFactor" : 0,
                "roughnessFactor" : 0.6732679605484009
            }
        },
        {
            "name" : "mat_3.003",
            "pbrMetallicRoughness" : {
                "baseColorTexture" : {
                    "index" : 3,
                    "texCoord" : 0
                },
                "metallicFactor" : 0.3757575750350952,
                "roughnessFactor" : 0.6732679605484009
            }
        },
        {
            "name" : "mat_4.003",
            "pbrMetallicRoughness" : {
                "baseColorTexture" : {
                    "index" : 4,
                    "texCoord" : 0
                },
                "metallicFactor" : 0,
                "roughnessFactor" : 0.6732679605484009
            }
        },
        {
            "name" : "mat_5.003",
            "pbrMetallicRoughness" : {
                "baseColorTexture" : {
                    "index" : 5,
                    "texCoord" : 0
                },
                "metallicFactor" : 0,
                "roughnessFactor" : 0.6732679605484009
            }
        },
        {
            "name" : "mat_6.001",
            "pbrMetallicRoughness" : {
                "baseColorTexture" : {
                    "index" : 6,
                    "texCoord" : 0
                },
                "metallicFactor" : 0,
                "roughnessFactor" : 0.6732679605484009
            }
        }
    ],
    "meshes" : [
        {
            "name" : "kailios",
            "primitives" : [
                {
                    "attributes" : {
                        "POSITION" : 0,
                        "NORMAL" : 1,
                        "TEXCOORD_0" : 2
                    },
                    "indices" : 3,
                    "material" : 0
                },
                {
                    "attributes" : {
                        "POSITION" : 4,
                        "NORMAL" : 5,
                        "TEXCOORD_0" : 6
                    },
                    "indices" : 7,
                    "material" : 1
                },
                {
                    "attributes" : {
                        "POSITION" : 8,
                        "NORMAL" : 9,
                        "TEXCOORD_0" : 10
                    },
                    "indices" : 11,
                    "material" : 2
                },
                {
                    "attributes" : {
                        "POSITION" : 12,
                        "NORMAL" : 13,
                        "TEXCOORD_0" : 14
                    },
                    "indices" : 15,
                    "material" : 3
                },
                {
                    "attributes" : {
                        "POSITION" : 16,
                        "NORMAL" : 17,
                        "TEXCOORD_0" : 18
                    },
                    "indices" : 19,
                    "material" : 4
                },
                {
                    "attributes" : {
                        "POSITION" : 20,
                        "NORMAL" : 21,
                        "TEXCOORD_0" : 22
                    },
                    "indices" : 23,
                    "material" : 5
                },
                {
                    "attributes" : {
                        "POSITION" : 24,
                        "NORMAL" : 25,
                        "TEXCOORD_0" : 26
                    },
                    "indices" : 27,
                    "material" : 6
                }
            ]
        }
    ],
    "textures" : [
        {
            "source" : 0
        },
        {
            "source" : 1
        },
        {
            "source" : 2
        },
        {
            "source" : 3
        },
        {
            "source" : 4
        },
        {
            "source" : 5
        },
        {
            "source" : 6
        }
    ],
    "images" : [
        {
            "bufferView" : 4,
            "mimeType" : "image/png",
            "name" : "kailios_0_0.tga"
        },
        {
            "bufferView" : 9,
            "mimeType" : "image/png",
            "name" : "kailios_0_1.tga"
        },
        {
            "bufferView" : 14,
            "mimeType" : "image/png",
            "name" : "kailios_0_2.tga"
        },
        {
            "bufferView" : 19,
            "mimeType" : "image/png",
            "name" : "kailios_0_3.tga"
        },
        {
            "bufferView" : 24,
            "mimeType" : "image/png",
            "name" : "kailios_0_4.tga"
        },
        {
            "bufferView" : 29,
            "mimeType" : "image/png",
            "name" : "kailios_0_5.tga"
        },
        {
            "bufferView" : 34,
            "mimeType" : "image/png",
            "name" : "kailios_0_6.tga"
        }
    ],
    "accessors" : [
        {
            "bufferView" : 0,
            "componentType" : 5126,
            "count" : 182,
            "max" : [
                8.579919815063477,
                -2.0594799518585205,
                2.253999948501587
            ],
            "min" : [
                -8.579930305480957,
                -10.46619987487793,
                -3.9351398944854736
            ],
            "type" : "VEC3"
        },
        {
            "bufferView" : 1,
            "componentType" : 5126,
            "count" : 182,
            "type" : "VEC3"
        },
        {
            "bufferView" : 2,
            "componentType" : 5126,
            "count" : 182,
            "type" : "VEC2"
        },
        {
            "bufferView" : 3,
            "componentType" : 5123,
            "count" : 474,
            "type" : "SCALAR"
        },
        {
            "bufferView" : 5,
            "componentType" : 5126,
            "count" : 291,
            "max" : [
                8.077759742736816,
                -0.34213700890541077,
                2.3152999877929688
            ],
            "min" : [
                -8.077750205993652,
                -7.426390171051025,
                -3.3499999046325684
            ],
            "type" : "VEC3"
        },
        {
            "bufferView" : 6,
            "componentType" : 5126,
            "count" : 291,
            "type" : "VEC3"
        },
        {
            "bufferView" : 7,
            "componentType" : 5126,
            "count" : 291,
            "type" : "VEC2"
        },
        {
            "bufferView" : 8,
            "componentType" : 5123,
            "count" : 693,
            "type" : "SCALAR"
        },
        {
            "bufferView" : 10,
            "componentType" : 5126,
            "count" : 110,
            "max" : [
                3.181770086288452,
                -2.0594799518585205,
                2.3152999877929688
            ],
            "min" : [
                -3.181770086288452,
                -7.542769908905029,
                -3.44704008102417
            ],
            "type" : "VEC3"
        },
        {
            "bufferView" : 11,
            "componentType" : 5126,
            "count" : 110,
            "type" : "VEC3"
        },
        {
            "bufferView" : 12,
            "componentType" : 5126,
            "count" : 110,
            "type" : "VEC2"
        },
        {
            "bufferView" : 13,
            "componentType" : 5123,
            "count" : 210,
            "type" : "SCALAR"
        },
        {
            "bufferView" : 15,
            "componentType" : 5126,
            "count" : 274,
            "max" : [
                8.410110473632812,
                0.02548700012266636,
                1.169350028038025
            ],
            "min" : [
                -8.410099983215332,
                -16.176599502563477,
                -4.836450099945068
            ],
            "type" : "VEC3"
        },
        {
            "bufferView" : 16,
            "componentType" : 5126,
            "count" : 274,
            "type" : "VEC3"
        },
        {
            "bufferView" : 17,
            "componentType" : 5126,
            "count" : 274,
            "type" : "VEC2"
        },
        {
            "bufferView" : 18,
            "componentType" : 5123,
            "count" : 636,
            "type" : "SCALAR"
        },
        {
            "bufferView" : 20,
            "componentType" : 5126,
            "count" : 23,
            "max" : [
                1.1901899576187134,
                -4.449999809265137,
                -1.5159900188446045
            ],
            "min" : [
                -1.1901899576187134,
                -7.443299770355225,
                -3.6999900341033936
            ],
            "type" : "VEC3"
        },
        {
            "bufferView" : 21,
            "componentType" : 5126,
            "count" : 23,
            "type" : "VEC3"
        },
        {
            "bufferView" : 22,
            "componentType" : 5126,
            "count" : 23,
            "type" : "VEC2"
        },
        {
            "bufferView" : 23,
            "componentType" : 5123,
            "count" : 45,
            "type" : "SCALAR"
        },
        {
            "bufferView" : 25,
            "componentType" : 5126,
            "count" : 8,
            "max" : [
                1.9795399904251099,
                -7.349989891052246,
                -3.053299903869629
            ],
            "min" : [
                -1.9795399904251099,
                -9.326029777526855,
                -3.6999900341033936
            ],
            "type" : "VEC3"
        },
        {
            "bufferView" : 26,
            "componentType" : 5126,
            "count" : 8,
            "type" : "VEC3"
        },
        {
            "bufferView" : 27,
            "componentType" : 5126,
            "count" : 8,
            "type" : "VEC2"
        },
        {
            "bufferView" : 28,
            "componentType" : 5123,
            "count" : 12,
            "type" : "SCALAR"
        },
        {
            "bufferView" : 30,
            "componentType" : 5126,
            "count" : 40,
            "max" : [
                1.2299100160598755,
                -4.830790042877197,
                -3.1541900634765625
            ],
            "min" : [
                -1.2318999767303467,
                -7.1292901039123535,
                -3.730410099029541
            ],
            "type" : "VEC3"
        },
        {
            "bufferView" : 31,
            "componentType" : 5126,
            "count" : 40,
            "type" : "VEC3"
        },
        {
            "bufferView" : 32,
            "componentType" : 5126,
            "count" : 40,
            "type" : "VEC2"
        },
        {
            "bufferView" : 33,
            "componentType" : 5123,
            "count" : 60,
            "type" : "SCALAR"
        }
    ],
    "bufferViews" : [
        {
            "buffer" : 0,
            "byteLength" : 2184,
            "byteOffset" : 0
        },
        {
            "buffer" : 0,
            "byteLength" : 2184,
            "byteOffset" : 2184
        },
        {
            "buffer" : 0,
            "byteLength" : 1456,
            "byteOffset" : 4368
        },
        {
            "buffer" : 0,
            "byteLength" : 948,
            "byteOffset" : 5824
        },
        {
            "buffer" : 0,
            "byteLength" : 242,
            "byteOffset" : 6772
        },
        {
            "buffer" : 0,
            "byteLength" : 3492,
            "byteOffset" : 7016
        },
        {
            "buffer" : 0,
            "byteLength" : 3492,
            "byteOffset" : 10508
        },
        {
            "buffer" : 0,
            "byteLength" : 2328,
            "byteOffset" : 14000
        },
        {
            "buffer" : 0,
            "byteLength" : 1386,
            "byteOffset" : 16328
        },
        {
            "buffer" : 0,
            "byteLength" : 218,
            "byteOffset" : 17716
        },
        {
            "buffer" : 0,
            "byteLength" : 1320,
            "byteOffset" : 17936
        },
        {
            "buffer" : 0,
            "byteLength" : 1320,
            "byteOffset" : 19256
        },
        {
            "buffer" : 0,
            "byteLength" : 880,
            "byteOffset" : 20576
        },
        {
            "buffer" : 0,
            "byteLength" : 420,
            "byteOffset" : 21456
        },
        {
            "buffer" : 0,
            "byteLength" : 192,
            "byteOffset" : 21876
        },
        {
            "buffer" : 0,
            "byteLength" : 3288,
            "byteOffset" : 22068
        },
        {
            "buffer" : 0,
            "byteLength" : 3288,
            "byteOffset" : 25356
        },
        {
            "buffer" : 0,
            "byteLength" : 2192,
            "byteOffset" : 28644
        },
        {
            "buffer" : 0,
            "byteLength" : 1272,
            "byteOffset" : 30836
        },
        {
            "buffer" : 0,
            "byteLength" : 75,
            "byteOffset" : 32108
        },
        {
            "buffer" : 0,
            "byteLength" : 276,
            "byteOffset" : 32184
        },
        {
            "buffer" : 0,
            "byteLength" : 276,
            "byteOffset" : 32460
        },
        {
            "buffer" : 0,
            "byteLength" : 184,
            "byteOffset" : 32736
        },
        {
            "buffer" : 0,
            "byteLength" : 90,
            "byteOffset" : 32920
        },
        {
            "buffer" : 0,
            "byteLength" : 139,
            "byteOffset" : 33012
        },
        {
            "buffer" : 0,
            "byteLength" : 96,
            "byteOffset" : 33152
        },
        {
            "buffer" : 0,
            "byteLength" : 96,
            "byteOffset" : 33248
        },
        {
            "buffer" : 0,
            "byteLength" : 64,
            "byteOffset" : 33344
        },
        {
            "buffer" : 0,
            "byteLength" : 24,
            "byteOffset" : 33408
        },
        {
            "buffer" : 0,
            "byteLength" : 2987,
            "byteOffset" : 33432
        },
        {
            "buffer" : 0,
            "byteLength" : 480,
            "byteOffset" : 36420
        },
        {
            "buffer" : 0,
            "byteLength" : 480,
            "byteOffset" : 36900
        },
        {
            "buffer" : 0,
            "byteLength" : 320,
            "byteOffset" : 37380
        },
        {
            "buffer" : 0,
            "byteLength" : 120,
            "byteOffset" : 37700
        },
        {
            "buffer" : 0,
            "byteLength" : 535,
            "byteOffset" : 37820
        }
    ],
    "buffers" : [
        {
            "byteLength" : 38356,
            "uri" : "data:application/octet-stream;base64,"
        }
    ]
}
