{
    "asset" : {
        "generator" : "Khronos Blender glTF 2.0 I/O",
        "version" : "2.0"
    },
    "scene" : 0,
    "scenes" : [
        {
            "name" : "Scene",
            "nodes" : [
                0
            ]
        }
    ],
    "nodes" : [
        {
            "mesh" : 0,
            "name" : "nyorozo",
            "rotation" : [
                1,
                0,
                0,
                -1.6292068494294654e-07
            ]
        }
    ],
    "materials" : [
        {
            "name" : "mat_0.001",
            "pbrMetallicRoughness" : {
                "baseColorTexture" : {
                    "index" : 0,
                    "texCoord" : 0
                },
                "metallicFactor" : 0,
                "roughnessFactor" : 0.6732679605484009
            }
        },
        {
            "name" : "mat_1.001",
            "pbrMetallicRoughness" : {
                "baseColorTexture" : {
                    "index" : 1,
                    "texCoord" : 0
                },
                "metallicFactor" : 0,
                "roughnessFactor" : 0.6732679605484009
            }
        },
        {
            "name" : "mat_2.001",
            "pbrMetallicRoughness" : {
                "baseColorTexture" : {
                    "index" : 2,
                    "texCoord" : 0
                },
                "metallicFactor" : 0,
                "roughnessFactor" : 0.6732679605484009
            }
        },
        {
            "name" : "mat_3.001",
            "pbrMetallicRoughness" : {
                "baseColorTexture" : {
                    "index" : 3,
                    "texCoord" : 0
                },
                "metallicFactor" : 0,
                "roughnessFactor" : 0.6732679605484009
            }
        },
        {
            "name" : "mat_4.001",
            "pbrMetallicRoughness" : {
                "baseColorTexture" : {
                    "index" : 4,
                    "texCoord" : 0
                },
                "metallicFactor" : 0,
                "roughnessFactor" : 0.6732679605484009
            }
        },
        {
            "name" : "mat_5.001",
            "pbrMetallicRoughness" : {
                "baseColorTexture" : {
                    "index" : 5,
                    "texCoord" : 0
                },
                "metallicFactor" : 0,
                "roughnessFactor" : 0.6732679605484009
            }
        },
        {
            "name" : "mat_6.001",
            "pbrMetallicRoughness" : {
                "baseColorTexture" : {
                    "index" : 6,
                    "texCoord" : 0
                },
                "metallicFactor" : 0,
                "roughnessFactor" : 0.6732679605484009
            }
        },
        {
            "name" : "mat_7.001",
            "pbrMetallicRoughness" : {
                "baseColorTexture" : {
                    "index" : 7,
                    "texCoord" : 0
                },
                "metallicFactor" : 0,
                "roughnessFactor" : 0.6732679605484009
            }
        },
        {
            "name" : "mat_8.001",
            "pbrMetallicRoughness" : {
                "baseColorTexture" : {
                    "index" : 8,
                    "texCoord" : 0
                },
                "metallicFactor" : 0,
                "roughnessFactor" : 0.6732679605484009
            }
        },
        {
            "name" : "mat_9",
            "pbrMetallicRoughness" : {
                "baseColorTexture" : {
                    "index" : 9,
                    "texCoord" : 0
                },
                "metallicFactor" : 0,
                "roughnessFactor" : 0.6732679605484009
            }
        }
    ],
    "meshes" : [
        {
            "name" : "nyorozo",
            "primitives" : [
                {
                    "attributes" : {
                        "POSITION" : 0,
                        "NORMAL" : 1,
                        "TEXCOORD_0" : 2
                    },
                    "indices" : 3,
                    "material" : 0
                },
                {
                    "attributes" : {
                        "POSITION" : 4,
                        "NORMAL" : 5,
                        "TEXCOORD_0" : 6
                    },
                    "indices" : 7,
                    "material" : 1
                },
                {
                    "attributes" : {
                        "POSITION" : 8,
                        "NORMAL" : 9,
                        "TEXCOORD_0" : 10
                    },
                    "indices" : 11,
                    "material" : 2
                },
                {
                    "attributes" : {
                        "POSITION" : 12,
                        "NORMAL" : 13,
                        "TEXCOORD_0" : 14
                    },
                    "indices" : 15,
                    "material" : 3
                },
                {
                    "attributes" : {
                        "POSITION" : 16,
                        "NORMAL" : 17,
                        "TEXCOORD_0" : 18
                    },
                    "indices" : 19,
                    "material" : 4
                },
                {
                    "attributes" : {
                        "POSITION" : 20,
                        "NORMAL" : 21,
                        "TEXCOORD_0" : 22
                    },
                    "indices" : 23,
                    "material" : 5
                },
                {
                    "attributes" : {
                        "POSITION" : 24,
                        "NORMAL" : 25,
                        "TEXCOORD_0" : 26
                    },
                    "indices" : 27,
                    "material" : 6
                },
                {
                    "attributes" : {
                        "POSITION" : 28,
                        "NORMAL" : 29,
                        "TEXCOORD_0" : 30
                    },
                    "indices" : 31,
                    "material" : 7
                },
                {
                    "attributes" : {
                        "POSITION" : 32,
                        "NORMAL" : 33,
                        "TEXCOORD_0" : 34
                    },
                    "indices" : 35,
                    "material" : 8
                },
                {
                    "attributes" : {
                        "POSITION" : 36,
                        "NORMAL" : 37,
                        "TEXCOORD_0" : 38
                    },
                    "indices" : 39,
                    "material" : 9
                }
            ]
        }
    ],
    "textures" : [
        {
            "source" : 0
        },
        {
            "source" : 1
        },
        {
            "source" : 2
        },
        {
            "source" : 3
        },
        {
            "source" : 4
        },
        {
            "source" : 5
        },
        {
            "source" : 6
        },
        {
            "source" : 7
        },
        {
            "source" : 8
        },
        {
            "source" : 9
        }
    ],
    "images" : [
        {
            "bufferView" : 4,
            "mimeType" : "image/png",
            "name" : "nyorozo_0_0.tga"
        },
        {
            "bufferView" : 9,
            "mimeType" : "image/png",
            "name" : "nyorozo_0_1.tga"
        },
        {
            "bufferView" : 14,
            "mimeType" : "image/png",
            "name" : "nyorozo_0_2.tga"
        },
        {
            "bufferView" : 19,
            "mimeType" : "image/png",
            "name" : "nyorozo_0_3.tga"
        },
        {
            "bufferView" : 24,
            "mimeType" : "image/png",
            "name" : "nyorozo_0_4.tga"
        },
        {
            "bufferView" : 29,
            "mimeType" : "image/png",
            "name" : "nyorozo_0_5.tga"
        },
        {
            "bufferView" : 34,
            "mimeType" : "image/png",
            "name" : "nyorozo_0_6.tga"
        },
        {
            "bufferView" : 39,
            "mimeType" : "image/png",
            "name" : "nyorozo_0_7.tga"
        },
        {
            "bufferView" : 44,
            "mimeType" : "image/png",
            "name" : "nyorozo_0_8.tga"
        },
        {
            "bufferView" : 49,
            "mimeType" : "image/png",
            "name" : "nyorozo_0_9.tga"
        }
    ],
    "accessors" : [
        {
            "bufferView" : 0,
            "componentType" : 5126,
            "count" : 214,
            "max" : [
                5.422619819641113,
                0.09036800265312195,
                3.0820701122283936
            ],
            "min" : [
                -5.7268900871276855,
                -10.354499816894531,
                -3.021630048751831
            ],
            "type" : "VEC3"
        },
        {
            "bufferView" : 1,
            "componentType" : 5126,
            "count" : 214,
            "type" : "VEC3"
        },
        {
            "bufferView" : 2,
            "componentType" : 5126,
            "count" : 214,
            "type" : "VEC2"
        },
        {
            "bufferView" : 3,
            "componentType" : 5123,
            "count" : 1146,
            "type" : "SCALAR"
        },
        {
            "bufferView" : 5,
            "componentType" : 5126,
            "count" : 15,
            "max" : [
                3.71655011177063,
                -2.775290012359619,
                -1.670699954032898
            ],
            "min" : [
                -0.022624999284744263,
                -8.762109756469727,
                -4.163809776306152
            ],
            "type" : "VEC3"
        },
        {
            "bufferView" : 6,
            "componentType" : 5126,
            "count" : 15,
            "type" : "VEC3"
        },
        {
            "bufferView" : 7,
            "componentType" : 5126,
            "count" : 15,
            "type" : "VEC2"
        },
        {
            "bufferView" : 8,
            "componentType" : 5123,
            "count" : 48,
            "type" : "SCALAR"
        },
        {
            "bufferView" : 10,
            "componentType" : 5126,
            "count" : 15,
            "max" : [
                0.4218969941139221,
                -2.670799970626831,
                -2.0875298976898193
            ],
            "min" : [
                -3.3198399543762207,
                -8.762109756469727,
                -4.163809776306152
            ],
            "type" : "VEC3"
        },
        {
            "bufferView" : 11,
            "componentType" : 5126,
            "count" : 15,
            "type" : "VEC3"
        },
        {
            "bufferView" : 12,
            "componentType" : 5126,
            "count" : 15,
            "type" : "VEC2"
        },
        {
            "bufferView" : 13,
            "componentType" : 5123,
            "count" : 48,
            "type" : "SCALAR"
        },
        {
            "bufferView" : 15,
            "componentType" : 5126,
            "count" : 22,
            "max" : [
                4.177110195159912,
                0.09036800265312195,
                1.1451900005340576
            ],
            "min" : [
                -4.232190132141113,
                -0.4943459928035736,
                -2.4798200130462646
            ],
            "type" : "VEC3"
        },
        {
            "bufferView" : 16,
            "componentType" : 5126,
            "count" : 22,
            "type" : "VEC3"
        },
        {
            "bufferView" : 17,
            "componentType" : 5126,
            "count" : 22,
            "type" : "VEC2"
        },
        {
            "bufferView" : 18,
            "componentType" : 5123,
            "count" : 54,
            "type" : "SCALAR"
        },
        {
            "bufferView" : 20,
            "componentType" : 5126,
            "count" : 28,
            "max" : [
                4.177110195159912,
                0.09036800265312195,
                0.4172529876232147
            ],
            "min" : [
                -4.232190132141113,
                -1.062980055809021,
                -2.4798200130462646
            ],
            "type" : "VEC3"
        },
        {
            "bufferView" : 21,
            "componentType" : 5126,
            "count" : 28,
            "type" : "VEC3"
        },
        {
            "bufferView" : 22,
            "componentType" : 5126,
            "count" : 28,
            "type" : "VEC2"
        },
        {
            "bufferView" : 23,
            "componentType" : 5123,
            "count" : 96,
            "type" : "SCALAR"
        },
        {
            "bufferView" : 25,
            "componentType" : 5126,
            "count" : 8,
            "max" : [
                1.6531399488449097,
                -8.196060180664062,
                -2.006350040435791
            ],
            "min" : [
                -1.6692399978637695,
                -9.329580307006836,
                -3.021630048751831
            ],
            "type" : "VEC3"
        },
        {
            "bufferView" : 26,
            "componentType" : 5126,
            "count" : 8,
            "type" : "VEC3"
        },
        {
            "bufferView" : 27,
            "componentType" : 5126,
            "count" : 8,
            "type" : "VEC2"
        },
        {
            "bufferView" : 28,
            "componentType" : 5123,
            "count" : 12,
            "type" : "SCALAR"
        },
        {
            "bufferView" : 30,
            "componentType" : 5126,
            "count" : 22,
            "max" : [
                2.8675100803375244,
                -7.99862003326416,
                -1.3229700326919556
            ],
            "min" : [
                -3.273940086364746,
                -10.220600128173828,
                -2.470410108566284
            ],
            "type" : "VEC3"
        },
        {
            "bufferView" : 31,
            "componentType" : 5126,
            "count" : 22,
            "type" : "VEC3"
        },
        {
            "bufferView" : 32,
            "componentType" : 5126,
            "count" : 22,
            "type" : "VEC2"
        },
        {
            "bufferView" : 33,
            "componentType" : 5123,
            "count" : 78,
            "type" : "SCALAR"
        },
        {
            "bufferView" : 35,
            "componentType" : 5126,
            "count" : 118,
            "max" : [
                7.763510227203369,
                -2.6533899307250977,
                3.408560037612915
            ],
            "min" : [
                -7.346889972686768,
                -7.1699299812316895,
                -4.287879943847656
            ],
            "type" : "VEC3"
        },
        {
            "bufferView" : 36,
            "componentType" : 5126,
            "count" : 118,
            "type" : "VEC3"
        },
        {
            "bufferView" : 37,
            "componentType" : 5126,
            "count" : 118,
            "type" : "VEC2"
        },
        {
            "bufferView" : 38,
            "componentType" : 5123,
            "count" : 228,
            "type" : "SCALAR"
        },
        {
            "bufferView" : 40,
            "componentType" : 5126,
            "count" : 76,
            "max" : [
                8.166259765625,
                -2.5724000930786133,
                3.408560037612915
            ],
            "min" : [
                -7.346889972686768,
                -7.36460018157959,
                -4.463379859924316
            ],
            "type" : "VEC3"
        },
        {
            "bufferView" : 41,
            "componentType" : 5126,
            "count" : 76,
            "type" : "VEC3"
        },
        {
            "bufferView" : 42,
            "componentType" : 5126,
            "count" : 76,
            "type" : "VEC2"
        },
        {
            "bufferView" : 43,
            "componentType" : 5123,
            "count" : 300,
            "type" : "SCALAR"
        },
        {
            "bufferView" : 45,
            "componentType" : 5126,
            "count" : 16,
            "max" : [
                5.428890228271484,
                -4.801199913024902,
                2.1294898986816406
            ],
            "min" : [
                -5.9794697761535645,
                -7.36460018157959,
                -2.4601099491119385
            ],
            "type" : "VEC3"
        },
        {
            "bufferView" : 46,
            "componentType" : 5126,
            "count" : 16,
            "type" : "VEC3"
        },
        {
            "bufferView" : 47,
            "componentType" : 5126,
            "count" : 16,
            "type" : "VEC2"
        },
        {
            "bufferView" : 48,
            "componentType" : 5123,
            "count" : 36,
            "type" : "SCALAR"
        }
    ],
    "bufferViews" : [
        {
            "buffer" : 0,
            "byteLength" : 2568,
            "byteOffset" : 0
        },
        {
            "buffer" : 0,
            "byteLength" : 2568,
            "byteOffset" : 2568
        },
        {
            "buffer" : 0,
            "byteLength" : 1712,
            "byteOffset" : 5136
        },
        {
            "buffer" : 0,
            "byteLength" : 2292,
            "byteOffset" : 6848
        },
        {
            "buffer" : 0,
            "byteLength" : 75,
            "byteOffset" : 9140
        },
        {
            "buffer" : 0,
            "byteLength" : 180,
            "byteOffset" : 9216
        },
        {
            "buffer" : 0,
            "byteLength" : 180,
            "byteOffset" : 9396
        },
        {
            "buffer" : 0,
            "byteLength" : 120,
            "byteOffset" : 9576
        },
        {
            "buffer" : 0,
            "byteLength" : 96,
            "byteOffset" : 9696
        },
        {
            "buffer" : 0,
            "byteLength" : 2188,
            "byteOffset" : 9792
        },
        {
            "buffer" : 0,
            "byteLength" : 180,
            "byteOffset" : 11980
        },
        {
            "buffer" : 0,
            "byteLength" : 180,
            "byteOffset" : 12160
        },
        {
            "buffer" : 0,
            "byteLength" : 120,
            "byteOffset" : 12340
        },
        {
            "buffer" : 0,
            "byteLength" : 96,
            "byteOffset" : 12460
        },
        {
            "buffer" : 0,
            "byteLength" : 2071,
            "byteOffset" : 12556
        },
        {
            "buffer" : 0,
            "byteLength" : 264,
            "byteOffset" : 14628
        },
        {
            "buffer" : 0,
            "byteLength" : 264,
            "byteOffset" : 14892
        },
        {
            "buffer" : 0,
            "byteLength" : 176,
            "byteOffset" : 15156
        },
        {
            "buffer" : 0,
            "byteLength" : 108,
            "byteOffset" : 15332
        },
        {
            "buffer" : 0,
            "byteLength" : 75,
            "byteOffset" : 15440
        },
        {
            "buffer" : 0,
            "byteLength" : 336,
            "byteOffset" : 15516
        },
        {
            "buffer" : 0,
            "byteLength" : 336,
            "byteOffset" : 15852
        },
        {
            "buffer" : 0,
            "byteLength" : 224,
            "byteOffset" : 16188
        },
        {
            "buffer" : 0,
            "byteLength" : 192,
            "byteOffset" : 16412
        },
        {
            "buffer" : 0,
            "byteLength" : 436,
            "byteOffset" : 16604
        },
        {
            "buffer" : 0,
            "byteLength" : 96,
            "byteOffset" : 17040
        },
        {
            "buffer" : 0,
            "byteLength" : 96,
            "byteOffset" : 17136
        },
        {
            "buffer" : 0,
            "byteLength" : 64,
            "byteOffset" : 17232
        },
        {
            "buffer" : 0,
            "byteLength" : 24,
            "byteOffset" : 17296
        },
        {
            "buffer" : 0,
            "byteLength" : 285,
            "byteOffset" : 17320
        },
        {
            "buffer" : 0,
            "byteLength" : 264,
            "byteOffset" : 17608
        },
        {
            "buffer" : 0,
            "byteLength" : 264,
            "byteOffset" : 17872
        },
        {
            "buffer" : 0,
            "byteLength" : 176,
            "byteOffset" : 18136
        },
        {
            "buffer" : 0,
            "byteLength" : 156,
            "byteOffset" : 18312
        },
        {
            "buffer" : 0,
            "byteLength" : 3885,
            "byteOffset" : 18468
        },
        {
            "buffer" : 0,
            "byteLength" : 1416,
            "byteOffset" : 22356
        },
        {
            "buffer" : 0,
            "byteLength" : 1416,
            "byteOffset" : 23772
        },
        {
            "buffer" : 0,
            "byteLength" : 944,
            "byteOffset" : 25188
        },
        {
            "buffer" : 0,
            "byteLength" : 456,
            "byteOffset" : 26132
        },
        {
            "buffer" : 0,
            "byteLength" : 330,
            "byteOffset" : 26588
        },
        {
            "buffer" : 0,
            "byteLength" : 912,
            "byteOffset" : 26920
        },
        {
            "buffer" : 0,
            "byteLength" : 912,
            "byteOffset" : 27832
        },
        {
            "buffer" : 0,
            "byteLength" : 608,
            "byteOffset" : 28744
        },
        {
            "buffer" : 0,
            "byteLength" : 600,
            "byteOffset" : 29352
        },
        {
            "buffer" : 0,
            "byteLength" : 75,
            "byteOffset" : 29952
        },
        {
            "buffer" : 0,
            "byteLength" : 192,
            "byteOffset" : 30028
        },
        {
            "buffer" : 0,
            "byteLength" : 192,
            "byteOffset" : 30220
        },
        {
            "buffer" : 0,
            "byteLength" : 128,
            "byteOffset" : 30412
        },
        {
            "buffer" : 0,
            "byteLength" : 72,
            "byteOffset" : 30540
        },
        {
            "buffer" : 0,
            "byteLength" : 141,
            "byteOffset" : 30612
        }
    ],
    "buffers" : [
        {
            "byteLength" : 30756,
            "uri" : "data:application/octet-stream;base64,"
        }
    ]
}
