{
    "asset" : {
        "generator" : "Khronos Blender glTF 2.0 I/O",
        "version" : "2.0"
    },
    "scene" : 0,
    "scenes" : [
        {
            "name" : "Scene",
            "nodes" : [
                0
            ]
        }
    ],
    "nodes" : [
        {
            "mesh" : 0,
            "name" : "nyoromo",
            "rotation" : [
                1,
                0,
                0,
                -1.6292068494294654e-07
            ]
        }
    ],
    "materials" : [
        {
            "name" : "mat_0",
            "pbrMetallicRoughness" : {
                "baseColorTexture" : {
                    "index" : 0,
                    "texCoord" : 0
                },
                "metallicFactor" : 0,
                "roughnessFactor" : 0.6732679605484009
            }
        },
        {
            "name" : "mat_1",
            "pbrMetallicRoughness" : {
                "baseColorTexture" : {
                    "index" : 1,
                    "texCoord" : 0
                },
                "metallicFactor" : 0,
                "roughnessFactor" : 0.6732679605484009
            }
        },
        {
            "name" : "mat_2",
            "pbrMetallicRoughness" : {
                "baseColorTexture" : {
                    "index" : 2,
                    "texCoord" : 0
                },
                "metallicFactor" : 0,
                "roughnessFactor" : 0.6732679605484009
            }
        },
        {
            "name" : "mat_3",
            "pbrMetallicRoughness" : {
                "baseColorTexture" : {
                    "index" : 3,
                    "texCoord" : 0
                },
                "metallicFactor" : 0,
                "roughnessFactor" : 0.6732679605484009
            }
        },
        {
            "name" : "mat_4",
            "pbrMetallicRoughness" : {
                "baseColorTexture" : {
                    "index" : 4,
                    "texCoord" : 0
                },
                "metallicFactor" : 0,
                "roughnessFactor" : 0.6732679605484009
            }
        },
        {
            "name" : "mat_5",
            "pbrMetallicRoughness" : {
                "baseColorTexture" : {
                    "index" : 5,
                    "texCoord" : 0
                },
                "metallicFactor" : 0,
                "roughnessFactor" : 0.6732679605484009
            }
        },
        {
            "name" : "mat_6",
            "pbrMetallicRoughness" : {
                "baseColorTexture" : {
                    "index" : 6,
                    "texCoord" : 0
                },
                "metallicFactor" : 0,
                "roughnessFactor" : 0.6732679605484009
            }
        },
        {
            "name" : "mat_7",
            "pbrMetallicRoughness" : {
                "baseColorTexture" : {
                    "index" : 7,
                    "texCoord" : 0
                },
                "metallicFactor" : 0,
                "roughnessFactor" : 0.6732679605484009
            }
        },
        {
            "name" : "mat_8",
            "pbrMetallicRoughness" : {
                "baseColorTexture" : {
                    "index" : 8,
                    "texCoord" : 0
                },
                "metallicFactor" : 0,
                "roughnessFactor" : 0.6732679605484009
            }
        }
    ],
    "meshes" : [
        {
            "name" : "nyoromo",
            "primitives" : [
                {
                    "attributes" : {
                        "POSITION" : 0,
                        "NORMAL" : 1,
                        "TEXCOORD_0" : 2
                    },
                    "indices" : 3,
                    "material" : 0
                },
                {
                    "attributes" : {
                        "POSITION" : 4,
                        "NORMAL" : 5,
                        "TEXCOORD_0" : 6
                    },
                    "indices" : 7,
                    "material" : 1
                },
                {
                    "attributes" : {
                        "POSITION" : 8,
                        "NORMAL" : 9,
                        "TEXCOORD_0" : 10
                    },
                    "indices" : 11,
                    "material" : 2
                },
                {
                    "attributes" : {
                        "POSITION" : 12,
                        "NORMAL" : 13,
                        "TEXCOORD_0" : 14
                    },
                    "indices" : 15,
                    "material" : 3
                },
                {
                    "attributes" : {
                        "POSITION" : 16,
                        "NORMAL" : 17,
                        "TEXCOORD_0" : 18
                    },
                    "indices" : 19,
                    "material" : 4
                },
                {
                    "attributes" : {
                        "POSITION" : 20,
                        "NORMAL" : 21,
                        "TEXCOORD_0" : 22
                    },
                    "indices" : 23,
                    "material" : 5
                },
                {
                    "attributes" : {
                        "POSITION" : 24,
                        "NORMAL" : 25,
                        "TEXCOORD_0" : 26
                    },
                    "indices" : 27,
                    "material" : 6
                },
                {
                    "attributes" : {
                        "POSITION" : 28,
                        "NORMAL" : 29,
                        "TEXCOORD_0" : 30
                    },
                    "indices" : 31,
                    "material" : 7
                },
                {
                    "attributes" : {
                        "POSITION" : 32,
                        "NORMAL" : 33,
                        "TEXCOORD_0" : 34
                    },
                    "indices" : 35,
                    "material" : 8
                }
            ]
        }
    ],
    "textures" : [
        {
            "source" : 0
        },
        {
            "source" : 1
        },
        {
            "source" : 2
        },
        {
            "source" : 3
        },
        {
            "source" : 4
        },
        {
            "source" : 5
        },
        {
            "source" : 6
        },
        {
            "source" : 7
        },
        {
            "source" : 8
        }
    ],
    "images" : [
        {
            "bufferView" : 4,
            "mimeType" : "image/png",
            "name" : "nyoromo_0_0.tga"
        },
        {
            "bufferView" : 9,
            "mimeType" : "image/png",
            "name" : "nyoromo_0_1.tga"
        },
        {
            "bufferView" : 14,
            "mimeType" : "image/png",
            "name" : "nyoromo_0_2.tga"
        },
        {
            "bufferView" : 19,
            "mimeType" : "image/png",
            "name" : "nyoromo_0_3.tga"
        },
        {
            "bufferView" : 24,
            "mimeType" : "image/png",
            "name" : "nyoromo_0_4.tga"
        },
        {
            "bufferView" : 29,
            "mimeType" : "image/png",
            "name" : "nyoromo_0_5.tga"
        },
        {
            "bufferView" : 34,
            "mimeType" : "image/png",
            "name" : "nyoromo_0_6.tga"
        },
        {
            "bufferView" : 39,
            "mimeType" : "image/png",
            "name" : "nyoromo_0_7.tga"
        },
        {
            "bufferView" : 44,
            "mimeType" : "image/png",
            "name" : "nyoromo_0_8.tga"
        }
    ],
    "accessors" : [
        {
            "bufferView" : 0,
            "componentType" : 5126,
            "count" : 204,
            "max" : [
                2.6951301097869873,
                0.009442999958992004,
                6.582980155944824
            ],
            "min" : [
                -2.6951398849487305,
                -5.29026985168457,
                -2.5963499546051025
            ],
            "type" : "VEC3"
        },
        {
            "bufferView" : 1,
            "componentType" : 5126,
            "count" : 204,
            "type" : "VEC3"
        },
        {
            "bufferView" : 2,
            "componentType" : 5126,
            "count" : 204,
            "type" : "VEC2"
        },
        {
            "bufferView" : 3,
            "componentType" : 5123,
            "count" : 804,
            "type" : "SCALAR"
        },
        {
            "bufferView" : 5,
            "componentType" : 5126,
            "count" : 12,
            "max" : [
                1.7035900354385376,
                -1.124959945678711,
                -1.869070053100586
            ],
            "min" : [
                -3.000000106112566e-06,
                -4.549540042877197,
                -2.9547998905181885
            ],
            "type" : "VEC3"
        },
        {
            "bufferView" : 6,
            "componentType" : 5126,
            "count" : 12,
            "type" : "VEC3"
        },
        {
            "bufferView" : 7,
            "componentType" : 5126,
            "count" : 12,
            "type" : "VEC2"
        },
        {
            "bufferView" : 8,
            "componentType" : 5123,
            "count" : 36,
            "type" : "SCALAR"
        },
        {
            "bufferView" : 10,
            "componentType" : 5126,
            "count" : 12,
            "max" : [
                3.999999989900971e-06,
                -1.124959945678711,
                -1.8690799474716187
            ],
            "min" : [
                -1.7035900354385376,
                -4.549540042877197,
                -2.9547998905181885
            ],
            "type" : "VEC3"
        },
        {
            "bufferView" : 11,
            "componentType" : 5126,
            "count" : 12,
            "type" : "VEC3"
        },
        {
            "bufferView" : 12,
            "componentType" : 5126,
            "count" : 12,
            "type" : "VEC2"
        },
        {
            "bufferView" : 13,
            "componentType" : 5123,
            "count" : 36,
            "type" : "SCALAR"
        },
        {
            "bufferView" : 15,
            "componentType" : 5126,
            "count" : 65,
            "max" : [
                2.0249099731445312,
                0.03455200046300888,
                1.0624099969863892
            ],
            "min" : [
                -2.0416500568389893,
                -6.004439830780029,
                -2.9392099380493164
            ],
            "type" : "VEC3"
        },
        {
            "bufferView" : 16,
            "componentType" : 5126,
            "count" : 65,
            "type" : "VEC3"
        },
        {
            "bufferView" : 17,
            "componentType" : 5126,
            "count" : 65,
            "type" : "VEC2"
        },
        {
            "bufferView" : 18,
            "componentType" : 5123,
            "count" : 252,
            "type" : "SCALAR"
        },
        {
            "bufferView" : 20,
            "componentType" : 5126,
            "count" : 48,
            "max" : [
                1.5633699893951416,
                -4.717010021209717,
                -1.220170021057129
            ],
            "min" : [
                -1.5633800029754639,
                -5.764810085296631,
                -2.284749984741211
            ],
            "type" : "VEC3"
        },
        {
            "bufferView" : 21,
            "componentType" : 5126,
            "count" : 48,
            "type" : "VEC3"
        },
        {
            "bufferView" : 22,
            "componentType" : 5126,
            "count" : 48,
            "type" : "VEC2"
        },
        {
            "bufferView" : 23,
            "componentType" : 5123,
            "count" : 204,
            "type" : "SCALAR"
        },
        {
            "bufferView" : 25,
            "componentType" : 5126,
            "count" : 21,
            "max" : [
                1.2618600130081177,
                -1.1641099452972412,
                7.945710182189941
            ],
            "min" : [
                -1.2618499994277954,
                -1.1707500219345093,
                1.132099986076355
            ],
            "type" : "VEC3"
        },
        {
            "bufferView" : 26,
            "componentType" : 5126,
            "count" : 21,
            "type" : "VEC3"
        },
        {
            "bufferView" : 27,
            "componentType" : 5126,
            "count" : 21,
            "type" : "VEC2"
        },
        {
            "bufferView" : 28,
            "componentType" : 5123,
            "count" : 78,
            "type" : "SCALAR"
        },
        {
            "bufferView" : 30,
            "componentType" : 5126,
            "count" : 20,
            "max" : [
                2.0249099731445312,
                0.03455200046300888,
                0.11796999722719193
            ],
            "min" : [
                -2.0416500568389893,
                -0.3607049882411957,
                -2.9392099380493164
            ],
            "type" : "VEC3"
        },
        {
            "bufferView" : 31,
            "componentType" : 5126,
            "count" : 20,
            "type" : "VEC3"
        },
        {
            "bufferView" : 32,
            "componentType" : 5126,
            "count" : 20,
            "type" : "VEC2"
        },
        {
            "bufferView" : 33,
            "componentType" : 5123,
            "count" : 48,
            "type" : "SCALAR"
        },
        {
            "bufferView" : 35,
            "componentType" : 5126,
            "count" : 8,
            "max" : [
                0.22139699757099152,
                -4.528079986572266,
                -2.691070079803467
            ],
            "min" : [
                -0.1904439926147461,
                -4.635009765625,
                -2.7135798931121826
            ],
            "type" : "VEC3"
        },
        {
            "bufferView" : 36,
            "componentType" : 5126,
            "count" : 8,
            "type" : "VEC3"
        },
        {
            "bufferView" : 37,
            "componentType" : 5126,
            "count" : 8,
            "type" : "VEC2"
        },
        {
            "bufferView" : 38,
            "componentType" : 5123,
            "count" : 18,
            "type" : "SCALAR"
        },
        {
            "bufferView" : 40,
            "componentType" : 5126,
            "count" : 88,
            "max" : [
                0.669996976852417,
                -4.1951799392700195,
                -2.360830068588257
            ],
            "min" : [
                -0.6436100006103516,
                -5.04325008392334,
                -3.077320098876953
            ],
            "type" : "VEC3"
        },
        {
            "bufferView" : 41,
            "componentType" : 5126,
            "count" : 88,
            "type" : "VEC3"
        },
        {
            "bufferView" : 42,
            "componentType" : 5126,
            "count" : 88,
            "type" : "VEC2"
        },
        {
            "bufferView" : 43,
            "componentType" : 5123,
            "count" : 366,
            "type" : "SCALAR"
        }
    ],
    "bufferViews" : [
        {
            "buffer" : 0,
            "byteLength" : 2448,
            "byteOffset" : 0
        },
        {
            "buffer" : 0,
            "byteLength" : 2448,
            "byteOffset" : 2448
        },
        {
            "buffer" : 0,
            "byteLength" : 1632,
            "byteOffset" : 4896
        },
        {
            "buffer" : 0,
            "byteLength" : 1608,
            "byteOffset" : 6528
        },
        {
            "buffer" : 0,
            "byteLength" : 75,
            "byteOffset" : 8136
        },
        {
            "buffer" : 0,
            "byteLength" : 144,
            "byteOffset" : 8212
        },
        {
            "buffer" : 0,
            "byteLength" : 144,
            "byteOffset" : 8356
        },
        {
            "buffer" : 0,
            "byteLength" : 96,
            "byteOffset" : 8500
        },
        {
            "buffer" : 0,
            "byteLength" : 72,
            "byteOffset" : 8596
        },
        {
            "buffer" : 0,
            "byteLength" : 2029,
            "byteOffset" : 8668
        },
        {
            "buffer" : 0,
            "byteLength" : 144,
            "byteOffset" : 10700
        },
        {
            "buffer" : 0,
            "byteLength" : 144,
            "byteOffset" : 10844
        },
        {
            "buffer" : 0,
            "byteLength" : 96,
            "byteOffset" : 10988
        },
        {
            "buffer" : 0,
            "byteLength" : 72,
            "byteOffset" : 11084
        },
        {
            "buffer" : 0,
            "byteLength" : 2253,
            "byteOffset" : 11156
        },
        {
            "buffer" : 0,
            "byteLength" : 780,
            "byteOffset" : 13412
        },
        {
            "buffer" : 0,
            "byteLength" : 780,
            "byteOffset" : 14192
        },
        {
            "buffer" : 0,
            "byteLength" : 520,
            "byteOffset" : 14972
        },
        {
            "buffer" : 0,
            "byteLength" : 504,
            "byteOffset" : 15492
        },
        {
            "buffer" : 0,
            "byteLength" : 436,
            "byteOffset" : 15996
        },
        {
            "buffer" : 0,
            "byteLength" : 576,
            "byteOffset" : 16432
        },
        {
            "buffer" : 0,
            "byteLength" : 576,
            "byteOffset" : 17008
        },
        {
            "buffer" : 0,
            "byteLength" : 384,
            "byteOffset" : 17584
        },
        {
            "buffer" : 0,
            "byteLength" : 408,
            "byteOffset" : 17968
        },
        {
            "buffer" : 0,
            "byteLength" : 2736,
            "byteOffset" : 18376
        },
        {
            "buffer" : 0,
            "byteLength" : 252,
            "byteOffset" : 21112
        },
        {
            "buffer" : 0,
            "byteLength" : 252,
            "byteOffset" : 21364
        },
        {
            "buffer" : 0,
            "byteLength" : 168,
            "byteOffset" : 21616
        },
        {
            "buffer" : 0,
            "byteLength" : 156,
            "byteOffset" : 21784
        },
        {
            "buffer" : 0,
            "byteLength" : 1479,
            "byteOffset" : 21940
        },
        {
            "buffer" : 0,
            "byteLength" : 240,
            "byteOffset" : 23420
        },
        {
            "buffer" : 0,
            "byteLength" : 240,
            "byteOffset" : 23660
        },
        {
            "buffer" : 0,
            "byteLength" : 160,
            "byteOffset" : 23900
        },
        {
            "buffer" : 0,
            "byteLength" : 96,
            "byteOffset" : 24060
        },
        {
            "buffer" : 0,
            "byteLength" : 75,
            "byteOffset" : 24156
        },
        {
            "buffer" : 0,
            "byteLength" : 96,
            "byteOffset" : 24232
        },
        {
            "buffer" : 0,
            "byteLength" : 96,
            "byteOffset" : 24328
        },
        {
            "buffer" : 0,
            "byteLength" : 64,
            "byteOffset" : 24424
        },
        {
            "buffer" : 0,
            "byteLength" : 36,
            "byteOffset" : 24488
        },
        {
            "buffer" : 0,
            "byteLength" : 75,
            "byteOffset" : 24524
        },
        {
            "buffer" : 0,
            "byteLength" : 1056,
            "byteOffset" : 24600
        },
        {
            "buffer" : 0,
            "byteLength" : 1056,
            "byteOffset" : 25656
        },
        {
            "buffer" : 0,
            "byteLength" : 704,
            "byteOffset" : 26712
        },
        {
            "buffer" : 0,
            "byteLength" : 732,
            "byteOffset" : 27416
        },
        {
            "buffer" : 0,
            "byteLength" : 75,
            "byteOffset" : 28148
        }
    ],
    "buffers" : [
        {
            "byteLength" : 28224,
            "uri" : "data:application/octet-stream;base64,"
        }
    ]
}
