{
    "asset" : {
        "generator" : "Khronos Blender glTF 2.0 I/O",
        "version" : "2.0"
    },
    "scene" : 0,
    "scenes" : [
        {
            "name" : "Scene",
            "nodes" : [
                0
            ]
        }
    ],
    "nodes" : [
        {
            "mesh" : 0,
            "name" : "nyorobon",
            "rotation" : [
                1,
                0,
                0,
                -1.6292068494294654e-07
            ]
        }
    ],
    "materials" : [
        {
            "name" : "mat_0.002",
            "pbrMetallicRoughness" : {
                "baseColorTexture" : {
                    "index" : 0,
                    "texCoord" : 0
                },
                "metallicFactor" : 0,
                "roughnessFactor" : 0.6732679605484009
            }
        },
        {
            "name" : "mat_1.002",
            "pbrMetallicRoughness" : {
                "baseColorTexture" : {
                    "index" : 1,
                    "texCoord" : 0
                },
                "metallicFactor" : 0,
                "roughnessFactor" : 0.6732679605484009
            }
        },
        {
            "name" : "mat_2.002",
            "pbrMetallicRoughness" : {
                "baseColorTexture" : {
                    "index" : 2,
                    "texCoord" : 0
                },
                "metallicFactor" : 0,
                "roughnessFactor" : 0.6732679605484009
            }
        }
    ],
    "meshes" : [
        {
            "name" : "nyorobon",
            "primitives" : [
                {
                    "attributes" : {
                        "POSITION" : 0,
                        "NORMAL" : 1,
                        "TEXCOORD_0" : 2
                    },
                    "indices" : 3,
                    "material" : 0
                },
                {
                    "attributes" : {
                        "POSITION" : 4,
                        "NORMAL" : 5,
                        "TEXCOORD_0" : 6
                    },
                    "indices" : 7,
                    "material" : 1
                },
                {
                    "attributes" : {
                        "POSITION" : 8,
                        "NORMAL" : 9,
                        "TEXCOORD_0" : 10
                    },
                    "indices" : 11,
                    "material" : 2
                }
            ]
        }
    ],
    "textures" : [
        {
            "source" : 0
        },
        {
            "source" : 1
        },
        {
            "source" : 2
        }
    ],
    "images" : [
        {
            "bufferView" : 4,
            "mimeType" : "image/png",
            "name" : "nyorobon_0_0.tga"
        },
        {
            "bufferView" : 9,
            "mimeType" : "image/png",
            "name" : "nyorobon_0_0.tga"
        },
        {
            "bufferView" : 14,
            "mimeType" : "image/png",
            "name" : "nyorobon_0_0.tga"
        }
    ],
    "accessors" : [
        {
            "bufferView" : 0,
            "componentType" : 5126,
            "count" : 915,
            "max" : [
                16.201820373535156,
                0,
                4.41096305847168
            ],
            "min" : [
                -16.201818466186523,
                -14.082267761230469,
                -4.003232955932617
            ],
            "type" : "VEC3"
        },
        {
            "bufferView" : 1,
            "componentType" : 5126,
            "count" : 915,
            "type" : "VEC3"
        },
        {
            "bufferView" : 2,
            "componentType" : 5126,
            "count" : 915,
            "type" : "VEC2"
        },
        {
            "bufferView" : 3,
            "componentType" : 5123,
            "count" : 3324,
            "type" : "SCALAR"
        },
        {
            "bufferView" : 5,
            "componentType" : 5126,
            "count" : 24,
            "max" : [
                3.6498630046844482,
                -11.851550102233887,
                -0.4261299967765808
            ],
            "min" : [
                -3.649862051010132,
                -13.94425106048584,
                -1.0840250253677368
            ],
            "type" : "VEC3"
        },
        {
            "bufferView" : 6,
            "componentType" : 5126,
            "count" : 24,
            "type" : "VEC3"
        },
        {
            "bufferView" : 7,
            "componentType" : 5126,
            "count" : 24,
            "type" : "VEC2"
        },
        {
            "bufferView" : 8,
            "componentType" : 5123,
            "count" : 72,
            "type" : "SCALAR"
        },
        {
            "bufferView" : 10,
            "componentType" : 5126,
            "count" : 8,
            "max" : [
                1.1136640310287476,
                -11.835000038146973,
                -1.951922059059143
            ],
            "min" : [
                -1.1136640310287476,
                -12.478384017944336,
                -2.896151065826416
            ],
            "type" : "VEC3"
        },
        {
            "bufferView" : 11,
            "componentType" : 5126,
            "count" : 8,
            "type" : "VEC3"
        },
        {
            "bufferView" : 12,
            "componentType" : 5126,
            "count" : 8,
            "type" : "VEC2"
        },
        {
            "bufferView" : 13,
            "componentType" : 5123,
            "count" : 12,
            "type" : "SCALAR"
        }
    ],
    "bufferViews" : [
        {
            "buffer" : 0,
            "byteLength" : 10980,
            "byteOffset" : 0
        },
        {
            "buffer" : 0,
            "byteLength" : 10980,
            "byteOffset" : 10980
        },
        {
            "buffer" : 0,
            "byteLength" : 7320,
            "byteOffset" : 21960
        },
        {
            "buffer" : 0,
            "byteLength" : 6648,
            "byteOffset" : 29280
        },
        {
            "buffer" : 0,
            "byteLength" : 41340,
            "byteOffset" : 35928
        },
        {
            "buffer" : 0,
            "byteLength" : 288,
            "byteOffset" : 77268
        },
        {
            "buffer" : 0,
            "byteLength" : 288,
            "byteOffset" : 77556
        },
        {
            "buffer" : 0,
            "byteLength" : 192,
            "byteOffset" : 77844
        },
        {
            "buffer" : 0,
            "byteLength" : 144,
            "byteOffset" : 78036
        },
        {
            "buffer" : 0,
            "byteLength" : 41340,
            "byteOffset" : 78180
        },
        {
            "buffer" : 0,
            "byteLength" : 96,
            "byteOffset" : 119520
        },
        {
            "buffer" : 0,
            "byteLength" : 96,
            "byteOffset" : 119616
        },
        {
            "buffer" : 0,
            "byteLength" : 64,
            "byteOffset" : 119712
        },
        {
            "buffer" : 0,
            "byteLength" : 24,
            "byteOffset" : 119776
        },
        {
            "buffer" : 0,
            "byteLength" : 41340,
            "byteOffset" : 119800
        }
    ],
    "buffers" : [
        {
            "byteLength" : 161140,
            "uri" : "data:application/octet-stream;base64,"
        }
    ]
}
