{
    "asset" : {
        "generator" : "Khronos Blender glTF 2.0 I/O",
        "version" : "2.0"
    },
    "scene" : 0,
    "scenes" : [
        {
            "name" : "Scene",
            "nodes" : [
                0
            ]
        }
    ],
    "nodes" : [
        {
            "mesh" : 0,
            "name" : "Ponyta",
            "rotation" : [
                0.7071068286895752,
                0,
                0,
                0.7071067094802856
            ]
        }
    ],
    "materials" : [
        {
            "name" : "mat3",
            "pbrMetallicRoughness" : {
                "baseColorTexture" : {
                    "index" : 0,
                    "texCoord" : 0
                },
                "metallicFactor" : 0,
                "roughnessFactor" : 0.8945907354354858
            }
        },
        {
            "name" : "mat1.002",
            "pbrMetallicRoughness" : {
                "baseColorTexture" : {
                    "index" : 1,
                    "texCoord" : 0
                },
                "metallicFactor" : 0,
                "roughnessFactor" : 0.8945907354354858
            }
        },
        {
            "name" : "mat2.002",
            "pbrMetallicRoughness" : {
                "baseColorTexture" : {
                    "index" : 2,
                    "texCoord" : 0
                },
                "metallicFactor" : 0,
                "roughnessFactor" : 0.8945907354354858
            }
        },
        {
            "alphaMode" : "BLEND",
            "name" : "mat4",
            "pbrMetallicRoughness" : {
                "baseColorFactor" : [
                    0.8999999165534973,
                    0.1749444454908371,
                    0,
                    1
                ],
                "metallicFactor" : 0,
                "roughnessFactor" : 0.8945907354354858
            }
        },
        {
            "alphaMode" : "BLEND",
            "name" : "mat5",
            "pbrMetallicRoughness" : {
                "baseColorFactor" : [
                    0.8999999761581421,
                    0.17494399845600128,
                    0,
                    1
                ],
                "metallicFactor" : 0,
                "roughnessFactor" : 0.8945907354354858
            }
        }
    ],
    "meshes" : [
        {
            "name" : "Ponyta",
            "primitives" : [
                {
                    "attributes" : {
                        "POSITION" : 0,
                        "NORMAL" : 1,
                        "TEXCOORD_0" : 2
                    },
                    "indices" : 3,
                    "material" : 0
                },
                {
                    "attributes" : {
                        "POSITION" : 4,
                        "NORMAL" : 5,
                        "TEXCOORD_0" : 6
                    },
                    "indices" : 7,
                    "material" : 1
                },
                {
                    "attributes" : {
                        "POSITION" : 8,
                        "NORMAL" : 9,
                        "TEXCOORD_0" : 10
                    },
                    "indices" : 11,
                    "material" : 2
                },
                {
                    "attributes" : {
                        "POSITION" : 12,
                        "NORMAL" : 13,
                        "TEXCOORD_0" : 14
                    },
                    "indices" : 15,
                    "material" : 3
                },
                {
                    "attributes" : {
                        "POSITION" : 16,
                        "NORMAL" : 17,
                        "TEXCOORD_0" : 18
                    },
                    "indices" : 19,
                    "material" : 4
                }
            ]
        }
    ],
    "textures" : [
        {
            "source" : 0
        },
        {
            "source" : 1
        },
        {
            "source" : 2
        }
    ],
    "images" : [
        {
            "bufferView" : 4,
            "mimeType" : "image/png",
            "name" : "PonytaEyeDh.tga"
        },
        {
            "bufferView" : 9,
            "mimeType" : "image/png",
            "name" : "PonytaDh.tga"
        },
        {
            "bufferView" : 14,
            "mimeType" : "image/png",
            "name" : "PonytaDh.tga"
        }
    ],
    "accessors" : [
        {
            "bufferView" : 0,
            "componentType" : 5126,
            "count" : 18,
            "max" : [
                0.9016939997673035,
                4.213613033294678,
                -8.318744659423828
            ],
            "min" : [
                -0.9016960263252258,
                3.2187891006469727,
                -9.264201164245605
            ],
            "type" : "VEC3"
        },
        {
            "bufferView" : 1,
            "componentType" : 5126,
            "count" : 18,
            "type" : "VEC3"
        },
        {
            "bufferView" : 2,
            "componentType" : 5126,
            "count" : 18,
            "type" : "VEC2"
        },
        {
            "bufferView" : 3,
            "componentType" : 5123,
            "count" : 48,
            "type" : "SCALAR"
        },
        {
            "bufferView" : 5,
            "componentType" : 5126,
            "count" : 621,
            "max" : [
                1.569314956665039,
                5.162137031555176,
                9.999999974752427e-07
            ],
            "min" : [
                -1.569314956665039,
                -4.376214981079102,
                -10.433709144592285
            ],
            "type" : "VEC3"
        },
        {
            "bufferView" : 6,
            "componentType" : 5126,
            "count" : 621,
            "type" : "VEC3"
        },
        {
            "bufferView" : 7,
            "componentType" : 5126,
            "count" : 621,
            "type" : "VEC2"
        },
        {
            "bufferView" : 8,
            "componentType" : 5123,
            "count" : 2676,
            "type" : "SCALAR"
        },
        {
            "bufferView" : 10,
            "componentType" : 5126,
            "count" : 292,
            "max" : [
                1.3173229694366455,
                4.369402885437012,
                -2.7514379024505615
            ],
            "min" : [
                -1.3104350566864014,
                -9.189801216125488,
                -11.792807579040527
            ],
            "type" : "VEC3"
        },
        {
            "bufferView" : 11,
            "componentType" : 5126,
            "count" : 292,
            "type" : "VEC3"
        },
        {
            "bufferView" : 12,
            "componentType" : 5126,
            "count" : 292,
            "type" : "VEC2"
        },
        {
            "bufferView" : 13,
            "componentType" : 5123,
            "count" : 1068,
            "type" : "SCALAR"
        },
        {
            "bufferView" : 15,
            "componentType" : 5126,
            "count" : 555,
            "max" : [
                1.7814569473266602,
                4.353793144226074,
                -2.7677459716796875
            ],
            "min" : [
                -1.8336989879608154,
                -9.823330879211426,
                -12.581945419311523
            ],
            "type" : "VEC3"
        },
        {
            "bufferView" : 16,
            "componentType" : 5126,
            "count" : 555,
            "type" : "VEC3"
        },
        {
            "bufferView" : 17,
            "componentType" : 5126,
            "count" : 555,
            "type" : "VEC2"
        },
        {
            "bufferView" : 18,
            "componentType" : 5123,
            "count" : 1656,
            "type" : "SCALAR"
        },
        {
            "bufferView" : 19,
            "componentType" : 5126,
            "count" : 268,
            "max" : [
                1.3701950311660767,
                4.409449100494385,
                -5.873254776000977
            ],
            "min" : [
                -1.363402009010315,
                -9.21359920501709,
                -11.840635299682617
            ],
            "type" : "VEC3"
        },
        {
            "bufferView" : 20,
            "componentType" : 5126,
            "count" : 268,
            "type" : "VEC3"
        },
        {
            "bufferView" : 21,
            "componentType" : 5126,
            "count" : 268,
            "type" : "VEC2"
        },
        {
            "bufferView" : 22,
            "componentType" : 5123,
            "count" : 816,
            "type" : "SCALAR"
        }
    ],
    "bufferViews" : [
        {
            "buffer" : 0,
            "byteLength" : 216,
            "byteOffset" : 0
        },
        {
            "buffer" : 0,
            "byteLength" : 216,
            "byteOffset" : 216
        },
        {
            "buffer" : 0,
            "byteLength" : 144,
            "byteOffset" : 432
        },
        {
            "buffer" : 0,
            "byteLength" : 96,
            "byteOffset" : 576
        },
        {
            "buffer" : 0,
            "byteLength" : 9108,
            "byteOffset" : 672
        },
        {
            "buffer" : 0,
            "byteLength" : 7452,
            "byteOffset" : 9780
        },
        {
            "buffer" : 0,
            "byteLength" : 7452,
            "byteOffset" : 17232
        },
        {
            "buffer" : 0,
            "byteLength" : 4968,
            "byteOffset" : 24684
        },
        {
            "buffer" : 0,
            "byteLength" : 5352,
            "byteOffset" : 29652
        },
        {
            "buffer" : 0,
            "byteLength" : 13031,
            "byteOffset" : 35004
        },
        {
            "buffer" : 0,
            "byteLength" : 3504,
            "byteOffset" : 48036
        },
        {
            "buffer" : 0,
            "byteLength" : 3504,
            "byteOffset" : 51540
        },
        {
            "buffer" : 0,
            "byteLength" : 2336,
            "byteOffset" : 55044
        },
        {
            "buffer" : 0,
            "byteLength" : 2136,
            "byteOffset" : 57380
        },
        {
            "buffer" : 0,
            "byteLength" : 13031,
            "byteOffset" : 59516
        },
        {
            "buffer" : 0,
            "byteLength" : 6660,
            "byteOffset" : 72548
        },
        {
            "buffer" : 0,
            "byteLength" : 6660,
            "byteOffset" : 79208
        },
        {
            "buffer" : 0,
            "byteLength" : 4440,
            "byteOffset" : 85868
        },
        {
            "buffer" : 0,
            "byteLength" : 3312,
            "byteOffset" : 90308
        },
        {
            "buffer" : 0,
            "byteLength" : 3216,
            "byteOffset" : 93620
        },
        {
            "buffer" : 0,
            "byteLength" : 3216,
            "byteOffset" : 96836
        },
        {
            "buffer" : 0,
            "byteLength" : 2144,
            "byteOffset" : 100052
        },
        {
            "buffer" : 0,
            "byteLength" : 1632,
            "byteOffset" : 102196
        }
    ],
    "buffers" : [
        {
            "byteLength" : 103828,
            "uri" : "data:application/octet-stream;base64,"
        }
    ]
}
