{
    "asset" : {
        "generator" : "Khronos Blender glTF 2.0 I/O",
        "version" : "2.0"
    },
    "scene" : 0,
    "scenes" : [
        {
            "name" : "1",
            "nodes" : [
                0
            ]
        }
    ],
    "nodes" : [
        {
            "mesh" : 0,
            "name" : "polygon2_mat1"
        }
    ],
    "materials" : [
        {
            "doubleSided" : true,
            "name" : "mat1",
            "pbrMetallicRoughness" : {
                "baseColorTexture" : {
                    "index" : 0,
                    "texCoord" : 0
                },
                "metallicFactor" : 0,
                "roughnessFactor" : 0.5
            }
        },
        {
            "doubleSided" : true,
            "name" : "mat3",
            "pbrMetallicRoughness" : {
                "baseColorTexture" : {
                    "index" : 1,
                    "texCoord" : 0
                },
                "metallicFactor" : 0,
                "roughnessFactor" : 0.5
            }
        },
        {
            "doubleSided" : true,
            "name" : "mat2",
            "pbrMetallicRoughness" : {
                "baseColorTexture" : {
                    "index" : 2,
                    "texCoord" : 0
                },
                "metallicFactor" : 0,
                "roughnessFactor" : 0.5
            }
        }
    ],
    "meshes" : [
        {
            "name" : "polygon2_mat1",
            "primitives" : [
                {
                    "attributes" : {
                        "POSITION" : 0,
                        "NORMAL" : 1,
                        "TEXCOORD_0" : 2
                    },
                    "indices" : 3,
                    "material" : 0
                },
                {
                    "attributes" : {
                        "POSITION" : 4,
                        "NORMAL" : 5,
                        "TEXCOORD_0" : 6
                    },
                    "indices" : 7,
                    "material" : 1
                },
                {
                    "attributes" : {
                        "POSITION" : 8,
                        "NORMAL" : 9,
                        "TEXCOORD_0" : 10
                    },
                    "indices" : 11,
                    "material" : 2
                }
            ]
        }
    ],
    "textures" : [
        {
            "source" : 0
        },
        {
            "source" : 1
        },
        {
            "source" : 2
        }
    ],
    "images" : [
        {
            "bufferView" : 4,
            "mimeType" : "image/png",
            "name" : "RaichuDh.tga"
        },
        {
            "bufferView" : 9,
            "mimeType" : "image/png",
            "name" : "RaichuMouthDh.tga"
        },
        {
            "bufferView" : 14,
            "mimeType" : "image/png",
            "name" : "RaichuEyeDh.tga"
        }
    ],
    "accessors" : [
        {
            "bufferView" : 0,
            "componentType" : 5126,
            "count" : 1112,
            "max" : [
                2.6636641025543213,
                8.439337730407715,
                2.50423002243042
            ],
            "min" : [
                -2.663666009902954,
                -0.016975000500679016,
                -12.755104064941406
            ],
            "type" : "VEC3"
        },
        {
            "bufferView" : 1,
            "componentType" : 5126,
            "count" : 1112,
            "type" : "VEC3"
        },
        {
            "bufferView" : 2,
            "componentType" : 5126,
            "count" : 1112,
            "type" : "VEC2"
        },
        {
            "bufferView" : 3,
            "componentType" : 5123,
            "count" : 4722,
            "type" : "SCALAR"
        },
        {
            "bufferView" : 5,
            "componentType" : 5126,
            "count" : 18,
            "max" : [
                0.6972939968109131,
                5.918745994567871,
                2.449198007583618
            ],
            "min" : [
                -0.6972960233688354,
                5.035679817199707,
                2.189517021179199
            ],
            "type" : "VEC3"
        },
        {
            "bufferView" : 6,
            "componentType" : 5126,
            "count" : 18,
            "type" : "VEC3"
        },
        {
            "bufferView" : 7,
            "componentType" : 5126,
            "count" : 18,
            "type" : "VEC2"
        },
        {
            "bufferView" : 8,
            "componentType" : 5123,
            "count" : 48,
            "type" : "SCALAR"
        },
        {
            "bufferView" : 10,
            "componentType" : 5126,
            "count" : 22,
            "max" : [
                1.2005419731140137,
                6.5174407958984375,
                2.1422839164733887
            ],
            "min" : [
                -1.200543999671936,
                5.877693176269531,
                1.5329960584640503
            ],
            "type" : "VEC3"
        },
        {
            "bufferView" : 11,
            "componentType" : 5126,
            "count" : 22,
            "type" : "VEC3"
        },
        {
            "bufferView" : 12,
            "componentType" : 5126,
            "count" : 22,
            "type" : "VEC2"
        },
        {
            "bufferView" : 13,
            "componentType" : 5123,
            "count" : 66,
            "type" : "SCALAR"
        }
    ],
    "bufferViews" : [
        {
            "buffer" : 0,
            "byteLength" : 13344,
            "byteOffset" : 0
        },
        {
            "buffer" : 0,
            "byteLength" : 13344,
            "byteOffset" : 13344
        },
        {
            "buffer" : 0,
            "byteLength" : 8896,
            "byteOffset" : 26688
        },
        {
            "buffer" : 0,
            "byteLength" : 9444,
            "byteOffset" : 35584
        },
        {
            "buffer" : 0,
            "byteLength" : 18114,
            "byteOffset" : 45028
        },
        {
            "buffer" : 0,
            "byteLength" : 216,
            "byteOffset" : 63144
        },
        {
            "buffer" : 0,
            "byteLength" : 216,
            "byteOffset" : 63360
        },
        {
            "buffer" : 0,
            "byteLength" : 144,
            "byteOffset" : 63576
        },
        {
            "buffer" : 0,
            "byteLength" : 96,
            "byteOffset" : 63720
        },
        {
            "buffer" : 0,
            "byteLength" : 3989,
            "byteOffset" : 63816
        },
        {
            "buffer" : 0,
            "byteLength" : 264,
            "byteOffset" : 67808
        },
        {
            "buffer" : 0,
            "byteLength" : 264,
            "byteOffset" : 68072
        },
        {
            "buffer" : 0,
            "byteLength" : 176,
            "byteOffset" : 68336
        },
        {
            "buffer" : 0,
            "byteLength" : 132,
            "byteOffset" : 68512
        },
        {
            "buffer" : 0,
            "byteLength" : 5772,
            "byteOffset" : 68644
        }
    ],
    "buffers" : [
        {
            "byteLength" : 74416,
            "uri" : "data:application/octet-stream;base64,"
        }
    ]
}
