{
    "asset" : {
        "generator" : "Khronos Blender glTF 2.0 I/O",
        "version" : "2.0"
    },
    "scene" : 0,
    "scenes" : [
        {
            "name" : "1",
            "nodes" : [
                0
            ]
        }
    ],
    "nodes" : [
        {
            "mesh" : 0,
            "name" : "ratta_mat_0",
            "rotation" : [
                0.7071068286895752,
                0,
                0,
                0.7071068286895752
            ]
        }
    ],
    "materials" : [
        {
            "doubleSided" : true,
            "name" : "mat_0",
            "pbrMetallicRoughness" : {
                "baseColorTexture" : {
                    "index" : 0,
                    "texCoord" : 0
                },
                "metallicFactor" : 0,
                "roughnessFactor" : 0.800000011920929
            }
        },
        {
            "doubleSided" : true,
            "name" : "mat_1",
            "pbrMetallicRoughness" : {
                "baseColorTexture" : {
                    "index" : 1,
                    "texCoord" : 0
                },
                "metallicFactor" : 0,
                "roughnessFactor" : 0.800000011920929
            }
        }
    ],
    "meshes" : [
        {
            "name" : "ratta_mat_0",
            "primitives" : [
                {
                    "attributes" : {
                        "POSITION" : 0,
                        "NORMAL" : 1,
                        "TEXCOORD_0" : 2
                    },
                    "indices" : 3,
                    "material" : 0
                },
                {
                    "attributes" : {
                        "POSITION" : 4,
                        "NORMAL" : 5,
                        "TEXCOORD_0" : 6
                    },
                    "indices" : 7,
                    "material" : 1
                }
            ]
        }
    ],
    "textures" : [
        {
            "source" : 0
        },
        {
            "source" : 1
        }
    ],
    "images" : [
        {
            "bufferView" : 4,
            "mimeType" : "image/png",
            "name" : "ratta_3_0.tga"
        },
        {
            "bufferView" : 9,
            "mimeType" : "image/png",
            "name" : "ratta_3_0.tga"
        }
    ],
    "accessors" : [
        {
            "bufferView" : 0,
            "componentType" : 5126,
            "count" : 1756,
            "max" : [
                3.34647798538208,
                4.133662223815918,
                0
            ],
            "min" : [
                -3.34647798538208,
                -9.547378540039062,
                -7.162805080413818
            ],
            "type" : "VEC3"
        },
        {
            "bufferView" : 1,
            "componentType" : 5126,
            "count" : 1756,
            "type" : "VEC3"
        },
        {
            "bufferView" : 2,
            "componentType" : 5126,
            "count" : 1756,
            "type" : "VEC2"
        },
        {
            "bufferView" : 3,
            "componentType" : 5123,
            "count" : 6660,
            "type" : "SCALAR"
        },
        {
            "bufferView" : 5,
            "componentType" : 5126,
            "count" : 26,
            "max" : [
                1.3600009679794312,
                3.7705318927764893,
                -4.9605817794799805
            ],
            "min" : [
                -1.3659210205078125,
                2.354590892791748,
                -5.943548202514648
            ],
            "type" : "VEC3"
        },
        {
            "bufferView" : 6,
            "componentType" : 5126,
            "count" : 26,
            "type" : "VEC3"
        },
        {
            "bufferView" : 7,
            "componentType" : 5126,
            "count" : 26,
            "type" : "VEC2"
        },
        {
            "bufferView" : 8,
            "componentType" : 5123,
            "count" : 78,
            "type" : "SCALAR"
        }
    ],
    "bufferViews" : [
        {
            "buffer" : 0,
            "byteLength" : 21072,
            "byteOffset" : 0
        },
        {
            "buffer" : 0,
            "byteLength" : 21072,
            "byteOffset" : 21072
        },
        {
            "buffer" : 0,
            "byteLength" : 14048,
            "byteOffset" : 42144
        },
        {
            "buffer" : 0,
            "byteLength" : 13320,
            "byteOffset" : 56192
        },
        {
            "buffer" : 0,
            "byteLength" : 47155,
            "byteOffset" : 69512
        },
        {
            "buffer" : 0,
            "byteLength" : 312,
            "byteOffset" : 116668
        },
        {
            "buffer" : 0,
            "byteLength" : 312,
            "byteOffset" : 116980
        },
        {
            "buffer" : 0,
            "byteLength" : 208,
            "byteOffset" : 117292
        },
        {
            "buffer" : 0,
            "byteLength" : 156,
            "byteOffset" : 117500
        },
        {
            "buffer" : 0,
            "byteLength" : 47155,
            "byteOffset" : 117656
        }
    ],
    "buffers" : [
        {
            "byteLength" : 164812,
            "uri" : "data:application/octet-stream;base64,"
        }
    ]
}
