{
    "asset" : {
        "generator" : "Khronos Blender glTF 2.0 I/O",
        "version" : "2.0"
    },
    "scene" : 0,
    "scenes" : [
        {
            "name" : "1",
            "nodes" : [
                0
            ]
        }
    ],
    "nodes" : [
        {
            "mesh" : 0,
            "name" : "koratta_mat_0",
            "rotation" : [
                0.7071068286895752,
                0,
                0,
                0.7071068286895752
            ]
        }
    ],
    "materials" : [
        {
            "doubleSided" : true,
            "name" : "mat_0",
            "pbrMetallicRoughness" : {
                "baseColorTexture" : {
                    "index" : 0,
                    "texCoord" : 0
                },
                "metallicFactor" : 0,
                "roughnessFactor" : 0.6000000238418579
            }
        },
        {
            "doubleSided" : true,
            "name" : "mat_1",
            "pbrMetallicRoughness" : {
                "baseColorTexture" : {
                    "index" : 1,
                    "texCoord" : 0
                },
                "metallicFactor" : 0,
                "roughnessFactor" : 0.6000000238418579
            }
        }
    ],
    "meshes" : [
        {
            "name" : "koratta_mat_0",
            "primitives" : [
                {
                    "attributes" : {
                        "POSITION" : 0,
                        "NORMAL" : 1,
                        "TEXCOORD_0" : 2
                    },
                    "indices" : 3,
                    "material" : 0
                },
                {
                    "attributes" : {
                        "POSITION" : 4,
                        "NORMAL" : 5,
                        "TEXCOORD_0" : 6
                    },
                    "indices" : 7,
                    "material" : 1
                }
            ]
        }
    ],
    "textures" : [
        {
            "source" : 0
        },
        {
            "source" : 1
        }
    ],
    "images" : [
        {
            "bufferView" : 4,
            "mimeType" : "image/png",
            "name" : "koratta_0_0.tga"
        },
        {
            "bufferView" : 9,
            "mimeType" : "image/png",
            "name" : "koratta_0_1.tga"
        }
    ],
    "accessors" : [
        {
            "bufferView" : 0,
            "componentType" : 5126,
            "count" : 18,
            "max" : [
                0.9162949919700623,
                2.714262008666992,
                -1.7792210578918457
            ],
            "min" : [
                -0.9162949919700623,
                2.006848096847534,
                -2.532186985015869
            ],
            "type" : "VEC3"
        },
        {
            "bufferView" : 1,
            "componentType" : 5126,
            "count" : 18,
            "type" : "VEC3"
        },
        {
            "bufferView" : 2,
            "componentType" : 5126,
            "count" : 18,
            "type" : "VEC2"
        },
        {
            "bufferView" : 3,
            "componentType" : 5123,
            "count" : 48,
            "type" : "SCALAR"
        },
        {
            "bufferView" : 5,
            "componentType" : 5126,
            "count" : 1100,
            "max" : [
                2.273366928100586,
                3.2327771186828613,
                0.17024099826812744
            ],
            "min" : [
                -2.273366928100586,
                -1.6823699474334717,
                -5.378993034362793
            ],
            "type" : "VEC3"
        },
        {
            "bufferView" : 6,
            "componentType" : 5126,
            "count" : 1100,
            "type" : "VEC3"
        },
        {
            "bufferView" : 7,
            "componentType" : 5126,
            "count" : 1100,
            "type" : "VEC2"
        },
        {
            "bufferView" : 8,
            "componentType" : 5123,
            "count" : 3729,
            "type" : "SCALAR"
        }
    ],
    "bufferViews" : [
        {
            "buffer" : 0,
            "byteLength" : 216,
            "byteOffset" : 0
        },
        {
            "buffer" : 0,
            "byteLength" : 216,
            "byteOffset" : 216
        },
        {
            "buffer" : 0,
            "byteLength" : 144,
            "byteOffset" : 432
        },
        {
            "buffer" : 0,
            "byteLength" : 96,
            "byteOffset" : 576
        },
        {
            "buffer" : 0,
            "byteLength" : 4112,
            "byteOffset" : 672
        },
        {
            "buffer" : 0,
            "byteLength" : 13200,
            "byteOffset" : 4784
        },
        {
            "buffer" : 0,
            "byteLength" : 13200,
            "byteOffset" : 17984
        },
        {
            "buffer" : 0,
            "byteLength" : 8800,
            "byteOffset" : 31184
        },
        {
            "buffer" : 0,
            "byteLength" : 7458,
            "byteOffset" : 39984
        },
        {
            "buffer" : 0,
            "byteLength" : 19980,
            "byteOffset" : 47444
        }
    ],
    "buffers" : [
        {
            "byteLength" : 67424,
            "uri" : "data:application/octet-stream;base64,"
        }
    ]
}
