{
    "asset" : {
        "generator" : "Khronos Blender glTF 2.0 I/O",
        "version" : "2.0"
    },
    "scene" : 0,
    "scenes" : [
        {
            "name" : "Scene",
            "nodes" : [
                0
            ]
        }
    ],
    "nodes" : [
        {
            "mesh" : 0,
            "name" : "sidon",
            "rotation" : [
                1,
                0,
                0,
                -1.6292068494294654e-07
            ]
        }
    ],
    "materials" : [
        {
            "name" : "mat_0.006",
            "pbrMetallicRoughness" : {
                "baseColorTexture" : {
                    "index" : 0,
                    "texCoord" : 0
                },
                "metallicFactor" : 0,
                "roughnessFactor" : 0.6732679605484009
            }
        },
        {
            "name" : "mat_1.006",
            "pbrMetallicRoughness" : {
                "baseColorTexture" : {
                    "index" : 1,
                    "texCoord" : 0
                },
                "metallicFactor" : 0,
                "roughnessFactor" : 0.6732679605484009
            }
        },
        {
            "name" : "Material.001",
            "pbrMetallicRoughness" : {
                "baseColorFactor" : [
                    0.22061064839363098,
                    0.2540481984615326,
                    0.2956891357898712,
                    1
                ],
                "metallicFactor" : 0.7696969509124756,
                "roughnessFactor" : 0.5
            }
        }
    ],
    "meshes" : [
        {
            "name" : "sidon",
            "primitives" : [
                {
                    "attributes" : {
                        "POSITION" : 0,
                        "NORMAL" : 1,
                        "TEXCOORD_0" : 2
                    },
                    "indices" : 3,
                    "material" : 0
                },
                {
                    "attributes" : {
                        "POSITION" : 4,
                        "NORMAL" : 5,
                        "TEXCOORD_0" : 6
                    },
                    "indices" : 7,
                    "material" : 1
                },
                {
                    "attributes" : {
                        "POSITION" : 8,
                        "NORMAL" : 9,
                        "TEXCOORD_0" : 10
                    },
                    "indices" : 11,
                    "material" : 2
                }
            ]
        }
    ],
    "textures" : [
        {
            "source" : 0
        },
        {
            "source" : 1
        }
    ],
    "images" : [
        {
            "bufferView" : 4,
            "mimeType" : "image/png",
            "name" : "sidon_0_0.tga"
        },
        {
            "bufferView" : 9,
            "mimeType" : "image/png",
            "name" : "sidon_0_1.tga"
        }
    ],
    "accessors" : [
        {
            "bufferView" : 0,
            "componentType" : 5126,
            "count" : 2579,
            "max" : [
                16.59769630432129,
                0,
                20.29157829284668
            ],
            "min" : [
                -6.1576972007751465,
                -20.03936767578125,
                -9.285357475280762
            ],
            "type" : "VEC3"
        },
        {
            "bufferView" : 1,
            "componentType" : 5126,
            "count" : 2579,
            "type" : "VEC3"
        },
        {
            "bufferView" : 2,
            "componentType" : 5126,
            "count" : 2579,
            "type" : "VEC2"
        },
        {
            "bufferView" : 3,
            "componentType" : 5123,
            "count" : 7881,
            "type" : "SCALAR"
        },
        {
            "bufferView" : 5,
            "componentType" : 5126,
            "count" : 41,
            "max" : [
                8.674631118774414,
                -12.852959632873535,
                -2.4782989025115967
            ],
            "min" : [
                1.7653679847717285,
                -18.34604835510254,
                -8.195731163024902
            ],
            "type" : "VEC3"
        },
        {
            "bufferView" : 6,
            "componentType" : 5126,
            "count" : 41,
            "type" : "VEC3"
        },
        {
            "bufferView" : 7,
            "componentType" : 5126,
            "count" : 41,
            "type" : "VEC2"
        },
        {
            "bufferView" : 8,
            "componentType" : 5123,
            "count" : 63,
            "type" : "SCALAR"
        },
        {
            "bufferView" : 10,
            "componentType" : 5126,
            "count" : 16,
            "max" : [
                6.372387886047363,
                -13.31175422668457,
                -8.107879638671875
            ],
            "min" : [
                4.067612171173096,
                -16.697206497192383,
                -15.660396575927734
            ],
            "type" : "VEC3"
        },
        {
            "bufferView" : 11,
            "componentType" : 5126,
            "count" : 16,
            "type" : "VEC3"
        },
        {
            "bufferView" : 12,
            "componentType" : 5126,
            "count" : 16,
            "type" : "VEC2"
        },
        {
            "bufferView" : 13,
            "componentType" : 5123,
            "count" : 36,
            "type" : "SCALAR"
        }
    ],
    "bufferViews" : [
        {
            "buffer" : 0,
            "byteLength" : 30948,
            "byteOffset" : 0
        },
        {
            "buffer" : 0,
            "byteLength" : 30948,
            "byteOffset" : 30948
        },
        {
            "buffer" : 0,
            "byteLength" : 20632,
            "byteOffset" : 61896
        },
        {
            "buffer" : 0,
            "byteLength" : 15762,
            "byteOffset" : 82528
        },
        {
            "buffer" : 0,
            "byteLength" : 17595,
            "byteOffset" : 98292
        },
        {
            "buffer" : 0,
            "byteLength" : 492,
            "byteOffset" : 115888
        },
        {
            "buffer" : 0,
            "byteLength" : 492,
            "byteOffset" : 116380
        },
        {
            "buffer" : 0,
            "byteLength" : 328,
            "byteOffset" : 116872
        },
        {
            "buffer" : 0,
            "byteLength" : 126,
            "byteOffset" : 117200
        },
        {
            "buffer" : 0,
            "byteLength" : 9388,
            "byteOffset" : 117328
        },
        {
            "buffer" : 0,
            "byteLength" : 192,
            "byteOffset" : 126716
        },
        {
            "buffer" : 0,
            "byteLength" : 192,
            "byteOffset" : 126908
        },
        {
            "buffer" : 0,
            "byteLength" : 128,
            "byteOffset" : 127100
        },
        {
            "buffer" : 0,
            "byteLength" : 72,
            "byteOffset" : 127228
        }
    ],
    "buffers" : [
        {
            "byteLength" : 127300,
            "uri" : "data:application/octet-stream;base64,"
        }
    ]
}
