{
    "asset" : {
        "generator" : "Khronos Blender glTF 2.0 I/O",
        "version" : "2.0"
    },
    "scene" : 0,
    "scenes" : [
        {
            "name" : "Scene",
            "nodes" : [
                0
            ]
        }
    ],
    "nodes" : [
        {
            "mesh" : 0,
            "name" : "sihorn",
            "rotation" : [
                1,
                0,
                0,
                -1.6292068494294654e-07
            ]
        }
    ],
    "materials" : [
        {
            "name" : "mat_0.005",
            "pbrMetallicRoughness" : {
                "baseColorTexture" : {
                    "index" : 0,
                    "texCoord" : 0
                },
                "metallicFactor" : 0,
                "roughnessFactor" : 0.6732679605484009
            }
        },
        {
            "name" : "mat_1.005",
            "pbrMetallicRoughness" : {
                "baseColorTexture" : {
                    "index" : 1,
                    "texCoord" : 0
                },
                "metallicFactor" : 0,
                "roughnessFactor" : 0.6732679605484009
            }
        }
    ],
    "meshes" : [
        {
            "name" : "sihorn",
            "primitives" : [
                {
                    "attributes" : {
                        "POSITION" : 0,
                        "NORMAL" : 1,
                        "TEXCOORD_0" : 2
                    },
                    "indices" : 3,
                    "material" : 0
                },
                {
                    "attributes" : {
                        "POSITION" : 4,
                        "NORMAL" : 5,
                        "TEXCOORD_0" : 6
                    },
                    "indices" : 7,
                    "material" : 1
                }
            ]
        }
    ],
    "textures" : [
        {
            "source" : 0
        },
        {
            "source" : 1
        }
    ],
    "images" : [
        {
            "bufferView" : 4,
            "mimeType" : "image/png",
            "name" : "sihorn_0_0.tga"
        },
        {
            "bufferView" : 9,
            "mimeType" : "image/png",
            "name" : "sihorn_0_0.tga"
        }
    ],
    "accessors" : [
        {
            "bufferView" : 0,
            "componentType" : 5126,
            "count" : 2136,
            "max" : [
                4.943367958068848,
                0.15247300267219543,
                7.326233863830566
            ],
            "min" : [
                -4.943368911743164,
                -9.953702926635742,
                -9.048540115356445
            ],
            "type" : "VEC3"
        },
        {
            "bufferView" : 1,
            "componentType" : 5126,
            "count" : 2136,
            "type" : "VEC3"
        },
        {
            "bufferView" : 2,
            "componentType" : 5126,
            "count" : 2136,
            "type" : "VEC2"
        },
        {
            "bufferView" : 3,
            "componentType" : 5123,
            "count" : 7608,
            "type" : "SCALAR"
        },
        {
            "bufferView" : 5,
            "componentType" : 5126,
            "count" : 50,
            "max" : [
                1.6981450319290161,
                -2.789618968963623,
                -5.4386820793151855
            ],
            "min" : [
                -1.6981459856033325,
                -3.947309970855713,
                -6.925013065338135
            ],
            "type" : "VEC3"
        },
        {
            "bufferView" : 6,
            "componentType" : 5126,
            "count" : 50,
            "type" : "VEC3"
        },
        {
            "bufferView" : 7,
            "componentType" : 5126,
            "count" : 50,
            "type" : "VEC2"
        },
        {
            "bufferView" : 8,
            "componentType" : 5123,
            "count" : 186,
            "type" : "SCALAR"
        }
    ],
    "bufferViews" : [
        {
            "buffer" : 0,
            "byteLength" : 25632,
            "byteOffset" : 0
        },
        {
            "buffer" : 0,
            "byteLength" : 25632,
            "byteOffset" : 25632
        },
        {
            "buffer" : 0,
            "byteLength" : 17088,
            "byteOffset" : 51264
        },
        {
            "buffer" : 0,
            "byteLength" : 15216,
            "byteOffset" : 68352
        },
        {
            "buffer" : 0,
            "byteLength" : 53938,
            "byteOffset" : 83568
        },
        {
            "buffer" : 0,
            "byteLength" : 600,
            "byteOffset" : 137508
        },
        {
            "buffer" : 0,
            "byteLength" : 600,
            "byteOffset" : 138108
        },
        {
            "buffer" : 0,
            "byteLength" : 400,
            "byteOffset" : 138708
        },
        {
            "buffer" : 0,
            "byteLength" : 372,
            "byteOffset" : 139108
        },
        {
            "buffer" : 0,
            "byteLength" : 53938,
            "byteOffset" : 139480
        }
    ],
    "buffers" : [
        {
            "byteLength" : 193420,
            "uri" : "data:application/octet-stream;base64,"
        }
    ]
}
