{
    "asset" : {
        "generator" : "Khronos Blender glTF 2.0 I/O",
        "version" : "2.0"
    },
    "scene" : 0,
    "scenes" : [
        {
            "name" : "Scene",
            "nodes" : [
                0
            ]
        }
    ],
    "nodes" : [
        {
            "mesh" : 0,
            "name" : "sand",
            "rotation" : [
                0.7071068286895752,
                0,
                0,
                0.7071067094802856
            ]
        }
    ],
    "materials" : [
        {
            "name" : "mat_0",
            "pbrMetallicRoughness" : {
                "baseColorTexture" : {
                    "index" : 0,
                    "texCoord" : 0
                },
                "metallicFactor" : 0,
                "roughnessFactor" : 0.6732679605484009
            }
        },
        {
            "name" : "mat_1",
            "pbrMetallicRoughness" : {
                "baseColorTexture" : {
                    "index" : 1,
                    "texCoord" : 0
                },
                "metallicFactor" : 0,
                "roughnessFactor" : 0.6732679605484009
            }
        },
        {
            "name" : "mat_2",
            "pbrMetallicRoughness" : {
                "baseColorTexture" : {
                    "index" : 2,
                    "texCoord" : 0
                },
                "metallicFactor" : 0,
                "roughnessFactor" : 0.6732679605484009
            }
        },
        {
            "name" : "mat_3",
            "pbrMetallicRoughness" : {
                "baseColorTexture" : {
                    "index" : 3,
                    "texCoord" : 0
                },
                "metallicFactor" : 0,
                "roughnessFactor" : 0.6732679605484009
            }
        },
        {
            "name" : "mat_4",
            "pbrMetallicRoughness" : {
                "baseColorTexture" : {
                    "index" : 4,
                    "texCoord" : 0
                },
                "metallicFactor" : 0,
                "roughnessFactor" : 0.6732679605484009
            }
        }
    ],
    "meshes" : [
        {
            "name" : "sand",
            "primitives" : [
                {
                    "attributes" : {
                        "POSITION" : 0,
                        "NORMAL" : 1,
                        "TEXCOORD_0" : 2
                    },
                    "indices" : 3,
                    "material" : 0
                },
                {
                    "attributes" : {
                        "POSITION" : 4,
                        "NORMAL" : 5,
                        "TEXCOORD_0" : 6
                    },
                    "indices" : 7,
                    "material" : 1
                },
                {
                    "attributes" : {
                        "POSITION" : 8,
                        "NORMAL" : 9,
                        "TEXCOORD_0" : 10
                    },
                    "indices" : 11,
                    "material" : 2
                },
                {
                    "attributes" : {
                        "POSITION" : 12,
                        "NORMAL" : 13,
                        "TEXCOORD_0" : 14
                    },
                    "indices" : 15,
                    "material" : 3
                },
                {
                    "attributes" : {
                        "POSITION" : 16,
                        "NORMAL" : 17,
                        "TEXCOORD_0" : 18
                    },
                    "indices" : 19,
                    "material" : 4
                }
            ]
        }
    ],
    "textures" : [
        {
            "source" : 0
        },
        {
            "source" : 1
        },
        {
            "source" : 2
        },
        {
            "source" : 3
        },
        {
            "source" : 4
        }
    ],
    "images" : [
        {
            "bufferView" : 4,
            "mimeType" : "image/png",
            "name" : "sand_0_0.tga"
        },
        {
            "bufferView" : 9,
            "mimeType" : "image/png",
            "name" : "sand_0_1.tga"
        },
        {
            "bufferView" : 14,
            "mimeType" : "image/png",
            "name" : "sand_0_2.tga"
        },
        {
            "bufferView" : 19,
            "mimeType" : "image/png",
            "name" : "sand_0_3.tga"
        },
        {
            "bufferView" : 24,
            "mimeType" : "image/png",
            "name" : "sand_0_4.tga"
        }
    ],
    "accessors" : [
        {
            "bufferView" : 0,
            "componentType" : 5126,
            "count" : 12,
            "max" : [
                1.7802300453186035,
                -1.9999999949504854e-06,
                1.7924799919128418
            ],
            "min" : [
                -1.7802300453186035,
                -1.8217799663543701,
                -1.7924799919128418
            ],
            "type" : "VEC3"
        },
        {
            "bufferView" : 1,
            "componentType" : 5126,
            "count" : 12,
            "type" : "VEC3"
        },
        {
            "bufferView" : 2,
            "componentType" : 5126,
            "count" : 12,
            "type" : "VEC2"
        },
        {
            "bufferView" : 3,
            "componentType" : 5123,
            "count" : 24,
            "type" : "SCALAR"
        },
        {
            "bufferView" : 5,
            "componentType" : 5126,
            "count" : 12,
            "max" : [
                1.7802300453186035,
                1.8217699527740479,
                1.7924799919128418
            ],
            "min" : [
                -1.7802300453186035,
                -3.000000106112566e-06,
                -1.7924799919128418
            ],
            "type" : "VEC3"
        },
        {
            "bufferView" : 6,
            "componentType" : 5126,
            "count" : 12,
            "type" : "VEC3"
        },
        {
            "bufferView" : 7,
            "componentType" : 5126,
            "count" : 12,
            "type" : "VEC2"
        },
        {
            "bufferView" : 8,
            "componentType" : 5123,
            "count" : 24,
            "type" : "SCALAR"
        },
        {
            "bufferView" : 10,
            "componentType" : 5126,
            "count" : 16,
            "max" : [
                0.9456139802932739,
                -0.8321340084075928,
                2.016900062561035
            ],
            "min" : [
                -0.9456189870834351,
                -2.004309892654419,
                -1.255429983139038
            ],
            "type" : "VEC3"
        },
        {
            "bufferView" : 11,
            "componentType" : 5126,
            "count" : 16,
            "type" : "VEC3"
        },
        {
            "bufferView" : 12,
            "componentType" : 5126,
            "count" : 16,
            "type" : "VEC2"
        },
        {
            "bufferView" : 13,
            "componentType" : 5123,
            "count" : 24,
            "type" : "SCALAR"
        },
        {
            "bufferView" : 15,
            "componentType" : 5126,
            "count" : 56,
            "max" : [
                1.3560199737548828,
                2.1390199661254883,
                2.052769899368286
            ],
            "min" : [
                -1.3560199737548828,
                -2.004309892654419,
                -2.052769899368286
            ],
            "type" : "VEC3"
        },
        {
            "bufferView" : 16,
            "componentType" : 5126,
            "count" : 56,
            "type" : "VEC3"
        },
        {
            "bufferView" : 17,
            "componentType" : 5126,
            "count" : 56,
            "type" : "VEC2"
        },
        {
            "bufferView" : 18,
            "componentType" : 5123,
            "count" : 60,
            "type" : "SCALAR"
        },
        {
            "bufferView" : 20,
            "componentType" : 5126,
            "count" : 8,
            "max" : [
                1.3560199737548828,
                2.1390199661254883,
                0.8581140041351318
            ],
            "min" : [
                -1.3560199737548828,
                1.2881900072097778,
                -1.279520034790039
            ],
            "type" : "VEC3"
        },
        {
            "bufferView" : 21,
            "componentType" : 5126,
            "count" : 8,
            "type" : "VEC3"
        },
        {
            "bufferView" : 22,
            "componentType" : 5126,
            "count" : 8,
            "type" : "VEC2"
        },
        {
            "bufferView" : 23,
            "componentType" : 5123,
            "count" : 12,
            "type" : "SCALAR"
        }
    ],
    "bufferViews" : [
        {
            "buffer" : 0,
            "byteLength" : 144,
            "byteOffset" : 0
        },
        {
            "buffer" : 0,
            "byteLength" : 144,
            "byteOffset" : 144
        },
        {
            "buffer" : 0,
            "byteLength" : 96,
            "byteOffset" : 288
        },
        {
            "buffer" : 0,
            "byteLength" : 48,
            "byteOffset" : 384
        },
        {
            "buffer" : 0,
            "byteLength" : 2524,
            "byteOffset" : 432
        },
        {
            "buffer" : 0,
            "byteLength" : 144,
            "byteOffset" : 2956
        },
        {
            "buffer" : 0,
            "byteLength" : 144,
            "byteOffset" : 3100
        },
        {
            "buffer" : 0,
            "byteLength" : 96,
            "byteOffset" : 3244
        },
        {
            "buffer" : 0,
            "byteLength" : 48,
            "byteOffset" : 3340
        },
        {
            "buffer" : 0,
            "byteLength" : 2335,
            "byteOffset" : 3388
        },
        {
            "buffer" : 0,
            "byteLength" : 192,
            "byteOffset" : 5724
        },
        {
            "buffer" : 0,
            "byteLength" : 192,
            "byteOffset" : 5916
        },
        {
            "buffer" : 0,
            "byteLength" : 128,
            "byteOffset" : 6108
        },
        {
            "buffer" : 0,
            "byteLength" : 48,
            "byteOffset" : 6236
        },
        {
            "buffer" : 0,
            "byteLength" : 1511,
            "byteOffset" : 6284
        },
        {
            "buffer" : 0,
            "byteLength" : 672,
            "byteOffset" : 7796
        },
        {
            "buffer" : 0,
            "byteLength" : 672,
            "byteOffset" : 8468
        },
        {
            "buffer" : 0,
            "byteLength" : 448,
            "byteOffset" : 9140
        },
        {
            "buffer" : 0,
            "byteLength" : 120,
            "byteOffset" : 9588
        },
        {
            "buffer" : 0,
            "byteLength" : 1312,
            "byteOffset" : 9708
        },
        {
            "buffer" : 0,
            "byteLength" : 96,
            "byteOffset" : 11020
        },
        {
            "buffer" : 0,
            "byteLength" : 96,
            "byteOffset" : 11116
        },
        {
            "buffer" : 0,
            "byteLength" : 64,
            "byteOffset" : 11212
        },
        {
            "buffer" : 0,
            "byteLength" : 24,
            "byteOffset" : 11276
        },
        {
            "buffer" : 0,
            "byteLength" : 787,
            "byteOffset" : 11300
        }
    ],
    "buffers" : [
        {
            "byteLength" : 12088,
            "uri" : "data:application/octet-stream;base64,"
        }
    ]
}
