{
    "asset" : {
        "generator" : "Khronos Blender glTF 2.0 I/O",
        "version" : "2.0"
    },
    "scene" : 0,
    "scenes" : [
        {
            "name" : "Scene",
            "nodes" : [
                0
            ]
        }
    ],
    "nodes" : [
        {
            "mesh" : 0,
            "name" : "Scyther",
            "rotation" : [
                0.7071068286895752,
                0,
                0,
                0.7071067094802856
            ]
        }
    ],
    "materials" : [
        {
            "name" : "mat3.001",
            "pbrMetallicRoughness" : {
                "baseColorTexture" : {
                    "index" : 0,
                    "texCoord" : 0
                },
                "metallicFactor" : 0,
                "roughnessFactor" : 0.8945907354354858
            }
        },
        {
            "name" : "mat1.001",
            "pbrMetallicRoughness" : {
                "baseColorTexture" : {
                    "index" : 1,
                    "texCoord" : 0
                },
                "metallicFactor" : 0,
                "roughnessFactor" : 0.8945907354354858
            }
        },
        {
            "name" : "mat2.001",
            "pbrMetallicRoughness" : {
                "baseColorTexture" : {
                    "index" : 2,
                    "texCoord" : 0
                },
                "metallicFactor" : 0,
                "roughnessFactor" : 0.8945907354354858
            }
        }
    ],
    "meshes" : [
        {
            "name" : "Scyther",
            "primitives" : [
                {
                    "attributes" : {
                        "POSITION" : 0,
                        "NORMAL" : 1,
                        "TEXCOORD_0" : 2
                    },
                    "indices" : 3,
                    "material" : 0
                },
                {
                    "attributes" : {
                        "POSITION" : 4,
                        "NORMAL" : 5,
                        "TEXCOORD_0" : 6
                    },
                    "indices" : 7,
                    "material" : 1
                },
                {
                    "attributes" : {
                        "POSITION" : 8,
                        "NORMAL" : 9,
                        "TEXCOORD_0" : 10
                    },
                    "indices" : 11,
                    "material" : 2
                }
            ]
        }
    ],
    "textures" : [
        {
            "source" : 0
        },
        {
            "source" : 1
        },
        {
            "source" : 2
        }
    ],
    "images" : [
        {
            "bufferView" : 4,
            "mimeType" : "image/png",
            "name" : "StrikeEyeDh.tga"
        },
        {
            "bufferView" : 9,
            "mimeType" : "image/png",
            "name" : "StrikeDh.tga"
        },
        {
            "bufferView" : 14,
            "mimeType" : "image/png",
            "name" : "StrikeDh.tga"
        }
    ],
    "accessors" : [
        {
            "bufferView" : 0,
            "componentType" : 5126,
            "count" : 20,
            "max" : [
                1.1565380096435547,
                3.598942995071411,
                -12.341412544250488
            ],
            "min" : [
                -1.1565370559692383,
                2.4892330169677734,
                -13.87013053894043
            ],
            "type" : "VEC3"
        },
        {
            "bufferView" : 1,
            "componentType" : 5126,
            "count" : 20,
            "type" : "VEC3"
        },
        {
            "bufferView" : 2,
            "componentType" : 5126,
            "count" : 20,
            "type" : "VEC2"
        },
        {
            "bufferView" : 3,
            "componentType" : 5123,
            "count" : 60,
            "type" : "SCALAR"
        },
        {
            "bufferView" : 5,
            "componentType" : 5126,
            "count" : 1190,
            "max" : [
                16.108959197998047,
                4.198689937591553,
                9.999999974752427e-07
            ],
            "min" : [
                -16.108959197998047,
                -13.767419815063477,
                -16.385967254638672
            ],
            "type" : "VEC3"
        },
        {
            "bufferView" : 6,
            "componentType" : 5126,
            "count" : 1190,
            "type" : "VEC3"
        },
        {
            "bufferView" : 7,
            "componentType" : 5126,
            "count" : 1190,
            "type" : "VEC2"
        },
        {
            "bufferView" : 8,
            "componentType" : 5123,
            "count" : 4278,
            "type" : "SCALAR"
        },
        {
            "bufferView" : 10,
            "componentType" : 5126,
            "count" : 90,
            "max" : [
                1.4030040502548218,
                -0.49901899695396423,
                -9.339664459228516
            ],
            "min" : [
                -1.4030029773712158,
                -13.767419815063477,
                -12.019779205322266
            ],
            "type" : "VEC3"
        },
        {
            "bufferView" : 11,
            "componentType" : 5126,
            "count" : 90,
            "type" : "VEC3"
        },
        {
            "bufferView" : 12,
            "componentType" : 5126,
            "count" : 90,
            "type" : "VEC2"
        },
        {
            "bufferView" : 13,
            "componentType" : 5123,
            "count" : 240,
            "type" : "SCALAR"
        }
    ],
    "bufferViews" : [
        {
            "buffer" : 0,
            "byteLength" : 240,
            "byteOffset" : 0
        },
        {
            "buffer" : 0,
            "byteLength" : 240,
            "byteOffset" : 240
        },
        {
            "buffer" : 0,
            "byteLength" : 160,
            "byteOffset" : 480
        },
        {
            "buffer" : 0,
            "byteLength" : 120,
            "byteOffset" : 640
        },
        {
            "buffer" : 0,
            "byteLength" : 11039,
            "byteOffset" : 760
        },
        {
            "buffer" : 0,
            "byteLength" : 14280,
            "byteOffset" : 11800
        },
        {
            "buffer" : 0,
            "byteLength" : 14280,
            "byteOffset" : 26080
        },
        {
            "buffer" : 0,
            "byteLength" : 9520,
            "byteOffset" : 40360
        },
        {
            "buffer" : 0,
            "byteLength" : 8556,
            "byteOffset" : 49880
        },
        {
            "buffer" : 0,
            "byteLength" : 36209,
            "byteOffset" : 58436
        },
        {
            "buffer" : 0,
            "byteLength" : 1080,
            "byteOffset" : 94648
        },
        {
            "buffer" : 0,
            "byteLength" : 1080,
            "byteOffset" : 95728
        },
        {
            "buffer" : 0,
            "byteLength" : 720,
            "byteOffset" : 96808
        },
        {
            "buffer" : 0,
            "byteLength" : 480,
            "byteOffset" : 97528
        },
        {
            "buffer" : 0,
            "byteLength" : 36209,
            "byteOffset" : 98008
        }
    ],
    "buffers" : [
        {
            "byteLength" : 134220,
            "uri" : "data:application/octet-stream;base64,"
        }
    ]
}
