{
    "asset" : {
        "generator" : "Khronos Blender glTF 2.0 I/O",
        "version" : "2.0"
    },
    "scene" : 0,
    "scenes" : [
        {
            "name" : "Scene",
            "nodes" : [
                0
            ]
        }
    ],
    "nodes" : [
        {
            "mesh" : 0,
            "name" : "seadra",
            "rotation" : [
                1,
                0,
                0,
                -1.6292068494294654e-07
            ]
        }
    ],
    "materials" : [
        {
            "name" : "mat_0.001",
            "pbrMetallicRoughness" : {
                "baseColorTexture" : {
                    "index" : 0,
                    "texCoord" : 0
                },
                "metallicFactor" : 0,
                "roughnessFactor" : 0.6732679605484009
            }
        },
        {
            "name" : "mat_1.001",
            "pbrMetallicRoughness" : {
                "baseColorTexture" : {
                    "index" : 1,
                    "texCoord" : 0
                },
                "metallicFactor" : 0,
                "roughnessFactor" : 0.6732679605484009
            }
        }
    ],
    "meshes" : [
        {
            "name" : "seadra",
            "primitives" : [
                {
                    "attributes" : {
                        "POSITION" : 0,
                        "NORMAL" : 1,
                        "TEXCOORD_0" : 2
                    },
                    "indices" : 3,
                    "material" : 0
                },
                {
                    "attributes" : {
                        "POSITION" : 4,
                        "NORMAL" : 5,
                        "TEXCOORD_0" : 6
                    },
                    "indices" : 7,
                    "material" : 1
                }
            ]
        }
    ],
    "textures" : [
        {
            "source" : 0
        },
        {
            "source" : 1
        }
    ],
    "images" : [
        {
            "bufferView" : 4,
            "mimeType" : "image/png",
            "name" : "seadra_0_0.tga"
        },
        {
            "bufferView" : 9,
            "mimeType" : "image/png",
            "name" : "seadra_0_1.tga"
        }
    ],
    "accessors" : [
        {
            "bufferView" : 0,
            "componentType" : 5126,
            "count" : 1947,
            "max" : [
                6.814931869506836,
                5.490499973297119,
                3.5637900829315186
            ],
            "min" : [
                -6.814931869506836,
                -6.753200054168701,
                -5.567714214324951
            ],
            "type" : "VEC3"
        },
        {
            "bufferView" : 1,
            "componentType" : 5126,
            "count" : 1947,
            "type" : "VEC3"
        },
        {
            "bufferView" : 2,
            "componentType" : 5126,
            "count" : 1947,
            "type" : "VEC2"
        },
        {
            "bufferView" : 3,
            "componentType" : 5123,
            "count" : 8250,
            "type" : "SCALAR"
        },
        {
            "bufferView" : 5,
            "componentType" : 5126,
            "count" : 38,
            "max" : [
                1.6325260400772095,
                -2.5586390495300293,
                0.15276999771595
            ],
            "min" : [
                -1.6325260400772095,
                -4.848688125610352,
                -2.866436004638672
            ],
            "type" : "VEC3"
        },
        {
            "bufferView" : 6,
            "componentType" : 5126,
            "count" : 38,
            "type" : "VEC3"
        },
        {
            "bufferView" : 7,
            "componentType" : 5126,
            "count" : 38,
            "type" : "VEC2"
        },
        {
            "bufferView" : 8,
            "componentType" : 5123,
            "count" : 138,
            "type" : "SCALAR"
        }
    ],
    "bufferViews" : [
        {
            "buffer" : 0,
            "byteLength" : 23364,
            "byteOffset" : 0
        },
        {
            "buffer" : 0,
            "byteLength" : 23364,
            "byteOffset" : 23364
        },
        {
            "buffer" : 0,
            "byteLength" : 15576,
            "byteOffset" : 46728
        },
        {
            "buffer" : 0,
            "byteLength" : 16500,
            "byteOffset" : 62304
        },
        {
            "buffer" : 0,
            "byteLength" : 29301,
            "byteOffset" : 78804
        },
        {
            "buffer" : 0,
            "byteLength" : 456,
            "byteOffset" : 108108
        },
        {
            "buffer" : 0,
            "byteLength" : 456,
            "byteOffset" : 108564
        },
        {
            "buffer" : 0,
            "byteLength" : 304,
            "byteOffset" : 109020
        },
        {
            "buffer" : 0,
            "byteLength" : 276,
            "byteOffset" : 109324
        },
        {
            "buffer" : 0,
            "byteLength" : 4033,
            "byteOffset" : 109600
        }
    ],
    "buffers" : [
        {
            "byteLength" : 113636,
            "uri" : "data:application/octet-stream;base64,"
        }
    ]
}
