{
    "asset" : {
        "generator" : "Khronos Blender glTF 2.0 I/O",
        "version" : "2.0"
    },
    "scene" : 0,
    "scenes" : [
        {
            "name" : "Scene",
            "nodes" : [
                0
            ]
        }
    ],
    "nodes" : [
        {
            "mesh" : 0,
            "name" : "pawou",
            "rotation" : [
                1,
                0,
                0,
                -1.6292068494294654e-07
            ]
        }
    ],
    "materials" : [
        {
            "name" : "mat_0",
            "pbrMetallicRoughness" : {
                "baseColorTexture" : {
                    "index" : 0,
                    "texCoord" : 0
                },
                "metallicFactor" : 0,
                "roughnessFactor" : 0.6732679605484009
            }
        },
        {
            "name" : "mat_1",
            "pbrMetallicRoughness" : {
                "baseColorTexture" : {
                    "index" : 1,
                    "texCoord" : 0
                },
                "metallicFactor" : 0,
                "roughnessFactor" : 0.6732679605484009
            }
        },
        {
            "name" : "mat_2",
            "pbrMetallicRoughness" : {
                "baseColorTexture" : {
                    "index" : 2,
                    "texCoord" : 0
                },
                "metallicFactor" : 0,
                "roughnessFactor" : 0.6732679605484009
            }
        },
        {
            "name" : "mat_3",
            "pbrMetallicRoughness" : {
                "baseColorTexture" : {
                    "index" : 3,
                    "texCoord" : 0
                },
                "metallicFactor" : 0,
                "roughnessFactor" : 0.6732679605484009
            }
        },
        {
            "name" : "mat_4",
            "pbrMetallicRoughness" : {
                "baseColorTexture" : {
                    "index" : 4,
                    "texCoord" : 0
                },
                "metallicFactor" : 0,
                "roughnessFactor" : 0.6732679605484009
            }
        },
        {
            "name" : "mat_5",
            "pbrMetallicRoughness" : {
                "baseColorTexture" : {
                    "index" : 5,
                    "texCoord" : 0
                },
                "metallicFactor" : 0,
                "roughnessFactor" : 0.6732679605484009
            }
        },
        {
            "name" : "mat_6",
            "pbrMetallicRoughness" : {
                "baseColorTexture" : {
                    "index" : 6,
                    "texCoord" : 0
                },
                "metallicFactor" : 0,
                "roughnessFactor" : 0.6732679605484009
            }
        },
        {
            "name" : "mat_7",
            "pbrMetallicRoughness" : {
                "baseColorFactor" : [
                    0.800000011920929,
                    0.800000011920929,
                    0.800000011920929,
                    1
                ],
                "metallicFactor" : 0,
                "roughnessFactor" : 0.6732679605484009
            }
        },
        {
            "name" : "mat_8",
            "pbrMetallicRoughness" : {
                "baseColorTexture" : {
                    "index" : 7,
                    "texCoord" : 0
                },
                "metallicFactor" : 0,
                "roughnessFactor" : 0.6732679605484009
            }
        },
        {
            "name" : "mat_9",
            "pbrMetallicRoughness" : {
                "baseColorTexture" : {
                    "index" : 8,
                    "texCoord" : 0
                },
                "metallicFactor" : 0,
                "roughnessFactor" : 0.6732679605484009
            }
        }
    ],
    "meshes" : [
        {
            "name" : "pawou",
            "primitives" : [
                {
                    "attributes" : {
                        "POSITION" : 0,
                        "NORMAL" : 1,
                        "TEXCOORD_0" : 2
                    },
                    "indices" : 3,
                    "material" : 0
                },
                {
                    "attributes" : {
                        "POSITION" : 4,
                        "NORMAL" : 5,
                        "TEXCOORD_0" : 6
                    },
                    "indices" : 7,
                    "material" : 1
                },
                {
                    "attributes" : {
                        "POSITION" : 8,
                        "NORMAL" : 9,
                        "TEXCOORD_0" : 10
                    },
                    "indices" : 11,
                    "material" : 2
                },
                {
                    "attributes" : {
                        "POSITION" : 12,
                        "NORMAL" : 13,
                        "TEXCOORD_0" : 14
                    },
                    "indices" : 15,
                    "material" : 3
                },
                {
                    "attributes" : {
                        "POSITION" : 16,
                        "NORMAL" : 17,
                        "TEXCOORD_0" : 18
                    },
                    "indices" : 19,
                    "material" : 4
                },
                {
                    "attributes" : {
                        "POSITION" : 20,
                        "NORMAL" : 21,
                        "TEXCOORD_0" : 22
                    },
                    "indices" : 23,
                    "material" : 5
                },
                {
                    "attributes" : {
                        "POSITION" : 24,
                        "NORMAL" : 25,
                        "TEXCOORD_0" : 26
                    },
                    "indices" : 27,
                    "material" : 6
                },
                {
                    "attributes" : {
                        "POSITION" : 28,
                        "NORMAL" : 29,
                        "TEXCOORD_0" : 30
                    },
                    "indices" : 31,
                    "material" : 7
                },
                {
                    "attributes" : {
                        "POSITION" : 32,
                        "NORMAL" : 33,
                        "TEXCOORD_0" : 34
                    },
                    "indices" : 35,
                    "material" : 8
                },
                {
                    "attributes" : {
                        "POSITION" : 36,
                        "NORMAL" : 37,
                        "TEXCOORD_0" : 38
                    },
                    "indices" : 39,
                    "material" : 9
                }
            ]
        }
    ],
    "textures" : [
        {
            "source" : 0
        },
        {
            "source" : 1
        },
        {
            "source" : 2
        },
        {
            "source" : 3
        },
        {
            "source" : 4
        },
        {
            "source" : 5
        },
        {
            "source" : 6
        },
        {
            "source" : 7
        },
        {
            "source" : 8
        }
    ],
    "images" : [
        {
            "bufferView" : 4,
            "mimeType" : "image/png",
            "name" : "pawou_0_0.tga"
        },
        {
            "bufferView" : 9,
            "mimeType" : "image/png",
            "name" : "pawou_0_1.tga"
        },
        {
            "bufferView" : 14,
            "mimeType" : "image/png",
            "name" : "pawou_0_2.tga"
        },
        {
            "bufferView" : 19,
            "mimeType" : "image/png",
            "name" : "pawou_0_3.tga"
        },
        {
            "bufferView" : 24,
            "mimeType" : "image/png",
            "name" : "pawou_0_4.tga"
        },
        {
            "bufferView" : 29,
            "mimeType" : "image/png",
            "name" : "pawou_0_5.tga"
        },
        {
            "bufferView" : 34,
            "mimeType" : "image/png",
            "name" : "pawou_0_6.tga"
        },
        {
            "bufferView" : 43,
            "mimeType" : "image/png",
            "name" : "pawou_0_7.tga"
        },
        {
            "bufferView" : 48,
            "mimeType" : "image/png",
            "name" : "pawou_0_8.tga"
        }
    ],
    "accessors" : [
        {
            "bufferView" : 0,
            "componentType" : 5126,
            "count" : 392,
            "max" : [
                3.171281099319458,
                0.06095200031995773,
                4.560254096984863
            ],
            "min" : [
                -3.138139009475708,
                -5.390183925628662,
                -6.069685935974121
            ],
            "type" : "VEC3"
        },
        {
            "bufferView" : 1,
            "componentType" : 5126,
            "count" : 392,
            "type" : "VEC3"
        },
        {
            "bufferView" : 2,
            "componentType" : 5126,
            "count" : 392,
            "type" : "VEC2"
        },
        {
            "bufferView" : 3,
            "componentType" : 5123,
            "count" : 900,
            "type" : "SCALAR"
        },
        {
            "bufferView" : 5,
            "componentType" : 5126,
            "count" : 78,
            "max" : [
                1.3108409643173218,
                -0.019027000293135643,
                5.91033411026001
            ],
            "min" : [
                -1.4504189491271973,
                -2.3311541080474854,
                3.7116730213165283
            ],
            "type" : "VEC3"
        },
        {
            "bufferView" : 6,
            "componentType" : 5126,
            "count" : 78,
            "type" : "VEC3"
        },
        {
            "bufferView" : 7,
            "componentType" : 5126,
            "count" : 78,
            "type" : "VEC2"
        },
        {
            "bufferView" : 8,
            "componentType" : 5123,
            "count" : 276,
            "type" : "SCALAR"
        },
        {
            "bufferView" : 10,
            "componentType" : 5126,
            "count" : 10,
            "max" : [
                1.2965710163116455,
                -3.6180241107940674,
                -5.387405872344971
            ],
            "min" : [
                -1.263429045677185,
                -4.598904132843018,
                -5.9638872146606445
            ],
            "type" : "VEC3"
        },
        {
            "bufferView" : 11,
            "componentType" : 5126,
            "count" : 10,
            "type" : "VEC3"
        },
        {
            "bufferView" : 12,
            "componentType" : 5126,
            "count" : 10,
            "type" : "VEC2"
        },
        {
            "bufferView" : 13,
            "componentType" : 5123,
            "count" : 18,
            "type" : "SCALAR"
        },
        {
            "bufferView" : 15,
            "componentType" : 5126,
            "count" : 6,
            "max" : [
                1.1356209516525269,
                -4.598904132843018,
                -5.1291069984436035
            ],
            "min" : [
                -1.1024789810180664,
                -5.117373943328857,
                -5.800937175750732
            ],
            "type" : "VEC3"
        },
        {
            "bufferView" : 16,
            "componentType" : 5126,
            "count" : 6,
            "type" : "VEC3"
        },
        {
            "bufferView" : 17,
            "componentType" : 5126,
            "count" : 6,
            "type" : "VEC2"
        },
        {
            "bufferView" : 18,
            "componentType" : 5123,
            "count" : 6,
            "type" : "SCALAR"
        },
        {
            "bufferView" : 20,
            "componentType" : 5126,
            "count" : 8,
            "max" : [
                0.4734190106391907,
                -5.390183925628662,
                -3.8615260124206543
            ],
            "min" : [
                -0.44027701020240784,
                -6.499393939971924,
                -4.775217056274414
            ],
            "type" : "VEC3"
        },
        {
            "bufferView" : 21,
            "componentType" : 5126,
            "count" : 8,
            "type" : "VEC3"
        },
        {
            "bufferView" : 22,
            "componentType" : 5126,
            "count" : 8,
            "type" : "VEC2"
        },
        {
            "bufferView" : 23,
            "componentType" : 5123,
            "count" : 12,
            "type" : "SCALAR"
        },
        {
            "bufferView" : 25,
            "componentType" : 5126,
            "count" : 89,
            "max" : [
                1.6165709495544434,
                -1.9680240154266357,
                -4.652575969696045
            ],
            "min" : [
                -1.583428978919983,
                -3.678783893585205,
                -6.2138872146606445
            ],
            "type" : "VEC3"
        },
        {
            "bufferView" : 26,
            "componentType" : 5126,
            "count" : 89,
            "type" : "VEC3"
        },
        {
            "bufferView" : 27,
            "componentType" : 5126,
            "count" : 89,
            "type" : "VEC2"
        },
        {
            "bufferView" : 28,
            "componentType" : 5123,
            "count" : 288,
            "type" : "SCALAR"
        },
        {
            "bufferView" : 30,
            "componentType" : 5126,
            "count" : 11,
            "max" : [
                0.36657100915908813,
                -3.2391738891601562,
                -5.912567138671875
            ],
            "min" : [
                -0.3334290087223053,
                -3.8391740322113037,
                -6.312567234039307
            ],
            "type" : "VEC3"
        },
        {
            "bufferView" : 31,
            "componentType" : 5126,
            "count" : 11,
            "type" : "VEC3"
        },
        {
            "bufferView" : 32,
            "componentType" : 5126,
            "count" : 11,
            "type" : "VEC2"
        },
        {
            "bufferView" : 33,
            "componentType" : 5123,
            "count" : 36,
            "type" : "SCALAR"
        },
        {
            "bufferView" : 35,
            "componentType" : 5126,
            "count" : 29,
            "max" : [
                1.2334810495376587,
                -2.278503894805908,
                -5.599307060241699
            ],
            "min" : [
                0.746828019618988,
                -3.3328840732574463,
                -6.156937122344971
            ],
            "type" : "VEC3"
        },
        {
            "bufferView" : 36,
            "componentType" : 5126,
            "count" : 29,
            "type" : "VEC3"
        },
        {
            "bufferView" : 37,
            "componentType" : 5126,
            "count" : 29,
            "type" : "VEC2"
        },
        {
            "bufferView" : 38,
            "componentType" : 5123,
            "count" : 48,
            "type" : "SCALAR"
        },
        {
            "bufferView" : 39,
            "componentType" : 5126,
            "count" : 39,
            "max" : [
                0.8565710186958313,
                -1.8602440357208252,
                -5.323885917663574
            ],
            "min" : [
                -0.8234289884567261,
                -3.1559739112854004,
                -6.415956020355225
            ],
            "type" : "VEC3"
        },
        {
            "bufferView" : 40,
            "componentType" : 5126,
            "count" : 39,
            "type" : "VEC3"
        },
        {
            "bufferView" : 41,
            "componentType" : 5126,
            "count" : 39,
            "type" : "VEC2"
        },
        {
            "bufferView" : 42,
            "componentType" : 5123,
            "count" : 111,
            "type" : "SCALAR"
        },
        {
            "bufferView" : 44,
            "componentType" : 5126,
            "count" : 70,
            "max" : [
                4.459121227264404,
                0.046778999269008636,
                -1.2473959922790527
            ],
            "min" : [
                -4.425979137420654,
                -0.9750750064849854,
                -3.4448869228363037
            ],
            "type" : "VEC3"
        },
        {
            "bufferView" : 45,
            "componentType" : 5126,
            "count" : 70,
            "type" : "VEC3"
        },
        {
            "bufferView" : 46,
            "componentType" : 5126,
            "count" : 70,
            "type" : "VEC2"
        },
        {
            "bufferView" : 47,
            "componentType" : 5123,
            "count" : 234,
            "type" : "SCALAR"
        }
    ],
    "bufferViews" : [
        {
            "buffer" : 0,
            "byteLength" : 4704,
            "byteOffset" : 0
        },
        {
            "buffer" : 0,
            "byteLength" : 4704,
            "byteOffset" : 4704
        },
        {
            "buffer" : 0,
            "byteLength" : 3136,
            "byteOffset" : 9408
        },
        {
            "buffer" : 0,
            "byteLength" : 1800,
            "byteOffset" : 12544
        },
        {
            "buffer" : 0,
            "byteLength" : 83,
            "byteOffset" : 14344
        },
        {
            "buffer" : 0,
            "byteLength" : 936,
            "byteOffset" : 14428
        },
        {
            "buffer" : 0,
            "byteLength" : 936,
            "byteOffset" : 15364
        },
        {
            "buffer" : 0,
            "byteLength" : 624,
            "byteOffset" : 16300
        },
        {
            "buffer" : 0,
            "byteLength" : 552,
            "byteOffset" : 16924
        },
        {
            "buffer" : 0,
            "byteLength" : 452,
            "byteOffset" : 17476
        },
        {
            "buffer" : 0,
            "byteLength" : 120,
            "byteOffset" : 17928
        },
        {
            "buffer" : 0,
            "byteLength" : 120,
            "byteOffset" : 18048
        },
        {
            "buffer" : 0,
            "byteLength" : 80,
            "byteOffset" : 18168
        },
        {
            "buffer" : 0,
            "byteLength" : 36,
            "byteOffset" : 18248
        },
        {
            "buffer" : 0,
            "byteLength" : 2331,
            "byteOffset" : 18284
        },
        {
            "buffer" : 0,
            "byteLength" : 72,
            "byteOffset" : 20616
        },
        {
            "buffer" : 0,
            "byteLength" : 72,
            "byteOffset" : 20688
        },
        {
            "buffer" : 0,
            "byteLength" : 48,
            "byteOffset" : 20760
        },
        {
            "buffer" : 0,
            "byteLength" : 12,
            "byteOffset" : 20808
        },
        {
            "buffer" : 0,
            "byteLength" : 636,
            "byteOffset" : 20820
        },
        {
            "buffer" : 0,
            "byteLength" : 96,
            "byteOffset" : 21456
        },
        {
            "buffer" : 0,
            "byteLength" : 96,
            "byteOffset" : 21552
        },
        {
            "buffer" : 0,
            "byteLength" : 64,
            "byteOffset" : 21648
        },
        {
            "buffer" : 0,
            "byteLength" : 24,
            "byteOffset" : 21712
        },
        {
            "buffer" : 0,
            "byteLength" : 130,
            "byteOffset" : 21736
        },
        {
            "buffer" : 0,
            "byteLength" : 1068,
            "byteOffset" : 21868
        },
        {
            "buffer" : 0,
            "byteLength" : 1068,
            "byteOffset" : 22936
        },
        {
            "buffer" : 0,
            "byteLength" : 712,
            "byteOffset" : 24004
        },
        {
            "buffer" : 0,
            "byteLength" : 576,
            "byteOffset" : 24716
        },
        {
            "buffer" : 0,
            "byteLength" : 83,
            "byteOffset" : 25292
        },
        {
            "buffer" : 0,
            "byteLength" : 132,
            "byteOffset" : 25376
        },
        {
            "buffer" : 0,
            "byteLength" : 132,
            "byteOffset" : 25508
        },
        {
            "buffer" : 0,
            "byteLength" : 88,
            "byteOffset" : 25640
        },
        {
            "buffer" : 0,
            "byteLength" : 72,
            "byteOffset" : 25728
        },
        {
            "buffer" : 0,
            "byteLength" : 192,
            "byteOffset" : 25800
        },
        {
            "buffer" : 0,
            "byteLength" : 348,
            "byteOffset" : 25992
        },
        {
            "buffer" : 0,
            "byteLength" : 348,
            "byteOffset" : 26340
        },
        {
            "buffer" : 0,
            "byteLength" : 232,
            "byteOffset" : 26688
        },
        {
            "buffer" : 0,
            "byteLength" : 96,
            "byteOffset" : 26920
        },
        {
            "buffer" : 0,
            "byteLength" : 468,
            "byteOffset" : 27016
        },
        {
            "buffer" : 0,
            "byteLength" : 468,
            "byteOffset" : 27484
        },
        {
            "buffer" : 0,
            "byteLength" : 312,
            "byteOffset" : 27952
        },
        {
            "buffer" : 0,
            "byteLength" : 222,
            "byteOffset" : 28264
        },
        {
            "buffer" : 0,
            "byteLength" : 390,
            "byteOffset" : 28488
        },
        {
            "buffer" : 0,
            "byteLength" : 840,
            "byteOffset" : 28880
        },
        {
            "buffer" : 0,
            "byteLength" : 840,
            "byteOffset" : 29720
        },
        {
            "buffer" : 0,
            "byteLength" : 560,
            "byteOffset" : 30560
        },
        {
            "buffer" : 0,
            "byteLength" : 468,
            "byteOffset" : 31120
        },
        {
            "buffer" : 0,
            "byteLength" : 538,
            "byteOffset" : 31588
        }
    ],
    "buffers" : [
        {
            "byteLength" : 32128,
            "uri" : "data:application/octet-stream;base64,"
        }
    ]
}
