{
    "asset" : {
        "generator" : "Khronos Blender glTF 2.0 I/O",
        "version" : "2.0"
    },
    "scene" : 0,
    "scenes" : [
        {
            "name" : "Scene",
            "nodes" : [
                0
            ]
        }
    ],
    "nodes" : [
        {
            "mesh" : 0,
            "name" : "Slowpoke",
            "rotation" : [
                0.7071068286895752,
                0,
                0,
                0.7071067094802856
            ]
        }
    ],
    "materials" : [
        {
            "name" : "mat1",
            "pbrMetallicRoughness" : {
                "baseColorTexture" : {
                    "index" : 0,
                    "texCoord" : 0
                },
                "metallicFactor" : 0,
                "roughnessFactor" : 0.8945907354354858
            }
        },
        {
            "name" : "mat2",
            "pbrMetallicRoughness" : {
                "baseColorTexture" : {
                    "index" : 1,
                    "texCoord" : 0
                },
                "metallicFactor" : 0,
                "roughnessFactor" : 0.8945907354354858
            }
        }
    ],
    "meshes" : [
        {
            "name" : "Slowpoke",
            "primitives" : [
                {
                    "attributes" : {
                        "POSITION" : 0,
                        "NORMAL" : 1,
                        "TEXCOORD_0" : 2
                    },
                    "indices" : 3,
                    "material" : 0
                },
                {
                    "attributes" : {
                        "POSITION" : 4,
                        "NORMAL" : 5,
                        "TEXCOORD_0" : 6
                    },
                    "indices" : 7,
                    "material" : 1
                }
            ]
        }
    ],
    "textures" : [
        {
            "source" : 0
        },
        {
            "source" : 1
        }
    ],
    "images" : [
        {
            "bufferView" : 4,
            "mimeType" : "image/png",
            "name" : "YadonDh.tga"
        },
        {
            "bufferView" : 9,
            "mimeType" : "image/png",
            "name" : "YadonEyeDh.tga"
        }
    ],
    "accessors" : [
        {
            "bufferView" : 0,
            "componentType" : 5126,
            "count" : 1022,
            "max" : [
                3.935137987136841,
                7.85406494140625,
                -0.01943499967455864
            ],
            "min" : [
                -3.935137987136841,
                -18.380096435546875,
                -8.737112045288086
            ],
            "type" : "VEC3"
        },
        {
            "bufferView" : 1,
            "componentType" : 5126,
            "count" : 1022,
            "type" : "VEC3"
        },
        {
            "bufferView" : 2,
            "componentType" : 5126,
            "count" : 1022,
            "type" : "VEC2"
        },
        {
            "bufferView" : 3,
            "componentType" : 5123,
            "count" : 4386,
            "type" : "SCALAR"
        },
        {
            "bufferView" : 5,
            "componentType" : 5126,
            "count" : 20,
            "max" : [
                2.1705739498138428,
                6.494973182678223,
                -3.634187936782837
            ],
            "min" : [
                -2.1705739498138428,
                5.305575847625732,
                -5.241735935211182
            ],
            "type" : "VEC3"
        },
        {
            "bufferView" : 6,
            "componentType" : 5126,
            "count" : 20,
            "type" : "VEC3"
        },
        {
            "bufferView" : 7,
            "componentType" : 5126,
            "count" : 20,
            "type" : "VEC2"
        },
        {
            "bufferView" : 8,
            "componentType" : 5123,
            "count" : 60,
            "type" : "SCALAR"
        }
    ],
    "bufferViews" : [
        {
            "buffer" : 0,
            "byteLength" : 12264,
            "byteOffset" : 0
        },
        {
            "buffer" : 0,
            "byteLength" : 12264,
            "byteOffset" : 12264
        },
        {
            "buffer" : 0,
            "byteLength" : 8176,
            "byteOffset" : 24528
        },
        {
            "buffer" : 0,
            "byteLength" : 8772,
            "byteOffset" : 32704
        },
        {
            "buffer" : 0,
            "byteLength" : 30317,
            "byteOffset" : 41476
        },
        {
            "buffer" : 0,
            "byteLength" : 240,
            "byteOffset" : 71796
        },
        {
            "buffer" : 0,
            "byteLength" : 240,
            "byteOffset" : 72036
        },
        {
            "buffer" : 0,
            "byteLength" : 160,
            "byteOffset" : 72276
        },
        {
            "buffer" : 0,
            "byteLength" : 120,
            "byteOffset" : 72436
        },
        {
            "buffer" : 0,
            "byteLength" : 12453,
            "byteOffset" : 72556
        }
    ],
    "buffers" : [
        {
            "byteLength" : 85012,
            "uri" : "data:application/octet-stream;base64,"
        }
    ]
}
