{
    "asset" : {
        "generator" : "Khronos Blender glTF 2.0 I/O",
        "version" : "2.0"
    },
    "scene" : 0,
    "scenes" : [
        {
            "name" : "Scene",
            "nodes" : [
                0
            ]
        }
    ],
    "nodes" : [
        {
            "mesh" : 0,
            "name" : "monjara",
            "rotation" : [
                1,
                0,
                0,
                -1.6292068494294654e-07
            ]
        }
    ],
    "materials" : [
        {
            "name" : "mat_0",
            "pbrMetallicRoughness" : {
                "baseColorTexture" : {
                    "index" : 0,
                    "texCoord" : 0
                },
                "metallicFactor" : 0,
                "roughnessFactor" : 0.800000011920929
            }
        },
        {
            "name" : "mat_1",
            "pbrMetallicRoughness" : {
                "baseColorTexture" : {
                    "index" : 1,
                    "texCoord" : 0
                },
                "metallicFactor" : 0,
                "roughnessFactor" : 0.800000011920929
            }
        },
        {
            "name" : "mat_2",
            "pbrMetallicRoughness" : {
                "baseColorTexture" : {
                    "index" : 2,
                    "texCoord" : 0
                },
                "metallicFactor" : 0,
                "roughnessFactor" : 0.800000011920929
            }
        }
    ],
    "meshes" : [
        {
            "name" : "monjara",
            "primitives" : [
                {
                    "attributes" : {
                        "POSITION" : 0,
                        "NORMAL" : 1,
                        "TEXCOORD_0" : 2
                    },
                    "indices" : 3,
                    "material" : 0
                },
                {
                    "attributes" : {
                        "POSITION" : 4,
                        "NORMAL" : 5,
                        "TEXCOORD_0" : 6
                    },
                    "indices" : 7,
                    "material" : 1
                },
                {
                    "attributes" : {
                        "POSITION" : 8,
                        "NORMAL" : 9,
                        "TEXCOORD_0" : 10
                    },
                    "indices" : 11,
                    "material" : 2
                }
            ]
        }
    ],
    "textures" : [
        {
            "source" : 0
        },
        {
            "source" : 1
        },
        {
            "source" : 2
        }
    ],
    "images" : [
        {
            "bufferView" : 4,
            "mimeType" : "image/png",
            "name" : "monjara_0_0.tga"
        },
        {
            "bufferView" : 9,
            "mimeType" : "image/png",
            "name" : "monjara_0_0.tga"
        },
        {
            "bufferView" : 14,
            "mimeType" : "image/png",
            "name" : "monjara_0_0.tga"
        }
    ],
    "accessors" : [
        {
            "bufferView" : 0,
            "componentType" : 5126,
            "count" : 27,
            "max" : [
                2.5986180305480957,
                -3.998281955718994,
                -1.9622540473937988
            ],
            "min" : [
                -2.5986180305480957,
                -7.148282051086426,
                -3.1018788814544678
            ],
            "type" : "VEC3"
        },
        {
            "bufferView" : 1,
            "componentType" : 5126,
            "count" : 27,
            "type" : "VEC3"
        },
        {
            "bufferView" : 2,
            "componentType" : 5126,
            "count" : 27,
            "type" : "VEC2"
        },
        {
            "bufferView" : 3,
            "componentType" : 5123,
            "count" : 108,
            "type" : "SCALAR"
        },
        {
            "bufferView" : 5,
            "componentType" : 5126,
            "count" : 307,
            "max" : [
                3.7158870697021484,
                0,
                0.805761992931366
            ],
            "min" : [
                -3.7158870697021484,
                -2.5426459312438965,
                -2.239527940750122
            ],
            "type" : "VEC3"
        },
        {
            "bufferView" : 6,
            "componentType" : 5126,
            "count" : 307,
            "type" : "VEC3"
        },
        {
            "bufferView" : 7,
            "componentType" : 5126,
            "count" : 307,
            "type" : "VEC2"
        },
        {
            "bufferView" : 8,
            "componentType" : 5123,
            "count" : 1338,
            "type" : "SCALAR"
        },
        {
            "bufferView" : 10,
            "componentType" : 5126,
            "count" : 108,
            "max" : [
                3.674999952316284,
                -2.4760279655456543,
                3.4883439540863037
            ],
            "min" : [
                -3.674999952316284,
                -8.386930465698242,
                -2.707993984222412
            ],
            "type" : "VEC3"
        },
        {
            "bufferView" : 11,
            "componentType" : 5126,
            "count" : 108,
            "type" : "VEC3"
        },
        {
            "bufferView" : 12,
            "componentType" : 5126,
            "count" : 108,
            "type" : "VEC2"
        },
        {
            "bufferView" : 13,
            "componentType" : 5123,
            "count" : 384,
            "type" : "SCALAR"
        }
    ],
    "bufferViews" : [
        {
            "buffer" : 0,
            "byteLength" : 324,
            "byteOffset" : 0
        },
        {
            "buffer" : 0,
            "byteLength" : 324,
            "byteOffset" : 324
        },
        {
            "buffer" : 0,
            "byteLength" : 216,
            "byteOffset" : 648
        },
        {
            "buffer" : 0,
            "byteLength" : 216,
            "byteOffset" : 864
        },
        {
            "buffer" : 0,
            "byteLength" : 81799,
            "byteOffset" : 1080
        },
        {
            "buffer" : 0,
            "byteLength" : 3684,
            "byteOffset" : 82880
        },
        {
            "buffer" : 0,
            "byteLength" : 3684,
            "byteOffset" : 86564
        },
        {
            "buffer" : 0,
            "byteLength" : 2456,
            "byteOffset" : 90248
        },
        {
            "buffer" : 0,
            "byteLength" : 2676,
            "byteOffset" : 92704
        },
        {
            "buffer" : 0,
            "byteLength" : 81799,
            "byteOffset" : 95380
        },
        {
            "buffer" : 0,
            "byteLength" : 1296,
            "byteOffset" : 177180
        },
        {
            "buffer" : 0,
            "byteLength" : 1296,
            "byteOffset" : 178476
        },
        {
            "buffer" : 0,
            "byteLength" : 864,
            "byteOffset" : 179772
        },
        {
            "buffer" : 0,
            "byteLength" : 768,
            "byteOffset" : 180636
        },
        {
            "buffer" : 0,
            "byteLength" : 81799,
            "byteOffset" : 181404
        }
    ],
    "buffers" : [
        {
            "byteLength" : 263204,
            "uri" : "data:application/octet-stream;base64,"
        }
    ]
}
