{
    "asset" : {
        "generator" : "Khronos Blender glTF 2.0 I/O",
        "version" : "2.0"
    },
    "scene" : 0,
    "scenes" : [
        {
            "name" : "Scene",
            "nodes" : [
                0
            ]
        }
    ],
    "nodes" : [
        {
            "mesh" : 0,
            "name" : "Vaporeon.001",
            "rotation" : [
                0.7071068286895752,
                0,
                0,
                0.7071067094802856
            ]
        }
    ],
    "materials" : [
        {
            "name" : "mat4.001",
            "pbrMetallicRoughness" : {
                "baseColorTexture" : {
                    "index" : 0,
                    "texCoord" : 0
                },
                "metallicFactor" : 0,
                "roughnessFactor" : 0.8945907354354858
            }
        },
        {
            "name" : "mat2.002",
            "pbrMetallicRoughness" : {
                "baseColorTexture" : {
                    "index" : 1,
                    "texCoord" : 0
                },
                "metallicFactor" : 0,
                "roughnessFactor" : 0.8945907354354858
            }
        },
        {
            "name" : "mat3.002",
            "pbrMetallicRoughness" : {
                "baseColorTexture" : {
                    "index" : 2,
                    "texCoord" : 0
                },
                "metallicFactor" : 0,
                "roughnessFactor" : 0.8945907354354858
            }
        },
        {
            "name" : "mat1.002",
            "pbrMetallicRoughness" : {
                "baseColorTexture" : {
                    "index" : 3,
                    "texCoord" : 0
                },
                "metallicFactor" : 0,
                "roughnessFactor" : 0.8945907354354858
            }
        }
    ],
    "meshes" : [
        {
            "name" : "Vaporeon.001",
            "primitives" : [
                {
                    "attributes" : {
                        "POSITION" : 0,
                        "NORMAL" : 1,
                        "TEXCOORD_0" : 2
                    },
                    "indices" : 3,
                    "material" : 0
                },
                {
                    "attributes" : {
                        "POSITION" : 4,
                        "NORMAL" : 5,
                        "TEXCOORD_0" : 6
                    },
                    "indices" : 7,
                    "material" : 1
                },
                {
                    "attributes" : {
                        "POSITION" : 8,
                        "NORMAL" : 9,
                        "TEXCOORD_0" : 10
                    },
                    "indices" : 11,
                    "material" : 2
                },
                {
                    "attributes" : {
                        "POSITION" : 12,
                        "NORMAL" : 13,
                        "TEXCOORD_0" : 14
                    },
                    "indices" : 15,
                    "material" : 3
                }
            ]
        }
    ],
    "textures" : [
        {
            "source" : 0
        },
        {
            "source" : 1
        },
        {
            "source" : 2
        },
        {
            "source" : 3
        }
    ],
    "images" : [
        {
            "bufferView" : 4,
            "mimeType" : "image/png",
            "name" : "ShowersMouthDh.tga.001"
        },
        {
            "bufferView" : 9,
            "mimeType" : "image/png",
            "name" : "ShowersEyeDh.tga.001"
        },
        {
            "bufferView" : 14,
            "mimeType" : "image/png",
            "name" : "ShowersFilletDh.tga.001"
        },
        {
            "bufferView" : 19,
            "mimeType" : "image/png",
            "name" : "ShowersDh.tga.001"
        }
    ],
    "accessors" : [
        {
            "bufferView" : 0,
            "componentType" : 5126,
            "count" : 38,
            "max" : [
                0.3642599880695343,
                5.676736831665039,
                -3.5618178844451904
            ],
            "min" : [
                -0.3642599880695343,
                5.135512828826904,
                -4.226231098175049
            ],
            "type" : "VEC3"
        },
        {
            "bufferView" : 1,
            "componentType" : 5126,
            "count" : 38,
            "type" : "VEC3"
        },
        {
            "bufferView" : 2,
            "componentType" : 5126,
            "count" : 38,
            "type" : "VEC2"
        },
        {
            "bufferView" : 3,
            "componentType" : 5123,
            "count" : 138,
            "type" : "SCALAR"
        },
        {
            "bufferView" : 5,
            "componentType" : 5126,
            "count" : 30,
            "max" : [
                1.1635600328445435,
                5.495954990386963,
                -4.211545944213867
            ],
            "min" : [
                -1.1635589599609375,
                4.505178928375244,
                -5.118924140930176
            ],
            "type" : "VEC3"
        },
        {
            "bufferView" : 6,
            "componentType" : 5126,
            "count" : 30,
            "type" : "VEC3"
        },
        {
            "bufferView" : 7,
            "componentType" : 5126,
            "count" : 30,
            "type" : "VEC2"
        },
        {
            "bufferView" : 8,
            "componentType" : 5123,
            "count" : 84,
            "type" : "SCALAR"
        },
        {
            "bufferView" : 10,
            "componentType" : 5126,
            "count" : 100,
            "max" : [
                0.007021000143140554,
                2.7540810108184814,
                -4.033073902130127
            ],
            "min" : [
                0,
                -10.553549766540527,
                -5.198544025421143
            ],
            "type" : "VEC3"
        },
        {
            "bufferView" : 11,
            "componentType" : 5126,
            "count" : 100,
            "type" : "VEC3"
        },
        {
            "bufferView" : 12,
            "componentType" : 5126,
            "count" : 100,
            "type" : "VEC2"
        },
        {
            "bufferView" : 13,
            "componentType" : 5123,
            "count" : 144,
            "type" : "SCALAR"
        },
        {
            "bufferView" : 15,
            "componentType" : 5126,
            "count" : 1294,
            "max" : [
                3.520313024520874,
                5.676736831665039,
                9.999999974752427e-07
            ],
            "min" : [
                -3.5203120708465576,
                -12.471501350402832,
                -8.833072662353516
            ],
            "type" : "VEC3"
        },
        {
            "bufferView" : 16,
            "componentType" : 5126,
            "count" : 1294,
            "type" : "VEC3"
        },
        {
            "bufferView" : 17,
            "componentType" : 5126,
            "count" : 1294,
            "type" : "VEC2"
        },
        {
            "bufferView" : 18,
            "componentType" : 5123,
            "count" : 4386,
            "type" : "SCALAR"
        }
    ],
    "bufferViews" : [
        {
            "buffer" : 0,
            "byteLength" : 456,
            "byteOffset" : 0
        },
        {
            "buffer" : 0,
            "byteLength" : 456,
            "byteOffset" : 456
        },
        {
            "buffer" : 0,
            "byteLength" : 304,
            "byteOffset" : 912
        },
        {
            "buffer" : 0,
            "byteLength" : 276,
            "byteOffset" : 1216
        },
        {
            "buffer" : 0,
            "byteLength" : 7185,
            "byteOffset" : 1492
        },
        {
            "buffer" : 0,
            "byteLength" : 360,
            "byteOffset" : 8680
        },
        {
            "buffer" : 0,
            "byteLength" : 360,
            "byteOffset" : 9040
        },
        {
            "buffer" : 0,
            "byteLength" : 240,
            "byteOffset" : 9400
        },
        {
            "buffer" : 0,
            "byteLength" : 168,
            "byteOffset" : 9640
        },
        {
            "buffer" : 0,
            "byteLength" : 11109,
            "byteOffset" : 9808
        },
        {
            "buffer" : 0,
            "byteLength" : 1200,
            "byteOffset" : 20920
        },
        {
            "buffer" : 0,
            "byteLength" : 1200,
            "byteOffset" : 22120
        },
        {
            "buffer" : 0,
            "byteLength" : 800,
            "byteOffset" : 23320
        },
        {
            "buffer" : 0,
            "byteLength" : 288,
            "byteOffset" : 24120
        },
        {
            "buffer" : 0,
            "byteLength" : 1645,
            "byteOffset" : 24408
        },
        {
            "buffer" : 0,
            "byteLength" : 15528,
            "byteOffset" : 26056
        },
        {
            "buffer" : 0,
            "byteLength" : 15528,
            "byteOffset" : 41584
        },
        {
            "buffer" : 0,
            "byteLength" : 10352,
            "byteOffset" : 57112
        },
        {
            "buffer" : 0,
            "byteLength" : 8772,
            "byteOffset" : 67464
        },
        {
            "buffer" : 0,
            "byteLength" : 11230,
            "byteOffset" : 76236
        }
    ],
    "buffers" : [
        {
            "byteLength" : 87468,
            "uri" : "data:application/octet-stream;base64,"
        }
    ]
}
