{
    "asset" : {
        "generator" : "Khronos Blender glTF 2.0 I/O",
        "version" : "2.0"
    },
    "scene" : 0,
    "scenes" : [
        {
            "name" : "Scene",
            "nodes" : [
                0
            ]
        }
    ],
    "nodes" : [
        {
            "mesh" : 0,
            "name" : "kongpang",
            "rotation" : [
                1,
                0,
                0,
                -1.6292068494294654e-07
            ]
        }
    ],
    "materials" : [
        {
            "name" : "mat_0.011",
            "pbrMetallicRoughness" : {
                "baseColorTexture" : {
                    "index" : 0,
                    "texCoord" : 0
                },
                "metallicFactor" : 0,
                "roughnessFactor" : 0.6732679605484009
            }
        },
        {
            "name" : "mat_1.010",
            "pbrMetallicRoughness" : {
                "baseColorTexture" : {
                    "index" : 1,
                    "texCoord" : 0
                },
                "metallicFactor" : 0,
                "roughnessFactor" : 0.6732679605484009
            }
        },
        {
            "name" : "mat_2.010",
            "pbrMetallicRoughness" : {
                "baseColorTexture" : {
                    "index" : 2,
                    "texCoord" : 0
                },
                "metallicFactor" : 0,
                "roughnessFactor" : 0.6732679605484009
            }
        },
        {
            "name" : "mat_3.006",
            "pbrMetallicRoughness" : {
                "baseColorTexture" : {
                    "index" : 3,
                    "texCoord" : 0
                },
                "metallicFactor" : 0,
                "roughnessFactor" : 0.6542203426361084
            }
        },
        {
            "name" : "mat_4.006",
            "pbrMetallicRoughness" : {
                "baseColorTexture" : {
                    "index" : 4,
                    "texCoord" : 0
                },
                "metallicFactor" : 0,
                "roughnessFactor" : 0.6732679605484009
            }
        },
        {
            "name" : "mat_5.005",
            "pbrMetallicRoughness" : {
                "baseColorTexture" : {
                    "index" : 5,
                    "texCoord" : 0
                },
                "metallicFactor" : 0,
                "roughnessFactor" : 0.6732679605484009
            }
        },
        {
            "name" : "mat_6.005",
            "pbrMetallicRoughness" : {
                "baseColorTexture" : {
                    "index" : 6,
                    "texCoord" : 0
                },
                "metallicFactor" : 0,
                "roughnessFactor" : 0.6399345993995667
            }
        },
        {
            "name" : "mat_7.005",
            "pbrMetallicRoughness" : {
                "baseColorFactor" : [
                    0.800000011920929,
                    0.800000011920929,
                    0.800000011920929,
                    1
                ],
                "metallicFactor" : 0,
                "roughnessFactor" : 0.6732679605484009
            }
        },
        {
            "name" : "mat_8.005",
            "pbrMetallicRoughness" : {
                "baseColorTexture" : {
                    "index" : 7,
                    "texCoord" : 0
                },
                "metallicFactor" : 0,
                "roughnessFactor" : 0.6732679605484009
            }
        },
        {
            "name" : "mat_9.005",
            "pbrMetallicRoughness" : {
                "baseColorTexture" : {
                    "index" : 8,
                    "texCoord" : 0
                },
                "metallicFactor" : 0,
                "roughnessFactor" : 0.6732679605484009
            }
        },
        {
            "name" : "mat_10.005",
            "pbrMetallicRoughness" : {
                "baseColorTexture" : {
                    "index" : 9,
                    "texCoord" : 0
                },
                "metallicFactor" : 0,
                "roughnessFactor" : 0.6732679605484009
            }
        }
    ],
    "meshes" : [
        {
            "name" : "kongpang",
            "primitives" : [
                {
                    "attributes" : {
                        "POSITION" : 0,
                        "NORMAL" : 1,
                        "TEXCOORD_0" : 2
                    },
                    "indices" : 3,
                    "material" : 0
                },
                {
                    "attributes" : {
                        "POSITION" : 4,
                        "NORMAL" : 5,
                        "TEXCOORD_0" : 6
                    },
                    "indices" : 7,
                    "material" : 1
                },
                {
                    "attributes" : {
                        "POSITION" : 8,
                        "NORMAL" : 9,
                        "TEXCOORD_0" : 10
                    },
                    "indices" : 11,
                    "material" : 2
                },
                {
                    "attributes" : {
                        "POSITION" : 12,
                        "NORMAL" : 13,
                        "TEXCOORD_0" : 14
                    },
                    "indices" : 15,
                    "material" : 3
                },
                {
                    "attributes" : {
                        "POSITION" : 16,
                        "NORMAL" : 17,
                        "TEXCOORD_0" : 18
                    },
                    "indices" : 19,
                    "material" : 4
                },
                {
                    "attributes" : {
                        "POSITION" : 20,
                        "NORMAL" : 21,
                        "TEXCOORD_0" : 22
                    },
                    "indices" : 23,
                    "material" : 5
                },
                {
                    "attributes" : {
                        "POSITION" : 24,
                        "NORMAL" : 25,
                        "TEXCOORD_0" : 26
                    },
                    "indices" : 27,
                    "material" : 6
                },
                {
                    "attributes" : {
                        "POSITION" : 28,
                        "NORMAL" : 29,
                        "TEXCOORD_0" : 30
                    },
                    "indices" : 31,
                    "material" : 7
                },
                {
                    "attributes" : {
                        "POSITION" : 32,
                        "NORMAL" : 33,
                        "TEXCOORD_0" : 34
                    },
                    "indices" : 35,
                    "material" : 8
                },
                {
                    "attributes" : {
                        "POSITION" : 36,
                        "NORMAL" : 37,
                        "TEXCOORD_0" : 38
                    },
                    "indices" : 39,
                    "material" : 9
                },
                {
                    "attributes" : {
                        "POSITION" : 40,
                        "NORMAL" : 41,
                        "TEXCOORD_0" : 42
                    },
                    "indices" : 43,
                    "material" : 10
                }
            ]
        }
    ],
    "textures" : [
        {
            "source" : 0
        },
        {
            "source" : 1
        },
        {
            "source" : 2
        },
        {
            "source" : 3
        },
        {
            "source" : 4
        },
        {
            "source" : 5
        },
        {
            "source" : 6
        },
        {
            "source" : 7
        },
        {
            "source" : 8
        },
        {
            "source" : 9
        }
    ],
    "images" : [
        {
            "bufferView" : 4,
            "mimeType" : "image/png",
            "name" : "kongpang_0_0.tga"
        },
        {
            "bufferView" : 9,
            "mimeType" : "image/png",
            "name" : "kongpang_0_1.tga"
        },
        {
            "bufferView" : 14,
            "mimeType" : "image/png",
            "name" : "kongpang_0_2.tga"
        },
        {
            "bufferView" : 19,
            "mimeType" : "image/png",
            "name" : "kongpang_0_3.tga"
        },
        {
            "bufferView" : 24,
            "mimeType" : "image/png",
            "name" : "kongpang_0_4.tga"
        },
        {
            "bufferView" : 29,
            "mimeType" : "image/png",
            "name" : "kongpang_0_5.tga"
        },
        {
            "bufferView" : 34,
            "mimeType" : "image/png",
            "name" : "kongpang_0_6.tga"
        },
        {
            "bufferView" : 43,
            "mimeType" : "image/png",
            "name" : "kongpang_0_7.tga"
        },
        {
            "bufferView" : 48,
            "mimeType" : "image/png",
            "name" : "kongpang_0_8.tga"
        },
        {
            "bufferView" : 53,
            "mimeType" : "image/png",
            "name" : "kongpang_0_9.tga"
        }
    ],
    "accessors" : [
        {
            "bufferView" : 0,
            "componentType" : 5126,
            "count" : 147,
            "max" : [
                5.0794501304626465,
                -1.209589958190918,
                5.2116899490356445
            ],
            "min" : [
                -4.827939987182617,
                -9.918709754943848,
                -4.3543500900268555
            ],
            "type" : "VEC3"
        },
        {
            "bufferView" : 1,
            "componentType" : 5126,
            "count" : 147,
            "type" : "VEC3"
        },
        {
            "bufferView" : 2,
            "componentType" : 5126,
            "count" : 147,
            "type" : "VEC2"
        },
        {
            "bufferView" : 3,
            "componentType" : 5123,
            "count" : 249,
            "type" : "SCALAR"
        },
        {
            "bufferView" : 5,
            "componentType" : 5126,
            "count" : 176,
            "max" : [
                4.970469951629639,
                -1.9436299800872803,
                4.70665979385376
            ],
            "min" : [
                -4.975100040435791,
                -12.046899795532227,
                -4.7865400314331055
            ],
            "type" : "VEC3"
        },
        {
            "bufferView" : 6,
            "componentType" : 5126,
            "count" : 176,
            "type" : "VEC3"
        },
        {
            "bufferView" : 7,
            "componentType" : 5126,
            "count" : 176,
            "type" : "VEC2"
        },
        {
            "bufferView" : 8,
            "componentType" : 5123,
            "count" : 303,
            "type" : "SCALAR"
        },
        {
            "bufferView" : 10,
            "componentType" : 5126,
            "count" : 116,
            "max" : [
                4.8821001052856445,
                -0.661516010761261,
                5.027589797973633
            ],
            "min" : [
                -5.076149940490723,
                -9.815500259399414,
                -4.969870090484619
            ],
            "type" : "VEC3"
        },
        {
            "bufferView" : 11,
            "componentType" : 5126,
            "count" : 116,
            "type" : "VEC3"
        },
        {
            "bufferView" : 12,
            "componentType" : 5126,
            "count" : 116,
            "type" : "VEC2"
        },
        {
            "bufferView" : 13,
            "componentType" : 5123,
            "count" : 231,
            "type" : "SCALAR"
        },
        {
            "bufferView" : 15,
            "componentType" : 5126,
            "count" : 87,
            "max" : [
                3.115609884262085,
                -5.379449844360352,
                -3.7388200759887695
            ],
            "min" : [
                -3.0283501148223877,
                -8.188480377197266,
                -5.064469814300537
            ],
            "type" : "VEC3"
        },
        {
            "bufferView" : 16,
            "componentType" : 5126,
            "count" : 87,
            "type" : "VEC3"
        },
        {
            "bufferView" : 17,
            "componentType" : 5126,
            "count" : 87,
            "type" : "VEC2"
        },
        {
            "bufferView" : 18,
            "componentType" : 5123,
            "count" : 180,
            "type" : "SCALAR"
        },
        {
            "bufferView" : 20,
            "componentType" : 5126,
            "count" : 12,
            "max" : [
                1.5501799583435059,
                -7.079110145568848,
                4.490729808807373
            ],
            "min" : [
                -1.6685500144958496,
                -9.852930068969727,
                -0.17985500395298004
            ],
            "type" : "VEC3"
        },
        {
            "bufferView" : 21,
            "componentType" : 5126,
            "count" : 12,
            "type" : "VEC3"
        },
        {
            "bufferView" : 22,
            "componentType" : 5126,
            "count" : 12,
            "type" : "VEC2"
        },
        {
            "bufferView" : 23,
            "componentType" : 5123,
            "count" : 12,
            "type" : "SCALAR"
        },
        {
            "bufferView" : 25,
            "componentType" : 5126,
            "count" : 105,
            "max" : [
                5.0794501304626465,
                -0.29236799478530884,
                5.2116899490356445
            ],
            "min" : [
                -5.076149940490723,
                -9.287130355834961,
                -4.969870090484619
            ],
            "type" : "VEC3"
        },
        {
            "bufferView" : 26,
            "componentType" : 5126,
            "count" : 105,
            "type" : "VEC3"
        },
        {
            "bufferView" : 27,
            "componentType" : 5126,
            "count" : 105,
            "type" : "VEC2"
        },
        {
            "bufferView" : 28,
            "componentType" : 5123,
            "count" : 177,
            "type" : "SCALAR"
        },
        {
            "bufferView" : 30,
            "componentType" : 5126,
            "count" : 38,
            "max" : [
                1.7842199802398682,
                -4.160470008850098,
                -4.501220226287842
            ],
            "min" : [
                -0.859188973903656,
                -5.883790016174316,
                -5.280640125274658
            ],
            "type" : "VEC3"
        },
        {
            "bufferView" : 31,
            "componentType" : 5126,
            "count" : 38,
            "type" : "VEC3"
        },
        {
            "bufferView" : 32,
            "componentType" : 5126,
            "count" : 38,
            "type" : "VEC2"
        },
        {
            "bufferView" : 33,
            "componentType" : 5123,
            "count" : 123,
            "type" : "SCALAR"
        },
        {
            "bufferView" : 35,
            "componentType" : 5126,
            "count" : 9,
            "max" : [
                3.25334095954895,
                -10.301300048828125,
                -5.030779838562012
            ],
            "min" : [
                1.5879499912261963,
                -11.578399658203125,
                -8.510009765625
            ],
            "type" : "VEC3"
        },
        {
            "bufferView" : 36,
            "componentType" : 5126,
            "count" : 9,
            "type" : "VEC3"
        },
        {
            "bufferView" : 37,
            "componentType" : 5126,
            "count" : 9,
            "type" : "VEC2"
        },
        {
            "bufferView" : 38,
            "componentType" : 5123,
            "count" : 9,
            "type" : "SCALAR"
        },
        {
            "bufferView" : 39,
            "componentType" : 5126,
            "count" : 30,
            "max" : [
                1.7682199478149414,
                -8.130169868469238,
                -3.5764501094818115
            ],
            "min" : [
                -1.747630000114441,
                -10.30370044708252,
                -5.198860168457031
            ],
            "type" : "VEC3"
        },
        {
            "bufferView" : 40,
            "componentType" : 5126,
            "count" : 30,
            "type" : "VEC3"
        },
        {
            "bufferView" : 41,
            "componentType" : 5126,
            "count" : 30,
            "type" : "VEC2"
        },
        {
            "bufferView" : 42,
            "componentType" : 5123,
            "count" : 42,
            "type" : "SCALAR"
        },
        {
            "bufferView" : 44,
            "componentType" : 5126,
            "count" : 112,
            "max" : [
                4.246449947357178,
                -0.254269003868103,
                2.059880018234253
            ],
            "min" : [
                -4.246449947357178,
                -4.791470050811768,
                -5.351150035858154
            ],
            "type" : "VEC3"
        },
        {
            "bufferView" : 45,
            "componentType" : 5126,
            "count" : 112,
            "type" : "VEC3"
        },
        {
            "bufferView" : 46,
            "componentType" : 5126,
            "count" : 112,
            "type" : "VEC2"
        },
        {
            "bufferView" : 47,
            "componentType" : 5123,
            "count" : 267,
            "type" : "SCALAR"
        },
        {
            "bufferView" : 49,
            "componentType" : 5126,
            "count" : 77,
            "max" : [
                5.774040222167969,
                0.46028000116348267,
                1.3696199655532837
            ],
            "min" : [
                -5.7740302085876465,
                -1.6892199516296387,
                -3.017210006713867
            ],
            "type" : "VEC3"
        },
        {
            "bufferView" : 50,
            "componentType" : 5126,
            "count" : 77,
            "type" : "VEC3"
        },
        {
            "bufferView" : 51,
            "componentType" : 5126,
            "count" : 77,
            "type" : "VEC2"
        },
        {
            "bufferView" : 52,
            "componentType" : 5123,
            "count" : 150,
            "type" : "SCALAR"
        }
    ],
    "bufferViews" : [
        {
            "buffer" : 0,
            "byteLength" : 1764,
            "byteOffset" : 0
        },
        {
            "buffer" : 0,
            "byteLength" : 1764,
            "byteOffset" : 1764
        },
        {
            "buffer" : 0,
            "byteLength" : 1176,
            "byteOffset" : 3528
        },
        {
            "buffer" : 0,
            "byteLength" : 498,
            "byteOffset" : 4704
        },
        {
            "buffer" : 0,
            "byteLength" : 1416,
            "byteOffset" : 5204
        },
        {
            "buffer" : 0,
            "byteLength" : 2112,
            "byteOffset" : 6620
        },
        {
            "buffer" : 0,
            "byteLength" : 2112,
            "byteOffset" : 8732
        },
        {
            "buffer" : 0,
            "byteLength" : 1408,
            "byteOffset" : 10844
        },
        {
            "buffer" : 0,
            "byteLength" : 606,
            "byteOffset" : 12252
        },
        {
            "buffer" : 0,
            "byteLength" : 1347,
            "byteOffset" : 12860
        },
        {
            "buffer" : 0,
            "byteLength" : 1392,
            "byteOffset" : 14208
        },
        {
            "buffer" : 0,
            "byteLength" : 1392,
            "byteOffset" : 15600
        },
        {
            "buffer" : 0,
            "byteLength" : 928,
            "byteOffset" : 16992
        },
        {
            "buffer" : 0,
            "byteLength" : 462,
            "byteOffset" : 17920
        },
        {
            "buffer" : 0,
            "byteLength" : 868,
            "byteOffset" : 18384
        },
        {
            "buffer" : 0,
            "byteLength" : 1044,
            "byteOffset" : 19252
        },
        {
            "buffer" : 0,
            "byteLength" : 1044,
            "byteOffset" : 20296
        },
        {
            "buffer" : 0,
            "byteLength" : 696,
            "byteOffset" : 21340
        },
        {
            "buffer" : 0,
            "byteLength" : 360,
            "byteOffset" : 22036
        },
        {
            "buffer" : 0,
            "byteLength" : 6858,
            "byteOffset" : 22396
        },
        {
            "buffer" : 0,
            "byteLength" : 144,
            "byteOffset" : 29256
        },
        {
            "buffer" : 0,
            "byteLength" : 144,
            "byteOffset" : 29400
        },
        {
            "buffer" : 0,
            "byteLength" : 96,
            "byteOffset" : 29544
        },
        {
            "buffer" : 0,
            "byteLength" : 24,
            "byteOffset" : 29640
        },
        {
            "buffer" : 0,
            "byteLength" : 162,
            "byteOffset" : 29664
        },
        {
            "buffer" : 0,
            "byteLength" : 1260,
            "byteOffset" : 29828
        },
        {
            "buffer" : 0,
            "byteLength" : 1260,
            "byteOffset" : 31088
        },
        {
            "buffer" : 0,
            "byteLength" : 840,
            "byteOffset" : 32348
        },
        {
            "buffer" : 0,
            "byteLength" : 354,
            "byteOffset" : 33188
        },
        {
            "buffer" : 0,
            "byteLength" : 1226,
            "byteOffset" : 33544
        },
        {
            "buffer" : 0,
            "byteLength" : 456,
            "byteOffset" : 34772
        },
        {
            "buffer" : 0,
            "byteLength" : 456,
            "byteOffset" : 35228
        },
        {
            "buffer" : 0,
            "byteLength" : 304,
            "byteOffset" : 35684
        },
        {
            "buffer" : 0,
            "byteLength" : 246,
            "byteOffset" : 35988
        },
        {
            "buffer" : 0,
            "byteLength" : 75,
            "byteOffset" : 36236
        },
        {
            "buffer" : 0,
            "byteLength" : 108,
            "byteOffset" : 36312
        },
        {
            "buffer" : 0,
            "byteLength" : 108,
            "byteOffset" : 36420
        },
        {
            "buffer" : 0,
            "byteLength" : 72,
            "byteOffset" : 36528
        },
        {
            "buffer" : 0,
            "byteLength" : 18,
            "byteOffset" : 36600
        },
        {
            "buffer" : 0,
            "byteLength" : 360,
            "byteOffset" : 36620
        },
        {
            "buffer" : 0,
            "byteLength" : 360,
            "byteOffset" : 36980
        },
        {
            "buffer" : 0,
            "byteLength" : 240,
            "byteOffset" : 37340
        },
        {
            "buffer" : 0,
            "byteLength" : 84,
            "byteOffset" : 37580
        },
        {
            "buffer" : 0,
            "byteLength" : 135,
            "byteOffset" : 37664
        },
        {
            "buffer" : 0,
            "byteLength" : 1344,
            "byteOffset" : 37800
        },
        {
            "buffer" : 0,
            "byteLength" : 1344,
            "byteOffset" : 39144
        },
        {
            "buffer" : 0,
            "byteLength" : 896,
            "byteOffset" : 40488
        },
        {
            "buffer" : 0,
            "byteLength" : 534,
            "byteOffset" : 41384
        },
        {
            "buffer" : 0,
            "byteLength" : 75,
            "byteOffset" : 41920
        },
        {
            "buffer" : 0,
            "byteLength" : 924,
            "byteOffset" : 41996
        },
        {
            "buffer" : 0,
            "byteLength" : 924,
            "byteOffset" : 42920
        },
        {
            "buffer" : 0,
            "byteLength" : 616,
            "byteOffset" : 43844
        },
        {
            "buffer" : 0,
            "byteLength" : 300,
            "byteOffset" : 44460
        },
        {
            "buffer" : 0,
            "byteLength" : 949,
            "byteOffset" : 44760
        }
    ],
    "buffers" : [
        {
            "byteLength" : 45712,
            "uri" : "data:application/octet-stream;base64,"
        }
    ]
}
