{
    "asset" : {
        "generator" : "Khronos Blender glTF 2.0 I/O",
        "version" : "2.0"
    },
    "scene" : 0,
    "scenes" : [
        {
            "name" : "1",
            "nodes" : [
                0
            ]
        }
    ],
    "nodes" : [
        {
            "mesh" : 0,
            "name" : "fushigibana_mat_1",
            "rotation" : [
                0.7071068286895752,
                0,
                0,
                0.7071068286895752
            ]
        }
    ],
    "materials" : [
        {
            "doubleSided" : true,
            "name" : "mat_1",
            "pbrMetallicRoughness" : {
                "baseColorTexture" : {
                    "index" : 0,
                    "texCoord" : 0
                },
                "metallicFactor" : 0,
                "roughnessFactor" : 0.5
            }
        },
        {
            "doubleSided" : true,
            "name" : "mat_2",
            "pbrMetallicRoughness" : {
                "baseColorTexture" : {
                    "index" : 1,
                    "texCoord" : 0
                },
                "metallicFactor" : 0,
                "roughnessFactor" : 0.8090909719467163
            }
        },
        {
            "doubleSided" : true,
            "name" : "mat_0",
            "pbrMetallicRoughness" : {
                "baseColorTexture" : {
                    "index" : 2,
                    "texCoord" : 0
                },
                "metallicFactor" : 0,
                "roughnessFactor" : 0.5
            }
        }
    ],
    "meshes" : [
        {
            "name" : "fushigibana_mat_1",
            "primitives" : [
                {
                    "attributes" : {
                        "POSITION" : 0,
                        "NORMAL" : 1,
                        "TEXCOORD_0" : 2
                    },
                    "indices" : 3,
                    "material" : 0
                },
                {
                    "attributes" : {
                        "POSITION" : 4,
                        "NORMAL" : 5,
                        "TEXCOORD_0" : 6
                    },
                    "indices" : 7,
                    "material" : 1
                },
                {
                    "attributes" : {
                        "POSITION" : 8,
                        "NORMAL" : 9,
                        "TEXCOORD_0" : 10
                    },
                    "indices" : 11,
                    "material" : 2
                }
            ]
        }
    ],
    "textures" : [
        {
            "source" : 0
        },
        {
            "source" : 1
        },
        {
            "source" : 2
        }
    ],
    "images" : [
        {
            "bufferView" : 4,
            "mimeType" : "image/png",
            "name" : "fushigibana_0_3.tga"
        },
        {
            "bufferView" : 9,
            "mimeType" : "image/png",
            "name" : "fushigibana_0_5.tga"
        },
        {
            "bufferView" : 14,
            "mimeType" : "image/png",
            "name" : "fushigibana_0_0.tga"
        }
    ],
    "accessors" : [
        {
            "bufferView" : 0,
            "componentType" : 5126,
            "count" : 36,
            "max" : [
                4.4452290534973145,
                13.370080947875977,
                -6.00206184387207
            ],
            "min" : [
                -4.4452290534973145,
                10.930333137512207,
                -9.176379203796387
            ],
            "type" : "VEC3"
        },
        {
            "bufferView" : 1,
            "componentType" : 5126,
            "count" : 36,
            "type" : "VEC3"
        },
        {
            "bufferView" : 2,
            "componentType" : 5126,
            "count" : 36,
            "type" : "VEC2"
        },
        {
            "bufferView" : 3,
            "componentType" : 5123,
            "count" : 162,
            "type" : "SCALAR"
        },
        {
            "bufferView" : 5,
            "componentType" : 5126,
            "count" : 373,
            "max" : [
                13.764809608459473,
                15.464265823364258,
                -9.399925231933594
            ],
            "min" : [
                -13.791533470153809,
                -11.943288803100586,
                -17.825611114501953
            ],
            "type" : "VEC3"
        },
        {
            "bufferView" : 6,
            "componentType" : 5126,
            "count" : 373,
            "type" : "VEC3"
        },
        {
            "bufferView" : 7,
            "componentType" : 5126,
            "count" : 373,
            "type" : "VEC2"
        },
        {
            "bufferView" : 8,
            "componentType" : 5123,
            "count" : 1128,
            "type" : "SCALAR"
        },
        {
            "bufferView" : 10,
            "componentType" : 5126,
            "count" : 901,
            "max" : [
                11.087597846984863,
                15.488192558288574,
                0.41823700070381165
            ],
            "min" : [
                -11.087597846984863,
                -8.047775268554688,
                -10.813739776611328
            ],
            "type" : "VEC3"
        },
        {
            "bufferView" : 11,
            "componentType" : 5126,
            "count" : 901,
            "type" : "VEC3"
        },
        {
            "bufferView" : 12,
            "componentType" : 5126,
            "count" : 901,
            "type" : "VEC2"
        },
        {
            "bufferView" : 13,
            "componentType" : 5123,
            "count" : 2844,
            "type" : "SCALAR"
        }
    ],
    "bufferViews" : [
        {
            "buffer" : 0,
            "byteLength" : 432,
            "byteOffset" : 0
        },
        {
            "buffer" : 0,
            "byteLength" : 432,
            "byteOffset" : 432
        },
        {
            "buffer" : 0,
            "byteLength" : 288,
            "byteOffset" : 864
        },
        {
            "buffer" : 0,
            "byteLength" : 324,
            "byteOffset" : 1152
        },
        {
            "buffer" : 0,
            "byteLength" : 5767,
            "byteOffset" : 1476
        },
        {
            "buffer" : 0,
            "byteLength" : 4476,
            "byteOffset" : 7244
        },
        {
            "buffer" : 0,
            "byteLength" : 4476,
            "byteOffset" : 11720
        },
        {
            "buffer" : 0,
            "byteLength" : 2984,
            "byteOffset" : 16196
        },
        {
            "buffer" : 0,
            "byteLength" : 2256,
            "byteOffset" : 19180
        },
        {
            "buffer" : 0,
            "byteLength" : 15549,
            "byteOffset" : 21436
        },
        {
            "buffer" : 0,
            "byteLength" : 10812,
            "byteOffset" : 36988
        },
        {
            "buffer" : 0,
            "byteLength" : 10812,
            "byteOffset" : 47800
        },
        {
            "buffer" : 0,
            "byteLength" : 7208,
            "byteOffset" : 58612
        },
        {
            "buffer" : 0,
            "byteLength" : 5688,
            "byteOffset" : 65820
        },
        {
            "buffer" : 0,
            "byteLength" : 21831,
            "byteOffset" : 71508
        }
    ],
    "buffers" : [
        {
            "byteLength" : 93340,
            "uri" : "data:application/octet-stream;base64,"
        }
    ]
}
