{
    "asset" : {
        "generator" : "Khronos Blender glTF 2.0 I/O",
        "version" : "2.0"
    },
    "scene" : 0,
    "scenes" : [
        {
            "name" : "Scene",
            "nodes" : [
                0
            ]
        }
    ],
    "nodes" : [
        {
            "mesh" : 0,
            "name" : "utsubot",
            "rotation" : [
                0.9659258723258972,
                0,
                0,
                0.25881901383399963
            ]
        }
    ],
    "materials" : [
        {
            "name" : "mat_0.001",
            "pbrMetallicRoughness" : {
                "baseColorTexture" : {
                    "index" : 0,
                    "texCoord" : 0
                },
                "metallicFactor" : 0,
                "roughnessFactor" : 0.6732679605484009
            }
        },
        {
            "name" : "mat_1.001",
            "pbrMetallicRoughness" : {
                "baseColorTexture" : {
                    "index" : 1,
                    "texCoord" : 0
                },
                "metallicFactor" : 0,
                "roughnessFactor" : 0.6732679605484009
            }
        },
        {
            "name" : "mat_2.001",
            "pbrMetallicRoughness" : {
                "baseColorTexture" : {
                    "index" : 2,
                    "texCoord" : 0
                },
                "metallicFactor" : 0,
                "roughnessFactor" : 0.6732679605484009
            }
        },
        {
            "name" : "mat_3.001",
            "pbrMetallicRoughness" : {
                "baseColorTexture" : {
                    "index" : 3,
                    "texCoord" : 0
                },
                "metallicFactor" : 0,
                "roughnessFactor" : 0.6732679605484009
            }
        },
        {
            "name" : "mat_4.001",
            "pbrMetallicRoughness" : {
                "baseColorTexture" : {
                    "index" : 4,
                    "texCoord" : 0
                },
                "metallicFactor" : 0,
                "roughnessFactor" : 0.6732679605484009
            }
        },
        {
            "name" : "mat_5.001",
            "pbrMetallicRoughness" : {
                "baseColorTexture" : {
                    "index" : 5,
                    "texCoord" : 0
                },
                "metallicFactor" : 0,
                "roughnessFactor" : 0.6732679605484009
            }
        },
        {
            "name" : "mat_6.001",
            "pbrMetallicRoughness" : {
                "baseColorTexture" : {
                    "index" : 6,
                    "texCoord" : 0
                },
                "metallicFactor" : 0,
                "roughnessFactor" : 0.6732679605484009
            }
        },
        {
            "name" : "mat_7.001",
            "pbrMetallicRoughness" : {
                "baseColorTexture" : {
                    "index" : 7,
                    "texCoord" : 0
                },
                "metallicFactor" : 0,
                "roughnessFactor" : 0.6732679605484009
            }
        },
        {
            "name" : "mat_8",
            "pbrMetallicRoughness" : {
                "baseColorTexture" : {
                    "index" : 8,
                    "texCoord" : 0
                },
                "metallicFactor" : 0,
                "roughnessFactor" : 0.6732679605484009
            }
        },
        {
            "name" : "mat_9",
            "pbrMetallicRoughness" : {
                "baseColorTexture" : {
                    "index" : 9,
                    "texCoord" : 0
                },
                "metallicFactor" : 0,
                "roughnessFactor" : 0.6732679605484009
            }
        }
    ],
    "meshes" : [
        {
            "name" : "utsubot",
            "primitives" : [
                {
                    "attributes" : {
                        "POSITION" : 0,
                        "NORMAL" : 1,
                        "TEXCOORD_0" : 2
                    },
                    "indices" : 3,
                    "material" : 0
                },
                {
                    "attributes" : {
                        "POSITION" : 4,
                        "NORMAL" : 5,
                        "TEXCOORD_0" : 6
                    },
                    "indices" : 7,
                    "material" : 1
                },
                {
                    "attributes" : {
                        "POSITION" : 8,
                        "NORMAL" : 9,
                        "TEXCOORD_0" : 10
                    },
                    "indices" : 11,
                    "material" : 2
                },
                {
                    "attributes" : {
                        "POSITION" : 12,
                        "NORMAL" : 13,
                        "TEXCOORD_0" : 14
                    },
                    "indices" : 15,
                    "material" : 3
                },
                {
                    "attributes" : {
                        "POSITION" : 16,
                        "NORMAL" : 17,
                        "TEXCOORD_0" : 18
                    },
                    "indices" : 19,
                    "material" : 4
                },
                {
                    "attributes" : {
                        "POSITION" : 20,
                        "NORMAL" : 21,
                        "TEXCOORD_0" : 22
                    },
                    "indices" : 23,
                    "material" : 5
                },
                {
                    "attributes" : {
                        "POSITION" : 24,
                        "NORMAL" : 25,
                        "TEXCOORD_0" : 26
                    },
                    "indices" : 27,
                    "material" : 6
                },
                {
                    "attributes" : {
                        "POSITION" : 28,
                        "NORMAL" : 29,
                        "TEXCOORD_0" : 30
                    },
                    "indices" : 31,
                    "material" : 7
                },
                {
                    "attributes" : {
                        "POSITION" : 32,
                        "NORMAL" : 33,
                        "TEXCOORD_0" : 34
                    },
                    "indices" : 35,
                    "material" : 8
                },
                {
                    "attributes" : {
                        "POSITION" : 36,
                        "NORMAL" : 37,
                        "TEXCOORD_0" : 38
                    },
                    "indices" : 39,
                    "material" : 9
                }
            ]
        }
    ],
    "textures" : [
        {
            "source" : 0
        },
        {
            "source" : 1
        },
        {
            "source" : 2
        },
        {
            "source" : 3
        },
        {
            "source" : 4
        },
        {
            "source" : 5
        },
        {
            "source" : 6
        },
        {
            "source" : 7
        },
        {
            "source" : 8
        },
        {
            "source" : 9
        }
    ],
    "images" : [
        {
            "bufferView" : 4,
            "mimeType" : "image/png",
            "name" : "utsubot_0_0.tga"
        },
        {
            "bufferView" : 9,
            "mimeType" : "image/png",
            "name" : "utsubot_0_1.tga"
        },
        {
            "bufferView" : 14,
            "mimeType" : "image/png",
            "name" : "utsubot_0_2.tga"
        },
        {
            "bufferView" : 19,
            "mimeType" : "image/png",
            "name" : "utsubot_0_3.tga"
        },
        {
            "bufferView" : 24,
            "mimeType" : "image/png",
            "name" : "utsubot_0_4.tga"
        },
        {
            "bufferView" : 29,
            "mimeType" : "image/png",
            "name" : "utsubot_0_5.tga"
        },
        {
            "bufferView" : 34,
            "mimeType" : "image/png",
            "name" : "utsubot_0_6.tga"
        },
        {
            "bufferView" : 39,
            "mimeType" : "image/png",
            "name" : "utsubot_0_7.tga"
        },
        {
            "bufferView" : 44,
            "mimeType" : "image/png",
            "name" : "utsubot_0_8.tga"
        },
        {
            "bufferView" : 49,
            "mimeType" : "image/png",
            "name" : "utsubot_0_9.tga"
        }
    ],
    "accessors" : [
        {
            "bufferView" : 0,
            "componentType" : 5126,
            "count" : 42,
            "max" : [
                3.4424099922180176,
                -0.5395600199699402,
                -0.07117900252342224
            ],
            "min" : [
                -3.4424099922180176,
                -5.459270000457764,
                -6.219510078430176
            ],
            "type" : "VEC3"
        },
        {
            "bufferView" : 1,
            "componentType" : 5126,
            "count" : 42,
            "type" : "VEC3"
        },
        {
            "bufferView" : 2,
            "componentType" : 5126,
            "count" : 42,
            "type" : "VEC2"
        },
        {
            "bufferView" : 3,
            "componentType" : 5123,
            "count" : 60,
            "type" : "SCALAR"
        },
        {
            "bufferView" : 5,
            "componentType" : 5126,
            "count" : 149,
            "max" : [
                4.072879791259766,
                6.979229927062988,
                6.875309944152832
            ],
            "min" : [
                -4.072879791259766,
                -4.690110206604004,
                -3.9454898834228516
            ],
            "type" : "VEC3"
        },
        {
            "bufferView" : 6,
            "componentType" : 5126,
            "count" : 149,
            "type" : "VEC3"
        },
        {
            "bufferView" : 7,
            "componentType" : 5126,
            "count" : 149,
            "type" : "VEC2"
        },
        {
            "bufferView" : 8,
            "componentType" : 5123,
            "count" : 252,
            "type" : "SCALAR"
        },
        {
            "bufferView" : 10,
            "componentType" : 5126,
            "count" : 57,
            "max" : [
                13.674300193786621,
                6.110990047454834,
                5.2617998123168945
            ],
            "min" : [
                -13.674799919128418,
                0.7834219932556152,
                2.6858699321746826
            ],
            "type" : "VEC3"
        },
        {
            "bufferView" : 11,
            "componentType" : 5126,
            "count" : 57,
            "type" : "VEC3"
        },
        {
            "bufferView" : 12,
            "componentType" : 5126,
            "count" : 57,
            "type" : "VEC2"
        },
        {
            "bufferView" : 13,
            "componentType" : 5123,
            "count" : 204,
            "type" : "SCALAR"
        },
        {
            "bufferView" : 15,
            "componentType" : 5126,
            "count" : 20,
            "max" : [
                3.4424099922180176,
                -2.472640037536621,
                -0.21206900477409363
            ],
            "min" : [
                -3.4424099922180176,
                -5.459270000457764,
                -6.219510078430176
            ],
            "type" : "VEC3"
        },
        {
            "bufferView" : 16,
            "componentType" : 5126,
            "count" : 20,
            "type" : "VEC3"
        },
        {
            "bufferView" : 17,
            "componentType" : 5126,
            "count" : 20,
            "type" : "VEC2"
        },
        {
            "bufferView" : 18,
            "componentType" : 5123,
            "count" : 24,
            "type" : "SCALAR"
        },
        {
            "bufferView" : 20,
            "componentType" : 5126,
            "count" : 213,
            "max" : [
                4.191810131072998,
                -1.809999942779541,
                0.6190639734268188
            ],
            "min" : [
                -4.191810131072998,
                -6.493889808654785,
                -7.318490028381348
            ],
            "type" : "VEC3"
        },
        {
            "bufferView" : 21,
            "componentType" : 5126,
            "count" : 213,
            "type" : "VEC3"
        },
        {
            "bufferView" : 22,
            "componentType" : 5126,
            "count" : 213,
            "type" : "VEC2"
        },
        {
            "bufferView" : 23,
            "componentType" : 5123,
            "count" : 390,
            "type" : "SCALAR"
        },
        {
            "bufferView" : 25,
            "componentType" : 5126,
            "count" : 64,
            "max" : [
                5.59876012802124,
                -4.663660049438477,
                1.3038500547409058
            ],
            "min" : [
                -5.59876012802124,
                -7.776490211486816,
                -6.429269790649414
            ],
            "type" : "VEC3"
        },
        {
            "bufferView" : 26,
            "componentType" : 5126,
            "count" : 64,
            "type" : "VEC3"
        },
        {
            "bufferView" : 27,
            "componentType" : 5126,
            "count" : 64,
            "type" : "VEC2"
        },
        {
            "bufferView" : 28,
            "componentType" : 5123,
            "count" : 144,
            "type" : "SCALAR"
        },
        {
            "bufferView" : 30,
            "componentType" : 5126,
            "count" : 65,
            "max" : [
                0.4102410078048706,
                -6.967700004577637,
                17.045400619506836
            ],
            "min" : [
                -0.3932420015335083,
                -15.84570026397705,
                0.36246201395988464
            ],
            "type" : "VEC3"
        },
        {
            "bufferView" : 31,
            "componentType" : 5126,
            "count" : 65,
            "type" : "VEC3"
        },
        {
            "bufferView" : 32,
            "componentType" : 5126,
            "count" : 65,
            "type" : "VEC2"
        },
        {
            "bufferView" : 33,
            "componentType" : 5123,
            "count" : 300,
            "type" : "SCALAR"
        },
        {
            "bufferView" : 35,
            "componentType" : 5126,
            "count" : 22,
            "max" : [
                1.1148500442504883,
                -15.196200370788574,
                19.74370002746582
            ],
            "min" : [
                -1.0792100429534912,
                -17.357200622558594,
                16.51799964904785
            ],
            "type" : "VEC3"
        },
        {
            "bufferView" : 36,
            "componentType" : 5126,
            "count" : 22,
            "type" : "VEC3"
        },
        {
            "bufferView" : 37,
            "componentType" : 5126,
            "count" : 22,
            "type" : "VEC2"
        },
        {
            "bufferView" : 38,
            "componentType" : 5123,
            "count" : 90,
            "type" : "SCALAR"
        },
        {
            "bufferView" : 40,
            "componentType" : 5126,
            "count" : 26,
            "max" : [
                3.1772000789642334,
                -3.523289918899536,
                -4.6681599617004395
            ],
            "min" : [
                -3.228909969329834,
                -5.378530025482178,
                -5.470640182495117
            ],
            "type" : "VEC3"
        },
        {
            "bufferView" : 41,
            "componentType" : 5126,
            "count" : 26,
            "type" : "VEC3"
        },
        {
            "bufferView" : 42,
            "componentType" : 5126,
            "count" : 26,
            "type" : "VEC2"
        },
        {
            "bufferView" : 43,
            "componentType" : 5123,
            "count" : 72,
            "type" : "SCALAR"
        },
        {
            "bufferView" : 45,
            "componentType" : 5126,
            "count" : 120,
            "max" : [
                2.604379892349243,
                -1.3250600099563599,
                -3.5673599243164062
            ],
            "min" : [
                -2.604379892349243,
                -3.5752100944519043,
                -5.326330184936523
            ],
            "type" : "VEC3"
        },
        {
            "bufferView" : 46,
            "componentType" : 5126,
            "count" : 120,
            "type" : "VEC3"
        },
        {
            "bufferView" : 47,
            "componentType" : 5126,
            "count" : 120,
            "type" : "VEC2"
        },
        {
            "bufferView" : 48,
            "componentType" : 5123,
            "count" : 360,
            "type" : "SCALAR"
        }
    ],
    "bufferViews" : [
        {
            "buffer" : 0,
            "byteLength" : 504,
            "byteOffset" : 0
        },
        {
            "buffer" : 0,
            "byteLength" : 504,
            "byteOffset" : 504
        },
        {
            "buffer" : 0,
            "byteLength" : 336,
            "byteOffset" : 1008
        },
        {
            "buffer" : 0,
            "byteLength" : 120,
            "byteOffset" : 1344
        },
        {
            "buffer" : 0,
            "byteLength" : 301,
            "byteOffset" : 1464
        },
        {
            "buffer" : 0,
            "byteLength" : 1788,
            "byteOffset" : 1768
        },
        {
            "buffer" : 0,
            "byteLength" : 1788,
            "byteOffset" : 3556
        },
        {
            "buffer" : 0,
            "byteLength" : 1192,
            "byteOffset" : 5344
        },
        {
            "buffer" : 0,
            "byteLength" : 504,
            "byteOffset" : 6536
        },
        {
            "buffer" : 0,
            "byteLength" : 638,
            "byteOffset" : 7040
        },
        {
            "buffer" : 0,
            "byteLength" : 684,
            "byteOffset" : 7680
        },
        {
            "buffer" : 0,
            "byteLength" : 684,
            "byteOffset" : 8364
        },
        {
            "buffer" : 0,
            "byteLength" : 456,
            "byteOffset" : 9048
        },
        {
            "buffer" : 0,
            "byteLength" : 408,
            "byteOffset" : 9504
        },
        {
            "buffer" : 0,
            "byteLength" : 1528,
            "byteOffset" : 9912
        },
        {
            "buffer" : 0,
            "byteLength" : 240,
            "byteOffset" : 11440
        },
        {
            "buffer" : 0,
            "byteLength" : 240,
            "byteOffset" : 11680
        },
        {
            "buffer" : 0,
            "byteLength" : 160,
            "byteOffset" : 11920
        },
        {
            "buffer" : 0,
            "byteLength" : 48,
            "byteOffset" : 12080
        },
        {
            "buffer" : 0,
            "byteLength" : 689,
            "byteOffset" : 12128
        },
        {
            "buffer" : 0,
            "byteLength" : 2556,
            "byteOffset" : 12820
        },
        {
            "buffer" : 0,
            "byteLength" : 2556,
            "byteOffset" : 15376
        },
        {
            "buffer" : 0,
            "byteLength" : 1704,
            "byteOffset" : 17932
        },
        {
            "buffer" : 0,
            "byteLength" : 780,
            "byteOffset" : 19636
        },
        {
            "buffer" : 0,
            "byteLength" : 95,
            "byteOffset" : 20416
        },
        {
            "buffer" : 0,
            "byteLength" : 768,
            "byteOffset" : 20512
        },
        {
            "buffer" : 0,
            "byteLength" : 768,
            "byteOffset" : 21280
        },
        {
            "buffer" : 0,
            "byteLength" : 512,
            "byteOffset" : 22048
        },
        {
            "buffer" : 0,
            "byteLength" : 288,
            "byteOffset" : 22560
        },
        {
            "buffer" : 0,
            "byteLength" : 1082,
            "byteOffset" : 22848
        },
        {
            "buffer" : 0,
            "byteLength" : 780,
            "byteOffset" : 23932
        },
        {
            "buffer" : 0,
            "byteLength" : 780,
            "byteOffset" : 24712
        },
        {
            "buffer" : 0,
            "byteLength" : 520,
            "byteOffset" : 25492
        },
        {
            "buffer" : 0,
            "byteLength" : 600,
            "byteOffset" : 26012
        },
        {
            "buffer" : 0,
            "byteLength" : 75,
            "byteOffset" : 26612
        },
        {
            "buffer" : 0,
            "byteLength" : 264,
            "byteOffset" : 26688
        },
        {
            "buffer" : 0,
            "byteLength" : 264,
            "byteOffset" : 26952
        },
        {
            "buffer" : 0,
            "byteLength" : 176,
            "byteOffset" : 27216
        },
        {
            "buffer" : 0,
            "byteLength" : 180,
            "byteOffset" : 27392
        },
        {
            "buffer" : 0,
            "byteLength" : 95,
            "byteOffset" : 27572
        },
        {
            "buffer" : 0,
            "byteLength" : 312,
            "byteOffset" : 27668
        },
        {
            "buffer" : 0,
            "byteLength" : 312,
            "byteOffset" : 27980
        },
        {
            "buffer" : 0,
            "byteLength" : 208,
            "byteOffset" : 28292
        },
        {
            "buffer" : 0,
            "byteLength" : 144,
            "byteOffset" : 28500
        },
        {
            "buffer" : 0,
            "byteLength" : 85,
            "byteOffset" : 28644
        },
        {
            "buffer" : 0,
            "byteLength" : 1440,
            "byteOffset" : 28732
        },
        {
            "buffer" : 0,
            "byteLength" : 1440,
            "byteOffset" : 30172
        },
        {
            "buffer" : 0,
            "byteLength" : 960,
            "byteOffset" : 31612
        },
        {
            "buffer" : 0,
            "byteLength" : 720,
            "byteOffset" : 32572
        },
        {
            "buffer" : 0,
            "byteLength" : 3917,
            "byteOffset" : 33292
        }
    ],
    "buffers" : [
        {
            "byteLength" : 37212,
            "uri" : "data:application/octet-stream;base64,"
        }
    ]
}
