{
    "asset" : {
        "generator" : "Khronos Blender glTF 2.0 I/O",
        "version" : "2.0"
    },
    "scene" : 0,
    "scenes" : [
        {
            "name" : "Scene",
            "nodes" : [
                0
            ]
        }
    ],
    "nodes" : [
        {
            "mesh" : 0,
            "name" : "ruffresia",
            "rotation" : [
                1,
                0,
                0,
                -1.6292068494294654e-07
            ]
        }
    ],
    "materials" : [
        {
            "name" : "mat_0.008",
            "pbrMetallicRoughness" : {
                "baseColorTexture" : {
                    "index" : 0,
                    "texCoord" : 0
                },
                "metallicFactor" : 0,
                "roughnessFactor" : 0.6732679605484009
            }
        },
        {
            "name" : "mat_1.007",
            "pbrMetallicRoughness" : {
                "baseColorTexture" : {
                    "index" : 1,
                    "texCoord" : 0
                },
                "metallicFactor" : 0,
                "roughnessFactor" : 0.6732679605484009
            }
        },
        {
            "name" : "mat_2.007",
            "pbrMetallicRoughness" : {
                "baseColorTexture" : {
                    "index" : 2,
                    "texCoord" : 0
                },
                "metallicFactor" : 0,
                "roughnessFactor" : 0.6732679605484009
            }
        },
        {
            "name" : "mat_3.003",
            "pbrMetallicRoughness" : {
                "baseColorTexture" : {
                    "index" : 3,
                    "texCoord" : 0
                },
                "metallicFactor" : 0,
                "roughnessFactor" : 0.6732679605484009
            }
        },
        {
            "name" : "mat_4.003",
            "pbrMetallicRoughness" : {
                "baseColorTexture" : {
                    "index" : 4,
                    "texCoord" : 0
                },
                "metallicFactor" : 0,
                "roughnessFactor" : 0.6732679605484009
            }
        }
    ],
    "meshes" : [
        {
            "name" : "ruffresia",
            "primitives" : [
                {
                    "attributes" : {
                        "POSITION" : 0,
                        "NORMAL" : 1,
                        "TEXCOORD_0" : 2
                    },
                    "indices" : 3,
                    "material" : 0
                },
                {
                    "attributes" : {
                        "POSITION" : 4,
                        "NORMAL" : 5,
                        "TEXCOORD_0" : 6
                    },
                    "indices" : 7,
                    "material" : 1
                },
                {
                    "attributes" : {
                        "POSITION" : 8,
                        "NORMAL" : 9,
                        "TEXCOORD_0" : 10
                    },
                    "indices" : 11,
                    "material" : 2
                },
                {
                    "attributes" : {
                        "POSITION" : 12,
                        "NORMAL" : 13,
                        "TEXCOORD_0" : 14
                    },
                    "indices" : 15,
                    "material" : 3
                },
                {
                    "attributes" : {
                        "POSITION" : 16,
                        "NORMAL" : 17,
                        "TEXCOORD_0" : 18
                    },
                    "indices" : 19,
                    "material" : 4
                }
            ]
        }
    ],
    "textures" : [
        {
            "source" : 0
        },
        {
            "source" : 1
        },
        {
            "source" : 2
        },
        {
            "source" : 3
        },
        {
            "source" : 4
        }
    ],
    "images" : [
        {
            "bufferView" : 4,
            "mimeType" : "image/png",
            "name" : "ruffresia_0_0.tga"
        },
        {
            "bufferView" : 9,
            "mimeType" : "image/png",
            "name" : "ruffresia_0_1.tga"
        },
        {
            "bufferView" : 14,
            "mimeType" : "image/png",
            "name" : "ruffresia_0_2.tga"
        },
        {
            "bufferView" : 19,
            "mimeType" : "image/png",
            "name" : "ruffresia_0_3.tga"
        },
        {
            "bufferView" : 24,
            "mimeType" : "image/png",
            "name" : "ruffresia_0_4.tga"
        }
    ],
    "accessors" : [
        {
            "bufferView" : 0,
            "componentType" : 5126,
            "count" : 345,
            "max" : [
                6.032979965209961,
                0.06743700057268143,
                4.2858500480651855
            ],
            "min" : [
                -6.032979965209961,
                -9.382729530334473,
                -4.032219886779785
            ],
            "type" : "VEC3"
        },
        {
            "bufferView" : 1,
            "componentType" : 5126,
            "count" : 345,
            "type" : "VEC3"
        },
        {
            "bufferView" : 2,
            "componentType" : 5126,
            "count" : 345,
            "type" : "VEC2"
        },
        {
            "bufferView" : 3,
            "componentType" : 5123,
            "count" : 1368,
            "type" : "SCALAR"
        },
        {
            "bufferView" : 5,
            "componentType" : 5126,
            "count" : 6,
            "max" : [
                1.532349944114685,
                -4.402810096740723,
                -3.4640400409698486
            ],
            "min" : [
                -1.532349944114685,
                -6.315159797668457,
                -4.032219886779785
            ],
            "type" : "VEC3"
        },
        {
            "bufferView" : 6,
            "componentType" : 5126,
            "count" : 6,
            "type" : "VEC3"
        },
        {
            "bufferView" : 7,
            "componentType" : 5126,
            "count" : 6,
            "type" : "VEC2"
        },
        {
            "bufferView" : 8,
            "componentType" : 5123,
            "count" : 12,
            "type" : "SCALAR"
        },
        {
            "bufferView" : 10,
            "componentType" : 5126,
            "count" : 345,
            "max" : [
                11.403499603271484,
                -7.1027398109436035,
                10.50979995727539
            ],
            "min" : [
                -11.26039981842041,
                -12.166999816894531,
                -11.70740032196045
            ],
            "type" : "VEC3"
        },
        {
            "bufferView" : 11,
            "componentType" : 5126,
            "count" : 345,
            "type" : "VEC3"
        },
        {
            "bufferView" : 12,
            "componentType" : 5126,
            "count" : 345,
            "type" : "VEC2"
        },
        {
            "bufferView" : 13,
            "componentType" : 5123,
            "count" : 1050,
            "type" : "SCALAR"
        },
        {
            "bufferView" : 15,
            "componentType" : 5126,
            "count" : 30,
            "max" : [
                1.8085299730300903,
                -11.175800323486328,
                1.0330100059509277
            ],
            "min" : [
                -1.808519959449768,
                -11.537300109863281,
                -2.405869960784912
            ],
            "type" : "VEC3"
        },
        {
            "bufferView" : 16,
            "componentType" : 5126,
            "count" : 30,
            "type" : "VEC3"
        },
        {
            "bufferView" : 17,
            "componentType" : 5126,
            "count" : 30,
            "type" : "VEC2"
        },
        {
            "bufferView" : 18,
            "componentType" : 5123,
            "count" : 36,
            "type" : "SCALAR"
        },
        {
            "bufferView" : 20,
            "componentType" : 5126,
            "count" : 172,
            "max" : [
                2.6445400714874268,
                -8.726110458374023,
                2.076539993286133
            ],
            "min" : [
                -2.6445400714874268,
                -12.015899658203125,
                -3.0851199626922607
            ],
            "type" : "VEC3"
        },
        {
            "bufferView" : 21,
            "componentType" : 5126,
            "count" : 172,
            "type" : "VEC3"
        },
        {
            "bufferView" : 22,
            "componentType" : 5126,
            "count" : 172,
            "type" : "VEC2"
        },
        {
            "bufferView" : 23,
            "componentType" : 5123,
            "count" : 360,
            "type" : "SCALAR"
        }
    ],
    "bufferViews" : [
        {
            "buffer" : 0,
            "byteLength" : 4140,
            "byteOffset" : 0
        },
        {
            "buffer" : 0,
            "byteLength" : 4140,
            "byteOffset" : 4140
        },
        {
            "buffer" : 0,
            "byteLength" : 2760,
            "byteOffset" : 8280
        },
        {
            "buffer" : 0,
            "byteLength" : 2736,
            "byteOffset" : 11040
        },
        {
            "buffer" : 0,
            "byteLength" : 3758,
            "byteOffset" : 13776
        },
        {
            "buffer" : 0,
            "byteLength" : 72,
            "byteOffset" : 17536
        },
        {
            "buffer" : 0,
            "byteLength" : 72,
            "byteOffset" : 17608
        },
        {
            "buffer" : 0,
            "byteLength" : 48,
            "byteOffset" : 17680
        },
        {
            "buffer" : 0,
            "byteLength" : 24,
            "byteOffset" : 17728
        },
        {
            "buffer" : 0,
            "byteLength" : 5336,
            "byteOffset" : 17752
        },
        {
            "buffer" : 0,
            "byteLength" : 4140,
            "byteOffset" : 23088
        },
        {
            "buffer" : 0,
            "byteLength" : 4140,
            "byteOffset" : 27228
        },
        {
            "buffer" : 0,
            "byteLength" : 2760,
            "byteOffset" : 31368
        },
        {
            "buffer" : 0,
            "byteLength" : 2100,
            "byteOffset" : 34128
        },
        {
            "buffer" : 0,
            "byteLength" : 3519,
            "byteOffset" : 36228
        },
        {
            "buffer" : 0,
            "byteLength" : 360,
            "byteOffset" : 39748
        },
        {
            "buffer" : 0,
            "byteLength" : 360,
            "byteOffset" : 40108
        },
        {
            "buffer" : 0,
            "byteLength" : 240,
            "byteOffset" : 40468
        },
        {
            "buffer" : 0,
            "byteLength" : 72,
            "byteOffset" : 40708
        },
        {
            "buffer" : 0,
            "byteLength" : 82,
            "byteOffset" : 40780
        },
        {
            "buffer" : 0,
            "byteLength" : 2064,
            "byteOffset" : 40864
        },
        {
            "buffer" : 0,
            "byteLength" : 2064,
            "byteOffset" : 42928
        },
        {
            "buffer" : 0,
            "byteLength" : 1376,
            "byteOffset" : 44992
        },
        {
            "buffer" : 0,
            "byteLength" : 720,
            "byteOffset" : 46368
        },
        {
            "buffer" : 0,
            "byteLength" : 227,
            "byteOffset" : 47088
        }
    ],
    "buffers" : [
        {
            "byteLength" : 47316,
            "uri" : "data:application/octet-stream;base64,"
        }
    ]
}
