{
    "asset" : {
        "generator" : "Khronos Blender glTF 2.0 I/O",
        "version" : "2.0"
    },
    "scene" : 0,
    "scenes" : [
        {
            "name" : "1",
            "nodes" : [
                0
            ]
        }
    ],
    "nodes" : [
        {
            "mesh" : 0,
            "name" : "beedle_mat_0"
        }
    ],
    "materials" : [
        {
            "doubleSided" : true,
            "name" : "mat_0",
            "pbrMetallicRoughness" : {
                "baseColorTexture" : {
                    "index" : 0,
                    "texCoord" : 0
                },
                "metallicFactor" : 0,
                "roughnessFactor" : 0.5
            }
        },
        {
            "doubleSided" : true,
            "name" : "mat_1",
            "pbrMetallicRoughness" : {
                "baseColorTexture" : {
                    "index" : 1,
                    "texCoord" : 0
                },
                "metallicFactor" : 0,
                "roughnessFactor" : 0.5
            }
        },
        {
            "doubleSided" : true,
            "name" : "mat_2",
            "pbrMetallicRoughness" : {
                "baseColorTexture" : {
                    "index" : 2,
                    "texCoord" : 0
                },
                "metallicFactor" : 0,
                "roughnessFactor" : 0.5
            }
        }
    ],
    "meshes" : [
        {
            "name" : "beedle_mat_0",
            "primitives" : [
                {
                    "attributes" : {
                        "POSITION" : 0,
                        "NORMAL" : 1,
                        "TEXCOORD_0" : 2
                    },
                    "indices" : 3,
                    "material" : 0
                },
                {
                    "attributes" : {
                        "POSITION" : 4,
                        "NORMAL" : 5,
                        "TEXCOORD_0" : 6
                    },
                    "indices" : 7,
                    "material" : 1
                },
                {
                    "attributes" : {
                        "POSITION" : 8,
                        "NORMAL" : 9,
                        "TEXCOORD_0" : 10
                    },
                    "indices" : 11,
                    "material" : 2
                }
            ]
        }
    ],
    "textures" : [
        {
            "source" : 0
        },
        {
            "source" : 1
        },
        {
            "source" : 2
        }
    ],
    "images" : [
        {
            "bufferView" : 4,
            "mimeType" : "image/png",
            "name" : "beedle_0_0.tga"
        },
        {
            "bufferView" : 9,
            "mimeType" : "image/png",
            "name" : "beedle_0_0.tga"
        },
        {
            "bufferView" : 14,
            "mimeType" : "image/png",
            "name" : "beedle_0_0.tga"
        }
    ],
    "accessors" : [
        {
            "bufferView" : 0,
            "componentType" : 5126,
            "count" : 364,
            "max" : [
                0.6868619918823242,
                2.4348349571228027,
                0.4365119934082031
            ],
            "min" : [
                -0.6868529915809631,
                -0.012910068035125732,
                -2.505929946899414
            ],
            "type" : "VEC3"
        },
        {
            "bufferView" : 1,
            "componentType" : 5126,
            "count" : 364,
            "type" : "VEC3"
        },
        {
            "bufferView" : 2,
            "componentType" : 5126,
            "count" : 364,
            "type" : "VEC2"
        },
        {
            "bufferView" : 3,
            "componentType" : 5123,
            "count" : 1479,
            "type" : "SCALAR"
        },
        {
            "bufferView" : 5,
            "componentType" : 5126,
            "count" : 8,
            "max" : [
                0.5491830110549927,
                2.247683048248291,
                0.42886900901794434
            ],
            "min" : [
                -0.5491759181022644,
                1.9876928329467773,
                0.08405303955078125
            ],
            "type" : "VEC3"
        },
        {
            "bufferView" : 6,
            "componentType" : 5126,
            "count" : 8,
            "type" : "VEC3"
        },
        {
            "bufferView" : 7,
            "componentType" : 5126,
            "count" : 8,
            "type" : "VEC2"
        },
        {
            "bufferView" : 8,
            "componentType" : 5123,
            "count" : 12,
            "type" : "SCALAR"
        },
        {
            "bufferView" : 10,
            "componentType" : 5126,
            "count" : 347,
            "max" : [
                0.5400000214576721,
                3.0979790687561035,
                0.7190259695053101
            ],
            "min" : [
                -0.5400000214576721,
                0.11416983604431152,
                -3.028310775756836
            ],
            "type" : "VEC3"
        },
        {
            "bufferView" : 11,
            "componentType" : 5126,
            "count" : 347,
            "type" : "VEC3"
        },
        {
            "bufferView" : 12,
            "componentType" : 5126,
            "count" : 347,
            "type" : "VEC2"
        },
        {
            "bufferView" : 13,
            "componentType" : 5123,
            "count" : 1371,
            "type" : "SCALAR"
        }
    ],
    "bufferViews" : [
        {
            "buffer" : 0,
            "byteLength" : 4368,
            "byteOffset" : 0
        },
        {
            "buffer" : 0,
            "byteLength" : 4368,
            "byteOffset" : 4368
        },
        {
            "buffer" : 0,
            "byteLength" : 2912,
            "byteOffset" : 8736
        },
        {
            "buffer" : 0,
            "byteLength" : 2958,
            "byteOffset" : 11648
        },
        {
            "buffer" : 0,
            "byteLength" : 7871,
            "byteOffset" : 14608
        },
        {
            "buffer" : 0,
            "byteLength" : 96,
            "byteOffset" : 22480
        },
        {
            "buffer" : 0,
            "byteLength" : 96,
            "byteOffset" : 22576
        },
        {
            "buffer" : 0,
            "byteLength" : 64,
            "byteOffset" : 22672
        },
        {
            "buffer" : 0,
            "byteLength" : 24,
            "byteOffset" : 22736
        },
        {
            "buffer" : 0,
            "byteLength" : 7871,
            "byteOffset" : 22760
        },
        {
            "buffer" : 0,
            "byteLength" : 4164,
            "byteOffset" : 30632
        },
        {
            "buffer" : 0,
            "byteLength" : 4164,
            "byteOffset" : 34796
        },
        {
            "buffer" : 0,
            "byteLength" : 2776,
            "byteOffset" : 38960
        },
        {
            "buffer" : 0,
            "byteLength" : 2742,
            "byteOffset" : 41736
        },
        {
            "buffer" : 0,
            "byteLength" : 7871,
            "byteOffset" : 44480
        }
    ],
    "buffers" : [
        {
            "byteLength" : 52352,
            "uri" : "data:application/octet-stream;base64,"
        }
    ]
}
