{
    "asset" : {
        "generator" : "Khronos Blender glTF 2.0 I/O",
        "version" : "2.0"
    },
    "scene" : 0,
    "scenes" : [
        {
            "name" : "Scene",
            "nodes" : [
                0
            ]
        }
    ],
    "nodes" : [
        {
            "mesh" : 0,
            "name" : "utsudon",
            "rotation" : [
                1,
                0,
                0,
                -1.6292068494294654e-07
            ]
        }
    ],
    "materials" : [
        {
            "name" : "mat_0",
            "pbrMetallicRoughness" : {
                "baseColorTexture" : {
                    "index" : 0,
                    "texCoord" : 0
                },
                "metallicFactor" : 0,
                "roughnessFactor" : 0.6732679605484009
            }
        },
        {
            "name" : "mat_1",
            "pbrMetallicRoughness" : {
                "baseColorTexture" : {
                    "index" : 1,
                    "texCoord" : 0
                },
                "metallicFactor" : 0,
                "roughnessFactor" : 0.6732679605484009
            }
        },
        {
            "name" : "mat_2",
            "pbrMetallicRoughness" : {
                "baseColorTexture" : {
                    "index" : 2,
                    "texCoord" : 0
                },
                "metallicFactor" : 0,
                "roughnessFactor" : 0.6732679605484009
            }
        },
        {
            "name" : "mat_3",
            "pbrMetallicRoughness" : {
                "baseColorTexture" : {
                    "index" : 3,
                    "texCoord" : 0
                },
                "metallicFactor" : 0,
                "roughnessFactor" : 0.6732679605484009
            }
        },
        {
            "name" : "mat_4",
            "pbrMetallicRoughness" : {
                "baseColorTexture" : {
                    "index" : 4,
                    "texCoord" : 0
                },
                "metallicFactor" : 0,
                "roughnessFactor" : 0.6732679605484009
            }
        },
        {
            "name" : "mat_5",
            "pbrMetallicRoughness" : {
                "baseColorTexture" : {
                    "index" : 5,
                    "texCoord" : 0
                },
                "metallicFactor" : 0,
                "roughnessFactor" : 0.6732679605484009
            }
        },
        {
            "name" : "mat_6",
            "pbrMetallicRoughness" : {
                "baseColorTexture" : {
                    "index" : 6,
                    "texCoord" : 0
                },
                "metallicFactor" : 0,
                "roughnessFactor" : 0.6732679605484009
            }
        },
        {
            "name" : "mat_7",
            "pbrMetallicRoughness" : {
                "baseColorTexture" : {
                    "index" : 7,
                    "texCoord" : 0
                },
                "metallicFactor" : 0,
                "roughnessFactor" : 0.6732679605484009
            }
        }
    ],
    "meshes" : [
        {
            "name" : "utsudon",
            "primitives" : [
                {
                    "attributes" : {
                        "POSITION" : 0,
                        "NORMAL" : 1,
                        "TEXCOORD_0" : 2
                    },
                    "indices" : 3,
                    "material" : 0
                },
                {
                    "attributes" : {
                        "POSITION" : 4,
                        "NORMAL" : 5,
                        "TEXCOORD_0" : 6
                    },
                    "indices" : 7,
                    "material" : 1
                },
                {
                    "attributes" : {
                        "POSITION" : 8,
                        "NORMAL" : 9,
                        "TEXCOORD_0" : 10
                    },
                    "indices" : 11,
                    "material" : 2
                },
                {
                    "attributes" : {
                        "POSITION" : 12,
                        "NORMAL" : 13,
                        "TEXCOORD_0" : 14
                    },
                    "indices" : 15,
                    "material" : 3
                },
                {
                    "attributes" : {
                        "POSITION" : 16,
                        "NORMAL" : 17,
                        "TEXCOORD_0" : 18
                    },
                    "indices" : 19,
                    "material" : 4
                },
                {
                    "attributes" : {
                        "POSITION" : 20,
                        "NORMAL" : 21,
                        "TEXCOORD_0" : 22
                    },
                    "indices" : 23,
                    "material" : 5
                },
                {
                    "attributes" : {
                        "POSITION" : 24,
                        "NORMAL" : 25,
                        "TEXCOORD_0" : 26
                    },
                    "indices" : 27,
                    "material" : 6
                },
                {
                    "attributes" : {
                        "POSITION" : 28,
                        "NORMAL" : 29,
                        "TEXCOORD_0" : 30
                    },
                    "indices" : 31,
                    "material" : 7
                }
            ]
        }
    ],
    "textures" : [
        {
            "source" : 0
        },
        {
            "source" : 1
        },
        {
            "source" : 2
        },
        {
            "source" : 3
        },
        {
            "source" : 4
        },
        {
            "source" : 5
        },
        {
            "source" : 6
        },
        {
            "source" : 7
        }
    ],
    "images" : [
        {
            "bufferView" : 4,
            "mimeType" : "image/png",
            "name" : "utsudon_0_0.tga"
        },
        {
            "bufferView" : 9,
            "mimeType" : "image/png",
            "name" : "utsudon_0_1.tga"
        },
        {
            "bufferView" : 14,
            "mimeType" : "image/png",
            "name" : "utsudon_0_2.tga"
        },
        {
            "bufferView" : 19,
            "mimeType" : "image/png",
            "name" : "utsudon_0_3.tga"
        },
        {
            "bufferView" : 24,
            "mimeType" : "image/png",
            "name" : "utsudon_0_4.tga"
        },
        {
            "bufferView" : 29,
            "mimeType" : "image/png",
            "name" : "utsudon_0_5.tga"
        },
        {
            "bufferView" : 34,
            "mimeType" : "image/png",
            "name" : "utsudon_0_6.tga"
        },
        {
            "bufferView" : 39,
            "mimeType" : "image/png",
            "name" : "utsudon_0_7.tga"
        }
    ],
    "accessors" : [
        {
            "bufferView" : 0,
            "componentType" : 5126,
            "count" : 136,
            "max" : [
                2.5,
                2.799999952316284,
                2.5
            ],
            "min" : [
                -2.5,
                -3.5999999046325684,
                -2.5
            ],
            "type" : "VEC3"
        },
        {
            "bufferView" : 1,
            "componentType" : 5126,
            "count" : 136,
            "type" : "VEC3"
        },
        {
            "bufferView" : 2,
            "componentType" : 5126,
            "count" : 136,
            "type" : "VEC2"
        },
        {
            "bufferView" : 3,
            "componentType" : 5123,
            "count" : 336,
            "type" : "SCALAR"
        },
        {
            "bufferView" : 5,
            "componentType" : 5126,
            "count" : 11,
            "max" : [
                1.4735499620437622,
                -1.7534899711608887,
                -0.7286549806594849
            ],
            "min" : [
                -1.4735499620437622,
                -3.364799976348877,
                -2.0839099884033203
            ],
            "type" : "VEC3"
        },
        {
            "bufferView" : 6,
            "componentType" : 5126,
            "count" : 11,
            "type" : "VEC3"
        },
        {
            "bufferView" : 7,
            "componentType" : 5126,
            "count" : 11,
            "type" : "VEC2"
        },
        {
            "bufferView" : 8,
            "componentType" : 5123,
            "count" : 24,
            "type" : "SCALAR"
        },
        {
            "bufferView" : 10,
            "componentType" : 5126,
            "count" : 22,
            "max" : [
                0.8987150192260742,
                -3.1799399852752686,
                0.6820610165596008
            ],
            "min" : [
                -0.8987150192260742,
                -4.064509868621826,
                -1.108530044555664
            ],
            "type" : "VEC3"
        },
        {
            "bufferView" : 11,
            "componentType" : 5126,
            "count" : 22,
            "type" : "VEC3"
        },
        {
            "bufferView" : 12,
            "componentType" : 5126,
            "count" : 22,
            "type" : "VEC2"
        },
        {
            "bufferView" : 13,
            "componentType" : 5123,
            "count" : 72,
            "type" : "SCALAR"
        },
        {
            "bufferView" : 15,
            "componentType" : 5126,
            "count" : 75,
            "max" : [
                0.25760701298713684,
                -3.728300094604492,
                -0.038120999932289124
            ],
            "min" : [
                -0.25760701298713684,
                -7.356369972229004,
                -0.6910560131072998
            ],
            "type" : "VEC3"
        },
        {
            "bufferView" : 16,
            "componentType" : 5126,
            "count" : 75,
            "type" : "VEC3"
        },
        {
            "bufferView" : 17,
            "componentType" : 5126,
            "count" : 75,
            "type" : "VEC2"
        },
        {
            "bufferView" : 18,
            "componentType" : 5123,
            "count" : 159,
            "type" : "SCALAR"
        },
        {
            "bufferView" : 20,
            "componentType" : 5126,
            "count" : 122,
            "max" : [
                1.7515699863433838,
                0.8837500214576721,
                -1.4938299655914307
            ],
            "min" : [
                -1.677899956703186,
                -0.6837499737739563,
                -2.559959888458252
            ],
            "type" : "VEC3"
        },
        {
            "bufferView" : 21,
            "componentType" : 5126,
            "count" : 122,
            "type" : "VEC3"
        },
        {
            "bufferView" : 22,
            "componentType" : 5126,
            "count" : 122,
            "type" : "VEC2"
        },
        {
            "bufferView" : 23,
            "componentType" : 5123,
            "count" : 504,
            "type" : "SCALAR"
        },
        {
            "bufferView" : 25,
            "componentType" : 5126,
            "count" : 120,
            "max" : [
                7.777959823608398,
                1.675469994544983,
                0.7263870239257812
            ],
            "min" : [
                -7.778019905090332,
                -1.4682799577713013,
                -0.8531200289726257
            ],
            "type" : "VEC3"
        },
        {
            "bufferView" : 26,
            "componentType" : 5126,
            "count" : 120,
            "type" : "VEC3"
        },
        {
            "bufferView" : 27,
            "componentType" : 5126,
            "count" : 120,
            "type" : "VEC2"
        },
        {
            "bufferView" : 28,
            "componentType" : 5123,
            "count" : 360,
            "type" : "SCALAR"
        },
        {
            "bufferView" : 30,
            "componentType" : 5126,
            "count" : 24,
            "max" : [
                2.5,
                2.799999952316284,
                2.5
            ],
            "min" : [
                -2.5,
                2.799999952316284,
                -2.5
            ],
            "type" : "VEC3"
        },
        {
            "bufferView" : 31,
            "componentType" : 5126,
            "count" : 24,
            "type" : "VEC3"
        },
        {
            "bufferView" : 32,
            "componentType" : 5126,
            "count" : 24,
            "type" : "VEC2"
        },
        {
            "bufferView" : 33,
            "componentType" : 5123,
            "count" : 24,
            "type" : "SCALAR"
        },
        {
            "bufferView" : 35,
            "componentType" : 5126,
            "count" : 175,
            "max" : [
                2.897779941558838,
                3.425529956817627,
                2.897779941558838
            ],
            "min" : [
                -2.897779941558838,
                2.4744699001312256,
                -2.897779941558838
            ],
            "type" : "VEC3"
        },
        {
            "bufferView" : 36,
            "componentType" : 5126,
            "count" : 175,
            "type" : "VEC3"
        },
        {
            "bufferView" : 37,
            "componentType" : 5126,
            "count" : 175,
            "type" : "VEC2"
        },
        {
            "bufferView" : 38,
            "componentType" : 5123,
            "count" : 390,
            "type" : "SCALAR"
        }
    ],
    "bufferViews" : [
        {
            "buffer" : 0,
            "byteLength" : 1632,
            "byteOffset" : 0
        },
        {
            "buffer" : 0,
            "byteLength" : 1632,
            "byteOffset" : 1632
        },
        {
            "buffer" : 0,
            "byteLength" : 1088,
            "byteOffset" : 3264
        },
        {
            "buffer" : 0,
            "byteLength" : 672,
            "byteOffset" : 4352
        },
        {
            "buffer" : 0,
            "byteLength" : 75,
            "byteOffset" : 5024
        },
        {
            "buffer" : 0,
            "byteLength" : 132,
            "byteOffset" : 5100
        },
        {
            "buffer" : 0,
            "byteLength" : 132,
            "byteOffset" : 5232
        },
        {
            "buffer" : 0,
            "byteLength" : 88,
            "byteOffset" : 5364
        },
        {
            "buffer" : 0,
            "byteLength" : 48,
            "byteOffset" : 5452
        },
        {
            "buffer" : 0,
            "byteLength" : 351,
            "byteOffset" : 5500
        },
        {
            "buffer" : 0,
            "byteLength" : 264,
            "byteOffset" : 5852
        },
        {
            "buffer" : 0,
            "byteLength" : 264,
            "byteOffset" : 6116
        },
        {
            "buffer" : 0,
            "byteLength" : 176,
            "byteOffset" : 6380
        },
        {
            "buffer" : 0,
            "byteLength" : 144,
            "byteOffset" : 6556
        },
        {
            "buffer" : 0,
            "byteLength" : 81,
            "byteOffset" : 6700
        },
        {
            "buffer" : 0,
            "byteLength" : 900,
            "byteOffset" : 6784
        },
        {
            "buffer" : 0,
            "byteLength" : 900,
            "byteOffset" : 7684
        },
        {
            "buffer" : 0,
            "byteLength" : 600,
            "byteOffset" : 8584
        },
        {
            "buffer" : 0,
            "byteLength" : 318,
            "byteOffset" : 9184
        },
        {
            "buffer" : 0,
            "byteLength" : 75,
            "byteOffset" : 9504
        },
        {
            "buffer" : 0,
            "byteLength" : 1464,
            "byteOffset" : 9580
        },
        {
            "buffer" : 0,
            "byteLength" : 1464,
            "byteOffset" : 11044
        },
        {
            "buffer" : 0,
            "byteLength" : 976,
            "byteOffset" : 12508
        },
        {
            "buffer" : 0,
            "byteLength" : 1008,
            "byteOffset" : 13484
        },
        {
            "buffer" : 0,
            "byteLength" : 1021,
            "byteOffset" : 14492
        },
        {
            "buffer" : 0,
            "byteLength" : 1440,
            "byteOffset" : 15516
        },
        {
            "buffer" : 0,
            "byteLength" : 1440,
            "byteOffset" : 16956
        },
        {
            "buffer" : 0,
            "byteLength" : 960,
            "byteOffset" : 18396
        },
        {
            "buffer" : 0,
            "byteLength" : 720,
            "byteOffset" : 19356
        },
        {
            "buffer" : 0,
            "byteLength" : 93,
            "byteOffset" : 20076
        },
        {
            "buffer" : 0,
            "byteLength" : 288,
            "byteOffset" : 20172
        },
        {
            "buffer" : 0,
            "byteLength" : 288,
            "byteOffset" : 20460
        },
        {
            "buffer" : 0,
            "byteLength" : 192,
            "byteOffset" : 20748
        },
        {
            "buffer" : 0,
            "byteLength" : 48,
            "byteOffset" : 20940
        },
        {
            "buffer" : 0,
            "byteLength" : 384,
            "byteOffset" : 20988
        },
        {
            "buffer" : 0,
            "byteLength" : 2100,
            "byteOffset" : 21372
        },
        {
            "buffer" : 0,
            "byteLength" : 2100,
            "byteOffset" : 23472
        },
        {
            "buffer" : 0,
            "byteLength" : 1400,
            "byteOffset" : 25572
        },
        {
            "buffer" : 0,
            "byteLength" : 780,
            "byteOffset" : 26972
        },
        {
            "buffer" : 0,
            "byteLength" : 93,
            "byteOffset" : 27752
        }
    ],
    "buffers" : [
        {
            "byteLength" : 27848,
            "uri" : "data:application/octet-stream;base64,"
        }
    ]
}
