{
    "asset" : {
        "generator" : "Khronos Blender glTF 2.0 I/O",
        "version" : "2.0"
    },
    "scene" : 0,
    "scenes" : [
        {
            "name" : "Scene",
            "nodes" : [
                0
            ]
        }
    ],
    "nodes" : [
        {
            "mesh" : 0,
            "name" : "matadogas",
            "rotation" : [
                1,
                0,
                0,
                -1.6292068494294654e-07
            ],
            "translation" : [
                0,
                12.329395294189453,
                0
            ]
        }
    ],
    "materials" : [
        {
            "name" : "mat_1.004",
            "pbrMetallicRoughness" : {
                "baseColorTexture" : {
                    "index" : 0,
                    "texCoord" : 0
                },
                "metallicFactor" : 0,
                "roughnessFactor" : 0.6732679605484009
            }
        },
        {
            "name" : "mat_2.004",
            "pbrMetallicRoughness" : {
                "baseColorTexture" : {
                    "index" : 1,
                    "texCoord" : 0
                },
                "metallicFactor" : 0,
                "roughnessFactor" : 0.6732679605484009
            }
        },
        {
            "name" : "mat_3.004",
            "pbrMetallicRoughness" : {
                "baseColorTexture" : {
                    "index" : 2,
                    "texCoord" : 0
                },
                "metallicFactor" : 0,
                "roughnessFactor" : 0.6732679605484009
            }
        },
        {
            "name" : "mat_4.004",
            "pbrMetallicRoughness" : {
                "baseColorTexture" : {
                    "index" : 3,
                    "texCoord" : 0
                },
                "metallicFactor" : 0,
                "roughnessFactor" : 0.6732679605484009
            }
        },
        {
            "name" : "mat_5.003",
            "pbrMetallicRoughness" : {
                "baseColorTexture" : {
                    "index" : 4,
                    "texCoord" : 0
                },
                "metallicFactor" : 0,
                "roughnessFactor" : 0.6732679605484009
            }
        },
        {
            "name" : "mat_6.003",
            "pbrMetallicRoughness" : {
                "baseColorTexture" : {
                    "index" : 5,
                    "texCoord" : 0
                },
                "metallicFactor" : 0,
                "roughnessFactor" : 0.6732679605484009
            }
        },
        {
            "name" : "mat_7.003",
            "pbrMetallicRoughness" : {
                "baseColorTexture" : {
                    "index" : 6,
                    "texCoord" : 0
                },
                "metallicFactor" : 0,
                "roughnessFactor" : 0.6732679605484009
            }
        }
    ],
    "meshes" : [
        {
            "name" : "matadogas",
            "primitives" : [
                {
                    "attributes" : {
                        "POSITION" : 0,
                        "NORMAL" : 1,
                        "TEXCOORD_0" : 2
                    },
                    "indices" : 3,
                    "material" : 0
                },
                {
                    "attributes" : {
                        "POSITION" : 4,
                        "NORMAL" : 5,
                        "TEXCOORD_0" : 6
                    },
                    "indices" : 7,
                    "material" : 1
                },
                {
                    "attributes" : {
                        "POSITION" : 8,
                        "NORMAL" : 9,
                        "TEXCOORD_0" : 10
                    },
                    "indices" : 11,
                    "material" : 2
                },
                {
                    "attributes" : {
                        "POSITION" : 12,
                        "NORMAL" : 13,
                        "TEXCOORD_0" : 14
                    },
                    "indices" : 15,
                    "material" : 3
                },
                {
                    "attributes" : {
                        "POSITION" : 16,
                        "NORMAL" : 17,
                        "TEXCOORD_0" : 18
                    },
                    "indices" : 19,
                    "material" : 4
                },
                {
                    "attributes" : {
                        "POSITION" : 20,
                        "NORMAL" : 21,
                        "TEXCOORD_0" : 22
                    },
                    "indices" : 23,
                    "material" : 5
                },
                {
                    "attributes" : {
                        "POSITION" : 24,
                        "NORMAL" : 25,
                        "TEXCOORD_0" : 26
                    },
                    "indices" : 27,
                    "material" : 6
                }
            ]
        }
    ],
    "textures" : [
        {
            "source" : 0
        },
        {
            "source" : 1
        },
        {
            "source" : 2
        },
        {
            "source" : 3
        },
        {
            "source" : 4
        },
        {
            "source" : 5
        },
        {
            "source" : 6
        }
    ],
    "images" : [
        {
            "bufferView" : 4,
            "mimeType" : "image/png",
            "name" : "matadogas_0_0.tga"
        },
        {
            "bufferView" : 9,
            "mimeType" : "image/png",
            "name" : "matadogas_0_1.tga"
        },
        {
            "bufferView" : 14,
            "mimeType" : "image/png",
            "name" : "matadogas_0_2.tga"
        },
        {
            "bufferView" : 19,
            "mimeType" : "image/png",
            "name" : "matadogas_0_3.tga"
        },
        {
            "bufferView" : 24,
            "mimeType" : "image/png",
            "name" : "matadogas_0_4.tga"
        },
        {
            "bufferView" : 29,
            "mimeType" : "image/png",
            "name" : "matadogas_0_5.tga"
        },
        {
            "bufferView" : 34,
            "mimeType" : "image/png",
            "name" : "matadogas_0_6.tga"
        }
    ],
    "accessors" : [
        {
            "bufferView" : 0,
            "componentType" : 5126,
            "count" : 470,
            "max" : [
                7.608980178833008,
                8.42255973815918,
                5.375569820404053
            ],
            "min" : [
                -7.360000133514404,
                -6.031710147857666,
                -5.096260070800781
            ],
            "type" : "VEC3"
        },
        {
            "bufferView" : 1,
            "componentType" : 5126,
            "count" : 470,
            "type" : "VEC3"
        },
        {
            "bufferView" : 2,
            "componentType" : 5126,
            "count" : 470,
            "type" : "VEC2"
        },
        {
            "bufferView" : 3,
            "componentType" : 5123,
            "count" : 1557,
            "type" : "SCALAR"
        },
        {
            "bufferView" : 5,
            "componentType" : 5126,
            "count" : 9,
            "max" : [
                6.643809795379639,
                0.9993550181388855,
                -1.4457299709320068
            ],
            "min" : [
                1.584149956703186,
                -3.6031200885772705,
                -3.3468000888824463
            ],
            "type" : "VEC3"
        },
        {
            "bufferView" : 6,
            "componentType" : 5126,
            "count" : 9,
            "type" : "VEC3"
        },
        {
            "bufferView" : 7,
            "componentType" : 5126,
            "count" : 9,
            "type" : "VEC2"
        },
        {
            "bufferView" : 8,
            "componentType" : 5123,
            "count" : 21,
            "type" : "SCALAR"
        },
        {
            "bufferView" : 10,
            "componentType" : 5126,
            "count" : 12,
            "max" : [
                7.165130138397217,
                -0.1782819926738739,
                0.13213300704956055
            ],
            "min" : [
                1.8182100057601929,
                -4.9363298416137695,
                -3.2718300819396973
            ],
            "type" : "VEC3"
        },
        {
            "bufferView" : 11,
            "componentType" : 5126,
            "count" : 12,
            "type" : "VEC3"
        },
        {
            "bufferView" : 12,
            "componentType" : 5126,
            "count" : 12,
            "type" : "VEC2"
        },
        {
            "bufferView" : 13,
            "componentType" : 5123,
            "count" : 36,
            "type" : "SCALAR"
        },
        {
            "bufferView" : 15,
            "componentType" : 5126,
            "count" : 58,
            "max" : [
                0.9384250044822693,
                -1.7062499523162842,
                0.6973779797554016
            ],
            "min" : [
                -6.706140041351318,
                -5.326200008392334,
                -3.931299924850464
            ],
            "type" : "VEC3"
        },
        {
            "bufferView" : 16,
            "componentType" : 5126,
            "count" : 58,
            "type" : "VEC3"
        },
        {
            "bufferView" : 17,
            "componentType" : 5126,
            "count" : 58,
            "type" : "VEC2"
        },
        {
            "bufferView" : 18,
            "componentType" : 5123,
            "count" : 234,
            "type" : "SCALAR"
        },
        {
            "bufferView" : 20,
            "componentType" : 5126,
            "count" : 18,
            "max" : [
                -0.23833799362182617,
                -0.3445360064506531,
                -0.7892770171165466
            ],
            "min" : [
                -6.534599781036377,
                -1.613800048828125,
                -5.096260070800781
            ],
            "type" : "VEC3"
        },
        {
            "bufferView" : 21,
            "componentType" : 5126,
            "count" : 18,
            "type" : "VEC3"
        },
        {
            "bufferView" : 22,
            "componentType" : 5126,
            "count" : 18,
            "type" : "VEC2"
        },
        {
            "bufferView" : 23,
            "componentType" : 5123,
            "count" : 48,
            "type" : "SCALAR"
        },
        {
            "bufferView" : 25,
            "componentType" : 5126,
            "count" : 18,
            "max" : [
                -0.23833799362182617,
                -0.3445360064506531,
                -0.7892770171165466
            ],
            "min" : [
                -6.433549880981445,
                -2.9024500846862793,
                -4.461460113525391
            ],
            "type" : "VEC3"
        },
        {
            "bufferView" : 26,
            "componentType" : 5126,
            "count" : 18,
            "type" : "VEC3"
        },
        {
            "bufferView" : 27,
            "componentType" : 5126,
            "count" : 18,
            "type" : "VEC2"
        },
        {
            "bufferView" : 28,
            "componentType" : 5123,
            "count" : 48,
            "type" : "SCALAR"
        },
        {
            "bufferView" : 30,
            "componentType" : 5126,
            "count" : 17,
            "max" : [
                -0.4295459985733032,
                3.9118900299072266,
                -1.3553999662399292
            ],
            "min" : [
                -6.674330234527588,
                -1.0274499654769897,
                -4.604050159454346
            ],
            "type" : "VEC3"
        },
        {
            "bufferView" : 31,
            "componentType" : 5126,
            "count" : 17,
            "type" : "VEC3"
        },
        {
            "bufferView" : 32,
            "componentType" : 5126,
            "count" : 17,
            "type" : "VEC2"
        },
        {
            "bufferView" : 33,
            "componentType" : 5123,
            "count" : 54,
            "type" : "SCALAR"
        }
    ],
    "bufferViews" : [
        {
            "buffer" : 0,
            "byteLength" : 5640,
            "byteOffset" : 0
        },
        {
            "buffer" : 0,
            "byteLength" : 5640,
            "byteOffset" : 5640
        },
        {
            "buffer" : 0,
            "byteLength" : 3760,
            "byteOffset" : 11280
        },
        {
            "buffer" : 0,
            "byteLength" : 3114,
            "byteOffset" : 15040
        },
        {
            "buffer" : 0,
            "byteLength" : 75,
            "byteOffset" : 18156
        },
        {
            "buffer" : 0,
            "byteLength" : 108,
            "byteOffset" : 18232
        },
        {
            "buffer" : 0,
            "byteLength" : 108,
            "byteOffset" : 18340
        },
        {
            "buffer" : 0,
            "byteLength" : 72,
            "byteOffset" : 18448
        },
        {
            "buffer" : 0,
            "byteLength" : 42,
            "byteOffset" : 18520
        },
        {
            "buffer" : 0,
            "byteLength" : 1238,
            "byteOffset" : 18564
        },
        {
            "buffer" : 0,
            "byteLength" : 144,
            "byteOffset" : 19804
        },
        {
            "buffer" : 0,
            "byteLength" : 144,
            "byteOffset" : 19948
        },
        {
            "buffer" : 0,
            "byteLength" : 96,
            "byteOffset" : 20092
        },
        {
            "buffer" : 0,
            "byteLength" : 72,
            "byteOffset" : 20188
        },
        {
            "buffer" : 0,
            "byteLength" : 8250,
            "byteOffset" : 20260
        },
        {
            "buffer" : 0,
            "byteLength" : 696,
            "byteOffset" : 28512
        },
        {
            "buffer" : 0,
            "byteLength" : 696,
            "byteOffset" : 29208
        },
        {
            "buffer" : 0,
            "byteLength" : 464,
            "byteOffset" : 29904
        },
        {
            "buffer" : 0,
            "byteLength" : 468,
            "byteOffset" : 30368
        },
        {
            "buffer" : 0,
            "byteLength" : 1548,
            "byteOffset" : 30836
        },
        {
            "buffer" : 0,
            "byteLength" : 216,
            "byteOffset" : 32384
        },
        {
            "buffer" : 0,
            "byteLength" : 216,
            "byteOffset" : 32600
        },
        {
            "buffer" : 0,
            "byteLength" : 144,
            "byteOffset" : 32816
        },
        {
            "buffer" : 0,
            "byteLength" : 96,
            "byteOffset" : 32960
        },
        {
            "buffer" : 0,
            "byteLength" : 891,
            "byteOffset" : 33056
        },
        {
            "buffer" : 0,
            "byteLength" : 216,
            "byteOffset" : 33948
        },
        {
            "buffer" : 0,
            "byteLength" : 216,
            "byteOffset" : 34164
        },
        {
            "buffer" : 0,
            "byteLength" : 144,
            "byteOffset" : 34380
        },
        {
            "buffer" : 0,
            "byteLength" : 96,
            "byteOffset" : 34524
        },
        {
            "buffer" : 0,
            "byteLength" : 498,
            "byteOffset" : 34620
        },
        {
            "buffer" : 0,
            "byteLength" : 204,
            "byteOffset" : 35120
        },
        {
            "buffer" : 0,
            "byteLength" : 204,
            "byteOffset" : 35324
        },
        {
            "buffer" : 0,
            "byteLength" : 136,
            "byteOffset" : 35528
        },
        {
            "buffer" : 0,
            "byteLength" : 108,
            "byteOffset" : 35664
        },
        {
            "buffer" : 0,
            "byteLength" : 3351,
            "byteOffset" : 35772
        }
    ],
    "buffers" : [
        {
            "byteLength" : 39124,
            "uri" : "data:application/octet-stream;base64,"
        }
    ]
}
