{
    "asset" : {
        "generator" : "Khronos Blender glTF 2.0 I/O",
        "version" : "2.0"
    },
    "scene" : 0,
    "scenes" : [
        {
            "name" : "Scene",
            "nodes" : [
                0
            ]
        }
    ],
    "nodes" : [
        {
            "mesh" : 0,
            "name" : "pukurin",
            "rotation" : [
                1,
                0,
                0,
                -1.6292068494294654e-07
            ]
        }
    ],
    "materials" : [
        {
            "name" : "mat_0.006",
            "pbrMetallicRoughness" : {
                "baseColorTexture" : {
                    "index" : 0,
                    "texCoord" : 0
                },
                "metallicFactor" : 0,
                "roughnessFactor" : 0.6732679605484009
            }
        },
        {
            "name" : "mat_1.006",
            "pbrMetallicRoughness" : {
                "baseColorTexture" : {
                    "index" : 1,
                    "texCoord" : 0
                },
                "metallicFactor" : 0,
                "roughnessFactor" : 0.6732679605484009
            }
        },
        {
            "name" : "mat_2.006",
            "pbrMetallicRoughness" : {
                "baseColorTexture" : {
                    "index" : 2,
                    "texCoord" : 0
                },
                "metallicFactor" : 0,
                "roughnessFactor" : 0.6732679605484009
            }
        }
    ],
    "meshes" : [
        {
            "name" : "pukurin",
            "primitives" : [
                {
                    "attributes" : {
                        "POSITION" : 0,
                        "NORMAL" : 1,
                        "TEXCOORD_0" : 2
                    },
                    "indices" : 3,
                    "material" : 0
                },
                {
                    "attributes" : {
                        "POSITION" : 4,
                        "NORMAL" : 5,
                        "TEXCOORD_0" : 6
                    },
                    "indices" : 7,
                    "material" : 1
                },
                {
                    "attributes" : {
                        "POSITION" : 8,
                        "NORMAL" : 9,
                        "TEXCOORD_0" : 10
                    },
                    "indices" : 11,
                    "material" : 2
                }
            ]
        }
    ],
    "textures" : [
        {
            "source" : 0
        },
        {
            "source" : 1
        },
        {
            "source" : 2
        }
    ],
    "images" : [
        {
            "bufferView" : 4,
            "mimeType" : "image/png",
            "name" : "pukurin_0_0.tga"
        },
        {
            "bufferView" : 9,
            "mimeType" : "image/png",
            "name" : "pukurin_0_0.tga"
        },
        {
            "bufferView" : 14,
            "mimeType" : "image/png",
            "name" : "pukurin_0_0.tga"
        }
    ],
    "accessors" : [
        {
            "bufferView" : 0,
            "componentType" : 5126,
            "count" : 54,
            "max" : [
                3.2666690349578857,
                -6.134580135345459,
                -1.6222599744796753
            ],
            "min" : [
                -3.2666690349578857,
                -9.066390037536621,
                -3.481790065765381
            ],
            "type" : "VEC3"
        },
        {
            "bufferView" : 1,
            "componentType" : 5126,
            "count" : 54,
            "type" : "VEC3"
        },
        {
            "bufferView" : 2,
            "componentType" : 5126,
            "count" : 54,
            "type" : "VEC2"
        },
        {
            "bufferView" : 3,
            "componentType" : 5123,
            "count" : 204,
            "type" : "SCALAR"
        },
        {
            "bufferView" : 5,
            "componentType" : 5126,
            "count" : 2332,
            "max" : [
                6.299959182739258,
                0.003700000001117587,
                3.0476601123809814
            ],
            "min" : [
                -6.299959182739258,
                -12.047761917114258,
                -4.296901226043701
            ],
            "type" : "VEC3"
        },
        {
            "bufferView" : 6,
            "componentType" : 5126,
            "count" : 2332,
            "type" : "VEC3"
        },
        {
            "bufferView" : 7,
            "componentType" : 5126,
            "count" : 2332,
            "type" : "VEC2"
        },
        {
            "bufferView" : 8,
            "componentType" : 5123,
            "count" : 7926,
            "type" : "SCALAR"
        },
        {
            "bufferView" : 10,
            "componentType" : 5126,
            "count" : 15,
            "max" : [
                1.6326689720153809,
                -5.759990215301514,
                -3.307229995727539
            ],
            "min" : [
                -1.6326689720153809,
                -7.3472700119018555,
                -3.8167099952697754
            ],
            "type" : "VEC3"
        },
        {
            "bufferView" : 11,
            "componentType" : 5126,
            "count" : 15,
            "type" : "VEC3"
        },
        {
            "bufferView" : 12,
            "componentType" : 5126,
            "count" : 15,
            "type" : "VEC2"
        },
        {
            "bufferView" : 13,
            "componentType" : 5123,
            "count" : 48,
            "type" : "SCALAR"
        }
    ],
    "bufferViews" : [
        {
            "buffer" : 0,
            "byteLength" : 648,
            "byteOffset" : 0
        },
        {
            "buffer" : 0,
            "byteLength" : 648,
            "byteOffset" : 648
        },
        {
            "buffer" : 0,
            "byteLength" : 432,
            "byteOffset" : 1296
        },
        {
            "buffer" : 0,
            "byteLength" : 408,
            "byteOffset" : 1728
        },
        {
            "buffer" : 0,
            "byteLength" : 23772,
            "byteOffset" : 2136
        },
        {
            "buffer" : 0,
            "byteLength" : 27984,
            "byteOffset" : 25908
        },
        {
            "buffer" : 0,
            "byteLength" : 27984,
            "byteOffset" : 53892
        },
        {
            "buffer" : 0,
            "byteLength" : 18656,
            "byteOffset" : 81876
        },
        {
            "buffer" : 0,
            "byteLength" : 15852,
            "byteOffset" : 100532
        },
        {
            "buffer" : 0,
            "byteLength" : 23772,
            "byteOffset" : 116384
        },
        {
            "buffer" : 0,
            "byteLength" : 180,
            "byteOffset" : 140156
        },
        {
            "buffer" : 0,
            "byteLength" : 180,
            "byteOffset" : 140336
        },
        {
            "buffer" : 0,
            "byteLength" : 120,
            "byteOffset" : 140516
        },
        {
            "buffer" : 0,
            "byteLength" : 96,
            "byteOffset" : 140636
        },
        {
            "buffer" : 0,
            "byteLength" : 23772,
            "byteOffset" : 140732
        }
    ],
    "buffers" : [
        {
            "byteLength" : 164504,
            "uri" : "data:application/octet-stream;base64,"
        }
    ]
}
