{
    "asset" : {
        "generator" : "Khronos Blender glTF 2.0 I/O",
        "version" : "2.0"
    },
    "scene" : 0,
    "scenes" : [
        {
            "name" : "Scene",
            "nodes" : [
                0
            ]
        }
    ],
    "nodes" : [
        {
            "mesh" : 0,
            "name" : "thunder",
            "rotation" : [
                1,
                0,
                0,
                -1.6292068494294654e-07
            ],
            "translation" : [
                0,
                5.783607482910156,
                0
            ]
        }
    ],
    "materials" : [
        {
            "name" : "mat_0.002",
            "pbrMetallicRoughness" : {
                "baseColorTexture" : {
                    "index" : 0,
                    "texCoord" : 0
                },
                "metallicFactor" : 0,
                "roughnessFactor" : 0.6732679605484009
            }
        },
        {
            "name" : "mat_1.002",
            "pbrMetallicRoughness" : {
                "baseColorTexture" : {
                    "index" : 1,
                    "texCoord" : 0
                },
                "metallicFactor" : 0,
                "roughnessFactor" : 0.6732679605484009
            }
        }
    ],
    "meshes" : [
        {
            "name" : "thunder",
            "primitives" : [
                {
                    "attributes" : {
                        "POSITION" : 0,
                        "NORMAL" : 1,
                        "TEXCOORD_0" : 2
                    },
                    "indices" : 3,
                    "material" : 0
                },
                {
                    "attributes" : {
                        "POSITION" : 4,
                        "NORMAL" : 5,
                        "TEXCOORD_0" : 6
                    },
                    "indices" : 7,
                    "material" : 1
                }
            ]
        }
    ],
    "textures" : [
        {
            "source" : 0
        },
        {
            "source" : 1
        }
    ],
    "images" : [
        {
            "bufferView" : 4,
            "mimeType" : "image/png",
            "name" : "thunder_0_0.tga"
        },
        {
            "bufferView" : 9,
            "mimeType" : "image/png",
            "name" : "thunder_0_1.tga"
        }
    ],
    "accessors" : [
        {
            "bufferView" : 0,
            "componentType" : 5126,
            "count" : 1903,
            "max" : [
                15.097784996032715,
                7.545278072357178,
                5.551708221435547
            ],
            "min" : [
                -15.097784996032715,
                -10.45722484588623,
                -10.354379653930664
            ],
            "type" : "VEC3"
        },
        {
            "bufferView" : 1,
            "componentType" : 5126,
            "count" : 1903,
            "type" : "VEC3"
        },
        {
            "bufferView" : 2,
            "componentType" : 5126,
            "count" : 1903,
            "type" : "VEC2"
        },
        {
            "bufferView" : 3,
            "componentType" : 5123,
            "count" : 7344,
            "type" : "SCALAR"
        },
        {
            "bufferView" : 5,
            "componentType" : 5126,
            "count" : 16,
            "max" : [
                1.004438042640686,
                -4.309730052947998,
                -3.7400619983673096
            ],
            "min" : [
                -1.004438042640686,
                -5.333528995513916,
                -4.6970930099487305
            ],
            "type" : "VEC3"
        },
        {
            "bufferView" : 6,
            "componentType" : 5126,
            "count" : 16,
            "type" : "VEC3"
        },
        {
            "bufferView" : 7,
            "componentType" : 5126,
            "count" : 16,
            "type" : "VEC2"
        },
        {
            "bufferView" : 8,
            "componentType" : 5123,
            "count" : 36,
            "type" : "SCALAR"
        }
    ],
    "bufferViews" : [
        {
            "buffer" : 0,
            "byteLength" : 22836,
            "byteOffset" : 0
        },
        {
            "buffer" : 0,
            "byteLength" : 22836,
            "byteOffset" : 22836
        },
        {
            "buffer" : 0,
            "byteLength" : 15224,
            "byteOffset" : 45672
        },
        {
            "buffer" : 0,
            "byteLength" : 14688,
            "byteOffset" : 60896
        },
        {
            "buffer" : 0,
            "byteLength" : 5865,
            "byteOffset" : 75584
        },
        {
            "buffer" : 0,
            "byteLength" : 192,
            "byteOffset" : 81452
        },
        {
            "buffer" : 0,
            "byteLength" : 192,
            "byteOffset" : 81644
        },
        {
            "buffer" : 0,
            "byteLength" : 128,
            "byteOffset" : 81836
        },
        {
            "buffer" : 0,
            "byteLength" : 72,
            "byteOffset" : 81964
        },
        {
            "buffer" : 0,
            "byteLength" : 5481,
            "byteOffset" : 82036
        }
    ],
    "buffers" : [
        {
            "byteLength" : 87520,
            "uri" : "data:application/octet-stream;base64,"
        }
    ]
}
